<?xml version="1.0" encoding="UTF-8"?>
<svg version="1.1" xmlns="http://www.w3.org/2000/svg" width="512" height="512">
<path d="M0 0 C18.11013772 15.32044479 30.72255945 34.80201725 37.09375 57.65625 C37.57328125 59.28626953 37.57328125 59.28626953 38.0625 60.94921875 C41.68486852 75.52254397 41.78564347 92.89425355 39.09375 107.65625 C40.228125 107.8625 41.3625 108.06875 42.53125 108.28125 C49.24776078 109.9514303 55.7011445 114.30873026 60.09375 119.65625 C60.09375 120.31625 60.09375 120.97625 60.09375 121.65625 C60.73441406 121.18574219 61.37507813 120.71523438 62.03515625 120.23046875 C73.46095883 112.00593425 83.02024747 109.66299087 97.09375 110.65625 C104.90044085 112.24113503 111.26841381 115.23224178 117.09375 120.65625 C117.78339844 121.29304687 118.47304688 121.92984375 119.18359375 122.5859375 C127.14580045 130.68158901 130.53445996 140.04674052 130.65625 151.28125 C130.45423503 162.79866034 126.52551067 173.39272452 118.15234375 181.546875 C116.50899568 182.9677901 114.80674157 184.32011658 113.09375 185.65625 C113.73079361 186.7930143 113.73079361 186.7930143 114.38070679 187.95274353 C119.00472901 196.91058604 119.96506577 204.1586324 119.8203125 214.22265625 C119.81927197 215.67422992 119.82032021 217.12580641 119.82333374 218.57737732 C119.82315602 221.59051643 119.80263835 224.60256588 119.76611328 227.61547852 C119.72037053 231.47253591 119.7197337 235.32803321 119.73314857 239.18528843 C119.73982887 242.16997625 119.72657356 245.15430893 119.70689011 248.13892937 C119.6992143 249.56184978 119.69687797 250.98480971 119.7000618 252.40774727 C119.70080424 254.38854032 119.67258519 256.36928028 119.64306641 258.34985352 C119.63385162 259.47424332 119.62463684 260.59863312 119.61514282 261.75709534 C118.96797116 265.35563116 118.05079804 266.54160363 115.09375 268.65625 C112.65879822 269.15745544 112.65879822 269.15745544 109.91381836 269.15795898 C108.36717751 269.17203041 108.36717751 269.17203041 106.78929138 269.18638611 C105.12822105 269.16953514 105.12822105 269.16953514 103.43359375 269.15234375 C101.72146446 269.1545266 101.72146446 269.1545266 99.9747467 269.15675354 C97.56313523 269.15509422 95.15151321 269.1435294 92.73999023 269.12280273 C89.04169938 269.09383186 85.34484001 269.10219727 81.64648438 269.11523438 C79.30468051 269.10899763 76.96288118 269.10060719 74.62109375 269.08984375 C73.5116893 269.09277939 72.40228485 269.09571503 71.25926208 269.09873962 C69.71734947 269.07971336 69.71734947 269.07971336 68.14428711 269.06030273 C67.23923935 269.05489975 66.33419159 269.04949677 65.40171814 269.04393005 C62.60047185 268.57339179 61.74550913 267.94111642 60.09375 265.65625 C59.11935147 262.88593019 58.95003304 260.26853129 58.88842773 257.34667969 C58.86848251 256.50611023 58.84853729 255.66554077 58.82798767 254.79949951 C58.80291893 253.45241913 58.80291893 253.45241913 58.77734375 252.078125 C58.75656265 251.1515509 58.73578156 250.22497681 58.71437073 249.27032471 C58.64908039 246.31570728 58.59008569 243.36100232 58.53125 240.40625 C58.48804527 238.40103268 58.44443035 236.39582415 58.40039062 234.390625 C58.29342001 229.47925596 58.19209482 224.56779903 58.09375 219.65625 C57.98305176 220.83131104 57.87235352 222.00637207 57.75830078 223.21704102 C57.3437119 227.59920184 56.9204467 231.98048951 56.49462891 236.36157227 C56.31194149 238.25359954 56.13157078 240.14585206 55.95361328 242.03833008 C55.69660466 244.76707249 55.4311248 247.49488165 55.1640625 250.22265625 C55.08688995 251.06147842 55.00971741 251.9003006 54.9302063 252.76454163 C54.4466667 257.60587751 53.78392242 262.07805529 52.09375 266.65625 C48.78108164 268.86469557 47.75652179 268.91124528 43.90052795 268.93040466 C42.82517288 268.94037979 41.74981781 268.95035492 40.64187622 268.96063232 C38.87213943 268.96162933 38.87213943 268.96162933 37.06665039 268.96264648 C35.82418045 268.97097 34.58171051 268.97929352 33.30158997 268.98786926 C29.89244797 269.00785876 26.48355038 269.01861375 23.07437062 269.02369571 C20.94476141 269.02733801 18.81517573 269.03357735 16.68557549 269.0406971 C9.25692588 269.06519226 1.82834613 269.07824397 -5.6003418 269.08178711 C-12.52659543 269.0854242 -19.45240643 269.11533125 -26.37852472 269.15719169 C-32.32426155 269.19186806 -38.26985147 269.20733507 -44.21568877 269.20803314 C-47.76729346 269.20882678 -51.31844716 269.2176041 -54.86994743 269.24603081 C-58.83005858 269.27701961 -62.78953144 269.26816448 -66.74975586 269.25561523 C-68.5164563 269.27786667 -68.5164563 269.27786667 -70.31884766 269.30056763 C-78.25134672 269.2287332 -78.25134672 269.2287332 -81.66603088 266.24378967 C-82.90625 263.65625 -82.90625 263.65625 -82.90625 261.65625 C-87.52625 261.65625 -92.14625 261.65625 -96.90625 261.65625 C-97.23625 263.30625 -97.56625 264.95625 -97.90625 266.65625 C-101.80842178 269.25769785 -105.10085322 268.95164439 -109.62866211 268.94677734 C-110.52000351 268.95349457 -111.41134491 268.96021179 -112.32969666 268.96713257 C-115.28105212 268.98615639 -118.23218076 268.99003885 -121.18359375 268.9921875 C-123.23238723 268.99861193 -125.28117978 269.00534002 -127.32997131 269.01235962 C-131.62649666 269.02434304 -135.92294154 269.0280393 -140.21948242 269.02685547 C-145.72894381 269.02665212 -151.2378903 269.05396627 -156.74722958 269.08839989 C-160.97911456 269.11061998 -165.21087461 269.11469453 -169.44281197 269.11363602 C-171.47422627 269.1159989 -173.50564366 269.12486086 -175.53700066 269.14030075 C-178.37651689 269.15986359 -181.21490962 269.15416118 -184.05444336 269.14208984 C-184.89561707 269.15332886 -185.73679077 269.16456787 -186.60345459 269.17614746 C-190.25272876 269.13665946 -192.43792258 269.00390775 -195.41239929 266.7958374 C-197.32937613 264.05022201 -197.64839458 262.03698924 -198.0234375 258.7109375 C-198.17006836 257.46795898 -198.31669922 256.22498047 -198.46777344 254.94433594 C-198.61541385 253.51512623 -198.76147921 252.08575323 -198.90625 250.65625 C-199.08077335 249.02633704 -199.25559124 247.3964556 -199.43066406 245.76660156 C-199.99238847 240.44084079 -200.51339625 235.11142422 -201.03125 229.78125 C-201.21456351 227.91794116 -201.39815541 226.05465968 -201.58203125 224.19140625 C-202.02664069 219.67999589 -202.46750503 215.16823431 -202.90625 210.65625 C-202.90989563 211.32388367 -202.91354126 211.99151733 -202.91729736 212.67938232 C-202.9590783 219.62254764 -203.02839326 226.5650492 -203.11376953 233.5078125 C-203.14201107 236.09954188 -203.16320965 238.69135789 -203.17724609 241.28320312 C-203.19863062 245.00696271 -203.24526086 248.72967701 -203.296875 252.453125 C-203.29810364 253.61366394 -203.29933228 254.77420288 -203.30059814 255.96990967 C-203.32031677 257.05072815 -203.3400354 258.13154663 -203.36035156 259.24511719 C-203.37367523 260.67074982 -203.37367523 260.67074982 -203.38726807 262.12518311 C-204.07129455 265.46116975 -205.1902703 266.64070449 -207.90625 268.65625 C-210.29650879 269.16418457 -210.29650879 269.16418457 -212.97851562 269.17382812 C-213.98636108 269.18643677 -214.99420654 269.19904541 -216.03259277 269.21203613 C-217.65614685 269.19989075 -217.65614685 269.19989075 -219.3125 269.1875 C-220.42935181 269.1913269 -221.54620361 269.19515381 -222.69689941 269.19909668 C-225.05721946 269.20181756 -227.41756957 269.1944442 -229.77783203 269.17773438 C-233.39293575 269.15632884 -237.00605193 269.17753178 -240.62109375 269.203125 C-242.91406689 269.20048176 -245.2070388 269.19535686 -247.5 269.1875 C-248.58236938 269.19559692 -249.66473877 269.20369385 -250.77990723 269.21203613 C-251.78775269 269.19942749 -252.79559814 269.18681885 -253.83398438 269.17382812 C-254.71904663 269.17064575 -255.60410889 269.16746338 -256.51599121 269.16418457 C-259.80057593 268.46620403 -260.94565519 267.36414063 -262.90625 264.65625 C-263.4209137 261.69894409 -263.4209137 261.69894409 -263.43969727 258.21044922 C-263.4555336 256.90163788 -263.47136993 255.59282654 -263.48768616 254.24435425 C-263.48384244 252.81654505 -263.47880214 251.38873865 -263.47265625 249.9609375 C-263.47789518 248.48845019 -263.48417265 247.01596624 -263.49143982 245.54348755 C-263.50184815 242.45493812 -263.49728233 239.36684915 -263.48266602 236.27832031 C-263.46556139 232.344155 -263.48886519 228.41146167 -263.52415562 224.47746086 C-263.54626626 221.43336532 -263.54465412 218.38961376 -263.5363903 215.3454628 C-263.53557658 213.89676433 -263.54232804 212.4480391 -263.55716133 210.99941635 C-263.64851492 200.45408392 -261.75615779 193.43111169 -255.90625 184.65625 C-256.49664062 184.38554687 -257.08703125 184.11484375 -257.6953125 183.8359375 C-266.4522862 179.16348864 -270.88485907 169.7204228 -273.90625 160.65625 C-275.12029273 147.55463577 -274.27425358 136.23078319 -266.28125 125.40625 C-258.48089103 116.30341922 -249.40255221 111.34945687 -237.59375 109.84375 C-224.8716918 109.02755101 -214.88799355 112.91577757 -204.90625 120.65625 C-204.4215625 120.12515625 -203.936875 119.5940625 -203.4375 119.046875 C-197.37515614 112.65809723 -191.8683031 108.55245531 -182.90625 107.65625 C-183.05707031 106.975625 -183.20789063 106.295 -183.36328125 105.59375 C-188.66998555 76.88409799 -180.97410919 46.3238456 -164.69140625 22.40234375 C-146.75474428 -2.2429706 -120.48919036 -19.65098165 -90.14331055 -24.51928711 C-57.55823356 -29.00823959 -25.54930235 -20.87356097 0 0 Z M-210.90625 184.65625 C-209.07133812 189.39643901 -206.98683541 194.02038251 -204.90625 198.65625 C-204.57625 198.65625 -204.24625 198.65625 -203.90625 198.65625 C-204.23625 192.71625 -204.56625 186.77625 -204.90625 180.65625 C-207.12739466 180.65625 -209.26503948 183.30961573 -210.90625 184.65625 Z M61.09375 181.65625 C60.2616918 187.37665011 59.97338336 192.87865116 60.09375 198.65625 C61.64002671 196.33683494 62.95557828 194.12645248 64.21875 191.65625 C64.57195312 190.975625 64.92515625 190.295 65.2890625 189.59375 C66.28552873 187.54415118 66.28552873 187.54415118 66.09375 184.65625 C63.64878957 182.93913757 63.64878957 182.93913757 61.09375 181.65625 Z M59.09375 199.65625 C59.09375 201.63625 59.09375 203.61625 59.09375 205.65625 C59.42375 205.65625 59.75375 205.65625 60.09375 205.65625 C60.09375 203.67625 60.09375 201.69625 60.09375 199.65625 C59.76375 199.65625 59.43375 199.65625 59.09375 199.65625 Z " fill="#010101" transform="translate(327.90625,243.34375)"/>
<path d="M0 0 C1.29562931 -0.00569124 2.59125862 -0.01138248 3.92614943 -0.01724619 C5.37248575 -0.01853888 6.81882217 -0.01972689 8.26515865 -0.02082157 C9.79504795 -0.02555142 11.32493599 -0.03070217 12.85482258 -0.03623921 C17.070121 -0.05016248 21.28541077 -0.05773376 25.50072634 -0.0642122 C29.11360446 -0.07057866 32.72646834 -0.08064942 36.33933759 -0.09077286 C48.2440941 -0.12411448 60.14885928 -0.14562195 72.05364719 -0.16397271 C75.15324809 -0.16876705 78.25284864 -0.17375045 81.35244918 -0.17877793 C100.59686964 -0.20974928 119.8412931 -0.23643733 139.08573151 -0.25319672 C143.54437992 -0.25714628 148.00302829 -0.26114926 152.4616766 -0.2652216 C154.12396023 -0.26673414 154.12396023 -0.26673414 155.81982534 -0.26827724 C173.77049134 -0.28528292 191.72101944 -0.32639016 209.67161811 -0.37724458 C228.09774317 -0.42901707 246.52379732 -0.45813854 264.9499945 -0.4653936 C275.29697549 -0.4700564 285.6437307 -0.48481343 295.99063969 -0.5251379 C304.80309962 -0.55944031 313.61529305 -0.57337636 322.42781592 -0.56071376 C326.92335832 -0.55488732 331.41833711 -0.55874955 335.91379452 -0.5888834 C340.0329366 -0.61626906 344.15111531 -0.61573044 348.27027904 -0.59337295 C349.75691277 -0.5901535 351.24361127 -0.59699827 352.73013742 -0.61517017 C361.92618736 -0.72073163 368.62138927 0.13279416 375.84912777 6.1398077 C380.88437395 12.05622196 382.09534846 18.59462429 382.11655331 26.21630001 C382.12108442 26.89309502 382.12561553 27.56989003 382.13028395 28.26719397 C382.14286014 30.51622547 382.14131203 32.7650127 382.13965511 35.01407528 C382.14564461 36.63433293 382.15245113 38.25458774 382.16001034 39.87483883 C382.17763462 44.2634009 382.18236421 48.65188491 382.18364191 53.04047894 C382.18506609 55.78591959 382.18934074 58.53134056 382.19463634 61.27677631 C382.21312479 70.86500331 382.22130844 80.4531748 382.21973324 90.04141903 C382.21853215 98.96249194 382.23963104 107.88332279 382.27122056 116.80433446 C382.29741831 124.477616 382.30809907 132.15081865 382.30682242 139.82414454 C382.30631382 144.40082996 382.31194061 148.97730013 382.33317852 153.55394077 C382.35262002 157.86081017 382.35264527 162.16726028 382.33814526 166.47414494 C382.33606337 168.04865034 382.34072087 169.62318239 382.35286617 171.19764233 C382.42255268 180.8626647 382.15284521 189.70353305 375.91944027 197.5773077 C375.27748714 198.0929327 374.63553402 198.6085577 373.97412777 199.1398077 C373.33733089 199.6760577 372.70053402 200.2123077 372.04444027 200.7648077 C366.46335717 204.2604327 361.72424632 204.17651668 355.34668636 203.95621395 C345.1300164 203.43752729 345.1300164 203.43752729 336.32178402 207.7179327 C333.90982463 210.5902946 332.03909644 213.77758751 330.16992855 217.02066708 C327.72384008 220.94526003 324.65074248 224.37301794 321.66162777 227.8898077 C320.46526939 229.33056959 319.2711846 230.77322302 318.07959652 232.2179327 C317.52191586 232.89275692 316.96423519 233.56758114 316.38965511 234.26285458 C314.38958369 236.69970863 312.42892342 239.16654955 310.47412777 241.6398077 C298.45014666 256.70848789 298.45014666 256.70848789 292.04444027 257.4757452 C285.81038512 257.55505888 281.64594691 257.57686541 276.84912777 253.1398077 C273.30571244 249.21332044 271.71932574 246.32546691 271.73560238 241.03555965 C271.73567791 240.21493542 271.73575344 239.39431118 271.73583126 238.54881954 C271.74099255 237.66747845 271.74615383 236.78613735 271.75147152 235.87808895 C271.75359394 234.51939945 271.75359394 234.51939945 271.75575924 233.13326168 C271.76135776 230.23957679 271.77390996 227.34596921 271.78662777 224.4523077 C271.79164296 222.49072028 271.79620584 220.52913164 271.80029964 218.56754208 C271.8113267 213.75826749 271.8285903 208.9490507 271.84912777 204.1398077 C270.94575806 204.14349487 270.04238834 204.14718204 269.11164379 204.15098095 C247.14570737 204.2392613 225.17980147 204.30548288 203.21372509 204.34705639 C192.59115134 204.36769464 181.9686959 204.39583939 171.34619808 204.44156551 C162.08922522 204.48139459 152.83233802 204.50723132 143.57528186 204.51616168 C138.67225686 204.52138309 133.76947697 204.5336815 128.86653042 204.56272793 C124.2536663 204.58983497 119.64114875 204.59826226 115.02821255 204.59223843 C113.33346328 204.59334078 111.63870268 204.60132276 109.94402218 204.6166296 C107.63284859 204.63648452 105.32298943 204.63176434 103.01178646 204.62082577 C101.71758911 204.62451294 100.42339176 204.62820011 99.08997631 204.63199902 C95.84912777 204.1398077 95.84912777 204.1398077 93.4014616 202.29724407 C91.84912777 200.1398077 91.84912777 200.1398077 91.84912777 197.1398077 C86.89912777 197.1398077 81.94912777 197.1398077 76.84912777 197.1398077 C76.51912777 198.7898077 76.18912777 200.4398077 75.84912777 202.1398077 C72.26609018 204.52849943 69.7038181 204.42917663 65.56714535 204.4144659 C64.82853268 204.41957684 64.08992001 204.42468777 63.32892513 204.42995358 C60.88375423 204.44386757 58.43886485 204.44289064 55.99365902 204.44058895 C54.29075167 204.4444766 52.58784528 204.44881142 50.88494015 204.45357418 C47.31136596 204.46104151 43.73789053 204.46074266 40.16431332 204.45548153 C35.59918451 204.44970442 31.03446374 204.46657255 26.46940231 204.4898262 C22.9493593 204.50461163 19.42941325 204.50542841 15.90934467 204.50231647 C14.2273411 204.50282788 12.54533184 204.50803143 10.8633585 204.5181284 C8.50133705 204.53056083 6.14009325 204.52365976 3.77808285 204.51212215 C2.74828556 204.52358776 2.74828556 204.52358776 1.69768429 204.535285 C-4.22649468 204.47180026 -9.49634476 203.0379123 -14.35790348 199.5616827 C-14.88770817 199.00996395 -15.41751286 198.4582452 -15.96337223 197.8898077 C-16.50606754 197.34840145 -17.04876286 196.8069952 -17.60790348 196.2491827 C-21.42758532 191.02733918 -22.52596312 186.30578013 -22.54528141 179.91145992 C-22.55137251 179.21833071 -22.55746362 178.52520149 -22.5637393 177.81106836 C-22.58028405 175.50665945 -22.57560593 173.20280828 -22.57079411 170.89835262 C-22.57813949 169.23868395 -22.58672708 167.57902037 -22.59645939 165.91936398 C-22.61863659 161.42333724 -22.62160792 156.927494 -22.61971188 152.43142009 C-22.61959198 148.67169334 -22.62816402 144.91200519 -22.63648939 141.15228921 C-22.65571043 132.27790383 -22.65861228 123.40361249 -22.65184879 114.529212 C-22.64521127 105.38995195 -22.66806369 96.25109582 -22.70516253 87.11191767 C-22.73590551 79.2517891 -22.7472145 71.39179014 -22.74332571 63.53160268 C-22.74126268 58.8430974 -22.74666804 54.1549064 -22.7712183 49.46645832 C-22.7935586 45.05444739 -22.79154753 40.64309076 -22.77129078 36.23107624 C-22.76789338 34.61787051 -22.77291478 33.00462012 -22.78727436 31.39147472 C-22.86067387 22.52976754 -22.74201546 14.53462423 -17.15087223 7.1398077 C-11.69834719 2.07661652 -7.50866699 0.01919938 0 0 Z " fill="#FEE459" transform="translate(77.15087223052979,-0.13980770111083984)"/>
<path d="M0 0 C1.26005859 -0.01224609 2.52011719 -0.02449219 3.81835938 -0.03710938 C15.52194737 -0.05525447 25.96765448 1.26523186 36.8125 5.75 C37.67037109 6.10151123 38.52824219 6.45302246 39.41210938 6.81518555 C64.13248429 17.29176179 81.68975524 36.69551994 92.6875 60.9375 C99.9766177 79.59269955 100.22623708 97.64997967 96.9375 117.1875 C95.89819336 117.1968457 94.85888672 117.20619141 93.78808594 117.21582031 C89.92616162 117.25574123 86.0650322 117.32150478 82.20361328 117.39501953 C80.53346989 117.42321718 78.86319335 117.44443779 77.19287109 117.45849609 C74.78934628 117.47994337 72.38742017 117.52659845 69.984375 117.578125 C69.23943787 117.57935364 68.49450073 117.58058228 67.72698975 117.58184814 C64.27333752 117.67907677 62.2594235 117.95522925 59.42675781 119.99902344 C57.58219395 122.24635526 57.58219395 122.24635526 58.0625 125.8125 C58.64490714 129.23292055 58.64490714 129.23292055 60.9375 131.1875 C63.1444168 131.48381291 63.1444168 131.48381291 65.71923828 131.42700195 C67.21186691 131.4325988 67.21186691 131.4325988 68.73464966 131.43830872 C69.8147934 131.43417465 70.89493713 131.43004059 72.0078125 131.42578125 C74.2890684 131.44120842 76.5703185 131.4575126 78.8515625 131.47460938 C82.45260372 131.49103122 86.05322149 131.50001829 89.65429688 131.49291992 C93.12678935 131.49029214 96.5979925 131.51848942 100.0703125 131.55078125 C101.13831085 131.54057449 102.2063092 131.53036774 103.30667114 131.51985168 C110.07604508 131.6078918 114.75075824 132.67995411 119.9375 137.1875 C125.3137611 143.77341984 124.35037325 150.859387 123.71786499 159.0218811 C123.41145063 161.96340076 123.06208021 164.896945 122.69921875 167.83203125 C121.31456511 179.65251017 120.07328294 191.48170398 118.89453125 203.32421875 C118.71785203 205.09441195 118.5411654 206.86460441 118.36447144 208.63479614 C117.91609909 213.13187801 117.46938074 217.62912286 117.02301025 222.12640381 C116.47954339 227.5978868 115.93373541 233.06913675 115.38834381 238.54042816 C114.56965359 246.75594667 113.75383995 254.97174611 112.9375 263.1875 C99.0775 263.1875 85.2175 263.1875 70.9375 263.1875 C70.89882813 256.43539062 70.89882813 256.43539062 70.859375 249.546875 C70.82769632 245.9560486 70.79204621 242.36531048 70.75370789 238.77455139 C70.71433638 234.98493598 70.68195325 231.19555658 70.66650391 227.40576172 C70.6513516 223.75502365 70.61693304 220.10492766 70.56919098 216.4544754 C70.55436216 215.06229485 70.54645812 213.67002263 70.54561615 212.27776337 C70.54324966 210.32666835 70.51390445 208.37566264 70.48339844 206.42480469 C70.47451599 205.3144989 70.46563354 204.20419312 70.45648193 203.0602417 C69.8054602 199.45661476 68.76362341 198.46096795 65.9375 196.1875 C63.39659107 195.59068078 63.39659107 195.59068078 60.57933044 195.67956543 C59.49274139 195.66828613 58.40615234 195.65700684 57.28663635 195.64538574 C56.09948532 195.65348267 54.91233429 195.66157959 53.68920898 195.66992188 C52.43523315 195.6629126 51.18125732 195.65590332 49.88928223 195.64868164 C46.45313777 195.63409152 43.01795653 195.63751189 39.58186603 195.65019798 C35.98645405 195.66032682 32.39108315 195.65093285 28.79566956 195.64465332 C22.7589682 195.63737747 16.72246264 195.6469638 10.68579102 195.66601562 C3.70443021 195.68779432 -3.27646351 195.68072588 -10.25781304 195.65871 C-16.25113761 195.64056581 -22.24432148 195.6379925 -28.23766464 195.64846468 C-31.81761995 195.65470383 -35.39735559 195.65552373 -38.97729683 195.64231873 C-42.96625091 195.62863247 -46.95468041 195.64759402 -50.94360352 195.66992188 C-52.13277878 195.66182495 -53.32195404 195.65372803 -54.54716492 195.64538574 C-55.63093414 195.65666504 -56.71470337 195.66794434 -57.83131409 195.67956543 C-58.77464379 195.68107353 -59.7179735 195.68258163 -60.68988895 195.68413544 C-63.20193063 195.98714977 -63.20193063 195.98714977 -64.86452866 198.03969955 C-66.47892277 200.93408966 -66.46180116 203.1176164 -66.49487305 206.42480469 C-66.51466721 207.68580994 -66.53446136 208.94681519 -66.55485535 210.24603271 C-66.56162459 211.61714529 -66.56807152 212.98825949 -66.57421875 214.359375 C-66.59106901 215.76614957 -66.60921973 217.17290911 -66.62861633 218.57965088 C-66.67608539 222.27524114 -66.70591441 225.97077048 -66.73205566 229.66656494 C-66.76187704 233.44059191 -66.80824086 237.21441324 -66.85351562 240.98828125 C-66.94107466 248.38803746 -67.00104356 255.78729644 -67.0625 263.1875 C-80.9225 263.1875 -94.7825 263.1875 -109.0625 263.1875 C-110.95445899 245.16074466 -112.8421334 227.13356872 -114.71742249 209.10507202 C-114.87361968 207.60357593 -115.02982381 206.10208056 -115.18603516 204.60058594 C-115.26156459 203.87459764 -115.33709402 203.14860935 -115.41491222 202.40062141 C-115.97691728 197.00189689 -116.54391988 191.60370657 -117.11209106 186.20562744 C-117.49479976 182.55647348 -117.87209044 178.90677898 -118.24719238 175.25683594 C-118.41323093 173.65144927 -118.58153551 172.04629504 -118.75231934 170.44140625 C-121.35755814 145.92151163 -121.35755814 145.92151163 -118.375 139.625 C-114.47539363 135.5146041 -111.30120618 132.34727725 -105.42160034 132.05721474 C-104.35160797 132.05465864 -103.2816156 132.05210255 -102.17919922 132.04946899 C-100.95094421 132.04401566 -99.72268921 132.03856232 -98.45721436 132.03294373 C-97.09387212 132.03182397 -95.73052983 132.03077345 -94.3671875 132.02978516 C-92.93320561 132.02511663 -91.4992252 132.019973 -90.06524658 132.01438904 C-86.97629943 132.00311081 -83.88736191 131.99467543 -80.79840088 131.98826981 C-75.91618245 131.97759405 -71.0340334 131.95735166 -66.15185547 131.93515015 C-52.2685869 131.87320731 -38.3853228 131.81916939 -24.50195312 131.78613281 C-16.83509 131.76780876 -9.16834343 131.73890386 -1.50156593 131.6981281 C2.5567861 131.67702638 6.61499109 131.66159633 10.67340088 131.65932083 C14.4885493 131.65717911 18.30339121 131.64135912 22.11844635 131.61493111 C23.52009645 131.60771925 24.92178362 131.60564625 26.32344818 131.60903358 C28.23371996 131.61291336 30.14400141 131.59675025 32.05419922 131.57949829 C33.12419159 131.57618814 34.19418396 131.572878 35.29660034 131.56946754 C37.95365984 131.39506671 37.95365984 131.39506671 39.77786255 129.84659386 C41.61739436 127.21477481 41.38266592 125.30366143 40.9375 122.1875 C38.89796966 119.58019139 37.69710426 118.34042026 34.41505051 117.67969131 C33.46007298 117.67600414 32.50509544 117.67231697 31.5211792 117.66851807 C30.42184052 117.65460526 29.32250183 117.64069244 28.18984985 117.62635803 C26.3880275 117.63390358 26.3880275 117.63390358 24.54980469 117.64160156 C22.64698227 117.62609505 22.64698227 117.62609505 20.70571899 117.61027527 C17.23077331 117.58240633 13.75618345 117.57901075 10.28114223 117.57999516 C6.64822348 117.57686677 3.01546517 117.55125019 -0.61737061 117.52801514 C-7.49501611 117.4874457 -14.37256678 117.46711228 -21.25031352 117.45404124 C-29.08105579 117.43817433 -36.91163661 117.39976008 -44.74228525 117.35944796 C-60.84897708 117.27703616 -76.95563491 117.22295214 -93.0625 117.1875 C-93.39231036 115.74831509 -93.71939844 114.30850614 -94.04533386 112.86843872 C-94.2277724 112.06671297 -94.41021093 111.26498722 -94.59817791 110.43896675 C-95.51279058 106.00407108 -95.40141163 101.57247408 -95.375 97.0625 C-95.36936035 96.04986084 -95.3637207 95.03722168 -95.35791016 93.99389648 C-94.92996135 67.36997255 -83.82857593 44.63329111 -65.0625 26.1875 C-64.30066406 25.42695313 -63.53882813 24.66640625 -62.75390625 23.8828125 C-45.57807473 7.68395489 -23.1937287 0.01161429 0 0 Z " fill="#E4E0E4" transform="translate(254.0625,233.8125)"/>
<path d="M0 0 C1.72069896 -0.00542691 3.44139327 -0.01255275 5.16207886 -0.02124023 C9.81501122 -0.03940893 14.46758711 -0.03243284 19.12052536 -0.01972389 C24.00101396 -0.00956268 28.88147303 -0.01899822 33.76196289 -0.02526855 C41.95627291 -0.03253589 50.1504385 -0.02298128 58.34472656 -0.00390625 C67.80437705 0.01786072 77.26368264 0.0108087 86.72332478 -0.01121187 C94.86033985 -0.02939195 102.99725138 -0.03191145 111.1342802 -0.0214572 C115.987537 -0.01523659 120.84063192 -0.01434709 125.69387817 -0.02760315 C130.2577025 -0.03919904 134.82108423 -0.03106794 139.38486099 -0.00802612 C141.05491528 -0.00275894 142.72500713 -0.00421854 144.39504623 -0.01307678 C156.22339417 -0.07000935 165.21052048 1.10054019 174.16796875 9.46679688 C178.38125892 14.27544327 181.24297179 19.66919167 181.27734375 26.14257812 C181.12265625 27.81320313 181.12265625 27.81320313 180.96484375 29.51757812 C182.66640625 29.39382812 182.66640625 29.39382812 184.40234375 29.26757812 C189.52673284 29.29483551 193.68245697 30.71159517 197.96484375 33.51757812 C204.85748313 40.72128674 204.20848891 48.25995902 204.27734375 57.64257812 C204.30634766 58.93679687 204.33535156 60.23101562 204.36523438 61.56445312 C204.41357838 68.86811696 204.26202354 75.35228513 199.96484375 81.51757812 C195.57088661 85.66854566 191.30736637 87.66746976 185.27734375 87.58007812 C184.46910156 87.57105469 183.66085937 87.56203125 182.828125 87.55273438 C182.21324219 87.54113281 181.59835937 87.52953125 180.96484375 87.51757812 C181.04734375 88.46632813 181.12984375 89.41507812 181.21484375 90.39257812 C181.15731105 97.51225033 178.12750037 103.68229249 173.40234375 108.89257812 C163.9447635 117.25312124 152.75287161 117.10329026 140.81030273 117.05102539 C139.10078186 117.05809519 137.39126723 117.06684464 135.6817627 117.07713318 C131.06814962 117.09951443 126.45488141 117.09671451 121.84123492 117.08781171 C117.97940207 117.08268011 114.1176328 117.09001168 110.25580651 117.09728378 C101.14256704 117.11424597 92.02949518 117.11075292 82.91625977 117.09399414 C73.53378637 117.0770628 64.1517779 117.09292963 54.76935524 117.12521702 C46.69257601 117.15195199 38.61594117 117.15917878 30.53912216 117.15070194 C25.72438068 117.14578581 20.90991901 117.1479175 16.09521294 117.16848946 C11.56822318 117.18690908 7.04190038 117.18081165 2.51494598 117.15629005 C0.85981894 117.15130268 -0.7953595 117.15471774 -2.45044518 117.16743851 C-13.73916142 117.24729877 -22.10680223 115.95669173 -30.91015625 108.33007812 C-38.82945157 99.58928935 -38.64628137 89.04478999 -38.6015625 77.92382812 C-38.60680912 76.32539511 -38.61308936 74.72696519 -38.62034607 73.12854004 C-38.63070197 69.79338922 -38.62625799 66.45866637 -38.61157227 63.12353516 C-38.59437868 58.87346429 -38.61791087 54.62474481 -38.65306187 50.37482452 C-38.67513831 47.07854448 -38.67357006 43.78258285 -38.66529655 40.48625183 C-38.66448287 38.92032894 -38.67123345 37.35438128 -38.68606758 35.78852844 C-38.77503155 24.70197647 -37.49539213 16.1594543 -29.78515625 7.64257812 C-20.83856794 -0.24529939 -11.3374378 -0.06013616 0 0 Z " fill="#010200" transform="translate(177.03515625,44.482421875)"/>
<path d="M0 0 C1.26005859 -0.01224609 2.52011719 -0.02449219 3.81835938 -0.03710938 C15.52194737 -0.05525447 25.96765448 1.26523186 36.8125 5.75 C37.67037109 6.10151123 38.52824219 6.45302246 39.41210938 6.81518555 C64.13248429 17.29176179 81.68975524 36.69551994 92.6875 60.9375 C99.9766177 79.59269955 100.22623708 97.64997967 96.9375 117.1875 C95.89819336 117.1968457 94.85888672 117.20619141 93.78808594 117.21582031 C89.92616162 117.25574123 86.0650322 117.32150478 82.20361328 117.39501953 C80.53346989 117.42321718 78.86319335 117.44443779 77.19287109 117.45849609 C74.78934628 117.47994337 72.38742017 117.52659845 69.984375 117.578125 C69.23943787 117.57935364 68.49450073 117.58058228 67.72698975 117.58184814 C64.26517042 117.6793067 62.29111215 117.91935474 59.49707031 120.03808594 C57.76794167 122.19419662 57.76794167 122.19419662 56.9375 125.1875 C51.9875 125.5175 47.0375 125.8475 41.9375 126.1875 C41.48375 125.053125 41.03 123.91875 40.5625 122.75 C39.36654194 119.14028308 39.36654194 119.14028308 36.9375 118.1875 C35.2146171 118.08254975 33.48772548 118.04092156 31.76168823 118.02928162 C30.66509888 118.0194928 29.56850952 118.00970398 28.43869019 117.99961853 C27.23028473 117.99386307 26.02187927 117.9881076 24.77685547 117.98217773 C23.50859924 117.97227814 22.24034302 117.96237854 20.93365479 117.95217896 C17.4504335 117.92510179 13.96719863 117.90410749 10.48393011 117.88417697 C6.84571693 117.86233473 3.20754576 117.83493744 -0.43063354 117.80812073 C-7.32249121 117.75816997 -14.21437216 117.71324 -21.10627544 117.67009836 C-28.95142394 117.62074633 -36.79653029 117.56582067 -44.64163804 117.51041877 C-60.78188652 117.39656215 -76.92217361 117.28973114 -93.0625 117.1875 C-93.39231036 115.74831509 -93.71939844 114.30850614 -94.04533386 112.86843872 C-94.2277724 112.06671297 -94.41021093 111.26498722 -94.59817791 110.43896675 C-95.51279058 106.00407108 -95.40141163 101.57247408 -95.375 97.0625 C-95.36936035 96.04986084 -95.3637207 95.03722168 -95.35791016 93.99389648 C-94.92996135 67.36997255 -83.82857593 44.63329111 -65.0625 26.1875 C-64.30066406 25.42695313 -63.53882813 24.66640625 -62.75390625 23.8828125 C-45.57807473 7.68395489 -23.1937287 0.01161429 0 0 Z " fill="#E2DDE1" transform="translate(254.0625,233.8125)"/>
<path d="M0 0 C1.29562931 -0.00569124 2.59125862 -0.01138248 3.92614943 -0.01724619 C5.37248575 -0.01853888 6.81882217 -0.01972689 8.26515865 -0.02082157 C9.79504795 -0.02555142 11.32493599 -0.03070217 12.85482258 -0.03623921 C17.070121 -0.05016248 21.28541077 -0.05773376 25.50072634 -0.0642122 C29.11360446 -0.07057866 32.72646834 -0.08064942 36.33933759 -0.09077286 C48.2440941 -0.12411448 60.14885928 -0.14562195 72.05364719 -0.16397271 C75.15324809 -0.16876705 78.25284864 -0.17375045 81.35244918 -0.17877793 C100.59686964 -0.20974928 119.8412931 -0.23643733 139.08573151 -0.25319672 C143.54437992 -0.25714628 148.00302829 -0.26114926 152.4616766 -0.2652216 C154.12396023 -0.26673414 154.12396023 -0.26673414 155.81982534 -0.26827724 C173.77049134 -0.28528292 191.72101944 -0.32639016 209.67161811 -0.37724458 C228.09774317 -0.42901707 246.52379732 -0.45813854 264.9499945 -0.4653936 C275.29697549 -0.4700564 285.6437307 -0.48481343 295.99063969 -0.5251379 C304.80309962 -0.55944031 313.61529305 -0.57337636 322.42781592 -0.56071376 C326.92335832 -0.55488732 331.41833711 -0.55874955 335.91379452 -0.5888834 C340.0329366 -0.61626906 344.15111531 -0.61573044 348.27027904 -0.59337295 C349.75691277 -0.5901535 351.24361127 -0.59699827 352.73013742 -0.61517017 C361.92618736 -0.72073163 368.62138927 0.13279416 375.84912777 6.1398077 C380.88437395 12.05622196 382.09534846 18.59462429 382.11655331 26.21630001 C382.12108442 26.89309502 382.12561553 27.56989003 382.13028395 28.26719397 C382.14286014 30.51622547 382.14131203 32.7650127 382.13965511 35.01407528 C382.14564461 36.63433293 382.15245113 38.25458774 382.16001034 39.87483883 C382.17763462 44.2634009 382.18236421 48.65188491 382.18364191 53.04047894 C382.18506609 55.78591959 382.18934074 58.53134056 382.19463634 61.27677631 C382.21312479 70.86500331 382.22130844 80.4531748 382.21973324 90.04141903 C382.21853215 98.96249194 382.23963104 107.88332279 382.27122056 116.80433446 C382.29741831 124.477616 382.30809907 132.15081865 382.30682242 139.82414454 C382.30631382 144.40082996 382.31194061 148.97730013 382.33317852 153.55394077 C382.35262002 157.86081017 382.35264527 162.16726028 382.33814526 166.47414494 C382.33606337 168.04865034 382.34072087 169.62318239 382.35286617 171.19764233 C382.42255268 180.8626647 382.15284521 189.70353305 375.91944027 197.5773077 C375.27748714 198.0929327 374.63553402 198.6085577 373.97412777 199.1398077 C373.33733089 199.6760577 372.70053402 200.2123077 372.04444027 200.7648077 C366.46335717 204.2604327 361.72424632 204.17651668 355.34668636 203.95621395 C345.1300164 203.43752729 345.1300164 203.43752729 336.32178402 207.7179327 C333.90982463 210.5902946 332.03909644 213.77758751 330.16992855 217.02066708 C327.72384008 220.94526003 324.65074248 224.37301794 321.66162777 227.8898077 C320.46526939 229.33056959 319.2711846 230.77322302 318.07959652 232.2179327 C317.52191586 232.89275692 316.96423519 233.56758114 316.38965511 234.26285458 C314.38958369 236.69970863 312.42892342 239.16654955 310.47412777 241.6398077 C298.45014666 256.70848789 298.45014666 256.70848789 292.04444027 257.4757452 C285.81038512 257.55505888 281.64594691 257.57686541 276.84912777 253.1398077 C273.30571244 249.21332044 271.71932574 246.32546691 271.73560238 241.03555965 C271.73567791 240.21493542 271.73575344 239.39431118 271.73583126 238.54881954 C271.74099255 237.66747845 271.74615383 236.78613735 271.75147152 235.87808895 C271.75359394 234.51939945 271.75359394 234.51939945 271.75575924 233.13326168 C271.76135776 230.23957679 271.77390996 227.34596921 271.78662777 224.4523077 C271.79164296 222.49072028 271.79620584 220.52913164 271.80029964 218.56754208 C271.8113267 213.75826749 271.8285903 208.9490507 271.84912777 204.1398077 C270.94575806 204.14349487 270.04238834 204.14718204 269.11164379 204.15098095 C247.14570737 204.2392613 225.17980147 204.30548288 203.21372509 204.34705639 C192.59115134 204.36769464 181.9686959 204.39583939 171.34619808 204.44156551 C162.08922522 204.48139459 152.83233802 204.50723132 143.57528186 204.51616168 C138.67225686 204.52138309 133.76947697 204.5336815 128.86653042 204.56272793 C124.2536663 204.58983497 119.64114875 204.59826226 115.02821255 204.59223843 C113.33346328 204.59334078 111.63870268 204.60132276 109.94402218 204.6166296 C107.63284859 204.63648452 105.32298943 204.63176434 103.01178646 204.62082577 C101.71758911 204.62451294 100.42339176 204.62820011 99.08997631 204.63199902 C95.84912777 204.1398077 95.84912777 204.1398077 93.4327116 202.32849407 C91.11922676 199.13100453 91.29973624 196.98554844 91.84912777 193.1398077 C93.40829372 190.95280361 93.40829372 190.95280361 95.84912777 189.1398077 C98.50547108 188.74670986 100.74808987 188.59866527 103.4024725 188.63187313 C104.54880209 188.62251319 104.54880209 188.62251319 105.71828985 188.61296415 C108.28109581 188.59699912 110.84295525 188.60965161 113.40576839 188.62222958 C115.24221509 188.61681 117.07865743 188.60968827 118.91509151 188.60098934 C123.90474168 188.58273348 128.8940615 188.58983287 133.88371754 188.60250568 C139.10156689 188.61262162 144.31938767 188.60324392 149.53723812 188.59696102 C158.30027001 188.58968052 167.06316712 188.59928291 175.82617855 188.61832333 C185.96234866 188.64009281 196.09819696 188.63304172 206.23435926 188.6110177 C214.9316984 188.59287521 223.62894057 188.59029976 232.32629251 188.60077238 C237.52319235 188.60701363 242.71994085 188.60782558 247.91683102 188.59462643 C252.80230773 188.5830853 257.68736889 188.59106186 262.57280064 188.61420345 C264.36750568 188.61949984 266.16224559 188.61796091 267.95693684 188.60915279 C270.40369358 188.5982501 272.84911199 188.61189571 275.29578304 188.63187313 C276.00901053 188.62295024 276.72223802 188.61402736 277.45707846 188.60483408 C280.84617427 188.65865054 282.57378643 188.92674955 285.28877544 191.02759838 C287.15688193 193.55640669 287.36217939 194.87971177 287.39502621 198.00015926 C287.41474483 198.96085323 287.43446346 199.9215472 287.45477962 200.91135311 C287.45662258 202.45529751 287.45662258 202.45529751 287.45850277 204.0304327 C287.47503902 205.09018307 287.49157528 206.14993343 287.50861263 207.24179745 C287.55717332 210.62452601 287.57848214 214.00680475 287.59912777 217.3898077 C287.6272806 219.68410126 287.65720705 221.9783738 287.68897152 224.2726202 C287.76293432 229.89493415 287.81452956 235.51712117 287.84912777 241.1398077 C291.27502409 239.5374364 292.98157366 238.04372067 295.28662777 235.0148077 C295.98014339 234.12019833 296.67365902 233.22558895 297.38819027 232.3038702 C297.77523129 231.80274715 298.1622723 231.30162411 298.56104183 230.78531551 C301.04426872 227.61303553 303.61137355 224.50823779 306.16162777 221.3898077 C311.20924544 215.20273505 316.15259445 208.94530102 321.02100277 202.6163702 C321.4564642 202.08833797 321.89192562 201.56030575 322.34058285 201.01627254 C323.50766261 199.56455301 324.60705187 198.05827442 325.67603207 196.53287411 C328.77682685 192.48160973 331.06624501 189.58983775 336.13184261 188.31119442 C339.84451524 188.07677912 343.44545354 188.10281567 347.16162777 188.2648077 C349.65736349 188.32602145 352.15356441 188.3710209 354.64990902 188.3976202 C356.29213436 188.46167049 356.29213436 188.46167049 357.96753597 188.52701473 C361.67624279 188.02866609 362.57940784 187.07691524 364.84912777 184.1398077 C365.45095289 180.99349148 365.45095289 180.99349148 365.35706234 177.41493893 C365.3633023 176.73985179 365.36954226 176.06476464 365.37597132 175.36922032 C365.3919211 173.10806755 365.37929053 170.84798986 365.36670589 168.58682919 C365.37212613 166.96550524 365.37924823 165.34418622 365.38794613 163.72287655 C365.40619291 159.32003717 365.39910685 154.91757239 365.38642979 150.5147264 C365.37631083 145.91033742 365.38569223 141.30598076 365.39197445 136.70159054 C365.39925335 128.97008147 365.38965604 121.23872521 365.37061214 113.50723934 C365.34883521 104.56277685 365.35589969 95.61867895 365.37791777 86.67422527 C365.39605571 78.99939486 365.39863821 71.32467435 365.38816309 63.64982945 C365.38192029 59.06384684 365.38111421 54.47803575 365.39430904 49.89206409 C365.40584391 45.58193376 365.39788551 41.27227469 365.37473202 36.9621954 C365.36943254 35.37831627 365.37097983 33.79439763 365.37978268 32.2105341 C365.39067364 30.05238075 365.37705587 27.89574856 365.35706234 25.73769283 C365.35555424 24.52888675 365.35404613 23.32008066 365.35249233 22.07464409 C365.13283655 19.10796762 365.13283655 19.10796762 363.20205021 17.48015022 C360.18936597 15.76397432 358.16112581 15.76273292 354.69900417 15.75949097 C353.42903418 15.75105103 352.15906419 15.74261109 350.85061026 15.73391539 C349.43845315 15.73971084 348.0262972 15.74579188 346.61414242 15.75212765 C345.11623437 15.74795627 343.61832947 15.74247984 342.12043047 15.73580784 C337.99835636 15.72130879 333.87648142 15.72561178 329.7543962 15.73297465 C325.31124808 15.73769299 320.8681439 15.72520838 316.42500973 15.71495724 C307.71856794 15.69773811 299.01219822 15.6969356 290.30574381 15.70217014 C283.23158989 15.706207 276.15745731 15.70477406 269.08330441 15.69942188 C267.57466549 15.69829925 267.57466549 15.69829925 266.03554901 15.69715394 C263.99254707 15.69562251 261.94954513 15.69408416 259.9065432 15.69253897 C240.73672234 15.67880286 221.56694226 15.6842596 202.39712232 15.69572418 C184.84665228 15.70565954 167.29628761 15.69271263 149.74583381 15.66878999 C131.73779926 15.64442797 113.72981385 15.63478386 95.72176313 15.64144272 C85.60644657 15.64494116 75.49121109 15.64266167 65.37590694 15.62519169 C56.76570638 15.61050596 48.15564402 15.60978664 39.54544628 15.6272626 C35.15000798 15.6358047 30.75481694 15.63784434 26.35939121 15.62261105 C22.33882659 15.60884905 18.31872302 15.61341651 14.29818565 15.63285028 C12.84064077 15.63663686 11.3830597 15.6336125 9.92554682 15.62323863 C7.95015101 15.61017411 5.9746314 15.62397077 3.99925137 15.63923645 C2.9002307 15.63934379 1.80121003 15.63945112 0.66888571 15.63956171 C-2.83354117 16.26091824 -4.01520622 17.34233804 -6.15087223 20.1398077 C-6.75520167 23.24635742 -6.75520167 23.24635742 -6.66553593 26.77529049 C-6.67248146 27.44079939 -6.67942698 28.1063083 -6.68658298 28.79198414 C-6.70487176 31.02081559 -6.69458446 33.24858486 -6.6843195 35.47745419 C-6.6913771 37.07583062 -6.70012146 38.67420037 -6.71042728 40.27255917 C-6.73294957 44.61353797 -6.72997493 48.95415266 -6.72110581 53.29516768 C-6.71599934 56.91853092 -6.72328574 60.54182553 -6.73057789 64.1651817 C-6.74758606 72.71285555 -6.74400202 81.26035093 -6.72728825 89.80802059 C-6.71036596 98.62753362 -6.72620071 107.44655174 -6.75851113 116.2660107 C-6.78519834 123.83726937 -6.79248539 131.4083739 -6.78399605 138.97967488 C-6.77906425 143.50205597 -6.7812959 148.02413926 -6.80178356 152.54648304 C-6.82012714 156.79924145 -6.81419873 161.05128751 -6.78958416 165.30400753 C-6.78457196 166.86447512 -6.78807674 168.42499686 -6.80073261 169.98542118 C-6.81665182 172.11688124 -6.80172857 174.24599217 -6.77906132 176.37734127 C-6.77847501 177.56955508 -6.7778887 178.76176889 -6.77728462 179.9901104 C-5.96301754 184.08436981 -4.38395 185.58015511 -1.15087223 188.1398077 C2.3015293 188.87067091 2.3015293 188.87067091 6.14624691 188.73575497 C6.86231609 188.7398135 7.57838528 188.74387203 8.31615353 188.74805355 C9.86410763 188.75355613 11.41213629 188.74760336 12.9600153 188.73139286 C15.41100678 188.7059364 17.86031969 188.7107805 20.31139278 188.72328854 C25.5116566 188.74401447 30.71139836 188.72435628 35.91162777 188.7023077 C41.94221676 188.68120085 47.97226547 188.67662099 54.0028429 188.70280933 C56.41618711 188.70617133 58.82849939 188.68494788 61.24172115 188.66240597 C62.72161744 188.66491713 64.20151245 188.66847705 65.68140316 188.67325497 C66.97204174 188.66705639 68.26268032 188.66085781 69.59242916 188.6544714 C72.84912777 189.1398077 72.84912777 189.1398077 75.26586056 190.95021725 C77.5784709 194.14845788 77.39855228 196.29383615 76.84912777 200.1398077 C75.28009701 202.32720089 75.28009701 202.32720089 72.84912777 204.1398077 C70.2418371 204.52984685 68.05748084 204.67783986 65.45361996 204.64151669 C64.34548191 204.64962116 64.34548191 204.64962116 63.21495724 204.65788937 C60.77489684 204.67038619 58.33601479 204.65387402 55.89600277 204.63590145 C54.19452509 204.63605648 52.49304706 204.63754618 50.79157162 204.64031124 C47.22384702 204.64169588 43.65652409 204.6291318 40.08887386 204.60636044 C35.53157174 204.57806177 30.97494127 204.5806887 26.41759014 204.59345055 C22.90180459 204.60043299 19.38617214 204.59258785 15.87040615 204.58019352 C14.19120784 204.57569779 12.51199296 204.57532569 10.83279324 204.57925892 C8.47559596 204.58219418 6.11929699 204.56555251 3.76221371 204.54386044 C2.73477299 204.55061291 2.73477299 204.55061291 1.68657589 204.55750179 C-4.22478782 204.4678535 -9.50616996 203.03088685 -14.35790348 199.5616827 C-14.88770817 199.00996395 -15.41751286 198.4582452 -15.96337223 197.8898077 C-16.50606754 197.34840145 -17.04876286 196.8069952 -17.60790348 196.2491827 C-21.42758532 191.02733918 -22.52596312 186.30578013 -22.54528141 179.91145992 C-22.55137251 179.21833071 -22.55746362 178.52520149 -22.5637393 177.81106836 C-22.58028405 175.50665945 -22.57560593 173.20280828 -22.57079411 170.89835262 C-22.57813949 169.23868395 -22.58672708 167.57902037 -22.59645939 165.91936398 C-22.61863659 161.42333724 -22.62160792 156.927494 -22.61971188 152.43142009 C-22.61959198 148.67169334 -22.62816402 144.91200519 -22.63648939 141.15228921 C-22.65571043 132.27790383 -22.65861228 123.40361249 -22.65184879 114.529212 C-22.64521127 105.38995195 -22.66806369 96.25109582 -22.70516253 87.11191767 C-22.73590551 79.2517891 -22.7472145 71.39179014 -22.74332571 63.53160268 C-22.74126268 58.8430974 -22.74666804 54.1549064 -22.7712183 49.46645832 C-22.7935586 45.05444739 -22.79154753 40.64309076 -22.77129078 36.23107624 C-22.76789338 34.61787051 -22.77291478 33.00462012 -22.78727436 31.39147472 C-22.86067387 22.52976754 -22.74201546 14.53462423 -17.15087223 7.1398077 C-11.69834719 2.07661652 -7.50866699 0.01919938 0 0 Z " fill="#000000" transform="translate(77.15087223052979,-0.13980770111083984)"/>
<path d="M0 0 C1.11616699 -0.00274933 2.23233398 -0.00549866 3.38232422 -0.0083313 C4.6022406 -0.00114075 5.82215698 0.0060498 7.07904053 0.01345825 C8.36709595 0.0131662 9.65515137 0.01287415 10.98223877 0.01257324 C14.51087086 0.0119995 18.03936693 0.0237573 21.56796741 0.03772116 C25.25685244 0.05022487 28.9457406 0.05139873 32.63464355 0.05377197 C39.61856916 0.0599878 46.60243214 0.0764 53.58633018 0.09647095 C63.02475112 0.12300705 72.46318919 0.13380177 81.90163803 0.14547539 C96.77038942 0.16428053 111.63900865 0.20412549 126.50775146 0.24050903 C126.50775146 28.62050903 126.50775146 57.00050903 126.50775146 86.24050903 C93.3965698 86.4420242 93.3965698 86.4420242 79.52337646 86.48464966 C69.94348776 86.51432022 60.36381891 86.54920386 50.78411865 86.6177063 C43.80729924 86.66757226 36.83065814 86.69980732 29.85366547 86.71095151 C26.15994892 86.717465 22.46674246 86.73275168 18.77318954 86.76915932 C14.64785979 86.80949247 10.5234145 86.81045644 6.39788818 86.80813599 C5.17581161 86.82611237 3.95373505 86.84408875 2.69462585 86.86260986 C-6.53756753 86.80632128 -6.53756753 86.80632128 -10.17288208 83.89253235 C-14.00715904 79.50832136 -14.74835077 77.33054546 -14.79864502 71.56936646 C-14.80696854 70.89581619 -14.81529205 70.22226593 -14.8238678 69.52830505 C-14.84796926 67.30080384 -14.85674063 65.07359558 -14.86334229 62.84597778 C-14.87230977 61.29522108 -14.88143163 59.74446526 -14.89070129 58.19371033 C-14.90719509 54.94130349 -14.91489188 51.68899963 -14.91778564 48.43655396 C-14.92316463 44.2767736 -14.96082152 40.11796659 -15.00652981 35.95846081 C-15.03633401 32.75417079 -15.04350994 29.55011397 -15.0445118 26.3456974 C-15.04870884 24.8127224 -15.0611226 23.27974637 -15.08202934 21.74690819 C-15.1090117 19.59716565 -15.10410062 17.44966291 -15.09161377 15.29983521 C-15.09668442 14.07866501 -15.10175507 12.85749481 -15.10697937 11.59931946 C-14.27545531 7.05597866 -12.76525114 5.47882428 -9.49224854 2.24050903 C-6.27439081 0.20945943 -3.7729895 -0.00717298 0 0 Z " fill="#81D260" transform="translate(168.49224853515625,59.759490966796875)"/>
<path d="M0 0 C0.33 0 0.66 0 1 0 C1 48.84 1 97.68 1 148 C47.81293844 148.02203233 94.62587201 148.04050153 141.43881415 148.05106533 C146.96148809 148.05231608 152.48416202 148.0536104 158.00683594 148.05493164 C159.10633293 148.05519395 160.20582993 148.05545626 161.33864501 148.05572652 C179.15769137 148.06008163 196.97673451 148.06796831 214.79577896 148.0771528 C233.07035861 148.08649374 251.34493658 148.09205655 269.61951852 148.09408849 C280.90216843 148.0954628 292.18480925 148.09980844 303.46745637 148.10791647 C311.19713115 148.11318935 318.92680121 148.11480305 326.65647766 148.11350138 C331.12066684 148.11285885 335.58484011 148.11386593 340.04902649 148.11920547 C344.13251083 148.12405418 348.21596847 148.12432889 352.299454 148.12089889 C353.78000044 148.12047466 355.2605485 148.121758 356.7410917 148.12488318 C358.74759602 148.12887373 360.7541104 148.12614512 362.7606163 148.12304783 C364.43518296 148.12361741 364.43518296 148.12361741 366.14357924 148.1241985 C368.60935252 148.01698553 370.65115811 147.7182171 373 147 C373.13548815 149.73083902 373.23429855 152.45491807 373.3125 155.1875 C373.35439453 155.95642578 373.39628906 156.72535156 373.43945312 157.51757812 C373.52250167 161.38764012 373.2249047 163.5882921 371.33984375 167.0390625 C365.11371864 170.69463537 357.53105118 169.34300815 350.5 169.00976562 C343.37958059 168.90721906 343.37958059 168.90721906 337.23535156 172.1171875 C334.94900261 174.6453349 332.95810151 177.21272904 331 180 C329.75818848 181.54827009 328.50937057 183.09097853 327.25 184.625 C326.60160156 185.44742188 325.95320313 186.26984375 325.28515625 187.1171875 C321.90430327 191.38226357 318.45312985 195.58963952 315.0090332 199.80371094 C312.24788866 203.19328156 309.51982475 206.60096494 306.859375 210.0703125 C306.36606689 210.71129883 305.87275879 211.35228516 305.36450195 212.01269531 C304.43704543 213.22306971 303.51592423 214.43833438 302.60229492 215.65917969 C300.34785642 218.59766654 298.52929385 220.71217453 295 222 C293.40607986 220.40607986 293.85933572 218.73655446 293.84228516 216.52783203 C293.82689194 215.1009758 293.82689194 215.1009758 293.81118774 213.64529419 C293.80388641 212.60992523 293.79658508 211.57455627 293.7890625 210.5078125 C293.76099563 208.33723202 293.73233118 206.1666592 293.703125 203.99609375 C293.66181614 200.55713092 293.62494882 197.11831134 293.59863281 193.67919922 C293.57109856 190.37176584 293.52522573 187.06499328 293.4765625 183.7578125 C293.4716832 182.21083176 293.4716832 182.21083176 293.46670532 180.63259888 C293.45013885 179.67505707 293.43357239 178.71751526 293.41650391 177.73095703 C293.40841705 176.88792023 293.4003302 176.04488342 293.39199829 175.17630005 C292.88357825 172.35364858 292.33768618 171.67185663 290 170 C287.43930319 169.70537622 285.12144792 169.5951374 282.56018066 169.61904907 C281.7961098 169.6143691 281.03203893 169.60968913 280.2448144 169.60486734 C277.6767065 169.59287204 275.10912777 169.60239205 272.54101562 169.61181641 C270.70309639 169.60775271 268.8651796 169.60241197 267.02726746 169.59588623 C262.02940852 169.58218276 257.03173488 169.58752377 252.0338726 169.59702349 C246.8102149 169.6046044 241.58657335 169.59757885 236.36291504 169.59286499 C227.58973331 169.58740286 218.81662728 169.59461105 210.04345703 169.60888672 C199.89199905 169.62521409 189.74072181 169.61992591 179.58926821 169.6034075 C170.8826354 169.58980567 162.17605709 169.58786659 153.4694171 169.59572351 C148.2652919 169.6004072 143.06125173 169.60100581 137.85713196 169.59111404 C132.9651726 169.58246559 128.07344688 169.58842737 123.18151283 169.60579681 C121.38316041 169.60977303 119.58478842 169.60860832 117.78644371 169.60200882 C115.33730095 169.59384783 112.88891356 169.60404825 110.43981934 169.61904907 C109.36458566 169.60901082 109.36458566 169.60901082 108.2676301 169.59876978 C105.4526352 169.63236518 103.47341435 169.68302589 101.09751129 171.27380943 C99.7139868 173.24915356 99.7139868 173.24915356 99 177 C94.05 177 89.1 177 84 177 C83.01 174.525 83.01 174.525 82 172 C79.12083614 169.12083614 77.09081507 169.74854761 73.05932617 169.74462891 C72.34530136 169.74100845 71.63127655 169.737388 70.89561462 169.73365784 C69.34271207 169.72675665 67.78978522 169.72425975 66.2368679 169.72560501 C63.77780581 169.72656844 61.31918305 169.71364945 58.86018372 169.69662476 C51.86800575 169.65030128 44.87587097 169.62575161 37.88354492 169.61914062 C33.6081523 169.61412319 29.33321579 169.58985866 25.05797768 169.55381393 C23.42935234 169.54401802 21.80066422 169.54168288 20.17201805 169.54698563 C17.89046993 169.55406385 15.61027749 169.53675954 13.32885742 169.51416016 C12.03139084 169.51131012 10.73392426 169.50846008 9.3971405 169.50552368 C5.44656622 168.9176443 3.80329588 167.78786848 1 165 C-0.42337486 162.15325029 -0.12269995 159.75532955 -0.12025452 156.57138062 C-0.12110894 155.90405273 -0.12196337 155.23672485 -0.12284368 154.5491749 C-0.12449684 152.30277589 -0.11897979 150.05645079 -0.11352539 147.81005859 C-0.11324346 146.2038727 -0.11340137 144.59768667 -0.1139679 142.99150085 C-0.11425563 138.62191272 -0.10836274 134.25235185 -0.10139394 129.88277006 C-0.09515644 125.31968542 -0.09455629 120.75660021 -0.09336853 116.19351196 C-0.09025639 107.5485349 -0.08204456 98.90357043 -0.07201904 90.25859892 C-0.06085429 80.41835454 -0.05534654 70.57810957 -0.05032361 60.73786044 C-0.03986186 40.49189992 -0.02226467 20.24595075 0 0 Z " fill="#F9D001" transform="translate(70,20)"/>
<path d="M0 0 C35.64 0 71.28 0 108 0 C108 17.49 108 34.98 108 53 C103.70355469 53.03738281 99.40710938 53.07476562 94.98046875 53.11328125 C91.55616414 53.15138347 88.13192387 53.19245627 84.70767975 53.2355423 C81.09216924 53.28021858 77.47677507 53.31965038 73.86108398 53.34643555 C70.37900415 53.37243241 66.89736161 53.41280795 63.41555214 53.46318626 C61.43974801 53.48800764 59.4637748 53.49790939 57.48783875 53.50764465 C55.68631096 53.53733589 55.68631096 53.53733589 53.84838867 53.56762695 C52.25954109 53.58428154 52.25954109 53.58428154 50.63859558 53.60127258 C47.99883679 53.79795941 47.99883679 53.79795941 46.19697571 55.27702332 C44.69273507 57.22514267 44.69273507 57.22514267 44 61 C39.05 61 34.1 61 29 61 C28.01 59.02 27.02 57.04 26 55 C18.22539747 51.11269874 8.68473431 53.36186393 0 53 C0 35.51 0 18.02 0 0 Z " fill="#5FB7FE" transform="translate(202,444)"/>
<path d="M0 0 C24 0 24 0 30 4 C33.0435764 7.84172162 33.37823967 10.78558686 33.38818359 15.62280273 C33.39344055 16.26738434 33.39869751 16.91196594 33.40411377 17.57608032 C33.41725957 19.69550192 33.40859467 21.81416521 33.3984375 23.93359375 C33.40046006 25.4142318 33.40337302 26.89486888 33.40713501 28.37550354 C33.41155121 31.47479765 33.40515119 34.57383187 33.39111328 37.6730957 C33.37403649 41.63531703 33.38385702 45.59692799 33.40183067 49.55912685 C33.41270053 52.61587576 33.40920732 55.67248134 33.4014473 58.7292347 C33.39945334 60.18959692 33.40187617 61.64997238 33.40888596 63.11031914 C33.41655199 65.15649463 33.40482558 67.20169909 33.38818359 69.24780273 C33.38579681 70.40964584 33.38341003 71.57148895 33.38095093 72.76853943 C32.84623682 77.30431405 31.40479708 80.72690264 28 83.8125 C19.28924458 88.98451103 11.38188283 86 0 86 C0 57.62 0 29.24 0 0 Z " fill="#E5E1E5" transform="translate(310,60)"/>
<path d="M0 0 C1.21400986 0.48608231 2.42801971 0.97216461 3.67881775 1.47297668 C9.80634514 3.50106801 15.73541466 3.44001868 22.13891602 3.43237305 C24.07209435 3.44766052 24.07209435 3.44766052 26.04432678 3.46325684 C29.55196939 3.4906656 33.0594499 3.50008918 36.56718564 3.50611091 C40.24276644 3.51553693 43.91822814 3.54174349 47.59373474 3.56611633 C54.542024 3.60966933 61.49029 3.63828486 68.43867391 3.66143972 C76.3541577 3.6885517 84.26952101 3.73245932 92.18491852 3.77772844 C108.45655339 3.87041416 124.72820563 3.94157246 141 4 C141 10.27 141 16.54 141 23 C123.76262575 23.11578822 106.52540701 23.20499486 89.28773308 23.25906086 C81.2838097 23.28483291 73.28013253 23.31996401 65.27636719 23.37719727 C58.29954777 23.42706323 51.32290668 23.45929829 44.34591401 23.47044247 C40.65219745 23.47695597 36.958991 23.49224264 33.26543808 23.52865028 C29.14010832 23.56898343 25.01566303 23.56994741 20.89013672 23.56762695 C19.05702187 23.59459152 19.05702187 23.59459152 17.18687439 23.62210083 C7.954681 23.56581225 7.954681 23.56581225 4.31936646 20.65202332 C0.28946169 16.04412646 -0.26876598 13.23455243 -0.125 7.3125 C-0.11597656 6.61060547 -0.10695312 5.90871094 -0.09765625 5.18554688 C-0.07413704 3.45688475 -0.03826713 1.72839855 0 0 Z " fill="#69CA43" transform="translate(154,123)"/>
<path d="M0 0 C0.33 0 0.66 0 1 0 C1 17.49 1 34.98 1 53 C-3.29644531 53.03738281 -7.59289062 53.07476562 -12.01953125 53.11328125 C-15.44383586 53.15138347 -18.86807613 53.19245627 -22.29232025 53.2355423 C-25.90783076 53.28021858 -29.52322493 53.31965038 -33.13891602 53.34643555 C-36.62099585 53.37243241 -40.10263839 53.41280795 -43.58444786 53.46318626 C-45.56025199 53.48800764 -47.5362252 53.49790939 -49.51216125 53.50764465 C-51.31368904 53.53733589 -51.31368904 53.53733589 -53.15161133 53.56762695 C-54.74045891 53.58428154 -54.74045891 53.58428154 -56.36140442 53.60127258 C-59.00116321 53.79795941 -59.00116321 53.79795941 -60.80302429 55.27702332 C-62.30726493 57.22514267 -62.30726493 57.22514267 -63 61 C-67.95 61 -72.9 61 -78 61 C-78.99 59.02 -79.98 57.04 -81 55 C-83.57211322 53.71394339 -85.56906966 53.78956059 -88.4453125 53.68359375 C-89.52167969 53.64169922 -90.59804687 53.59980469 -91.70703125 53.55664062 C-92.83496094 53.51732422 -93.96289062 53.47800781 -95.125 53.4375 C-96.26066406 53.39431641 -97.39632812 53.35113281 -98.56640625 53.30664062 C-101.37745261 53.20034055 -104.1887099 53.09964603 -107 53 C-107 46.4 -107 39.8 -107 33 C-71.69 33 -36.38 33 0 33 C0 22.11 0 11.22 0 0 Z " fill="#24A6FD" transform="translate(309,444)"/>
<path d="M0 0 C7.11505794 4.23988555 11.48479404 9.27328848 14.09765625 17.25 C15.51133074 25.30679527 13.53393671 31.50392062 9.09765625 38.25 C4.68462926 43.5920853 -1.43694012 47.77423401 -8.46875 48.5234375 C-16.95710993 48.81117851 -23.2513089 47.30121852 -29.75 41.640625 C-35.85895015 35.09639339 -37.5756909 28.04740159 -37.30859375 19.2109375 C-36.26328201 11.59222305 -31.78099022 6.39332394 -25.93359375 1.69140625 C-17.71041644 -4.14388688 -8.88809936 -4.51459015 0 0 Z " fill="#C7BDC6" transform="translate(428.90234375,371.75)"/>
<path d="M0 0 C7.4427932 4.28020056 11.68828902 9.74350606 14.5625 17.8125 C15.85822572 25.01718181 14.13285066 31.50876516 10.5625 37.8125 C5.71594541 44.53596963 -0.84937215 47.89128452 -8.94921875 49.2265625 C-15.6780682 49.62796953 -20.94088769 47.63061661 -26.4375 43.8125 C-31.89692142 38.90723038 -35.84669006 33.49251135 -36.78515625 26.05859375 C-37.15527393 18.62776965 -35.93471433 12.82609606 -31.4375 6.8125 C-22.56475357 -1.83561994 -11.74659328 -5.59194111 0 0 Z " fill="#C8BEC7" transform="translate(105.4375,371.1875)"/>
<path d="M0 0 C5.34740414 1.95385921 8.45618143 4.91236287 11 10 C11.09039906 11.6648064 11.11755257 13.33323421 11.11352539 15.00048828 C11.11344986 16.04141632 11.11337433 17.08234436 11.11329651 18.15481567 C11.10813522 19.28192963 11.10297394 20.40904358 11.09765625 21.5703125 C11.0962413 22.72167694 11.09482635 23.87304138 11.09336853 25.05929565 C11.08775716 28.74788986 11.0752027 32.43642405 11.0625 36.125 C11.05748647 38.62109288 11.05292331 41.1171867 11.04882812 43.61328125 C11.0386336 49.7422294 11.01906032 55.87104727 11 62 C1.43 62 -8.14 62 -18 62 C-18.09190666 54.7036323 -18.17152676 47.40927865 -18.21972656 40.11279297 C-18.23982241 37.63160389 -18.26710384 35.15046205 -18.30175781 32.66943359 C-18.35036294 29.09981618 -18.37298972 25.53082584 -18.390625 21.9609375 C-18.42159271 20.30123428 -18.42159271 20.30123428 -18.45318604 18.60800171 C-18.45498774 12.40225259 -18.19930262 8.6948547 -14 4 C-9.44787756 0.06862153 -5.81719888 -0.95402062 0 0 Z " fill="#E5E1E5" transform="translate(98,435)"/>
<path d="M0 0 C4.75433311 2.68572017 6.86973761 4.87619558 8.88671875 10.08203125 C9.29437409 13.99951478 9.23586303 17.8893012 9.1796875 21.82421875 C9.17544266 22.94772736 9.17119781 24.07123596 9.16682434 25.22879028 C9.15007765 28.80511788 9.11243171 32.38087494 9.07421875 35.95703125 C9.05916678 38.38671059 9.04547927 40.8163988 9.03320312 43.24609375 C9.00274356 49.19180108 8.94401186 55.13628008 8.88671875 61.08203125 C-0.68328125 61.08203125 -10.25328125 61.08203125 -20.11328125 61.08203125 C-20.20518791 53.78566355 -20.28480801 46.4913099 -20.33300781 39.19482422 C-20.35310366 36.71363514 -20.38038509 34.2324933 -20.41503906 31.75146484 C-20.46364419 28.18184743 -20.48627097 24.61285709 -20.50390625 21.04296875 C-20.53487396 19.38326553 -20.53487396 19.38326553 -20.56646729 17.69003296 C-20.56826663 11.4924223 -20.28921446 7.78675591 -16.11328125 3.08203125 C-11.4407245 -0.99147976 -5.88581884 -2.55668656 0 0 Z " fill="#E4E0E4" transform="translate(423.11328125,435.91796875)"/>
<path d="M0 0 C0.94875 0.886875 1.8975 1.77375 2.875 2.6875 C11.09219312 9.56511094 18.47528455 11.965126 29.15625 11.41796875 C37.99929466 10.45637751 44.27857676 6.63247758 51 1 C51.63691103 9.31522731 50.48248028 16.16886689 45.52734375 23.04296875 C40.08591615 29.07613552 33.0737712 32.08086216 25 32.5625 C17.33431358 32.18944462 11.21469495 28.68850463 6.0625 23.125 C0.1502106 15.62308562 -0.41239988 9.30190852 0 0 Z " fill="#B7ADB6" transform="translate(69,388)"/>
<path d="M0 0 C0.70125 0.7425 1.4025 1.485 2.125 2.25 C8.77602198 8.61184711 16.25700606 12.01509581 25.5 12.375 C34.60312884 11.98968238 41.10284898 8.71842313 48 3 C48.99 2.34 49.98 1.68 51 1 C51.83027612 10.7050053 49.84558137 17.34482255 43.625 24.875 C36.89627211 30.32206544 30.84718219 32.43387199 22.20703125 32.33984375 C15.52149153 31.63138826 10.12504928 28.57514493 5.5625 23.6875 C-0.11367677 16.19430346 -0.41461289 9.21361987 0 0 Z " fill="#B7ACB6" transform="translate(392,388)"/>
<path d="M0 0 C0.33 0.66 0.66 1.32 1 2 C15.19 2 29.38 2 44 2 C44 8.27 44 14.54 44 21 C30.14 21 16.28 21 2 21 C1.34 14.07 0.68 7.14 0 0 Z " fill="#D6CFD5" transform="translate(143,476)"/>
<path d="M0 0 C14.19 0 28.38 0 43 0 C43 9 43 9 42 19 C28.14 19 14.28 19 0 19 C0 12.73 0 6.46 0 0 Z " fill="#D7D0D6" transform="translate(325,478)"/>
<path d="M0 0 C0.33 0 0.66 0 1 0 C1 22.11 1 44.22 1 67 C21.22260032 66.97568514 21.22260032 66.97568514 33 63 C33.56719268 77.15880993 33.56719268 77.15880993 30 82 C21.54199498 89.66506705 12.09006977 86 0 86 C0 57.62 0 29.24 0 0 Z " fill="#CCC6CB" transform="translate(310,60)"/>
<path d="M0 0 C0.33 0 0.66 0 1 0 C1 10.56 1 21.12 1 32 C9.91 32 18.82 32 28 32 C28 21.44 28 10.88 28 0 C28.33 0 28.66 0 29 0 C29 17.16 29 34.32 29 52 C19.43 52 9.86 52 0 52 C0 34.84 0 17.68 0 0 Z " fill="#D2CBD1" transform="translate(80,445)"/>
<path d="M0 0 C0.33 0 0.66 0 1 0 C1 16.83 1 33.66 1 51 C-8.57 51 -18.14 51 -28 51 C-28 44.73 -28 38.46 -28 32 C-18.76 32 -9.52 32 0 32 C0 21.44 0 10.88 0 0 Z " fill="#D4CDD3" transform="translate(431,446)"/>
<path d="M0 0 C4.12326498 1.7409341 6.69835882 4.16393137 9 8 C9.82192719 14.36993573 8.73668485 17.81015993 5 23 C0.63481254 25.77700224 -3.9931228 25.78183098 -9 25 C-12.20289214 23.35933484 -14.24892499 21.0241932 -16.375 18.125 C-17.75785693 13.42328643 -17.57576982 10.06928681 -15.25 5.75 C-10.60767851 0.07605151 -7.25009379 -0.94848897 0 0 Z " fill="#040404" transform="translate(227,288)"/>
<path d="M0 0 C4.23942058 1.59978135 6.64063892 3.14660225 9 7 C9.79114046 11.36445818 10.04175261 16.009095 7.9453125 20.015625 C6.19443375 22.14983223 4.47737694 23.76131153 2 25 C-3.14480246 25.50536707 -7.53896761 25.86469264 -12.0625 23.1875 C-15.88117333 18.87609463 -16.54291345 16.18098875 -16.4609375 10.58203125 C-15.70118824 6.32614766 -13.23010264 3.73638229 -10 1 C-6.80031426 -0.59984287 -3.48042073 -0.3629489 0 0 Z " fill="#030303" transform="translate(292,288)"/>
<path d="M0 0 C1.98 0 3.96 0 6 0 C8.60868369 2.60868369 8.25728913 3.74532364 8.265625 7.375 C8.26820313 8.44234375 8.27078125 9.5096875 8.2734375 10.609375 C8.26570313 11.72828125 8.25796875 12.8471875 8.25 14 C8.25773437 15.11890625 8.26546875 16.2378125 8.2734375 17.390625 C8.27085937 18.45796875 8.26828125 19.5253125 8.265625 20.625 C8.26336914 21.60726562 8.26111328 22.58953125 8.25878906 23.6015625 C8 26 8 26 6 28 C4.02 28 2.04 28 0 28 C0 18.76 0 9.52 0 0 Z " fill="#827780" transform="translate(358,89)"/>
<path d="M0 0 C1.98 0 3.96 0 6 0 C6 4.29 6 8.58 6 13 C4.02 13 2.04 13 0 13 C0 8.71 0 4.42 0 0 Z " fill="#9B8E99" transform="translate(359,90)"/>
</svg>
