<?xml version="1.0" encoding="UTF-8"?>
<svg version="1.1" xmlns="http://www.w3.org/2000/svg" width="512" height="512">
<path d="M0 0 C0.85801712 -0.01283524 1.71603424 -0.02567047 2.60005188 -0.03889465 C3.51989365 -0.04628159 4.43973541 -0.05366852 5.38745117 -0.0612793 C6.34181564 -0.06935104 7.29618011 -0.07742279 8.27946472 -0.08573914 C10.29761959 -0.09955569 12.31579758 -0.11028868 14.33398438 -0.11816406 C16.39297351 -0.12969038 18.45193263 -0.15015239 20.51074219 -0.1796875 C23.49068445 -0.22243208 26.46974011 -0.23854222 29.44995117 -0.2487793 C30.36372025 -0.26628738 31.27748932 -0.28379547 32.21894836 -0.30183411 C38.21453302 -0.28161391 41.72641637 0.64374326 46.61791992 4.17700195 C52.06775787 9.79693148 51.22675561 18.45200577 51.1394043 25.73828125 C51.11813315 27.8433999 51.13917515 29.94504008 51.16479492 32.05004883 C51.18947568 43.87986618 49.39724535 54.88502992 41.61791992 64.17700195 C42.2959668 64.51731445 42.97401367 64.85762695 43.67260742 65.20825195 C58.28773323 72.8194532 68.68872706 82.54549349 74.61791992 98.17700195 C74.61791992 99.16700195 74.61791992 100.15700195 74.61791992 101.17700195 C75.9238208 100.62894897 75.9238208 100.62894897 77.25610352 100.06982422 C87.45317563 95.79361857 97.66305342 91.5486679 107.87762451 87.31445312 C110.64324937 86.16648812 113.40732273 85.01485199 116.17114258 83.86254883 C120.80773962 81.93087817 125.45018668 80.01386509 130.09649658 78.10568237 C131.87826852 77.37152393 133.65823892 76.63297522 135.43621826 75.88967896 C155.69281394 67.42987064 173.97197676 64.03345374 195.95385742 63.97387695 C197.02158827 63.96963589 197.02158827 63.96963589 198.11088943 63.96530914 C201.86437586 63.95045081 205.61782505 63.94113237 209.37133789 63.93676758 C213.23477773 63.93124458 217.09787196 63.90709921 220.96120262 63.87879562 C223.95009378 63.86016758 226.9389007 63.85496398 229.927845 63.8534317 C231.35276848 63.85041444 232.77769081 63.84241728 234.20255661 63.82924652 C236.19038629 63.81215421 238.17836202 63.81591569 240.16625977 63.82055664 C241.29446136 63.81691101 242.42266296 63.81326538 243.58505249 63.80950928 C247.00841718 64.22431852 248.89252516 65.08850473 251.61791992 67.17700195 C252.43041992 69.86450195 252.43041992 69.86450195 252.61791992 72.17700195 C255.72371486 72.15420795 258.82582476 72.07692377 261.93041992 71.98950195 C262.81149414 71.98370117 263.69256836 71.97790039 264.6003418 71.97192383 C267.03798554 71.88850636 269.24903006 71.76248647 271.61791992 71.17700195 C273.62482068 68.86128441 273.62482068 68.86128441 274.61791992 66.17700195 C278.18819133 63.79682101 279.75854437 63.9191458 283.99780273 63.90234375 C285.97565765 63.88804573 285.97565765 63.88804573 287.99346924 63.87345886 C289.43599474 63.87372037 290.87852025 63.87465781 292.32104492 63.8762207 C293.80214559 63.87233259 295.28324515 63.86799768 296.76434326 63.86323547 C299.87133391 63.85577084 302.97821096 63.85606516 306.08520508 63.86132812 C310.05408258 63.86710701 314.02249101 63.85023174 317.99129105 63.82698345 C321.05235485 63.81219811 324.11330714 63.81138118 327.17440033 63.81449318 C328.63673579 63.81398184 330.0990778 63.80877945 331.56137848 63.79868126 C333.61470768 63.78624762 335.66714248 63.79314978 337.72045898 63.8046875 C339.46894135 63.80374336 339.46894135 63.80374336 341.25274658 63.80278015 C345.81503915 64.31012678 349.84694474 65.61647898 353.36010742 68.7121582 C356.18201637 72.51686992 357.73387224 74.64017701 357.79492188 79.34790039 C357.80775711 80.20929626 357.82059235 81.07069214 357.83381653 81.95819092 C357.84489693 83.35814301 357.84489693 83.35814301 357.85620117 84.78637695 C357.86427292 85.74594299 357.87234467 86.70550903 357.88066101 87.69415283 C357.89450733 89.72845653 357.90522703 91.76278351 357.91308594 93.79711914 C357.93027459 96.90076092 357.97415306 100.00333087 358.01831055 103.10668945 C358.02843958 105.08324412 358.03695503 107.05980785 358.04370117 109.03637695 C358.06120926 109.96158142 358.07871735 110.88678589 358.09675598 111.84002686 C358.07808218 117.41876787 357.61808725 120.94585073 353.61791992 125.17700195 C346.41918815 129.8643618 339.97069373 129.73784273 331.54199219 129.67529297 C330.12685577 129.67912145 328.71172325 129.68474499 327.29660034 129.6920166 C324.26220606 129.70392285 321.22815809 129.70351248 318.19375801 129.69342232 C313.38921403 129.67779404 308.5850221 129.6915863 303.78050232 129.7094574 C294.44677011 129.74021631 285.1131467 129.74178115 275.77937317 129.73980713 C263.90257777 129.73841253 252.02586624 129.7488592 240.14913219 129.78838485 C235.37966208 129.80326453 230.61050677 129.80308888 225.84103215 129.79090703 C222.86655908 129.78617558 219.89220498 129.79374737 216.91775131 129.80445099 C214.89540101 129.80797957 212.87304159 129.79662194 210.85072327 129.78471375 C199.29729875 129.84866224 191.02583655 131.98132399 182.61791992 140.17700195 C177.72395883 146.34505997 175.37743396 152.69652151 175.34667969 160.60620117 C175.33649307 161.86125458 175.32630646 163.11630798 175.31581116 164.40939331 C175.31487017 165.07269527 175.31392918 165.73599724 175.31295967 166.41939926 C175.30926894 168.51417158 175.29246928 170.60848176 175.27220154 172.70315552 C175.21705007 178.65512461 175.18616478 184.60716038 175.16162109 190.55932617 C175.14566485 194.21037373 175.11536487 197.86109114 175.07685661 201.51196671 C175.06527986 202.89527992 175.05927691 204.27865236 175.05917549 205.66201401 C175.05755555 221.87745741 175.05755555 221.87745741 169.36791992 228.98950195 C162.5905595 234.38058411 156.5595889 234.62432399 148.17260742 234.57543945 C147.08456818 234.57830963 145.99652893 234.58117981 144.8755188 234.58413696 C142.5844063 234.58617157 140.29327619 234.5806841 138.00219727 234.56811523 C134.49740844 234.55202256 130.99376735 234.56800118 127.48901367 234.5871582 C125.25854238 234.58517627 123.0280718 234.58133364 120.79760742 234.57543945 C119.22872269 234.58454849 119.22872269 234.58454849 117.62814331 234.59384155 C108.08414688 234.50156494 108.08414688 234.50156494 104.61791992 231.17700195 C104.28791992 229.52700195 103.95791992 227.87700195 103.61791992 226.17700195 C97.34791992 226.17700195 91.07791992 226.17700195 84.61791992 226.17700195 C84.28791992 227.82700195 83.95791992 229.47700195 83.61791992 231.17700195 C81.15001588 234.10153864 79.52414149 234.18606124 75.68101883 234.55731869 C74.04169304 234.57514043 72.40213771 234.57631891 70.76275635 234.56468201 C69.40627365 234.57276031 69.40627365 234.57276031 68.02238727 234.58100182 C64.98540905 234.59533452 61.94886345 234.58816447 58.91186523 234.58105469 C56.73708749 234.58675559 54.56231273 234.59371876 52.38754272 234.60185242 C46.47416493 234.61983296 40.56093513 234.61860585 34.64753819 234.61291003 C29.71221873 234.60982426 24.77692796 234.61590404 19.84161258 234.62194878 C8.19671171 234.63600941 -3.44811583 234.63442083 -15.09301758 234.62304688 C-27.10588775 234.61157276 -39.11850019 234.62562604 -51.13134456 234.65244335 C-61.44315818 234.67460135 -71.75490167 234.68123723 -82.06673741 234.67536694 C-88.22621459 234.67199538 -94.38554864 234.67442543 -100.5450058 234.69161797 C-106.33987566 234.70708571 -112.1344149 234.70313307 -117.9292717 234.68431282 C-120.05448976 234.68062605 -122.17973231 234.68373793 -124.30492783 234.69419861 C-127.20999314 234.70740436 -130.11396339 234.69586411 -133.01898193 234.6782074 C-133.85674124 234.6878124 -134.69450056 234.69741741 -135.55764651 234.70731348 C-142.50874294 234.62060502 -147.80667148 232.65461023 -152.85083008 227.80200195 C-155.28668944 222.03547774 -154.95819293 216.3675137 -154.88208008 210.17700195 C-154.89754883 208.91887695 -154.91301758 207.66075195 -154.92895508 206.36450195 C-154.88046272 194.92030561 -154.88046272 194.92030561 -150.38208008 190.17700195 C-146.79637414 187.35421217 -143.93333946 185.71244423 -139.38208008 185.17700195 C-139.58833008 183.96012695 -139.79458008 182.74325195 -140.00708008 181.48950195 C-141.53855357 167.12067711 -136.12790299 153.84530172 -127.46411133 142.6418457 C-120.21610908 134.06119014 -109.71814173 126.84218615 -98.38208008 125.17700195 C-98.54192383 124.63043945 -98.70176758 124.08387695 -98.86645508 123.52075195 C-101.78715655 110.24483617 -97.37150496 96.42085937 -90.38208008 85.17700195 C-82.46695496 74.79939347 -71.57188631 65.3142308 -58.19458008 63.36450195 C-57.26645508 63.30262695 -56.33833008 63.24075195 -55.38208008 63.17700195 C-55.42848633 62.62915039 -55.47489258 62.08129883 -55.52270508 61.5168457 C-56.23451341 45.88248414 -49.73534425 31.08141296 -39.69458008 19.36450195 C-29.61753254 8.92267441 -14.96010131 0.19592697 0 0 Z " fill="#F5E165" transform="translate(154.382080078125,214.822998046875)"/>
<path d="M0 0 C0.85801712 -0.01283524 1.71603424 -0.02567047 2.60005188 -0.03889465 C3.51989365 -0.04628159 4.43973541 -0.05366852 5.38745117 -0.0612793 C6.34181564 -0.06935104 7.29618011 -0.07742279 8.27946472 -0.08573914 C10.29761959 -0.09955569 12.31579758 -0.11028868 14.33398438 -0.11816406 C16.39297351 -0.12969038 18.45193263 -0.15015239 20.51074219 -0.1796875 C23.49068445 -0.22243208 26.46974011 -0.23854222 29.44995117 -0.2487793 C30.36372025 -0.26628738 31.27748932 -0.28379547 32.21894836 -0.30183411 C38.21453302 -0.28161391 41.72641637 0.64374326 46.61791992 4.17700195 C52.06775787 9.79693148 51.22675561 18.45200577 51.1394043 25.73828125 C51.11813315 27.8433999 51.13917515 29.94504008 51.16479492 32.05004883 C51.18947568 43.87986618 49.39724535 54.88502992 41.61791992 64.17700195 C42.2959668 64.51731445 42.97401367 64.85762695 43.67260742 65.20825195 C58.28773323 72.8194532 68.68872706 82.54549349 74.61791992 98.17700195 C74.61791992 99.16700195 74.61791992 100.15700195 74.61791992 101.17700195 C75.9238208 100.62894897 75.9238208 100.62894897 77.25610352 100.06982422 C87.45317563 95.79361857 97.66305342 91.5486679 107.87762451 87.31445312 C110.64324937 86.16648812 113.40732273 85.01485199 116.17114258 83.86254883 C120.80773962 81.93087817 125.45018668 80.01386509 130.09649658 78.10568237 C131.87826852 77.37152393 133.65823892 76.63297522 135.43621826 75.88967896 C155.69281394 67.42987064 173.97197676 64.03345374 195.95385742 63.97387695 C197.02158827 63.96963589 197.02158827 63.96963589 198.11088943 63.96530914 C201.86437586 63.95045081 205.61782505 63.94113237 209.37133789 63.93676758 C213.23477773 63.93124458 217.09787196 63.90709921 220.96120262 63.87879562 C223.95009378 63.86016758 226.9389007 63.85496398 229.927845 63.8534317 C231.35276848 63.85041444 232.77769081 63.84241728 234.20255661 63.82924652 C236.19038629 63.81215421 238.17836202 63.81591569 240.16625977 63.82055664 C241.29446136 63.81691101 242.42266296 63.81326538 243.58505249 63.80950928 C247.28480945 64.25780899 249.9638548 65.52293683 252.61791992 68.17700195 C252.63745117 70.13793945 252.63745117 70.13793945 252.43041992 72.55200195 C252.37499023 73.34348633 252.31956055 74.1349707 252.26245117 74.95043945 C251.38537724 77.98033122 250.34090464 78.60769753 247.61791992 80.17700195 C244.41746521 80.54208374 244.41746521 80.54208374 240.58056641 80.5300293 C239.87898407 80.53218948 239.17740173 80.53434967 238.45455933 80.53657532 C236.93172084 80.53965982 235.40885743 80.53606367 233.88604546 80.52656174 C231.45648021 80.51275457 229.02772618 80.51930662 226.59815979 80.53140259 C219.69038645 80.56223141 212.78279889 80.55776856 205.875 80.53735352 C179.26279389 80.01995428 179.26279389 80.01995428 153.61791992 86.17700195 C152.92127228 86.44017212 152.22462463 86.70334229 151.50686646 86.9744873 C147.10469617 88.65090042 142.77580804 90.46656266 138.4637146 92.36154175 C134.3786782 94.15593517 130.27357103 95.90377256 126.17260742 97.66137695 C125.31448959 98.03072861 124.45637177 98.40008026 123.57225037 98.78062439 C113.70281532 103.02114245 103.7549266 107.0664162 93.80541992 111.11450195 C90.08360713 112.63160811 86.36237481 114.15013356 82.64135742 115.66918945 C81.72229614 116.04431671 80.80323486 116.41944397 79.85632324 116.80593872 C70.20048557 120.75035926 60.56352054 124.73993057 50.93041992 128.73950195 C49.66787384 129.26364182 49.66787384 129.26364182 48.37982178 129.79837036 C44.1437949 131.55718705 39.90810162 133.31680528 35.67260742 135.0769043 C27.2601797 138.57254323 18.84535904 142.06241394 10.43041992 145.55200195 C9.59656769 145.89783325 8.76271545 146.24366455 7.90359497 146.59997559 C-9.00220687 153.61098473 -25.91784988 160.59810855 -42.83460999 167.58262634 C-43.76550949 167.96697342 -44.696409 168.3513205 -45.65551758 168.74731445 C-47.03065773 169.31507347 -47.03065773 169.31507347 -48.43357849 169.89430237 C-60.75283077 174.9810777 -73.0678894 180.07798719 -85.38208008 185.17700195 C-84.13595947 185.19158447 -82.88983887 185.20616699 -81.60595703 185.22119141 C-76.97448295 185.27924495 -72.34349146 185.35647771 -67.71240234 185.43945312 C-65.70955244 185.47266923 -63.70660968 185.50071148 -61.70361328 185.5234375 C-58.82129414 185.5570443 -55.9398234 185.60936344 -53.05786133 185.6652832 C-52.16496902 185.67167313 -51.27207672 185.67806305 -50.35212708 185.68464661 C-45.61676666 185.79616731 -42.14331682 185.96423024 -38.38208008 189.17700195 C-37.25708008 192.55200195 -37.25708008 192.55200195 -37.38208008 196.17700195 C-39.36477227 198.9620248 -40.95158141 200.8589042 -44.39246559 201.62404823 C-46.8933935 201.79371124 -49.34773956 201.79530525 -51.85400391 201.74462891 C-53.27424362 201.74572411 -53.27424362 201.74572411 -54.72317505 201.74684143 C-57.84574112 201.74336424 -60.96680658 201.70449592 -64.08911133 201.6652832 C-66.25672084 201.65595557 -68.4243409 201.64883923 -70.59196472 201.6438446 C-76.29191283 201.62477108 -81.99122199 201.5756664 -87.69091797 201.52032471 C-93.50910804 201.46914036 -99.32740154 201.44633225 -105.14575195 201.42114258 C-116.55814177 201.36754868 -127.97005775 201.28223092 -139.38208008 201.17700195 C-139.38208008 206.78700195 -139.38208008 212.39700195 -139.38208008 218.17700195 C-136.66206253 218.16811951 -133.94204498 218.15923706 -131.13960266 218.15008545 C-105.54980624 218.06842458 -79.96002697 218.00885504 -54.37012959 217.96975327 C-41.21300938 217.94911525 -28.05598469 217.92097085 -14.89892578 217.87524414 C-3.43318548 217.83541447 8.03248566 217.80957817 19.49829322 217.80064797 C25.57113538 217.79542671 31.64377964 217.78312883 37.71655846 217.75408173 C43.43006846 217.72697394 49.14329864 217.71854766 54.85686684 217.72457123 C56.95594426 217.72346892 59.05503084 217.71548765 61.15405273 217.70018005 C64.01655574 217.68032496 66.87799754 217.6850466 69.74052429 217.69598389 C70.57418681 217.68433252 71.40784933 217.67268116 72.26677436 217.66067672 C76.18886874 217.70127841 78.17612379 217.90829682 81.60244465 219.99222183 C84.4264951 223.05349942 84.76290991 225.04478728 84.61791992 229.17700195 C82.65256572 231.88590278 81.06437972 233.83089178 77.70434034 234.63488495 C75.33699296 234.82076518 73.01702332 234.83849895 70.64250183 234.80519104 C69.73732561 234.81228543 68.83214939 234.81937981 67.89954358 234.82668918 C64.86537751 234.84429596 61.8324879 234.82615028 58.79833984 234.80810547 C56.62341223 234.81324335 54.44848878 234.82052364 52.27357483 234.82978821 C46.36427502 234.84833014 40.45542542 234.83534437 34.54614425 234.81569791 C28.36256993 234.79932707 22.17902448 234.80812242 15.99543762 234.81321716 C5.60739951 234.81774087 -4.7804587 234.80185347 -15.16845703 234.77392578 C-27.17398675 234.74189802 -39.17913433 234.74187899 -51.18469316 234.75914055 C-62.73428657 234.77501427 -74.283761 234.76826493 -85.83334923 234.75120354 C-90.74745544 234.74433546 -95.6614662 234.74536315 -100.57557106 234.75274849 C-106.36637964 234.76041913 -112.15681936 234.74825918 -117.94756508 234.72089958 C-120.07116094 234.71402197 -122.1947913 234.71391106 -124.31838608 234.72111511 C-127.22123721 234.72982663 -130.12295452 234.71382429 -133.02571106 234.69166565 C-133.86278825 234.69990642 -134.69986544 234.70814718 -135.56230861 234.71663767 C-142.50822833 234.61902843 -147.81003233 232.651377 -152.85083008 227.80200195 C-155.28668944 222.03547774 -154.95819293 216.3675137 -154.88208008 210.17700195 C-154.89754883 208.91887695 -154.91301758 207.66075195 -154.92895508 206.36450195 C-154.88046272 194.92030561 -154.88046272 194.92030561 -150.38208008 190.17700195 C-146.79637414 187.35421217 -143.93333946 185.71244423 -139.38208008 185.17700195 C-139.58833008 183.96012695 -139.79458008 182.74325195 -140.00708008 181.48950195 C-141.53855357 167.12067711 -136.12790299 153.84530172 -127.46411133 142.6418457 C-120.21610908 134.06119014 -109.71814173 126.84218615 -98.38208008 125.17700195 C-98.54192383 124.63043945 -98.70176758 124.08387695 -98.86645508 123.52075195 C-101.78715655 110.24483617 -97.37150496 96.42085937 -90.38208008 85.17700195 C-82.46695496 74.79939347 -71.57188631 65.3142308 -58.19458008 63.36450195 C-57.26645508 63.30262695 -56.33833008 63.24075195 -55.38208008 63.17700195 C-55.42848633 62.62915039 -55.47489258 62.08129883 -55.52270508 61.5168457 C-56.23451341 45.88248414 -49.73534425 31.08141296 -39.69458008 19.36450195 C-29.61753254 8.92267441 -14.96010131 0.19592697 0 0 Z " fill="#020100" transform="translate(154.382080078125,214.822998046875)"/>
<path d="M0 0 C1.97785492 -0.01429802 1.97785492 -0.01429802 3.9956665 -0.02888489 C5.438192 -0.02862338 6.88071751 -0.02768594 8.32324219 -0.02612305 C9.80434286 -0.03001116 11.28544241 -0.03434607 12.76654053 -0.03910828 C15.87353118 -0.04657291 18.98040823 -0.04627859 22.08740234 -0.04101562 C26.05627985 -0.03523674 30.02468828 -0.05211201 33.99348831 -0.0753603 C37.05455211 -0.09014564 40.11550441 -0.09096257 43.1765976 -0.08785057 C44.63893305 -0.08836191 46.10127506 -0.0935643 47.56357574 -0.10366249 C49.61690494 -0.11609613 51.66933974 -0.10919397 53.72265625 -0.09765625 C55.47113861 -0.09860039 55.47113861 -0.09860039 57.25494385 -0.0995636 C61.81723642 0.40778303 65.84914201 1.71413523 69.36230469 4.80981445 C72.18421363 8.61452617 73.7360695 10.73783326 73.79711914 15.44555664 C73.80995438 16.30695251 73.82278961 17.16834839 73.83601379 18.05584717 C73.84709419 19.45579926 73.84709419 19.45579926 73.85839844 20.8840332 C73.86647018 21.84359924 73.87454193 22.80316528 73.88285828 23.79180908 C73.89670459 25.82611278 73.90742429 27.86043976 73.9152832 29.89477539 C73.93247186 32.99841717 73.97635033 36.10098712 74.02050781 39.2043457 C74.03063685 41.18090037 74.03915229 43.1574641 74.04589844 45.1340332 C74.06340652 46.05923767 74.08091461 46.98444214 74.09895325 47.93768311 C74.08027945 53.51642412 73.62028451 57.04350698 69.62011719 61.2746582 C62.42138541 65.96201805 55.972891 65.83549898 47.54418945 65.77294922 C46.12905304 65.7767777 44.71392052 65.78240124 43.29879761 65.78967285 C40.26440333 65.8015791 37.23035536 65.80116873 34.19595528 65.79107857 C29.39141129 65.77545029 24.58721936 65.78924255 19.78269958 65.80711365 C10.44896738 65.83787256 1.11534396 65.8394374 -8.21842957 65.83746338 C-20.09522497 65.83606878 -31.97193649 65.84651545 -43.84867054 65.8860411 C-48.61814066 65.90092078 -53.38729596 65.90074513 -58.15677059 65.88856328 C-61.13124365 65.88383183 -64.10559775 65.89140362 -67.08005142 65.90210724 C-69.10240173 65.90563582 -71.12476114 65.89427819 -73.14707947 65.88237 C-84.70050399 65.94631849 -92.97196618 68.07898024 -101.37988281 76.2746582 C-106.27384391 82.44271622 -108.62036878 88.79417776 -108.65112305 96.70385742 C-108.66130966 97.95891083 -108.67149628 99.21396423 -108.68199158 100.50704956 C-108.68293257 101.17035152 -108.68387356 101.83365349 -108.68484306 102.51705551 C-108.68853379 104.61182783 -108.70533345 106.70613801 -108.7256012 108.80081177 C-108.78075266 114.75278086 -108.81163796 120.70481663 -108.83618164 126.65698242 C-108.85213789 130.30802998 -108.88243786 133.95874739 -108.92094612 137.60962296 C-108.93252288 138.99293617 -108.93852583 140.37630861 -108.93862724 141.75967026 C-108.94024718 157.97511366 -108.94024718 157.97511366 -114.62988281 165.0871582 C-121.40724323 170.47824036 -127.43821383 170.72198024 -135.82519531 170.6730957 C-136.91323456 170.67596588 -138.0012738 170.67883606 -139.12228394 170.68179321 C-141.41339643 170.68382782 -143.70452654 170.67834035 -145.99560547 170.66577148 C-149.5003943 170.64967881 -153.00403538 170.66565743 -156.50878906 170.68481445 C-158.73926035 170.68283252 -160.96973093 170.67898989 -163.20019531 170.6730957 C-164.24611847 170.6791684 -165.29204163 170.68524109 -166.36965942 170.6914978 C-175.56754999 170.60256753 -175.56754999 170.60256753 -179.37988281 167.2746582 C-180.55341008 164.30172245 -180.50069962 162.73595873 -179.69238281 159.6496582 C-178.19608883 156.94207862 -176.99522848 155.89747513 -174.37988281 154.2746582 C-172.07659912 153.87593079 -172.07659912 153.87593079 -169.51953125 153.84228516 C-168.55883728 153.822491 -167.59814331 153.80269684 -166.6083374 153.78230286 C-165.06439301 153.77271797 -165.06439301 153.77271797 -163.48925781 153.76293945 C-162.42950745 153.74498825 -161.36975708 153.72703705 -160.27789307 153.70854187 C-156.89526338 153.654388 -153.51277521 153.62052622 -150.12988281 153.5871582 C-147.83559227 153.55398969 -145.5413204 153.51950047 -143.24707031 153.48364258 C-137.6247765 153.39865828 -132.00252505 153.33187083 -126.37988281 153.2746582 C-126.04988281 147.9946582 -125.71988281 142.7146582 -125.37988281 137.2746582 C-128.5988028 137.28798187 -128.5988028 137.28798187 -131.88275146 137.30157471 C-152.07202548 137.38323672 -172.26127777 137.44280561 -192.45067978 137.48190689 C-202.8311184 137.50254466 -213.21143595 137.53068847 -223.59179688 137.57641602 C-232.6378189 137.61624659 -241.68375326 137.64208218 -250.72986054 137.65101218 C-255.52110536 137.65623334 -260.31209933 137.66853013 -265.10326385 137.69757843 C-269.6110708 137.72468785 -274.11852309 137.73311229 -278.62640381 137.72708893 C-280.28245215 137.72819118 -281.9385121 137.73617177 -283.59449005 137.7514801 C-285.85312472 137.77133888 -288.11041478 137.76661359 -290.36907959 137.75567627 C-291.63377956 137.75936344 -292.89847954 137.76305061 -294.20150375 137.76684952 C-297.37988281 137.2746582 -297.37988281 137.2746582 -299.78680801 135.46334457 C-302.11286522 132.26763167 -301.93002158 130.1256296 -301.37988281 126.2746582 C-299.78680801 124.08597183 -299.78680801 124.08597183 -297.37988281 122.2746582 C-294.20150375 121.78246689 -294.20150375 121.78246689 -290.36907959 121.79364014 C-289.66329088 121.79022244 -288.95750218 121.78680474 -288.23032594 121.78328347 C-285.86537699 121.77669482 -283.50156311 121.79869535 -281.13671875 121.82055664 C-279.44156928 121.82168491 -277.74641786 121.82105165 -276.05126953 121.81878662 C-271.44817652 121.81763775 -266.84549942 121.841175 -262.24250317 121.86908245 C-257.43254384 121.89406729 -252.62257524 121.8964358 -247.81256104 121.90118408 C-238.70361538 121.91362244 -229.59486147 121.9464557 -220.4860003 121.98658204 C-210.11611982 122.03127298 -199.74623024 122.05328006 -189.37627745 122.07336378 C-168.04403883 122.11518756 -146.71197289 122.18555635 -125.37988281 122.2746582 C-125.40344849 120.96029785 -125.40344849 120.96029785 -125.42749023 119.61938477 C-125.47919724 116.3092637 -125.51650913 112.99958338 -125.54467773 109.68920898 C-125.55958982 108.26758979 -125.5799269 106.84601514 -125.60620117 105.42456055 C-125.89201479 89.54228995 -123.33332523 75.52740389 -112.12988281 63.4621582 C-99.76230566 52.19392124 -86.20017142 48.63752907 -69.77709961 48.82055664 C-68.36633334 48.82168825 -66.95556472 48.82104517 -65.5447998 48.81878662 C-61.75828756 48.81765073 -57.97229427 48.84097471 -54.1859014 48.86908245 C-50.2128138 48.89428639 -46.239711 48.89645293 -42.26655579 48.90118408 C-34.76223196 48.91355858 -27.25814449 48.94630431 -19.75392419 48.98658204 C-11.20242837 49.03147306 -2.65092057 49.05333012 5.90066397 49.07336378 C23.47397579 49.11504275 41.0469641 49.18832485 58.62011719 49.2746582 C58.62011719 38.3846582 58.62011719 27.4946582 58.62011719 16.2746582 C51.66884766 16.36166992 51.66884766 16.36166992 44.57714844 16.45043945 C41.63766022 16.47599359 38.69830934 16.50006324 35.75878906 16.51879883 C31.09500617 16.54866538 26.43171505 16.58395963 21.76831055 16.65185547 C18.00759693 16.70626484 14.24741074 16.73609703 10.48633385 16.74904442 C9.05297227 16.75826855 7.6196389 16.77628191 6.18650246 16.80330849 C4.17613612 16.83970579 2.16523672 16.84170148 0.15454102 16.84228516 C-0.98907394 16.85338821 -2.1326889 16.86449127 -3.31095886 16.87593079 C-7.32843401 16.08881527 -8.80192883 14.37371421 -11.37988281 11.2746582 C-12.37988281 9.2746582 -12.37988281 9.2746582 -12.37988281 7.2746582 C-9.48426266 1.19385587 -6.52185105 0.02584897 0 0 Z " fill="#020200" transform="translate(438.3798828125,278.725341796875)"/>
<path d="M0 0 C1.16968071 -0.01248528 1.16968071 -0.01248528 2.36299133 -0.02522278 C4.93011545 -0.04923022 7.49698464 -0.05808588 10.06420898 -0.06469727 C11.86295136 -0.07367447 13.66169302 -0.0827965 15.46043396 -0.09205627 C19.23047696 -0.10852646 23.00043142 -0.11624211 26.77050781 -0.11914062 C31.56955142 -0.12450563 36.36774579 -0.16211582 41.16655064 -0.20788479 C44.88409857 -0.23783834 48.60144712 -0.24486821 52.31910515 -0.24586678 C54.08632206 -0.25003711 55.85354135 -0.26234116 57.62063789 -0.28338432 C72.26059513 -0.44376884 83.83903323 1.16979209 94.83764648 11.90014648 C99.64999315 17.26073518 104.99780273 23.80075632 104.99780273 31.30639648 C101.47868584 32.85200106 97.95717924 34.39209166 94.43530273 35.93139648 C93.46399414 36.35807617 92.49268555 36.78475586 91.49194336 37.22436523 C89.48758 38.09923393 87.47688404 38.95973058 85.46026611 39.80596924 C83.2501348 40.76370969 81.06324328 41.77836389 78.91314697 42.86419678 C67.23553516 48.34716898 56.07741464 48.14946458 43.36108398 48.03295898 C41.10523988 48.03191964 38.84939396 48.03296331 36.59355164 48.03598022 C31.89769985 48.03580196 27.20254335 48.01517193 22.50683594 47.97875977 C16.48646298 47.93309891 10.46709044 47.93236123 4.44659138 47.94579506 C-0.19709695 47.95246797 -4.84055647 47.93923211 -9.48420143 47.91953659 C-11.70537941 47.91184231 -13.92658281 47.90953214 -16.14777184 47.91270828 C-19.23996281 47.9134486 -22.33085548 47.88825094 -25.42285156 47.85571289 C-26.79659439 47.86314514 -26.79659439 47.86314514 -28.1980896 47.87072754 C-34.36839988 47.76689834 -34.36839988 47.76689834 -37.56990051 45.44076538 C-40.75010598 40.70171139 -39.5581688 34.21031394 -38.52954102 28.83764648 C-35.57404532 18.78542161 -28.87169289 10.43842393 -19.92407227 5.05639648 C-13.38654821 1.66287255 -7.40098143 0.00678734 0 0 Z " fill="#B26C3B" transform="translate(110.002197265625,291.693603515625)"/>
<path d="M0 0 C0.28875 0.94875 0.5775 1.8975 0.875 2.875 C1.76825109 6.05211578 1.76825109 6.05211578 4 8 C7.07877337 8.31643682 7.07877337 8.31643682 10.77029419 8.2784729 C11.47437405 8.2842653 12.1784539 8.2900577 12.90386951 8.29602563 C15.27466317 8.31309717 17.64526302 8.31590821 20.01611328 8.31884766 C21.71097291 8.32814092 23.40582795 8.33830868 25.10067749 8.34928894 C29.71197245 8.37667098 34.32323673 8.39176256 38.93459177 8.40471697 C43.74995871 8.42031174 48.56526264 8.44711352 53.38058472 8.4727478 C62.50364766 8.51960049 71.62672238 8.55631312 80.74984443 8.58942068 C91.13425446 8.62759631 101.51860131 8.67701834 111.90295815 8.72740483 C133.26859217 8.83082117 154.63426614 8.92004993 176 9 C176.02684679 11.64590014 176.04676357 14.29153096 176.0625 16.9375 C176.07087891 17.69224609 176.07925781 18.44699219 176.08789062 19.22460938 C176.09652441 21.14994313 176.05224333 23.07535581 176 25 C174.40844856 26.59155144 172.74970944 26.14062397 170.54370117 26.15771484 C169.59569138 26.16797699 168.64768158 26.17823914 167.67094421 26.18881226 C166.63871231 26.19611359 165.60648041 26.20341492 164.54296875 26.2109375 C162.3769456 26.23900843 160.21093007 26.26767291 158.04492188 26.296875 C154.61482981 26.33815109 151.18487974 26.37502013 147.75463867 26.40136719 C144.45461238 26.4289407 141.15524301 26.47481828 137.85546875 26.5234375 C136.82930954 26.52669037 135.80315033 26.52994324 134.74589539 26.53329468 C133.30969597 26.55814438 133.30969597 26.55814438 131.84448242 26.58349609 C131.00366623 26.59158295 130.16285004 26.5996698 129.29655457 26.60800171 C126.47575121 27.08948389 125.08726373 28.0723932 123 30 C122.20376178 32.09415804 122.20376178 32.09415804 122 34 C118.75068073 34.17455021 115.50256552 34.28091753 112.25 34.375 C111.32960937 34.42527344 110.40921875 34.47554688 109.4609375 34.52734375 C106.84522453 34.58420708 104.55516718 34.57122182 102 34 C99.484375 31.0390625 99.484375 31.0390625 98 28 C94.7212876 26.3606438 91.08761538 26.84596649 87.48336792 26.84178162 C86.59144466 26.83684364 85.69952139 26.83190566 84.78057015 26.82681805 C81.77412554 26.8113873 78.76770238 26.80306738 75.76123047 26.79467773 C73.61317759 26.78510359 71.46512661 26.77509379 69.31707764 26.76467896 C63.47028723 26.73757357 57.6234887 26.71659457 51.77666998 26.69667697 C45.67207187 26.67485208 39.56749895 26.64744633 33.46292114 26.62062073 C21.89614659 26.57064643 10.32935809 26.52572522 -1.2374438 26.48259836 C-14.40291535 26.43326641 -27.56836163 26.37833332 -40.73380876 26.32291877 C-67.82251579 26.20902603 -94.9112473 26.10240161 -122 26 C-122 20.39 -122 14.78 -122 9 C-120.19048859 8.99453156 -120.19048859 8.99453156 -118.34442139 8.98895264 C-106.98464133 8.952037 -95.62513322 8.8943019 -84.26556015 8.81609726 C-78.42523817 8.77656119 -72.58506836 8.74440274 -66.74462891 8.72900391 C-61.10993914 8.7138778 -55.47566755 8.67950408 -49.84116364 8.63169098 C-47.68978761 8.61683541 -45.53835189 8.6089566 -43.38692474 8.60811615 C-40.37696059 8.60575733 -37.36816231 8.57876483 -34.35839844 8.54589844 C-33.4657579 8.5509288 -32.57311737 8.55595917 -31.65342712 8.56114197 C-26.72083102 8.4972787 -26.72083102 8.4972787 -22.4776001 6.15338135 C-20.8394461 3.97835063 -20.8394461 3.97835063 -20 1 C-16.85418896 0.83291073 -13.7083476 0.66639937 -10.5625 0.5 C-9.66466797 0.45230469 -8.76683594 0.40460938 -7.84179688 0.35546875 C-6.98779297 0.31035156 -6.13378906 0.26523437 -5.25390625 0.21875 C-4.46314697 0.17685547 -3.6723877 0.13496094 -2.85766602 0.09179688 C-1.90578081 0.04475931 -0.95304668 0 0 0 Z " fill="#E9B04C" transform="translate(137,407)"/>
<path d="M0 0 C4.29 0 8.58 0 13 0 C13 10.89 13 21.78 13 33 C8.73618408 33.0093457 4.47236816 33.01869141 0.0793457 33.02832031 C-14.03422225 33.062141 -28.14764545 33.1175192 -42.261096 33.18390274 C-50.81509886 33.22361411 -59.36901077 33.25604656 -67.9230957 33.27099609 C-75.38388076 33.28405377 -82.84446504 33.31112264 -90.30513698 33.35461307 C-94.25098102 33.37713594 -98.19657828 33.39291624 -102.14249229 33.39188385 C-105.86662092 33.39113175 -109.59020596 33.40929959 -113.31419373 33.44116783 C-115.31194793 33.45357212 -117.30979388 33.44664586 -119.30757141 33.43885803 C-133.40817032 33.59951631 -145.67167837 37.4813763 -156.25 47.03125 C-168.51204059 59.85065608 -170.25577163 74.21453256 -170.625 91.0625 C-170.66326196 92.51499527 -170.70231819 93.96746984 -170.7421875 95.41992188 C-170.83875084 98.94649556 -170.91901518 102.47289811 -171 106 C-177.27 106 -183.54 106 -190 106 C-190.663173 57.33047027 -190.663173 57.33047027 -172.25 37.75 C-161.83628644 27.97590033 -147.82625825 20.91260723 -133.37644958 20.85523987 C-132.25627441 20.84834137 -131.13609924 20.84144287 -129.98197937 20.83433533 C-128.76259171 20.83172195 -127.54320404 20.82910858 -126.28686523 20.82641602 C-124.30441623 20.81615171 -122.32196723 20.80588523 -120.33951867 20.79553688 C-118.2138667 20.78532491 -116.08821701 20.77746406 -113.96255302 20.77020454 C-109.52936301 20.75472038 -105.09624365 20.73077317 -100.6631012 20.70530701 C-88.05905623 20.63418241 -75.45497178 20.57426253 -62.85083008 20.52319336 C-55.88529979 20.49489602 -48.91984083 20.45952356 -41.95438534 20.41653961 C-37.54741063 20.38977067 -33.14051653 20.37186401 -28.73347652 20.36050236 C-25.35017521 20.34923804 -21.96698745 20.32511593 -18.58374023 20.30297852 C-16.75162239 20.3020948 -16.75162239 20.3020948 -14.88249207 20.30119324 C-13.76513672 20.29147491 -12.64778137 20.28175659 -11.49656677 20.27174377 C-10.5259603 20.26751184 -9.55535383 20.2632799 -8.55533504 20.25891972 C-5.87921252 19.98776119 -4.25154289 19.45130715 -2 18 C-0.414131 14.828262 -0.62133555 11.36486178 -0.4375 7.875 C-0.37272461 6.74384766 -0.37272461 6.74384766 -0.30664062 5.58984375 C-0.2005168 3.72678112 -0.09974999 1.86341476 0 0 Z " fill="#FECF63" transform="translate(484,295)"/>
<path d="M0 0 C1.64517685 0.01004837 3.29035964 0.01917094 4.93554688 0.02734375 C8.93634615 0.04921377 12.93685666 0.08364146 16.9375 0.125 C17.0254568 4.270697 17.07821153 8.41615012 17.125 12.5625 C17.15013672 13.72716797 17.17527344 14.89183594 17.20117188 16.09179688 C17.27373587 24.6785367 16.75106447 32.73868453 10.8125 39.4375 C10.29429687 40.05238281 9.77609375 40.66726563 9.2421875 41.30078125 C1.69920663 47.27124238 -5.85100009 47.67925442 -15.19140625 47.515625 C-16.42165024 47.50996521 -17.65189423 47.50430542 -18.91941833 47.49847412 C-22.82168645 47.4762092 -26.72301268 47.4260284 -30.625 47.375 C-33.2818876 47.35265076 -35.93876635 47.33667396 -38.59570312 47.3203125 C-45.08495297 47.27637663 -51.57365917 47.20956265 -58.0625 47.125 C-58.07857106 45.35614955 -58.09006561 43.58725709 -58.09960938 41.81835938 C-58.1064978 40.83331421 -58.11338623 39.84826904 -58.1204834 38.83337402 C-57.91644493 29.30284462 -52.14561657 21.06169776 -46.0625 14.125 C-32.50585475 1.17901444 -17.75677626 -0.18911065 0 0 Z " fill="#BF7C4D" transform="translate(173.0625,229.875)"/>
<path d="M0 0 C2.94838537 2.37773014 2.99593254 3.96513607 3.4375 7.75 C3.1905004 13.28690772 1.21343387 17.90031862 -2.82421875 21.73046875 C-4.05952422 22.74527345 -5.32009768 23.73049179 -6.609375 24.67578125 C-7.06828125 25.11277344 -7.5271875 25.54976562 -8 26 C-8 26.99 -8 27.98 -8 29 C-6.32705885 30.66207596 -6.32705885 30.66207596 -4.1875 32.25 C0.33762808 36.08634753 2.47880941 39.3872016 3.34375 45.3828125 C3.82599894 53.26758275 0.85238254 57.74013424 -4.1875 63.5 C-6 65 -6 65 -8 65 C-7.87943404 67.36539052 -7.87943404 67.36539052 -7 70 C-5.36395804 71.37073786 -3.69321939 72.70055256 -2 74 C2.70135849 80.39907127 3.63509067 85.2201393 3 93 C1.30663772 98.29175711 -2.21723965 101.23947781 -6.13671875 104.97265625 C-8.70929643 107.77175021 -9.65961874 110.4726809 -11 114 C-14.51824511 116.34549674 -15.85775694 116.57991403 -20 116 C-23.54142587 113.45941187 -24.82787348 112.01363396 -25.5625 107.6875 C-24.30824646 99.46517124 -20.06355246 94.45038423 -14 89 C-15.41217209 85.82967366 -17.13649376 83.59125138 -19.5 81.0625 C-23.99304685 75.98096676 -25.50026999 72.12353132 -25.30859375 65.3359375 C-24.40179071 58.47178285 -20.67385872 54.20456067 -15.390625 50.03125 C-14.93171875 49.6909375 -14.4728125 49.350625 -14 49 C-14.69448288 45.01718251 -16.30054559 43.94499048 -19.43359375 41.46875 C-23.43661888 37.71529003 -25.22009504 32.91149591 -25.5 27.5 C-25.18298508 21.15970158 -22.48044529 16.69193747 -18.375 12 C-16 10 -16 10 -14 10 C-13.82984375 9.37351562 -13.6596875 8.74703125 -13.484375 8.1015625 C-13.24203125 7.28429687 -12.9996875 6.46703125 -12.75 5.625 C-12.51796875 4.81289062 -12.2859375 4.00078125 -12.046875 3.1640625 C-11 1 -11 1 -9.11328125 -0.296875 C-5.79845677 -1.39977409 -3.33956762 -0.85007176 0 0 Z " fill="#000000" transform="translate(175,64)"/>
<path d="M0 0 C0.73224792 -0.00014603 1.46449585 -0.00029205 2.21893311 -0.0004425 C4.62669897 0.00025126 7.0343864 0.00801847 9.44213867 0.01586914 C11.1165106 0.01773522 12.79088307 0.01915823 14.46525574 0.02015686 C18.86287963 0.02396704 23.26047026 0.03378449 27.65808105 0.04486084 C32.14924673 0.05510723 36.64041779 0.05966139 41.1315918 0.06469727 C49.93694556 0.07540813 58.74227235 0.09246651 67.54760742 0.11352539 C63.91759188 2.96653227 60.15434925 4.67622542 55.89135742 6.37915039 C55.12912369 6.68930084 54.36688995 6.99945129 53.58155823 7.31900024 C51.93399241 7.98870333 50.2853551 8.65577517 48.63577271 9.32049561 C45.11935641 10.73761025 41.60816463 12.16745277 38.09669495 13.59677124 C36.28040907 14.33601932 34.46386757 15.07463964 32.64707947 15.81265259 C24.36847294 19.17771313 16.11477776 22.60090264 7.86889648 26.04525757 C5.62301775 26.98313405 3.37641785 27.91926339 1.12963867 28.85498047 C-5.55396524 31.64010165 -12.23094351 34.43924704 -18.89379883 37.27368164 C-20.01343018 37.74757324 -21.13306152 38.22146484 -22.28662109 38.7097168 C-24.32745827 39.57440095 -26.36591004 40.44474771 -28.40136719 41.32202148 C-29.28445557 41.69536621 -30.16754395 42.06871094 -31.07739258 42.45336914 C-31.8327832 42.77684326 -32.58817383 43.10031738 -33.36645508 43.43359375 C-35.45239258 44.11352539 -35.45239258 44.11352539 -39.45239258 44.11352539 C-41.87614042 39.26602971 -41.00967703 33.08276372 -39.58129883 28.03540039 C-34.81053405 15.83475605 -27.6510289 7.72986233 -15.70239258 2.30102539 C-10.41008974 0.36729936 -5.60134528 -0.02947099 0 0 Z " fill="#975C33" transform="translate(70.452392578125,353.886474609375)"/>
<path d="M0 0 C2.68684436 2.41815992 2.97235025 3.75115222 3.375 7.375 C2.74314788 13.4829038 -0.08437741 17.40927007 -4 22 C-2.88193568 24.51564471 -1.70466017 26.35798767 0.0625 28.5 C3.11866589 32.44343986 3.3450959 35.84353221 3.2890625 40.83984375 C2.58531706 46.09891439 -0.17337624 50.43652515 -4 54 C-2.82690214 56.54171204 -1.5091503 58.72883744 0.0625 61.0625 C3.04027982 65.57719844 3.70039312 69.68079823 3 75 C1.71559616 78.5734404 0.19287773 81.83430176 -2.54296875 84.5078125 C-4.31519475 86.14058626 -4.31519475 86.14058626 -5.5 89.5625 C-7 93 -7 93 -10 95 C-13.80121737 95.41467826 -16.10847173 95.52577308 -19.4375 93.5625 C-21.7756076 89.72800354 -21.74520423 86.37530801 -21 82 C-19.46783955 78.10607028 -17.20558238 74.72474502 -14 72 C-15.119538 69.48103951 -16.31981552 67.60265345 -18.0625 65.4375 C-21.77594735 60.76574366 -21.49997796 55.72296201 -21 50 C-19.42000846 45.73402284 -17.37391208 43.0248867 -14 40 C-15.30470154 37.22598504 -16.80853743 34.89662915 -18.625 32.4375 C-21.7415152 27.43246963 -22.17369954 22.74538238 -21 17 C-19.73572449 14.47957937 -18.29814045 12.37518405 -16.58203125 10.140625 C-15.00778635 8.0105356 -13.99495194 5.98201966 -12.9375 3.5625 C-11.65171532 0.91156122 -11.13411364 0.09176196 -8.625 -1.625 C-5.14178053 -2.12260278 -3.16313334 -1.5128029 0 0 Z " fill="#000000" transform="translate(224,95)"/>
<path d="M0 0 C1.75288823 3.50577646 1.56039817 7.17467339 1 11 C-0.35158173 13.92506494 -2.07716354 16.4245645 -4 19 C-4.66 19.99 -5.32 20.98 -6 22 C-5.57847656 22.55429688 -5.15695313 23.10859375 -4.72265625 23.6796875 C-4.17480469 24.40414062 -3.62695312 25.12859375 -3.0625 25.875 C-2.51722656 26.59429687 -1.97195312 27.31359375 -1.41015625 28.0546875 C1.93540129 32.66988875 1.4378403 37.47226622 1 43 C-0.55967455 47.28910502 -2.61638551 49.96641459 -6 53 C-4.47038014 56.44164469 -2.37270934 59.09151758 0 62 C2.08937255 66.17874511 1.44074605 71.44959483 1 76 C-0.8125 79.5 -0.8125 79.5 -3 82 C-4.75135889 84.22287859 -5.9667289 85.91474281 -7 88.5625 C-8.07504112 91.18291274 -8.63035889 92.44747651 -11 94 C-15.28112772 94.63424114 -17.30827044 94.43233098 -21 92.125 C-23.49805805 88.2217843 -23.47053187 86.07532258 -22.796875 81.58203125 C-21.48656297 77.33636335 -18.96430825 74.2453283 -16 71 C-17.21264326 68.47683197 -18.46383119 66.32533644 -20.0625 64 C-23.10865529 59.28337245 -23.46873136 55.62477631 -23 50 C-21.38359253 45.64690264 -19.41450066 42.16990892 -16 39 C-17.02698298 36.00463298 -18.06158445 33.92348598 -20.0625 31.4375 C-23.41863803 27.21526184 -23.44410497 23.32925966 -23 18 C-21.68374118 14.45522376 -20.17960883 11.15865132 -17.4609375 8.48828125 C-15.1276716 6.1113446 -14.27217375 3.04215461 -13 0 C-8.54280787 -4.45719213 -5.28237163 -2.69101951 0 0 Z " fill="#000000" transform="translate(124,96)"/>
<path d="M0 0 C6.27 0 12.54 0 19 0 C19.020625 2.619375 19.04125 5.23875 19.0625 7.9375 C19.071604 8.7637085 19.08070801 9.58991699 19.09008789 10.44116211 C19.09723945 12.29433759 19.0502852 14.14749308 19 16 C18 17 18 17 16.23413086 17.11352539 C15.48526611 17.10828857 14.73640137 17.10305176 13.96484375 17.09765625 C13.15595703 17.09443359 12.34707031 17.09121094 11.51367188 17.08789062 C10.66353516 17.07951172 9.81339844 17.07113281 8.9375 17.0625 C8.08349609 17.05798828 7.22949219 17.05347656 6.34960938 17.04882812 C4.23304337 17.03700373 2.11651315 17.01906769 0 17 C0 11.39 0 5.78 0 0 Z " fill="#E7A52E" transform="translate(294,416)"/>
</svg>
