<?xml version="1.0" encoding="UTF-8"?>
<svg version="1.1" xmlns="http://www.w3.org/2000/svg" width="512" height="512">
<path d="M0 0 C14.33380943 10.47564607 24.80130791 26.07347783 27.98646855 43.70832515 C29.11314015 52.40988708 28.57873936 61.3804951 28.50073242 70.13208008 C28.49009195 72.59872357 28.48095639 75.06537394 28.47320557 77.5320282 C28.45449326 82.82590364 28.42747179 88.11964122 28.39439201 93.4134388 C28.34322424 101.78923739 28.32702288 110.16494358 28.31678772 118.5408783 C28.31289665 121.41335024 28.30885702 124.28582197 28.30482578 127.15829372 C28.30383748 127.87592133 28.30284918 128.59354894 28.30183093 129.33292283 C28.29032616 137.48148114 28.27359207 145.63002375 28.25317383 153.77856445 C28.25132021 154.52252794 28.2494666 155.26649143 28.24755681 156.03299927 C28.21639297 168.09799816 28.15159977 180.16263277 28.07716744 192.2274316 C28.00166073 204.64112429 27.97221381 217.0543711 27.98270518 229.46828932 C27.98752444 237.1119039 27.95537665 244.75353404 27.87494738 252.3967353 C27.81690774 258.25600583 27.82192168 264.11417114 27.84997559 269.97369576 C27.85149984 272.37026257 27.83256198 274.76694596 27.79132271 277.16315842 C27.04546855 290.08551136 27.04546855 290.08551136 31.84436226 301.56142998 C34.6857401 304.41619139 37.91742008 306.57125978 41.25878906 308.81152344 C60.47368747 327.28333268 72.78898432 354.54445863 73.55957031 381.22949219 C73.82763851 412.01002916 66.53501361 440.65698051 45.25878906 463.81152344 C44.81164551 464.30104492 44.36450195 464.79056641 43.90380859 465.29492188 C29.27199138 481.13726705 10.98327083 492.02182694 -9.74121094 497.81152344 C-11.33642578 498.29105469 -11.33642578 498.29105469 -12.96386719 498.78027344 C-31.83561724 503.54787345 -54.22857163 502.8119201 -72.74121094 496.81152344 C-73.76359863 496.49006348 -73.76359863 496.49006348 -74.80664062 496.16210938 C-89.03472972 491.57950403 -101.42733496 484.62438768 -112.74121094 474.81152344 C-113.54945312 474.14765625 -114.35769531 473.48378906 -115.19042969 472.79980469 C-136.3605416 454.8201649 -149.21105163 428.0667421 -152.49121094 400.68652344 C-152.60016954 399.06304031 -152.68135692 397.43755755 -152.74121094 395.81152344 C-152.79277344 394.74417969 -152.84433594 393.67683594 -152.89746094 392.57714844 C-153.75214595 359.38688043 -141.48927269 331.32637651 -119.10839844 307.23730469 C-116.12451001 304.17955763 -113.12583925 301.42050776 -109.74121094 298.81152344 C-109.08121094 298.81152344 -108.42121094 298.81152344 -107.74121094 298.81152344 C-107.74397632 297.54814651 -107.7467417 296.28476959 -107.74959087 294.98310852 C-107.81467942 264.93787257 -107.86408988 234.89265493 -107.89440693 204.84736568 C-107.89815868 201.14270981 -107.90204168 197.43805409 -107.90600586 193.73339844 C-107.90679279 192.99592294 -107.90757972 192.25844744 -107.9083905 191.49862421 C-107.92141532 179.58513523 -107.94505289 167.67169005 -107.97266933 155.75822699 C-108.00080518 143.51785814 -108.01740442 131.27751209 -108.02347642 119.03711224 C-108.02757597 111.49486003 -108.04048514 103.95273163 -108.06496034 96.41051757 C-108.08281556 90.60992785 -108.08455606 84.80941602 -108.08053398 79.00880432 C-108.08135443 76.6418329 -108.08725609 74.27485648 -108.09882736 71.90791321 C-108.24958938 39.45757469 -108.24958938 39.45757469 -100.99121094 26.37402344 C-100.64195557 25.71281494 -100.2927002 25.05160645 -99.93286133 24.37036133 C-97.06023215 19.0731993 -93.78929945 14.28768567 -89.74121094 9.81152344 C-89.21140625 9.20179687 -88.68160156 8.59207031 -88.13574219 7.96386719 C-65.96737893 -15.99481519 -26.19802733 -17.88165971 0 0 Z " fill="#F0F9FE" transform="translate(240.7412109375,11.1884765625)"/>
<path d="M0 0 C13.86 0 27.72 0 42 0 C42.01458252 4.8154541 42.02916504 9.6309082 42.04418945 14.59228516 C42.09448133 30.48604036 42.16091611 46.37969761 42.23571491 62.27335548 C42.28067874 71.91155529 42.32009207 81.54971811 42.34643555 91.18798828 C42.36941085 99.5887942 42.40280367 107.98948309 42.44870156 116.3901962 C42.47264008 120.83823914 42.49136474 125.28616612 42.49761391 129.734272 C42.50366191 133.9220245 42.52365144 138.10948029 42.55427551 142.29712296 C42.56306029 143.83296142 42.5667774 145.36883866 42.56500816 146.90470123 C42.5633529 149.0048941 42.58007455 151.10418517 42.60127258 153.20425415 C42.60588155 154.37861841 42.61049051 155.55298267 42.61523914 156.76293373 C43.14573937 161.22613308 44.51411344 164.71103817 47.9453125 167.6875 C48.66460937 168.120625 49.38390625 168.55375 50.125 169 C50.91777344 169.49371094 51.71054688 169.98742187 52.52734375 170.49609375 C53.34332031 170.99238281 54.15929687 171.48867188 55 172 C71.41502708 182.59294851 82.83836199 196.20666354 88 215.375 C91.61660719 234.47446801 88.27298874 253.15738941 77.375 269.42578125 C75.67029934 271.71055367 73.88302489 273.86019899 72 276 C71.03320312 277.12535156 71.03320312 277.12535156 70.046875 278.2734375 C63.97122126 284.86664693 56.99324834 289.15947725 49 293 C47.90429688 293.53109375 46.80859375 294.0621875 45.6796875 294.609375 C30.85404333 300.62068403 11.17869133 300.65485085 -3.671875 294.6875 C-9.79587966 291.58237088 -15.43637594 288.01617364 -21 284 C-22.04607422 283.26136719 -22.04607422 283.26136719 -23.11328125 282.5078125 C-34.37648813 273.75617129 -43.91692121 257.46941325 -45.78125 243.25390625 C-47.24903738 221.42056897 -44.86975717 203.75016881 -30.29418945 186.35449219 C-24.10894434 179.32443854 -17.01387757 174.76033925 -9 170 C-3.86190985 166.96269979 -3.86190985 166.96269979 -1 162 C-0.68874119 158.88411821 -0.68874119 158.88411821 -0.7215271 155.36883545 C-0.7128385 154.37140568 -0.7128385 154.37140568 -0.70397437 153.35382581 C-0.68697967 151.12743618 -0.68409838 148.90125392 -0.68115234 146.67480469 C-0.67185379 145.0781707 -0.66168522 143.48154157 -0.65071106 141.88491821 C-0.62338878 137.55059289 -0.60825505 133.21630011 -0.59528303 128.88191128 C-0.57966225 124.35216472 -0.55286867 119.82248472 -0.5272522 115.29278564 C-0.48044577 106.71519658 -0.44371068 98.13759503 -0.41057932 89.55994344 C-0.37237111 79.79457821 -0.32295754 70.02927979 -0.27259517 60.26397085 C-0.16924755 40.17602373 -0.08147563 20.08804856 0 0 Z " fill="#F92A3B" transform="translate(180,167)"/>
<path d="M0 0 C14.33380943 10.47564607 24.80130791 26.07347783 27.98646855 43.70832515 C29.11314015 52.40988708 28.57873936 61.3804951 28.50073242 70.13208008 C28.49009195 72.59872357 28.48095639 75.06537394 28.47320557 77.5320282 C28.45449326 82.82590364 28.42747179 88.11964122 28.39439201 93.4134388 C28.34322424 101.78923739 28.32702288 110.16494358 28.31678772 118.5408783 C28.31289665 121.41335024 28.30885702 124.28582197 28.30482578 127.15829372 C28.30383748 127.87592133 28.30284918 128.59354894 28.30183093 129.33292283 C28.29032616 137.48148114 28.27359207 145.63002375 28.25317383 153.77856445 C28.25132021 154.52252794 28.2494666 155.26649143 28.24755681 156.03299927 C28.21639297 168.09799816 28.15159977 180.16263277 28.07716744 192.2274316 C28.00166073 204.64112429 27.97221381 217.0543711 27.98270518 229.46828932 C27.98752444 237.1119039 27.95537665 244.75353404 27.87494738 252.3967353 C27.81690774 258.25600583 27.82192168 264.11417114 27.84997559 269.97369576 C27.85149984 272.37026257 27.83256198 274.76694596 27.79132271 277.16315842 C27.04546855 290.08551136 27.04546855 290.08551136 31.84436226 301.56142998 C34.6857401 304.41619139 37.91742008 306.57125978 41.25878906 308.81152344 C60.47368747 327.28333268 72.78898432 354.54445863 73.55957031 381.22949219 C73.82763851 412.01002916 66.53501361 440.65698051 45.25878906 463.81152344 C44.81164551 464.30104492 44.36450195 464.79056641 43.90380859 465.29492188 C29.27199138 481.13726705 10.98327083 492.02182694 -9.74121094 497.81152344 C-11.33642578 498.29105469 -11.33642578 498.29105469 -12.96386719 498.78027344 C-22.06100356 501.07849736 -31.16386382 501.09915271 -40.49121094 501.12402344 C-41.51047165 501.1295372 -41.51047165 501.1295372 -42.55032349 501.13516235 C-54.20638707 501.16807268 -54.20638707 501.16807268 -57.74121094 498.81152344 C-56.80921875 498.58078125 -55.87722656 498.35003906 -54.91699219 498.11230469 C-36.16977023 493.31650372 -19.87502629 486.09343686 -4.74121094 473.81152344 C-3.87625 473.11285156 -3.01128906 472.41417969 -2.12011719 471.69433594 C17.89968694 454.64158547 31.92098333 426.90258986 34.25878906 400.81152344 C35.24927114 383.05221829 34.21474017 364.38242837 27.25878906 347.81152344 C26.86264404 346.85947021 26.86264404 346.85947021 26.45849609 345.88818359 C20.9527905 332.87110078 11.20746178 312.11994707 -2.13998413 305.64848709 C-5.58039747 303.70564701 -7.44705766 302.06124993 -9.74121094 298.81152344 C-11.75771155 291.24735769 -11.04058712 282.9892636 -10.93652344 275.23632812 C-10.94029254 272.80143705 -10.94848708 270.36654941 -10.96076965 267.9316864 C-10.97746528 262.69362088 -10.96380006 257.45657288 -10.9225769 252.21868134 C-10.86310995 244.63271695 -10.86107929 237.04756821 -10.87311351 229.46141961 C-10.891305 217.13504841 -10.86644856 204.80916493 -10.81298828 192.48291016 C-10.76132102 180.54246748 -10.72479265 168.60217339 -10.71240234 156.66162109 C-10.7116313 155.92674582 -10.71086025 155.19187055 -10.71006584 154.43472633 C-10.70202244 146.4011125 -10.69767694 138.36749861 -10.69500732 130.33388138 C-10.6942383 128.19847419 -10.69345409 126.06306701 -10.69264984 123.92765984 C-10.69214756 122.51931927 -10.69170728 121.11097867 -10.69132996 119.70263806 C-10.68866677 110.77069131 -10.67000482 101.83897831 -10.63385868 92.90710497 C-10.6142441 87.77688843 -10.60224913 82.64666997 -10.59152794 77.51642799 C-10.58465073 75.14453893 -10.57425625 72.77265694 -10.5600071 70.4008007 C-10.41743589 46.29982709 -13.07023449 26.48685554 -30.34277344 8.12402344 C-38.28377331 0.4675545 -47.77163855 -3.81515747 -57.74121094 -8.18847656 C-45.2971266 -20.6325609 -12.02401392 -8.20708073 0 0 Z " fill="#DCF5FF" transform="translate(240.7412109375,11.1884765625)"/>
<path d="M0 0 C0.33 0 0.66 0 1 0 C1.00146656 0.80507177 1.00293312 1.61014355 1.00444412 2.43961143 C1.04154154 22.05444827 1.10059518 41.66910744 1.18390274 61.28380394 C1.22366408 70.76944629 1.25607132 80.25500603 1.27099609 89.74072266 C1.28402768 98.01121265 1.31103076 106.28152065 1.35461307 114.55190814 C1.37719404 118.92857356 1.39291271 123.30501478 1.39188385 127.68174362 C1.39113524 131.80720182 1.40916602 135.93216506 1.44116783 140.05749512 C1.44963754 141.56585048 1.45143678 143.07426154 1.44580269 144.58263016 C1.41880977 152.92493359 1.63757853 160.62032506 6 168 C8.33172894 170.27694379 8.33172894 170.27694379 11.125 171.5625 C27.50629076 180.87649621 39.28998808 196.10862931 45 214 C49.23357805 232.75276182 46.18799365 251.88671016 36.05859375 268.09375 C27.52277714 280.14431463 15.7023732 291.25757773 1 295 C-8.36600404 293.78953098 -15.94036534 287.85465064 -23 282 C-23.82113281 281.37867188 -24.64226562 280.75734375 -25.48828125 280.1171875 C-35.61388138 271.58207821 -44.0508016 256.44857532 -45.78125 243.25390625 C-47.24903738 221.42056897 -44.86975717 203.75016881 -30.29418945 186.35449219 C-24.10894434 179.32443854 -17.01387757 174.76033925 -9 170 C-3.86190985 166.96269979 -3.86190985 166.96269979 -1 162 C-0.68874119 158.88411821 -0.68874119 158.88411821 -0.7215271 155.36883545 C-0.7128385 154.37140568 -0.7128385 154.37140568 -0.70397437 153.35382581 C-0.68697967 151.12743618 -0.68409838 148.90125392 -0.68115234 146.67480469 C-0.67185379 145.0781707 -0.66168522 143.48154157 -0.65071106 141.88491821 C-0.62338878 137.55059289 -0.60825505 133.21630011 -0.59528303 128.88191128 C-0.57966225 124.35216472 -0.55286867 119.82248472 -0.5272522 115.29278564 C-0.48044577 106.71519658 -0.44371068 98.13759503 -0.41057932 89.55994344 C-0.37237111 79.79457821 -0.32295754 70.02927979 -0.27259517 60.26397085 C-0.16924759 40.17602989 -0.07999636 20.08804664 0 0 Z " fill="#F94A55" transform="translate(180,167)"/>
<path d="M0 0 C5.64452508 3.27382454 9.68109218 7.72428521 12.125 13.8125 C12.66570652 17.23832802 12.63218458 20.60009474 12.57910156 24.06225586 C12.57968567 25.06789581 12.58026978 26.07353577 12.58087158 27.10964966 C12.57809678 30.41590536 12.54703241 33.72124658 12.515625 37.02734375 C12.50816049 39.32661954 12.50246855 41.62590172 12.49847412 43.92518616 C12.4832345 49.96365054 12.44396657 56.00172734 12.3996582 62.04003906 C12.35866973 68.20697792 12.34045544 74.37397968 12.3203125 80.54101562 C12.27747103 92.63170771 12.20713433 104.72201092 12.125 116.8125 C-1.405 116.8125 -14.935 116.8125 -28.875 116.8125 C-28.98805368 103.39076677 -29.07974731 89.96935086 -29.13406086 76.54724884 C-29.16013135 70.3145221 -29.19548403 64.08213859 -29.25219727 57.84960938 C-29.30660616 51.83252091 -29.3364397 45.81576217 -29.34938622 39.79844666 C-29.35861002 37.50515046 -29.37662209 35.21187189 -29.40365028 32.91871643 C-29.44005725 29.70127661 -29.44494029 26.48519147 -29.44262695 23.26757812 C-29.46060333 22.32386353 -29.47857971 21.38014893 -29.49710083 20.40783691 C-29.4472932 13.98692238 -27.96411912 9.79827679 -23.875 4.8125 C-17.07252156 -1.49223612 -8.89740088 -3.44163199 0 0 Z " fill="#7BA0B0" transform="translate(209.875,50.1875)"/>
<path d="M0 0 C0.67501053 -0.0065712 1.35002106 -0.0131424 2.04548645 -0.01991272 C4.28317371 -0.03965067 6.52079382 -0.05130962 8.75854492 -0.0612793 C9.52274939 -0.06535482 10.28695385 -0.06943035 11.07431602 -0.07362938 C15.11952825 -0.09449273 19.16470653 -0.10879299 23.20996094 -0.11816406 C27.38650817 -0.12922629 31.56252229 -0.16362266 35.73888111 -0.20333576 C38.95168543 -0.22949308 42.16436259 -0.2378551 45.37726402 -0.24144554 C46.91663906 -0.24631422 48.45600831 -0.25793635 49.99527931 -0.27648354 C52.15222914 -0.30085673 54.30779811 -0.29991424 56.46484375 -0.29296875 C58.30445427 -0.30176811 58.30445427 -0.30176811 60.18122864 -0.31074524 C64.06660608 0.27320407 65.70388008 1.3851705 68.42651367 4.17700195 C69.48901367 7.61450195 69.48901367 7.61450195 69.42651367 11.17700195 C67.66010195 13.97889641 66.39601545 15.69225106 63.42651367 17.17700195 C61.23744498 17.28947747 59.04491277 17.33637562 56.85302734 17.35400391 C56.17801682 17.3605751 55.50300629 17.3671463 54.80754089 17.37391663 C52.56985364 17.39365458 50.33223352 17.40531353 48.09448242 17.4152832 C46.94817573 17.42139649 46.94817573 17.42139649 45.77871132 17.42763329 C41.73349909 17.44849663 37.68832081 17.4627969 33.64306641 17.47216797 C29.46651917 17.48323019 25.29050506 17.51762657 21.11414623 17.55733967 C17.90134191 17.58349698 14.68866476 17.591859 11.47576332 17.59544945 C9.93638828 17.60031813 8.39701903 17.61194025 6.85774803 17.63048744 C4.7007982 17.65486064 2.54522924 17.65391815 0.38818359 17.64697266 C-1.45142693 17.65577202 -1.45142693 17.65577202 -3.32820129 17.66474915 C-7.21357874 17.08079984 -8.85085273 15.96883341 -11.57348633 13.17700195 C-12.63598633 9.73950195 -12.63598633 9.73950195 -12.57348633 6.17700195 C-8.97066582 0.46218322 -6.49817895 0.05226174 0 0 Z " fill="#688B95" transform="translate(354.573486328125,32.822998046875)"/>
<path d="M0 0 C0.65564941 -0.0049649 1.31129883 -0.00992981 1.98681641 -0.01504517 C4.15414482 -0.02964072 6.32140006 -0.03646425 8.48876953 -0.04199219 C9.9970805 -0.04774561 11.50539145 -0.05350332 13.01370239 -0.05926514 C16.17613058 -0.06976758 19.33853339 -0.07561525 22.50097656 -0.07910156 C26.54848652 -0.08458599 30.59566004 -0.10861582 34.6430645 -0.13707352 C37.7589312 -0.15571866 40.87471714 -0.16090648 43.99063492 -0.16243744 C45.48254359 -0.16546006 46.97445097 -0.17347547 48.46630478 -0.18662262 C50.55592032 -0.20372377 52.64471741 -0.20179359 54.734375 -0.1953125 C56.51616653 -0.20078094 56.51616653 -0.20078094 58.33395386 -0.20635986 C61.85068041 0.20227852 63.68886492 1.03819723 66.49658203 3.16113281 C68.49658203 6.16113281 68.49658203 6.16113281 68.43408203 9.59863281 C67.29404503 13.93077341 66.23752157 14.80856171 62.49658203 17.16113281 C59.26475525 17.65560913 59.26475525 17.65560913 55.56665039 17.64697266 C54.88959549 17.65076935 54.21254059 17.65456604 53.51496887 17.65847778 C51.28830887 17.66585678 49.06296876 17.64454257 46.83642578 17.62207031 C45.28373874 17.61968441 43.73104878 17.61878088 42.17835999 17.61929321 C38.92935021 17.6161699 35.68078318 17.59963997 32.43188477 17.57275391 C28.27001785 17.53874624 24.10863629 17.53112643 19.94664669 17.53264427 C16.7424304 17.53210016 13.53831993 17.52112682 10.33413887 17.50664139 C8.79956424 17.50028374 7.26497764 17.49633691 5.73039055 17.49485397 C3.58575941 17.49051147 1.44164003 17.47299167 -0.70288086 17.45166016 C-1.92245987 17.44403656 -3.14203888 17.43641296 -4.39857483 17.42855835 C-7.37008103 17.17261735 -9.03616697 16.78012641 -11.50341797 15.16113281 C-13.600212 12.46525478 -13.49852618 11.06818881 -13.31591797 7.59863281 C-12.2425484 3.05745388 -12.2425484 3.05745388 -9.50341797 1.16113281 C-6.13206981 0.03735009 -3.5542232 0.02045761 0 0 Z " fill="#688B96" transform="translate(355.50341796875,283.8388671875)"/>
<path d="M0 0 C0.69612396 -0.0049649 1.39224792 -0.00992981 2.10946655 -0.01504517 C4.41690045 -0.02967368 6.72426559 -0.03646991 9.03173828 -0.04199219 C10.63355512 -0.04774309 12.23537193 -0.05350083 13.83718872 -0.05926514 C17.19810304 -0.0697771 20.55899342 -0.07561847 23.91992188 -0.07910156 C28.22650193 -0.08458662 32.53276586 -0.10861384 36.83924675 -0.13707352 C40.14894535 -0.15569753 43.45856778 -0.16090536 46.76831436 -0.16243744 C48.35594537 -0.16546507 49.943575 -0.17349734 51.53115463 -0.18662262 C53.75278518 -0.20367862 55.97364303 -0.2018044 58.1953125 -0.1953125 C60.09154861 -0.20078094 60.09154861 -0.20078094 62.02609253 -0.20635986 C65.46164683 0.1880661 66.8530077 0.68511171 69.22705078 3.16113281 C70.33078456 7.13457443 70.64248661 9.25113053 68.91455078 13.03613281 C67.22705078 15.16113281 67.22705078 15.16113281 65.22705078 16.16113281 C62.97132226 16.26863188 60.7123571 16.3100529 58.45410156 16.32226562 C57.7579776 16.32723053 57.06185364 16.33219543 56.34463501 16.33731079 C54.03720111 16.35193931 51.72983597 16.35873554 49.42236328 16.36425781 C47.82054644 16.37000872 46.21872963 16.37576646 44.61691284 16.38153076 C41.25599852 16.39204272 37.89510814 16.3978841 34.53417969 16.40136719 C30.22759964 16.40685224 25.92133571 16.43087946 21.61485481 16.45933914 C18.30515621 16.47796315 14.99553378 16.48317099 11.6857872 16.48470306 C10.0981562 16.48773069 8.51052657 16.49576297 6.92294693 16.50888824 C4.70131638 16.52594425 2.48045853 16.52407003 0.25878906 16.51757812 C-1.00536835 16.52122375 -2.26952576 16.52486938 -3.57199097 16.52862549 C-7.00754526 16.13419953 -8.39890614 15.63715392 -10.77294922 13.16113281 C-11.876683 9.1876912 -12.18838504 7.0711351 -10.46044922 3.28613281 C-7.41572061 -0.54796989 -4.70721445 0.02545678 0 0 Z " fill="#678B96" transform="translate(353.77294921875,158.8388671875)"/>
<path d="M0 0 C1.1612439 -0.00241196 2.32248779 -0.00482391 3.5189209 -0.00730896 C5.97342342 -0.00632972 8.42794781 0.00708202 10.88232422 0.03198242 C14.64236371 0.06627959 18.40005268 0.052646 22.16015625 0.03320312 C24.54428085 0.04010159 26.92839938 0.04977396 29.3125 0.0625 C31.00167542 0.0550602 31.00167542 0.0550602 32.72497559 0.04747009 C33.77286255 0.06330643 34.82074951 0.07914276 35.90039062 0.09545898 C37.28127869 0.10475685 37.28127869 0.10475685 38.69006348 0.11424255 C41.90204404 0.78454457 43.10989051 2.12128171 45.15625 4.62890625 C45.72265625 6.62890625 45.72265625 6.62890625 45.71875 8.62890625 C45.74066406 9.28890625 45.76257813 9.94890625 45.78515625 10.62890625 C44.73681285 13.96276849 43.15126344 14.83153025 40.15625 16.62890625 C36.32384463 17.23204658 32.52541293 17.1892685 28.65234375 17.16015625 C27.53690689 17.16398315 26.42147003 17.16781006 25.27223206 17.17175293 C22.91788834 17.17447118 20.56351439 17.1671162 18.20922852 17.15039062 C14.60299528 17.12896119 10.99874987 17.15020731 7.39257812 17.17578125 C5.10416227 17.17313836 2.81574764 17.16801418 0.52734375 17.16015625 C-1.09150475 17.17230164 -1.09150475 17.17230164 -2.74305725 17.18469238 C-3.74767502 17.17208374 -4.75229279 17.1594751 -5.78735352 17.14648438 C-6.66939957 17.143302 -7.55144562 17.14011963 -8.46022034 17.13684082 C-11.64586845 16.45797333 -12.8322274 15.1426197 -14.84375 12.62890625 C-15.97684866 8.73387962 -16.32309414 6.64992785 -14.58398438 2.94555664 C-10.18793034 -0.77095768 -5.57639184 -0.06565301 0 0 Z " fill="#678B96" transform="translate(357.84375,221.37109375)"/>
<path d="M0 0 C0.98474808 -0.01283524 1.96949615 -0.02567047 2.98408508 -0.03889465 C4.0517662 -0.04628159 5.11944733 -0.05366852 6.21948242 -0.0612793 C7.31459641 -0.06935104 8.40971039 -0.07742279 9.53800964 -0.08573914 C11.85898247 -0.09958709 14.17997573 -0.11030605 16.50097656 -0.11816406 C20.050116 -0.13537759 23.59832433 -0.17925864 27.1472168 -0.22338867 C29.40046514 -0.23351529 31.65372142 -0.24203149 33.90698242 -0.2487793 C34.96859085 -0.26628738 36.03019928 -0.28379547 37.12397766 -0.30183411 C44.50031302 -0.28012834 44.50031302 -0.28012834 48.43286133 2.07861328 C50.40666994 4.34240899 50.9232313 5.21703586 50.82495117 8.17700195 C50.82688477 9.16700195 50.82688477 9.16700195 50.82885742 10.17700195 C50.010467 13.06676675 48.55346723 14.27038815 46.26245117 16.17700195 C43.79626465 16.69166565 43.79626465 16.69166565 41.0065918 16.71044922 C39.95870483 16.72628555 38.91081787 16.74212189 37.83117676 16.75843811 C36.70505981 16.75347824 35.57894287 16.74851837 34.41870117 16.7434082 C33.25745728 16.74960678 32.09621338 16.75580536 30.89978027 16.76219177 C28.44532103 16.76929375 25.99081366 16.76610945 23.53637695 16.75341797 C19.77620033 16.73955265 16.01851129 16.77362157 12.25854492 16.81176758 C9.87442973 16.81271874 7.49031141 16.81086011 5.10620117 16.8059082 C3.98008423 16.81916641 2.85396729 16.83242462 1.69372559 16.84608459 C-6.0536071 16.75342366 -6.0536071 16.75342366 -9.48168945 13.86425781 C-11.19635362 10.19526317 -10.80954345 8.0361826 -9.73754883 4.17700195 C-6.95073681 0.54202976 -4.43010711 0.05020119 0 0 Z " fill="#678B96" transform="translate(352.737548828125,95.822998046875)"/>
</svg>
