<?xml version="1.0" encoding="UTF-8"?>
<svg version="1.1" xmlns="http://www.w3.org/2000/svg" width="512" height="512">
<path d="M0 0 C0.66224579 0.00021149 1.32449158 0.00042297 2.00680542 0.00064087 C12.66792921 0.03458786 22.32165941 0.9732129 32.4375 4.375 C33.5409375 4.725625 34.644375 5.07625 35.78125 5.4375 C62.75941123 14.86676024 83.68885795 34.56416118 96.35009766 59.98901367 C108.82519399 86.13391849 109.40260201 115.56989868 100.04125977 142.80639648 C95.22937537 155.86148516 87.77265141 166.91064541 78.94384766 177.55810547 C76.79222214 180.15330759 74.6681687 182.77065713 72.54199219 185.38671875 C71.43078273 186.75376026 70.31815162 188.1196474 69.20410156 189.484375 C65.04372699 194.59040147 61.02745612 199.78866734 57.03515625 205.02734375 C54.06045081 208.89480956 50.96599876 212.6628335 47.875 216.4375 C42.54162518 222.95250199 37.41499677 229.58399666 32.4375 236.375 C33.30375 237.365 34.17 238.355 35.0625 239.375 C36.19234541 240.7042299 37.31716542 242.03774415 38.4375 243.375 C39.20900391 244.29539063 39.20900391 244.29539063 39.99609375 245.234375 C48.81941525 256.3265506 52.62536151 269.29035633 51.4375 283.375 C49.29527351 298.11855875 42.59083846 310.10248451 30.87109375 319.4140625 C17.81811863 328.34404548 3.15361921 330.49267288 -12.21484375 327.71484375 C-25.72923566 324.00280507 -36.44789134 315.96771964 -43.71484375 304.07421875 C-44.5625 302.375 -44.5625 302.375 -44.5625 300.375 C-53.23889357 300.41322549 -61.91481162 300.47282905 -70.59086323 300.55890274 C-74.62056802 300.59822665 -78.65005924 300.63048829 -82.67993164 300.64599609 C-86.57706279 300.66126319 -90.47360615 300.69588321 -94.37047386 300.74330902 C-95.84897914 300.75802018 -97.3275684 300.76603505 -98.80614662 300.76688385 C-111.0070974 300.78091788 -121.48127391 302.21642794 -130.55078125 310.9765625 C-136.43087227 317.98700111 -139.94652805 326.17309702 -139.5625 335.375 C-138.60648956 346.03946129 -134.14762337 353.42260259 -126.33203125 360.55078125 C-118.87132555 365.46495553 -111.70391204 366.96611039 -102.88720703 366.88916016 C-101.8711438 366.89628525 -100.85508057 366.90341034 -99.80822754 366.91075134 C-96.47872009 366.92991137 -93.14985617 366.92177403 -89.8203125 366.9140625 C-87.48679691 366.92398083 -85.15328914 366.93592637 -82.8197937 366.94979858 C-76.69240987 366.98208226 -70.56520463 366.99254476 -64.43774414 366.99664307 C-54.63938537 367.00541381 -44.84117285 367.04114525 -35.04293442 367.0888176 C-31.6375444 367.10131575 -28.23234291 367.1006521 -24.82693481 367.09854126 C-5.19958903 367.13522481 11.42588593 368.77431076 27.4375 381.375 C28.26378906 381.99375 29.09007812 382.6125 29.94140625 383.25 C40.91615958 392.59313898 48.33161968 407.44650007 49.65698242 421.74243164 C50.56386088 440.38762468 46.98129849 456.39170541 34.1875 470.625 C24.08297119 481.4046491 10.92504826 489.4676544 -4.0778085 490.55776238 C-6.85427317 490.62524397 -9.62426411 490.63212437 -12.40150452 490.61550903 C-13.98724869 490.61807231 -13.98724869 490.61807231 -15.60502809 490.62068737 C-19.12876397 490.62396781 -22.65230721 490.61300233 -26.17602539 490.60205078 C-28.70934037 490.60148636 -31.24265567 490.60180384 -33.77597046 490.60293579 C-39.22047923 490.60339046 -44.66492655 490.597737 -50.10942268 490.58646011 C-57.98111751 490.57016656 -65.85278918 490.56499317 -73.72449904 490.56248413 C-86.49757959 490.55811306 -99.27063452 490.54481996 -112.04370117 490.52587891 C-124.44734571 490.50750486 -136.85098327 490.49335582 -149.25463867 490.48486328 C-150.01993202 490.48433783 -150.78522538 490.48381239 -151.57370944 490.48327102 C-155.41317999 490.48066083 -159.2526506 490.47813344 -163.09212124 490.47564721 C-194.91559962 490.45493304 -226.73904582 490.4195743 -258.5625 490.375 C-258.98982422 491.29152344 -258.98982422 491.29152344 -259.42578125 492.2265625 C-261.00023085 495.20232635 -263.1023114 497.07882397 -265.5625 499.375 C-266.03300781 499.85066406 -266.50351562 500.32632812 -266.98828125 500.81640625 C-277.9771175 511.25989083 -291.14900913 512.86842109 -305.53125 512.6484375 C-318.26426191 512.17071306 -330.27492919 505.73258793 -338.9375 496.4453125 C-348.25832077 484.57022834 -352.51111669 471.30681926 -351.3125 456.23046875 C-349.52973771 443.83072032 -344.57790495 432.28585183 -334.80859375 424.0546875 C-334.06738281 423.50039063 -333.32617188 422.94609375 -332.5625 422.375 C-334.1229307 417.18027587 -337.42133446 413.66786384 -340.875 409.625 C-345.75552352 403.81365498 -350.49561928 397.93597062 -355.0625 391.875 C-359.43059381 386.09168372 -363.9261283 380.44543223 -368.5625 374.875 C-394.39046897 343.72274997 -408.1052086 316.915902 -405.5625 275.375 C-403.0667572 251.51985845 -391.0016522 231.21756698 -374.5625 214.375 C-373.67304688 213.39273438 -373.67304688 213.39273438 -372.765625 212.390625 C-357.61466232 196.03958607 -332.43881658 185.64399607 -310.48291016 184.16796875 C-307.25650189 184.07209034 -304.04027263 184.04602324 -300.8125 184.0625 C-299.66869873 184.06741455 -298.52489746 184.0723291 -297.34643555 184.07739258 C-288.72080575 184.19662401 -280.8857983 184.97758075 -272.5625 187.375 C-271.33917969 187.7153125 -270.11585938 188.055625 -268.85546875 188.40625 C-241.80978856 196.65086518 -219.58364589 215.31977438 -206.27026367 240.25048828 C-193.38026594 265.51229287 -190.38121684 295.02679465 -199.0390625 322.16015625 C-204.57690367 338.49686911 -212.91470789 351.31512523 -223.94726562 364.43310547 C-226.40307547 367.38557093 -228.76612749 370.40742455 -231.125 373.4375 C-235.40204363 378.91112064 -239.72858119 384.34288919 -244.07568359 389.76098633 C-247.49492326 394.02755459 -250.88080932 398.3188365 -254.25 402.625 C-258.9362436 408.61264951 -263.71824283 414.51404688 -268.5625 420.375 C-267.716875 421.344375 -266.87125 422.31375 -266 423.3125 C-264.85027245 424.66336193 -263.70474391 426.01780428 -262.5625 427.375 C-261.96308594 428.08527344 -261.36367188 428.79554688 -260.74609375 429.52734375 C-253.19248742 438.81028544 -249.48471 448.38408039 -249.5625 460.375 C-219.55730052 460.29300378 -189.55214461 460.20095238 -159.54702057 460.09494839 C-156.00115525 460.08243017 -152.45528963 460.06999729 -148.90942383 460.05761719 C-147.8505884 460.0539182 -147.8505884 460.0539182 -146.77036235 460.05014448 C-135.35468739 460.01046769 -123.93900259 459.97769792 -112.52329906 459.94750018 C-100.80159785 459.91633852 -89.07993823 459.87770911 -77.35828382 459.83220994 C-70.77784599 459.80698886 -64.19743743 459.78519455 -57.61696434 459.77165604 C-51.41919972 459.75879594 -45.22153567 459.73669886 -39.0238266 459.70761681 C-36.75313977 459.6985719 -34.48243676 459.69285803 -32.21173286 459.69078636 C-29.1019542 459.68744198 -25.99245697 459.67190592 -22.88273621 459.6534729 C-21.54756597 459.656375 -21.54756597 459.656375 -20.1854226 459.65933573 C-9.38265417 459.56417208 0.8139559 458.17060109 9.1875 450.84375 C15.09177025 444.58522354 17.63908605 437.33719194 17.9375 428.8125 C17.61505399 419.95043534 14.48986345 413.63547217 8.5 407.16796875 C2.30822965 401.78535021 -5.05193099 399.26374453 -13.18312073 399.23696899 C-14.08138077 399.23151566 -14.97964081 399.22606232 -15.90512085 399.22044373 C-16.87817169 399.2194014 -17.85122253 399.21835907 -18.85375977 399.21728516 C-19.88860001 399.21220444 -20.92344025 399.20712372 -21.98963928 399.20188904 C-24.23492656 399.19119907 -26.4802244 399.18257352 -28.72552681 399.17576981 C-32.28720219 399.16395202 -35.84875789 399.14448972 -39.41038513 399.12265015 C-49.53665136 399.06114442 -59.6629058 399.00708955 -69.78930664 398.97363281 C-75.9873217 398.95260602 -82.18511893 398.91723568 -88.38300896 398.87287521 C-90.73711509 398.8587755 -93.09125976 398.8500065 -95.44540596 398.84682083 C-118.03452724 398.8130277 -136.74894225 396.03311654 -153.5625 379.375 C-166.17441131 364.99230551 -172.45916287 347.83020725 -171.34765625 328.671875 C-169.31030252 309.81180045 -160.95559361 294.66405793 -146.5625 282.375 C-135.58166832 274.32509141 -123.55029859 269.23566328 -109.84448242 269.26147461 C-109.19026306 269.26132858 -108.5360437 269.26118256 -107.86199951 269.2610321 C-105.71395474 269.26172506 -103.56599825 269.26948836 -101.41796875 269.27734375 C-99.92295886 269.27921012 -98.42794835 269.28063299 -96.93293762 269.28163147 C-93.00878189 269.28543936 -89.0846635 269.29525482 -85.16052246 269.30633545 C-81.15194199 269.31658679 -77.14335545 269.32113706 -73.13476562 269.32617188 C-65.27732666 269.3368787 -57.41991798 269.35393428 -49.5625 269.375 C-49.41248535 268.27269043 -49.2624707 267.17038086 -49.10791016 266.03466797 C-47.74767185 256.90755418 -43.48365219 250.26740838 -37.5625 243.375 C-37.04655273 242.77220215 -36.53060547 242.1694043 -35.99902344 241.54833984 C-34.52174974 239.82254065 -33.04272404 238.09826865 -31.5625 236.375 C-32.35011719 235.41722656 -33.13773437 234.45945313 -33.94921875 233.47265625 C-39.75577649 226.38355807 -45.47233504 219.2466894 -51 211.9375 C-55.39103341 206.13570347 -59.90754052 200.46713053 -64.5625 194.875 C-70.99871558 187.13433984 -77.18746534 179.23064062 -83.21582031 171.16845703 C-84.34621874 169.6630352 -85.49519055 168.17158466 -86.6484375 166.68359375 C-102.88744382 144.97035226 -108.07011444 116.90966471 -104.875 90.375 C-100.21907657 62.31102018 -85.96101149 38.14598544 -63.5625 20.375 C-51.61116894 12.07757907 -38.66323691 5.97797575 -24.5625 2.375 C-23.86697021 2.19694824 -23.17144043 2.01889648 -22.45483398 1.83544922 C-14.99113697 0.11960393 -7.63473776 -0.01009187 0 0 Z " fill="#FC4A48" transform="translate(405.5625,-0.375)"/>
<path d="M0 0 C1.14380127 0.00491455 2.28760254 0.0098291 3.46606445 0.01489258 C12.09169425 0.13412401 19.9267017 0.91508075 28.25 3.3125 C30.08498047 3.82296875 30.08498047 3.82296875 31.95703125 4.34375 C59.00271144 12.58836518 81.22885411 31.25727438 94.54223633 56.18798828 C107.43223406 81.44979287 110.43128316 110.96429465 101.7734375 138.09765625 C96.23559633 154.43436911 87.89779211 167.25262523 76.86523438 180.37060547 C74.40942453 183.32307093 72.04637251 186.34492455 69.6875 189.375 C65.41045637 194.84862064 61.08391881 200.28038919 56.73681641 205.69848633 C53.31757221 209.96506024 49.93214022 214.25668402 46.5625 218.5625 C43.13087485 222.93848473 39.68188201 227.29888808 36.1875 231.625 C35.47464844 232.50800781 34.76179687 233.39101563 34.02734375 234.30078125 C32.25 236.3125 32.25 236.3125 30.25 237.3125 C28.00383504 236.27144878 25.86017349 235.17752767 23.6875 234 C11.68790918 227.80396382 -0.34106673 226.18047483 -13.5625 230 C-18.3853045 231.63704475 -22.66488471 233.70302016 -26.9453125 236.45703125 C-28.75 237.3125 -28.75 237.3125 -31.75 236.3125 C-33.46394219 234.32683527 -35.05173391 232.34251445 -36.625 230.25 C-37.60930368 228.9676946 -38.595039 227.68648716 -39.58203125 226.40625 C-40.35667725 225.39884766 -40.35667725 225.39884766 -41.14697266 224.37109375 C-43.81086579 220.95014539 -46.5642025 217.60321506 -49.3125 214.25 C-54.04125977 208.46249041 -58.63127691 202.59396792 -63.16015625 196.6484375 C-65.55151298 193.53902012 -68.02742563 190.50383263 -70.5168457 187.47265625 C-95.05712218 157.57820284 -106.94316694 130.90729656 -104.75 91.3125 C-102.30871084 67.47378635 -90.16417348 47.12947529 -73.75 30.3125 C-73.15703125 29.65765625 -72.5640625 29.0028125 -71.953125 28.328125 C-54.14466669 9.10909574 -25.53256623 -0.13033566 0 0 Z " fill="#FC4A48" transform="translate(104.75,183.6875)"/>
<path d="M0 0 C9.72479062 7.69274482 14.80327577 19.21310306 17.75 31 C19.12649587 47.5179504 15.61235837 61.44086566 4.8125 74.25 C-4.8363946 84.39825309 -16.67205313 89.91164055 -30.66943359 90.47070312 C-45.83266846 90.66131576 -58.72473954 86.08796139 -69.875 75.5625 C-78 66.90888554 -78 66.90888554 -78 62 C-86.67639357 62.03822549 -95.35231162 62.09782905 -104.02836323 62.18390274 C-108.05806802 62.22322665 -112.08755924 62.25548829 -116.11743164 62.27099609 C-120.01456279 62.28626319 -123.91110615 62.32088321 -127.80797386 62.36830902 C-129.28647914 62.38302018 -130.7650684 62.39103505 -132.24364662 62.39188385 C-144.4445974 62.40591788 -154.91877391 63.84142794 -163.98828125 72.6015625 C-169.86837227 79.61200111 -173.38402805 87.79809702 -173 97 C-172.04398956 107.66446129 -167.58512337 115.04760259 -159.76953125 122.17578125 C-152.30882555 127.08995553 -145.14141204 128.59111039 -136.32470703 128.51416016 C-135.3086438 128.52128525 -134.29258057 128.52841034 -133.24572754 128.53575134 C-129.91622009 128.55491137 -126.58735617 128.54677403 -123.2578125 128.5390625 C-120.92429691 128.54898083 -118.59078914 128.56092637 -116.2572937 128.57479858 C-110.12990987 128.60708226 -104.00270463 128.61754476 -97.87524414 128.62164307 C-88.07688537 128.63041381 -78.27867285 128.66614525 -68.48043442 128.7138176 C-65.0750444 128.72631575 -61.66984291 128.7256521 -58.26443481 128.72354126 C-38.63708903 128.76022481 -22.01161407 130.39931076 -6 143 C-4.76056641 143.928125 -4.76056641 143.928125 -3.49609375 144.875 C7.47865958 154.21813898 14.89411968 169.07150007 16.21948242 183.36743164 C17.12636088 202.01262468 13.54379849 218.01670541 0.75 232.25 C-9.35452881 243.0296491 -22.51245174 251.0926544 -37.5153085 252.18276238 C-40.29177317 252.25024397 -43.06176411 252.25712437 -45.83900452 252.24050903 C-47.42474869 252.24307231 -47.42474869 252.24307231 -49.04252809 252.24568737 C-52.56626397 252.24896781 -56.08980721 252.23800233 -59.61352539 252.22705078 C-62.14684037 252.22648636 -64.68015567 252.22680384 -67.21347046 252.22793579 C-72.65797923 252.22839046 -78.10242655 252.222737 -83.54692268 252.21146011 C-91.41861751 252.19516656 -99.29028918 252.18999317 -107.16199904 252.18748413 C-119.93507959 252.18311306 -132.70813452 252.16981996 -145.48120117 252.15087891 C-157.88484571 252.13250486 -170.28848327 252.11835582 -182.69213867 252.10986328 C-183.45743202 252.10933783 -184.22272538 252.10881239 -185.01120944 252.10827102 C-188.85067999 252.10566083 -192.6901506 252.10313344 -196.52962124 252.10064721 C-228.35309962 252.07993304 -260.17654582 252.0445743 -292 252 C-292.42732422 252.91652344 -292.42732422 252.91652344 -292.86328125 253.8515625 C-294.43773085 256.82732635 -296.5398114 258.70382397 -299 261 C-299.47050781 261.47566406 -299.94101562 261.95132812 -300.42578125 262.44140625 C-311.4146175 272.88489083 -324.58650913 274.49342109 -338.96875 274.2734375 C-351.70176191 273.79571306 -363.71242919 267.35758793 -372.375 258.0703125 C-381.69582077 246.19522834 -385.94861669 232.93181926 -384.75 217.85546875 C-382.91580191 205.09796599 -377.62950293 193.02401953 -367.375 184.75 C-353.6399573 175.41234251 -340.57577855 171.25995732 -323.921875 173.39453125 C-310.72879325 176.12839177 -298.79224943 183.7454583 -291.0703125 194.75 C-285.64176979 203.39962822 -282.90735297 211.7876498 -283 222 C-252.99480052 221.91800378 -222.98964461 221.82595238 -192.98452057 221.71994839 C-189.43865525 221.70743017 -185.89278963 221.69499729 -182.34692383 221.68261719 C-181.64103354 221.68015119 -180.93514326 221.6776852 -180.20786235 221.67514448 C-168.79218739 221.63546769 -157.37650259 221.60269792 -145.96079906 221.57250018 C-134.23909785 221.54133852 -122.51743823 221.50270911 -110.79578382 221.45720994 C-104.21534599 221.43198886 -97.63493743 221.41019455 -91.05446434 221.39665604 C-84.85669972 221.38379594 -78.65903567 221.36169886 -72.4613266 221.33261681 C-70.19063977 221.3235719 -67.91993676 221.31785803 -65.64923286 221.31578636 C-62.5394542 221.31244198 -59.42995697 221.29690592 -56.32023621 221.2784729 C-54.98506597 221.281375 -54.98506597 221.281375 -53.6229226 221.28433573 C-42.82015417 221.18917208 -32.6235441 219.79560109 -24.25 212.46875 C-18.34572975 206.21022354 -15.79841395 198.96219194 -15.5 190.4375 C-15.82244601 181.57543534 -18.94763655 175.26047217 -24.9375 168.79296875 C-31.12927035 163.41035021 -38.48943099 160.88874453 -46.62062073 160.86196899 C-47.96801079 160.85378899 -47.96801079 160.85378899 -49.34262085 160.84544373 C-50.31567169 160.8444014 -51.28872253 160.84335907 -52.29125977 160.84228516 C-53.84352013 160.83466408 -53.84352013 160.83466408 -55.42713928 160.82688904 C-57.67242656 160.81619907 -59.9177244 160.80757352 -62.16302681 160.80076981 C-65.72470219 160.78895202 -69.28625789 160.76948972 -72.84788513 160.74765015 C-82.97415136 160.68614442 -93.1004058 160.63208955 -103.22680664 160.59863281 C-109.4248217 160.57760602 -115.62261893 160.54223568 -121.82050896 160.49787521 C-124.17461509 160.4837755 -126.52875976 160.4750065 -128.88290596 160.47182083 C-151.47202724 160.4380277 -170.18644225 157.65811654 -187 141 C-199.61191131 126.61730551 -205.89666287 109.45520725 -204.78515625 90.296875 C-202.74780252 71.43680045 -194.39309361 56.28905793 -180 44 C-169.01916832 35.95009141 -156.98779859 30.86066328 -143.28198242 30.88647461 C-142.62776306 30.88632858 -141.9735437 30.88618256 -141.29949951 30.8860321 C-139.15145474 30.88672506 -137.00349825 30.89448836 -134.85546875 30.90234375 C-133.36045886 30.90421012 -131.86544835 30.90563299 -130.37043762 30.90663147 C-126.44628189 30.91043936 -122.5221635 30.92025482 -118.59802246 30.93133545 C-114.58944199 30.94158679 -110.58085545 30.94613706 -106.57226562 30.95117188 C-98.71482666 30.9618787 -90.85741798 30.97893428 -83 31 C-82.84998535 29.89769043 -82.6999707 28.79538086 -82.54541016 27.65966797 C-81.19026494 18.56672849 -76.97357395 11.82882133 -71 5 C-70.53851563 4.44441406 -70.07703125 3.88882813 -69.6015625 3.31640625 C-51.52829361 -16.79402301 -20.41054545 -14.16731978 0 0 Z " fill="#1B3559" transform="translate(439,238)"/>
<path d="M0 0 C30.33661494 0 54.9640987 10.74966684 76.75 31.3125 C97.4859197 53.01019705 106.8522358 81.04373428 106.2421875 110.7265625 C105.26116229 137.58334186 93.60350613 159.858636 76.61523438 180.05810547 C74.15942453 183.01057093 71.79637251 186.03242455 69.4375 189.0625 C65.16045637 194.53612064 60.83391881 199.96788919 56.48681641 205.38598633 C53.06757221 209.65256024 49.68214022 213.94418402 46.3125 218.25 C42.88087485 222.62598473 39.43188201 226.98638808 35.9375 231.3125 C35.22464844 232.19550781 34.51179688 233.07851563 33.77734375 233.98828125 C32 236 32 236 30 237 C26.77599708 235.41136088 23.67760425 233.63760054 20.5546875 231.859375 C14.29399974 229.1256673 14.29399974 229.1256673 0 227 C0 205.22 0 183.44 0 161 C6.435 160.01 6.435 160.01 13 159 C28.04688536 154.37018912 39.92761773 146.69800429 48 133 C54.73510745 119.36984851 57.79905261 104.73426481 53.1015625 89.8515625 C46.65733227 73.16968992 37.74149354 62.39213145 21.3125 54.6875 C14.2591771 51.75592352 7.68432645 50.85381405 0 50 C0 33.5 0 17 0 0 Z " fill="#FB1C5B" transform="translate(105,184)"/>
<path d="M0 0 C17.39161392 0 17.39161392 0 23.625 1.6875 C24.33390381 1.86901611 25.04280762 2.05053223 25.77319336 2.23754883 C53.95818803 9.71144393 77.22088991 26.88448248 91.96386719 52.15429688 C106.48355737 78.01877797 109.62793494 107.07881719 101.78125 135.65625 C97.06630479 151.45004673 88.9618657 164.5738422 78.50634766 177.18310547 C76.35472214 179.77830759 74.2306687 182.39565713 72.10449219 185.01171875 C70.99328273 186.37876026 69.88065162 187.7446474 68.76660156 189.109375 C64.60508279 194.21680576 60.58811632 199.41688638 56.59375 204.65625 C53.10682254 209.18925569 49.46543912 213.5970557 45.8449707 218.0234375 C40.76542607 224.25002493 35.85608429 230.59829971 31 237 C30.1028125 236.52949219 29.205625 236.05898437 28.28125 235.57421875 C27.02135374 234.94427062 25.76090539 234.31542583 24.5 233.6875 C23.91863281 233.37876953 23.33726562 233.07003906 22.73828125 232.75195312 C15.16748549 229.04460468 8.96526691 228.68098755 0 227 C0 205.22 0 183.44 0 161 C4.95 160.01 9.9 159.02 15 158 C28.59270269 154.01083725 39.84322392 145.96830622 46.9765625 133.5625 C54.10075879 119.99345812 56.87424199 104.96646508 53.125 89.80078125 C50.62177234 82.31580118 46.8678416 76.16750805 42 70 C41.401875 69.113125 40.80375 68.22625 40.1875 67.3125 C29.41267407 55.92196973 15.0757364 51.67508182 0 50 C0 33.5 0 17 0 0 Z " fill="#FB1C5C" transform="translate(406,0)"/>
<path d="M0 0 C11.41431114 8.48756469 20.12820433 21.37309748 22.71484375 35.51171875 C24.58601147 51.8395795 21.06674382 67.18639082 11.1875 80.4296875 C2.00323864 91.42858114 -11.60132313 99.63527091 -26.00732422 101.22094727 C-43.05117041 102.20064602 -57.12379419 97.88852811 -70.1875 86.75 C-80.37764555 77.15081901 -87.36525167 64.31205895 -88.23828125 50.12890625 C-88.67673481 32.1641602 -83.83669083 18.53801458 -71.40625 5.3203125 C-51.51676768 -13.85883117 -22.59398014 -14.87896253 0 0 Z " fill="#BEDEFE" transform="translate(138,244)"/>
<path d="M0 0 C11.19101565 10.4786512 17.88225199 23.86982241 18.41162109 39.1550293 C18.49313014 48.31249399 18.01067516 56.60497105 13.875 64.9375 C13.37742187 65.94941406 12.87984375 66.96132812 12.3671875 68.00390625 C5.20956871 81.30376069 -5.57780489 90.78704654 -20.0625 95.3125 C-22.0774627 95.8756123 -24.09777557 96.42026578 -26.125 96.9375 C-26.77597656 97.13085938 -27.42695313 97.32421875 -28.09765625 97.5234375 C-42.80199747 100.52663629 -56.88129411 95.85899313 -69.125 87.9375 C-81.25206352 78.80832788 -88.90114615 66.82559205 -92.125 51.9375 C-93.69808919 32.46157088 -89.91173104 18.02923948 -77.125 2.9375 C-55.52194824 -17.71072074 -23.23670172 -18.51603056 0 0 Z " fill="#FEFDFD" transform="translate(443.125,63.0625)"/>
<path d="M0 0 C9.59924324 8.89368957 14.81955189 20.6491671 15.859375 33.56640625 C16.27606619 48.73396572 11.73824686 62.61955853 1.58203125 74.12109375 C-12.85371308 86.4745346 -26.95164887 89.46478125 -45.41796875 88.12109375 C-56.83249322 86.06151651 -68.22947579 79.27951026 -75.41796875 70.12109375 C-84.03717787 57.44367366 -87.94018417 44.30295367 -85.73046875 28.93359375 C-83.26154688 16.63739461 -77.45795968 4.76191763 -66.81640625 -2.47265625 C-44.06172828 -15.81416125 -21.65701831 -16.82879775 0 0 Z " fill="#5DC276" transform="translate(140.41796875,423.87890625)"/>
<path d="M0 0 C9.72479062 7.69274482 14.80327577 19.21310306 17.75 31 C19.12649587 47.5179504 15.61235837 61.44086566 4.8125 74.25 C-4.8363946 84.39825309 -16.67205313 89.91164055 -30.66943359 90.47070312 C-45.83266846 90.66131576 -58.72473954 86.08796139 -69.875 75.5625 C-81.29262737 63.22058851 -84.09281237 48.78934152 -83.48046875 32.45703125 C-82.73343353 21.47730705 -78.34374834 13.11938019 -71 5 C-70.53980469 4.44828125 -70.07960938 3.8965625 -69.60546875 3.328125 C-51.58088828 -16.82616094 -20.38081152 -14.14668094 0 0 Z " fill="#5DC276" transform="translate(439,238)"/>
<path d="M0 0 C0.65421936 -0.00014603 1.30843872 -0.00029205 1.98248291 -0.0004425 C4.13052768 0.00025045 6.27848418 0.00801375 8.42651367 0.01586914 C9.92152357 0.01773552 11.41653407 0.01915838 12.9115448 0.02015686 C16.83570053 0.02396475 20.75981892 0.03378021 24.68395996 0.04486084 C28.69254044 0.05511219 32.70112698 0.05966245 36.7097168 0.06469727 C44.56715576 0.07540409 52.42456444 0.09245967 60.28198242 0.11352539 C60.30776367 1.34586914 60.33354492 2.57821289 60.36010742 3.84790039 C60.41646383 5.51980718 60.47380931 7.19168083 60.53198242 8.86352539 C60.54616211 9.66918945 60.5603418 10.47485352 60.57495117 11.30493164 C60.85366317 18.38421632 62.80576792 24.50553756 65.28198242 31.11352539 C64.04075874 31.11899384 64.04075874 31.11899384 62.77445984 31.12457275 C54.93394668 31.16261343 47.09384271 31.21964656 39.25361919 31.29742813 C35.2239144 31.33675204 31.19442319 31.36901368 27.16455078 31.38452148 C23.26741963 31.39978858 19.37087627 31.4344086 15.47400856 31.48183441 C13.99550328 31.49654557 12.51691403 31.50456044 11.0383358 31.50540924 C-1.16261498 31.51944327 -11.63679149 32.95495333 -20.70629883 41.71508789 C-26.58638985 48.7255265 -30.10204563 56.91162241 -29.71801758 66.11352539 C-28.76465396 76.74846093 -24.33528079 84.55313052 -16.19458008 91.38696289 C-11.1341461 94.91489951 -5.65049731 96.63040546 0.28198242 98.11352539 C0.28198242 108.34352539 0.28198242 118.57352539 0.28198242 129.11352539 C-16.52453572 129.11352539 -31.81339752 121.90808733 -43.71801758 110.11352539 C-56.32992889 95.7308309 -62.61468045 78.56873264 -61.50317383 59.41040039 C-59.4658201 40.55032584 -51.11111119 25.40258332 -36.71801758 13.11352539 C-25.7371859 5.0636168 -13.70581617 -0.02581133 0 0 Z " fill="#2F5795" transform="translate(295.718017578125,268.886474609375)"/>
<path d="M0 0 C14.56223845 0 28.23003601 4.73374522 39.02734375 14.84375 C51.52579496 28.5054234 56.11486449 42.52301017 55.4140625 60.84375 C55.01176653 67.07371895 53.78346518 72.39189411 51 78 C50.50242187 79.01191406 50.00484375 80.02382812 49.4921875 81.06640625 C41.73978053 95.47146013 30.04244674 104.49323056 14.53125 109.37109375 C11 110 11 110 0 110 C0 73.7 0 37.4 0 0 Z " fill="#BDDEFE" transform="translate(406,50)"/>
<path d="M0 0 C0 36.63 0 73.26 0 111 C-16.03332225 111 -28.14754112 105.26569794 -39.6796875 94.40234375 C-51.41071479 82.25658318 -55.54480316 67.21445402 -55.27734375 50.69140625 C-54.66421496 35.58891558 -46.61389275 23.23482515 -36 13 C-25.57556433 4.06973344 -13.57527492 0 0 0 Z " fill="#FEFDFD" transform="translate(105,234)"/>
<path d="M0 0 C46.2 0 92.4 0 140 0 C140 9.9 140 19.8 140 30 C90.83 30 41.66 30 -9 30 C-7.02 25.71 -5.04 21.42 -3 17 C-2.01 11.39 -1.02 5.78 0 0 Z " fill="#305894" transform="translate(156,460)"/>
<path d="M0 0 C0 33.33 0 66.66 0 101 C-14.57586272 101 -26.20239169 96.63707423 -36.875 86.5625 C-48.29262737 74.22058851 -51.09281237 59.78934152 -50.48046875 43.45703125 C-49.73343353 32.47730705 -45.34374834 24.11938019 -38 16 C-37.53980469 15.44828125 -37.07960938 14.8965625 -36.60546875 14.328125 C-27.51256978 4.16084892 -13.13035443 0 0 0 Z " fill="#8ADA53" transform="translate(406,227)"/>
<path d="M0 0 C0 0.33 0 0.66 0 1 C-2.31 1 -4.62 1 -7 1 C-7 34 -7 67 -7 101 C-21.68338634 101 -32.82870901 96.78517106 -43.75 86.8125 C-53.85846404 75.97506019 -58 62.55882507 -58 48 C-56.92731051 34.50757752 -51.90808951 22.80538705 -42.1953125 13.21875 C-29.39053134 2.88699525 -16.07274671 -0.40633348 0 0 Z " fill="#8ADA52" transform="translate(112,411)"/>
<path d="M0 0 C19.8 0 39.6 0 60 0 C60.495 9.405 60.495 9.405 61 19 C62.32 22.96 63.64 26.92 65 31 C43.55 31 22.1 31 0 31 C0 20.77 0 10.54 0 0 Z " fill="#1B3659" transform="translate(296,269)"/>
</svg>
