<?xml version="1.0" encoding="UTF-8"?>
<svg version="1.1" xmlns="http://www.w3.org/2000/svg" width="512" height="512">
<path d="M0 0 C3.53316133 2.81830045 6.79972205 5.81103046 10 9 C10.56460937 9.54140625 11.12921875 10.0828125 11.7109375 10.640625 C17.40918166 16.61021412 21.40277974 25.20833921 24 33 C24.76441406 32.855625 25.52882813 32.71125 26.31640625 32.5625 C45.03457312 29.31891874 62.72634941 30.33296282 79 41 C92.62421206 51.08478351 101.13357742 64.58957295 105 81 C106.31613281 81.02578125 107.63226563 81.0515625 108.98828125 81.078125 C122.32062016 81.45498849 132.5179596 82.34833745 142.9296875 91.4140625 C148.8148927 98.76501691 151.68749228 108.16628944 154.78125 116.9375 C155.23210325 118.20059688 155.68355667 119.46347967 156.13555908 120.72616577 C157.09717315 123.41601509 158.05498229 126.10717477 159.00964355 128.79949951 C160.51646411 133.04895172 162.03126473 137.29552879 163.54785156 141.54150391 C163.80361088 142.25760897 164.05937019 142.97371403 164.32287979 143.71151924 C164.84365945 145.16965921 165.36445854 146.62779224 165.88527679 148.08591843 C166.67570341 150.29978529 167.46528188 152.51395317 168.25469971 154.72817993 C171.8308831 164.75483752 175.44176243 174.76845737 179.078125 184.7734375 C179.564779 186.11305733 180.05143265 187.45267728 180.53808594 188.79229736 C182.39354583 193.89846957 184.25024227 199.00418472 186.11108398 204.10839844 C187.38373874 207.60004698 188.65306518 211.09289031 189.921875 214.5859375 C190.29274231 215.59989594 190.66360962 216.61385437 191.04571533 217.65853882 C193.24311351 223.71698471 195.22136732 229.80547725 197 236 C197.78270264 235.96874023 198.56540527 235.93748047 199.37182617 235.90527344 C204.9964627 235.71574059 209.27730226 235.59526442 214 239 C218.99125635 243.97948452 221.13917509 247.56157742 221.3125 254.75 C221.25705921 260.48812142 220.49636436 263.46417596 217 268 C211.41883728 273.29494925 206.36277887 274.29785497 198.84829998 274.25726891 C198.02775467 274.26077498 197.20720935 274.26428105 196.36179903 274.26789337 C193.60048192 274.27722895 190.83937471 274.27227849 188.07804871 274.26742554 C186.08302984 274.27116071 184.08801244 274.27576169 182.09299737 274.28115618 C176.6013606 274.29341803 171.10978459 274.29312197 165.61813724 274.29076743 C159.69912514 274.29036007 153.78013274 274.30139068 147.86112976 274.31088257 C136.26120474 274.32751091 124.66129849 274.33301883 113.06136271 274.33410732 C103.63458244 274.33502612 94.20780877 274.33914128 84.78103065 274.34550858 C82.06834375 274.34730364 79.35565683 274.34908327 76.64296991 274.35085833 C75.96860296 274.35130043 75.29423602 274.35174252 74.59943371 274.35219802 C55.62847283 274.3645079 36.65751424 274.37239899 17.68654919 274.37151146 C16.61349038 274.37146472 16.61349038 274.37146472 15.51875362 274.37141704 C11.8928816 274.37125083 8.26700958 274.37105274 4.64113756 274.37084763 C3.92101604 274.37080774 3.20089452 274.37076785 2.45895114 274.37072675 C1.00268963 274.37064587 -0.45357188 274.37056228 -1.90983339 274.37047596 C-24.56792566 274.3692504 -47.22595807 274.38426404 -69.8840332 274.41162109 C-95.33559315 274.44233824 -120.78711376 274.45955381 -146.23869342 274.45769465 C-148.9523234 274.45754539 -151.66595337 274.45744797 -154.37958336 274.45738602 C-155.04775631 274.45736271 -155.71592925 274.4573394 -156.40434986 274.45731538 C-166.49363999 274.45725764 -176.58288306 274.46789905 -186.67215919 274.48405075 C-198.14671409 274.50223444 -209.62117088 274.506633 -221.09573392 274.4930319 C-226.951874 274.48648813 -232.80782573 274.48643598 -238.66394806 274.5037384 C-244.02372443 274.51941168 -249.3831622 274.51666426 -254.74293002 274.49917014 C-256.68301922 274.49608757 -258.62313334 274.49977967 -260.56319318 274.51089029 C-263.19946493 274.52498943 -265.8345454 274.51444265 -268.47077656 274.49777794 C-269.60186333 274.51268248 -269.60186333 274.51268248 -270.75580034 274.52788812 C-276.79601659 274.44710812 -282.10615057 272.73637396 -286.56800108 268.5173253 C-291.77151414 262.5146615 -291.53481741 256.59844361 -291 249 C-289.28347789 243.54751802 -285.60380327 240.2121991 -281 237 C-277.85069107 235.95023036 -275.61185544 235.89868405 -272.3125 235.9375 C-271.31863281 235.94652344 -270.32476562 235.95554687 -269.30078125 235.96484375 C-268.16189453 235.98224609 -268.16189453 235.98224609 -267 236 C-266.83704941 235.42944382 -266.67409882 234.85888763 -266.50621033 234.27104187 C-264.40094851 227.06407445 -261.92994295 220.0167791 -259.37890625 212.95703125 C-258.92168585 211.68593247 -258.4646808 210.41475622 -258.00787354 209.14350891 C-256.78325707 205.73784777 -255.55523093 202.33342592 -254.3263588 198.9292984 C-253.30141576 196.08898578 -252.27829647 193.24801757 -251.25511456 190.40707016 C-247.84363458 180.93555499 -244.42362387 171.46713155 -241 162 C-240.74987152 161.30829964 -240.49974304 160.61659927 -240.24203491 159.90393829 C-236.77190495 150.30863846 -233.29458404 140.71596888 -229.8125 131.125 C-229.39171173 129.96473297 -228.97092346 128.80446594 -228.53738403 127.60903931 C-227.34572603 124.32464208 -226.15177552 121.04108812 -224.95703125 117.7578125 C-224.61319397 116.80949051 -224.26935669 115.86116852 -223.9151001 114.8841095 C-215.16175245 90.87419116 -215.16175245 90.87419116 -203.75 85 C-199.21959059 82.92236002 -195.21105621 81.90690637 -190.234375 81.68359375 C-189.34492188 81.64169922 -188.45546875 81.59980469 -187.5390625 81.55664062 C-186.61867188 81.51732422 -185.69828125 81.47800781 -184.75 81.4375 C-183.34621094 81.37272461 -183.34621094 81.37272461 -181.9140625 81.30664062 C-179.60951359 81.2008195 -177.30486161 81.09873443 -175 81 C-174.78085938 80.18917969 -174.56171875 79.37835938 -174.3359375 78.54296875 C-169.5630031 61.8765027 -160.72833418 48.57239014 -146 39 C-128.89717256 30.1435301 -112.78126361 29.45277989 -94 33 C-93.72027344 32.24976563 -93.44054687 31.49953125 -93.15234375 30.7265625 C-87.16609127 15.44333269 -77.67993244 3.6663942 -63 -4 C-42.49658598 -12.59677273 -18.85059966 -13.16919791 0 0 Z " fill="#DC4955" transform="translate(291,124)"/>
<path d="M0 0 C0.82221356 -0.00205263 1.64442713 -0.00410527 2.49155626 -0.0062201 C5.2705198 -0.01191342 8.04943414 -0.01042999 10.82840252 -0.00901413 C12.83136909 -0.01159643 14.83433514 -0.0146092 16.83730048 -0.01801753 C22.36010619 -0.02610663 27.88289893 -0.02787816 33.40570986 -0.028615 C39.35470628 -0.03046222 45.3036959 -0.03800785 51.25268841 -0.04475021 C64.94802787 -0.05905661 78.64336637 -0.06486168 92.33871159 -0.06944216 C99.10424267 -0.07177709 105.86977291 -0.07537961 112.63530333 -0.07913754 C135.78776439 -0.09197339 158.94022497 -0.10269289 182.09268951 -0.10614014 C183.54637066 -0.10636177 185.0000518 -0.10658355 186.45373295 -0.10680549 C187.91095281 -0.10702613 189.36817268 -0.10724661 190.82539254 -0.10746694 C193.74889648 -0.10790949 196.67240042 -0.10835661 199.59590435 -0.10880661 C200.68319485 -0.1089707 200.68319485 -0.1089707 201.79245082 -0.1091381 C225.30235659 -0.11276969 248.81223154 -0.12869342 272.3221255 -0.15199697 C297.16976473 -0.17658157 322.01738635 -0.19031232 346.8650381 -0.19150805 C349.59158242 -0.19167951 352.31812674 -0.19189494 355.04467106 -0.19214249 C356.0517217 -0.19222614 356.0517217 -0.19222614 357.0791168 -0.19231148 C367.89267019 -0.19346308 378.706192 -0.20449426 389.51973472 -0.21902954 C400.38437644 -0.23338122 411.24897565 -0.23638611 422.11362413 -0.22858956 C428.00187789 -0.22467246 433.89002518 -0.22566423 439.77826595 -0.23964691 C445.16510383 -0.25232229 450.55175454 -0.25124457 455.93859192 -0.2390562 C457.89081858 -0.23708813 459.84305821 -0.24022843 461.79526661 -0.24890056 C464.44294884 -0.25992057 467.08996206 -0.2525566 469.73762512 -0.24050903 C470.88226351 -0.25190182 470.88226351 -0.25190182 472.05002591 -0.26352477 C477.65517463 -0.20822753 481.7681356 1.01957658 485.92085552 4.85017776 C486.39909771 5.43799026 486.8773399 6.02580276 487.37007427 6.63142776 C487.86120708 7.21924026 488.3523399 7.80705276 488.85835552 8.41267776 C492.22534499 13.23833042 491.5805077 19.52441937 491.05757427 25.13142776 C489.45929381 30.03050484 486.32301077 33.32248178 482.05757427 36.13142776 C477.72000159 38.32855466 473.66897583 38.41442241 468.90587425 38.38869667 C467.67505628 38.39395578 467.67505628 38.39395578 466.4193733 38.39932114 C463.65805619 38.40865671 460.89694899 38.40370626 458.13562298 38.3988533 C456.14060411 38.40258847 454.14558671 38.40718946 452.15057164 38.41258395 C446.65893487 38.4248458 441.16735886 38.42454973 435.67571151 38.4221952 C429.75669941 38.42178783 423.83770701 38.43281845 417.91870403 38.44231033 C406.31877901 38.45893867 394.71887277 38.4644466 383.11893698 38.46553509 C373.69215671 38.46645388 364.26538305 38.47056905 354.83860493 38.47693634 C352.12591802 38.47873141 349.4132311 38.48051103 346.70054418 38.4822861 C346.02617723 38.48272819 345.35181029 38.48317029 344.65700798 38.48362578 C325.6860471 38.49593567 306.71508851 38.50382676 287.74412346 38.50293922 C286.67106465 38.50289249 286.67106465 38.50289249 285.57632789 38.50284481 C281.95045587 38.50267859 278.32458385 38.50248051 274.69871183 38.50227539 C273.97859031 38.5022355 273.25846879 38.50219561 272.51652541 38.50215451 C271.0602639 38.50207364 269.60400239 38.50199004 268.14774088 38.50190373 C245.48964862 38.50067816 222.83161621 38.5156918 200.17354107 38.54304886 C174.72198113 38.57376601 149.27046051 38.59098158 123.81888086 38.58912241 C121.10525088 38.58897315 118.3916209 38.58887574 115.67799091 38.58881378 C115.00981797 38.58879047 114.34164502 38.58876716 113.65322441 38.58874315 C103.56393428 38.5886854 93.47469122 38.59932682 83.38541508 38.61547852 C71.91086019 38.63366221 60.43640339 38.63806077 48.96184035 38.62445967 C43.10570027 38.61791589 37.24974854 38.61786375 31.39362621 38.63516617 C26.03384985 38.65083944 20.67441207 38.64809202 15.31464425 38.6305979 C13.37455505 38.62751533 11.43444093 38.63120744 9.49438109 38.64231806 C6.85810934 38.65641719 4.22302888 38.64587041 1.58679771 38.6292057 C0.45571094 38.64411024 0.45571094 38.64411024 -0.69822606 38.65931588 C-6.73844232 38.57853588 -12.04857629 36.86780173 -16.51042681 32.64875307 C-21.71393986 26.64608926 -21.47724314 20.72987138 -20.94242573 13.13142776 C-19.22590362 7.67894578 -15.54622899 4.34362686 -10.94242573 1.13142776 C-7.25011908 -0.09934112 -3.84468734 -0.00883382 0 0 Z " fill="#C6D0DA" transform="translate(20.94242572784424,359.8685722351074)"/>
<path d="M0 0 C3.53316133 2.81830045 6.79972205 5.81103046 10 9 C10.84691406 9.81210938 10.84691406 9.81210938 11.7109375 10.640625 C17.40918166 16.61021412 21.40277974 25.20833921 24 33 C24.76441406 32.855625 25.52882813 32.71125 26.31640625 32.5625 C45.03457312 29.31891874 62.72634941 30.33296282 79 41 C93.10434404 51.44018219 101.22121392 64.99546266 105 82 C12.6 82 -79.8 82 -175 82 C-170.41010737 63.64042946 -162.12378841 49.47933807 -146 39 C-128.89717256 30.1435301 -112.78126361 29.45277989 -94 33 C-93.72027344 32.24976563 -93.44054687 31.49953125 -93.15234375 30.7265625 C-87.16609127 15.44333269 -77.67993244 3.6663942 -63 -4 C-42.49658598 -12.59677273 -18.85059966 -13.16919791 0 0 Z " fill="#F5DF7F" transform="translate(291,124)"/>
<path d="M0 0 C0.82221356 -0.00205263 1.64442713 -0.00410527 2.49155626 -0.0062201 C5.2705198 -0.01191342 8.04943414 -0.01042999 10.82840252 -0.00901413 C12.83136909 -0.01159643 14.83433514 -0.0146092 16.83730048 -0.01801753 C22.36010619 -0.02610663 27.88289893 -0.02787816 33.40570986 -0.028615 C39.35470628 -0.03046222 45.3036959 -0.03800785 51.25268841 -0.04475021 C64.94802787 -0.05905661 78.64336637 -0.06486168 92.33871159 -0.06944216 C99.10424267 -0.07177709 105.86977291 -0.07537961 112.63530333 -0.07913754 C135.78776439 -0.09197339 158.94022497 -0.10269289 182.09268951 -0.10614014 C183.54637066 -0.10636177 185.0000518 -0.10658355 186.45373295 -0.10680549 C187.91095281 -0.10702613 189.36817268 -0.10724661 190.82539254 -0.10746694 C193.74889648 -0.10790949 196.67240042 -0.10835661 199.59590435 -0.10880661 C200.68319485 -0.1089707 200.68319485 -0.1089707 201.79245082 -0.1091381 C225.30235659 -0.11276969 248.81223154 -0.12869342 272.3221255 -0.15199697 C297.16976473 -0.17658157 322.01738635 -0.19031232 346.8650381 -0.19150805 C349.59158242 -0.19167951 352.31812674 -0.19189494 355.04467106 -0.19214249 C356.0517217 -0.19222614 356.0517217 -0.19222614 357.0791168 -0.19231148 C367.89267019 -0.19346308 378.706192 -0.20449426 389.51973472 -0.21902954 C400.38437644 -0.23338122 411.24897565 -0.23638611 422.11362413 -0.22858956 C428.00187789 -0.22467246 433.89002518 -0.22566423 439.77826595 -0.23964691 C445.16510383 -0.25232229 450.55175454 -0.25124457 455.93859192 -0.2390562 C457.89081858 -0.23708813 459.84305821 -0.24022843 461.79526661 -0.24890056 C464.44294884 -0.25992057 467.08996206 -0.2525566 469.73762512 -0.24050903 C470.88226351 -0.25190182 470.88226351 -0.25190182 472.05002591 -0.26352477 C478.43870847 -0.20049763 482.30261855 1.49092567 486.93257427 5.81892776 C487.63382427 6.58205276 488.33507427 7.34517776 489.05757427 8.13142776 C487.2309215 12.61503002 484.19918022 16.00816964 479.89828527 18.26396054 C476.21793658 19.38782772 472.72824765 19.4079479 468.91869831 19.38590336 C468.09954177 19.38910984 467.28038524 19.39231631 466.43640578 19.39561996 C463.67981913 19.40394945 460.92344809 19.39798535 458.16685772 19.39212418 C456.17525126 19.39514351 454.18364595 19.3990319 452.19204271 19.40371674 C446.70987373 19.41403356 441.22776987 19.41180556 435.74559546 19.40753615 C429.83682988 19.40507559 423.92808027 19.41407473 418.01932049 19.42157364 C406.43978125 19.4343414 394.86026375 19.43611759 383.28071882 19.43377338 C373.87109279 19.43194155 364.46147358 19.43369799 355.05184841 19.43799782 C353.7005343 19.43860022 352.34922019 19.43920141 350.99790608 19.43980142 C348.96166401 19.44070866 346.92542194 19.44161733 344.88917987 19.44253377 C325.9539405 19.45096497 307.0187037 19.45529785 288.08346272 19.45112705 C287.01244037 19.45089249 287.01244037 19.45089249 285.91978121 19.45065319 C282.30077777 19.44984739 278.68177434 19.44900162 275.06277092 19.44813988 C274.34401114 19.4479688 273.62525136 19.44779771 272.88471098 19.44762144 C271.43120363 19.44727478 269.97769627 19.44692625 268.52418892 19.44657585 C245.9063957 19.44121835 223.28864147 19.44914918 200.67085552 19.46760941 C175.26581841 19.48832019 149.86080544 19.49905387 124.45575941 19.49503392 C121.7474835 19.49463857 119.03920758 19.49427702 116.33093166 19.49393654 C115.66407444 19.49384581 114.99721723 19.49375508 114.31015221 19.49366159 C104.23825436 19.49249506 94.16638087 19.49914816 84.0944891 19.50974846 C72.64114345 19.52163979 61.18785517 19.52309245 49.73450877 19.51095829 C43.8886503 19.50505377 38.0428969 19.50401354 32.19704533 19.51596069 C26.84785516 19.52676596 21.49885847 19.52378021 16.14967756 19.50969901 C14.21229951 19.50703726 12.27490656 19.50946465 10.33754309 19.51743487 C7.70750472 19.52750554 5.07814347 19.51914927 2.44813251 19.50615788 C1.693052 19.51346722 0.93797148 19.52077657 0.16000974 19.52830741 C-6.38518812 19.46112904 -10.82546851 17.88805184 -15.87992573 13.69392776 C-17.94242573 11.13142776 -17.94242573 11.13142776 -17.94242573 7.13142776 C-16.51664448 5.46345901 -16.51664448 5.46345901 -14.62992573 3.94392776 C-14.01504292 3.43474808 -13.4001601 2.92556839 -12.76664448 2.40095901 C-8.7783018 -0.3746542 -4.64962603 -0.0106833 0 0 Z " fill="#E6EAEF" transform="translate(20.94242572784424,359.8685722351074)"/>
<path d="M0 0 C149.16 0 298.32 0 452 0 C458 17 458 17 458 19 C304.88 19 151.76 19 -6 19 C-4.09154465 12.63848216 -2.10026453 6.3007936 0 0 Z " fill="#D82E3B" transform="translate(30,341)"/>
<path d="M0 0 C88.44 0 176.88 0 268 0 C272 9 272 9 274 18 C181.6 18 89.2 18 -6 18 C-3 6 -3 6 0 0 Z " fill="#ECCD60" transform="translate(122,188)"/>
<path d="M0 0 C3.21628204 1.91072992 5.42418132 4.12474542 7.4375 7.3125 C7.4375 7.9725 7.4375 8.6325 7.4375 9.3125 C8.0975 9.3125 8.7575 9.3125 9.4375 9.3125 C9.7159375 8.2296875 9.7159375 8.2296875 10 7.125 C12.38911585 2.4506429 16.52931752 -0.05143917 21.4375 -1.6875 C30.11488081 -2.28993498 36.26982296 -2.2597946 43.0625 3.5625 C48.47780743 9.83285598 50.88282215 15.86411332 50.7734375 24.14453125 C49.6643361 34.60361536 44.39352461 42.73636466 37.4375 50.3125 C36.91671875 50.91320312 36.3959375 51.51390625 35.859375 52.1328125 C30.29169229 58.17852857 23.26219336 62.79872364 16.4375 67.3125 C15.83679688 67.72838379 15.23609375 68.14426758 14.6171875 68.57275391 C10.15384872 71.45532687 10.15384872 71.45532687 6.91015625 70.80859375 C5.68619141 70.06802734 5.68619141 70.06802734 4.4375 69.3125 C3.40496094 68.72597656 2.37242187 68.13945312 1.30859375 67.53515625 C-13.26908371 58.51895388 -27.5368423 46.99558797 -32.9375 30.0703125 C-34.82141221 21.75754986 -34.07132751 14.60619156 -29.5625 7.3125 C-22.05776676 -1.81487826 -11.10939022 -5.09700487 0 0 Z " fill="#FBF4F4" transform="translate(247.5625,248.6875)"/>
<path d="M0 0 C3.03779244 4.55668866 2.62562044 8.65917707 2 14 C-0.36428531 23.18222435 -4.6392675 30.07222546 -11 37 C-11.52078125 37.60070312 -12.0415625 38.20140625 -12.578125 38.8203125 C-18.14580771 44.86602857 -25.17530664 49.48622364 -32 54 C-32.60070312 54.41588379 -33.20140625 54.83176758 -33.8203125 55.26025391 C-38.28365128 58.14282687 -38.28365128 58.14282687 -41.52734375 57.49609375 C-42.34332031 57.00238281 -43.15929687 56.50867188 -44 56 C-45.03253906 55.41347656 -46.06507813 54.82695312 -47.12890625 54.22265625 C-61.74626445 45.18191159 -75.86292563 33.69721007 -81.38671875 16.78515625 C-82.47746987 11.83161774 -83.33578488 5.67156975 -81 1 C-80.34 1 -79.68 1 -79 1 C-78.6596875 1.76183594 -78.319375 2.52367187 -77.96875 3.30859375 C-71.82913776 16.38792728 -63.34499928 23.77225383 -51.69580078 31.82421875 C-50.27192663 32.81146003 -48.86609727 33.82465653 -47.46484375 34.84375 C-44.56506402 36.85515791 -42.72242931 38.04435105 -39.13671875 37.82421875 C-27.12122041 34.66697074 -12.32522876 21.41027233 -6 11 C-3.91936101 7.37333065 -1.92418322 3.71189955 0 0 Z " fill="#EADEDA" transform="translate(296,262)"/>
</svg>
