<?xml version="1.0" encoding="UTF-8"?>
<svg version="1.1" xmlns="http://www.w3.org/2000/svg" width="512" height="512">
<path d="M0 0 C0.83111557 -0.00453111 1.66223114 -0.00906223 2.51853204 -0.01373065 C5.29579789 -0.02636291 8.07286734 -0.02475503 10.85015869 -0.02310181 C12.84464774 -0.02908784 14.83913447 -0.03589355 16.83361816 -0.04345703 C22.2469972 -0.06111783 27.66031301 -0.06581248 33.07371807 -0.0670886 C36.45786635 -0.06851085 39.84199859 -0.07278188 43.22614288 -0.07808304 C55.03832519 -0.09658443 66.85046237 -0.10475362 78.66265869 -0.10317993 C89.66327594 -0.10197889 100.66369686 -0.12307364 111.66426444 -0.15466726 C121.11670215 -0.1808446 130.5690758 -0.19154659 140.02154946 -0.19026911 C145.66352252 -0.18975986 151.30532113 -0.19542283 156.947258 -0.21662521 C162.25625614 -0.23603172 167.56491389 -0.2361154 172.87392426 -0.22159195 C174.81770323 -0.21950568 176.76150365 -0.22419386 178.70524597 -0.23631287 C192.12648554 -0.3145439 203.43034637 0.42472661 213.60113525 10.26742554 C221.11978774 19.3034478 223.04311391 28.21839828 222.7612915 39.74789429 C222.74943408 41.98811857 222.73974121 44.22835515 222.73199463 46.46859741 C222.70548032 49.94197136 222.66461014 53.41277725 222.58428955 56.88534546 C222.23673777 73.53558382 224.53474741 85.80794137 232.69804382 100.44633484 C233.60113525 102.26742554 233.60113525 102.26742554 233.60113525 104.26742554 C234.57297005 104.26373837 235.54480484 104.26005119 236.54608917 104.25625229 C260.19915922 104.16743168 283.85220762 104.10171188 307.50540924 104.06017685 C318.94395375 104.03955664 330.38238805 104.01144625 341.82086182 103.96566772 C351.79129724 103.92578355 361.76165283 103.89998879 371.73216581 103.89107156 C377.01090088 103.88585953 382.28940761 103.87362037 387.56806946 103.84450531 C392.53879769 103.81731138 397.50920398 103.80898865 402.47999954 103.81499481 C404.3020719 103.81389636 406.12415526 103.80596624 407.94616318 103.79060364 C410.43982209 103.7706131 412.9322758 103.7755188 415.42596436 103.78640747 C416.1419418 103.7747561 416.85791924 103.76310474 417.59559298 103.7511003 C423.02047243 103.81484547 427.1189311 105.34628457 431.60113525 108.26742554 C435.68798293 112.56385515 436.72456724 115.78096446 436.73535633 121.61178112 C436.73981417 122.72750726 436.74427202 123.8432334 436.74886495 124.99276942 C436.7485884 126.83913138 436.7485884 126.83913138 436.74830627 128.72279358 C436.75198296 130.02644908 436.75565965 131.33010459 436.75944775 132.6732648 C436.76947241 136.299547 436.77318529 139.92581265 436.77583706 143.55210674 C436.77973874 147.46022615 436.78931718 151.36833244 436.79804993 155.27644348 C436.81781825 164.71839509 436.82788103 174.16034778 436.83677772 183.60231492 C436.84116003 188.04780775 436.84652699 192.49329939 436.85176659 196.93879128 C436.86877926 211.71511812 436.88327368 226.49144422 436.89051533 241.26777935 C436.89242525 245.1028665 436.89434558 248.93795364 436.89630127 252.77304077 C436.89678501 253.72624251 436.89726875 254.67944425 436.89776715 255.66153089 C436.90606834 271.10450443 436.93140657 286.54740053 436.96388195 301.99034026 C436.99694588 317.84228938 437.01496349 333.69419914 437.01815957 349.54618293 C437.02032529 358.44769931 437.02908296 367.34910277 437.05462074 376.25058556 C437.07631866 383.83119041 437.08438266 391.41165492 437.07465396 398.9922873 C437.07010659 402.85964285 437.0720206 406.72670876 437.09141541 410.59402466 C437.11226962 414.78860036 437.10207045 418.98253265 437.08888245 423.17713928 C437.09985169 424.39689365 437.11082094 425.61664801 437.12212259 426.87336463 C437.06943909 433.80356249 436.40074248 438.40481071 432.60113525 444.26742554 C427.30614513 448.48180543 423.48840145 449.39289639 416.83477783 449.38095093 C416.15158981 449.38109695 415.46840179 449.38124298 414.76451111 449.38139343 C412.50819718 449.38069723 410.25196599 449.37291849 407.9956665 449.36508179 C406.43053736 449.36321657 404.86540764 449.36179316 403.30027771 449.36079407 C399.18210232 449.35697705 395.06396223 449.34715372 390.94580078 449.33609009 C386.7430265 449.32585844 382.54024652 449.32129269 378.33746338 449.31625366 C370.09200448 449.30553073 361.84657426 449.28846408 353.60113525 449.26742554 C353.78700195 449.82044342 353.97286865 450.3734613 354.16436768 450.9432373 C358.09167304 462.64149391 361.98336785 474.34427686 365.60113525 486.14242554 C365.90543457 487.09931274 365.90543457 487.09931274 366.21588135 488.07553101 C366.81646982 489.96588441 367.3965796 491.86270563 367.97613525 493.75961304 C368.31386963 494.84613159 368.651604 495.93265015 368.99957275 497.05209351 C369.72353884 500.92166871 369.68959729 503.4714142 368.60113525 507.26742554 C365.27505244 510.90211097 363.06399916 512.54040742 358.11302853 512.89663124 C356.33021582 512.92403187 354.54685313 512.92403332 352.76396179 512.90234375 C351.28535953 512.91404368 351.28535953 512.91404368 349.77688652 512.92597997 C346.47630392 512.94591186 343.17687275 512.93013004 339.87628174 512.91439819 C337.50914843 512.92117369 335.14202039 512.93007644 332.77490234 512.94094849 C326.34730965 512.96375474 319.92011795 512.95489995 313.49251819 512.93905306 C309.47856351 512.93016504 305.46466013 512.93184011 301.45070076 512.93650436 C300.4507925 512.93765361 300.4507925 512.93765361 299.43068408 512.93882608 C298.07644491 512.94042472 296.72220577 512.94204579 295.36796666 512.94368903 C282.67425747 512.95794119 269.98072893 512.94156171 257.28704936 512.9146872 C246.39629292 512.89234368 235.50580292 512.89623333 224.61505127 512.91928101 C211.9648222 512.94603969 199.31475133 512.95657335 186.66449791 512.94121969 C185.31558329 512.93962695 183.96666865 512.9380551 182.61775398 512.93650436 C181.62223835 512.9353473 181.62223835 512.9353473 180.60661129 512.93416686 C175.93056396 512.92985041 171.25464727 512.9373793 166.57861137 512.94890213 C160.28544177 512.96332659 153.99277629 512.95336136 147.69966125 512.92443085 C145.38774516 512.91780961 143.07578677 512.91973529 140.76388741 512.93074417 C137.61245714 512.94436927 134.46265128 512.92731919 131.31132507 512.90234375 C130.39226346 512.91349736 129.47320185 512.92465097 128.52628988 512.93614256 C124.15227518 512.86870964 122.17705353 512.68875012 118.55674839 510.04024315 C116.61845365 507.29198088 115.88549397 505.58494383 115.60113525 502.26742554 C114.73145331 502.27111271 113.86177137 502.27479988 112.96573544 502.27859879 C91.79988745 502.36695416 70.63407128 502.4331373 49.46807766 502.47467422 C39.2323335 502.49529533 28.99671248 502.52340735 18.76104736 502.56918335 C9.83914977 502.60906487 0.91734136 502.63486164 -8.0046429 502.64377952 C-12.72835674 502.64899202 -17.45181544 502.66123397 -22.17544746 502.69034576 C-26.62334835 502.71753562 -31.07088948 502.72586332 -35.51886559 502.71985626 C-37.14946575 502.7209549 -38.78007819 502.72888762 -40.41060638 502.74424744 C-42.64191767 502.76423219 -44.87188142 502.7593351 -47.10322571 502.7484436 C-48.35041162 502.75213078 -49.59759752 502.75581795 -50.88257694 502.75961685 C-55.86380975 502.06237031 -59.42564896 500.62265841 -62.70466584 496.70881969 C-66.44880247 490.45743954 -65.99758811 483.50364823 -66.00100708 476.43232727 C-66.01565671 475.02601898 -66.03198859 473.61972739 -66.04984915 472.21345621 C-66.09360117 468.36187448 -66.11250624 464.51051726 -66.12699008 460.65872896 C-66.14678817 456.49777468 -66.18915371 452.33703556 -66.22799683 448.17622375 C-66.31643734 438.12524375 -66.36597101 428.07421747 -66.40957254 418.02295741 C-66.42651327 414.2259271 -66.44569925 410.4289095 -66.46488249 406.63188995 C-66.54928176 389.8522058 -66.62110008 373.07251063 -66.66000938 356.29265499 C-66.66968658 352.18813486 -66.67945077 348.08361496 -66.68939209 343.97909546 C-66.69185167 342.95909687 -66.69431125 341.93909827 -66.69684537 340.88819063 C-66.73857581 324.43763545 -66.85541974 307.98852977 -67.00415711 291.53862935 C-67.156116 274.59137445 -67.23840029 257.64485238 -67.25513899 240.69691664 C-67.2662046 231.20503924 -67.30645982 221.71536953 -67.42426682 212.22416496 C-68.32462235 137.01604916 -68.32462235 137.01604916 -49.58726883 108.59967232 C-47.47642017 105.38551791 -45.56131842 102.12569021 -43.69754028 98.76338196 C-43.2021192 97.87137053 -42.70669811 96.97935911 -42.19626427 96.06031704 C-34.30899312 80.94932618 -35.29658544 64.5784182 -35.54315186 47.91659546 C-35.86653689 24.32164471 -35.86653689 24.32164471 -29.32073975 13.98617554 C-20.51004296 4.98531983 -12.94355299 -0.05210027 0 0 Z " fill="#FDE077" transform="translate(70.39886474609375,-0.267425537109375)"/>
<path d="M0 0 C0.18245199 31.38114327 0.32405168 62.76214646 0.40852264 94.14369411 C0.41852844 97.84750593 0.428883 101.5513167 0.43945312 105.25512695 C0.44155161 105.99249725 0.44365009 106.72986755 0.44581217 107.4895824 C0.4806347 119.43327561 0.54371752 131.37666117 0.61722237 143.3201718 C0.69200204 155.5729012 0.73646322 167.82546935 0.75270796 180.0784176 C0.76369208 187.64098797 0.79839698 195.20268883 0.86333174 202.76499156 C0.91057039 208.56123091 0.91564996 214.35691159 0.90486145 220.15330505 C0.90706718 222.53300653 0.92304519 224.9127401 0.9536438 227.29224586 C0.9933266 230.53660366 0.98393053 233.77721161 0.96203613 237.02165222 C0.98533886 237.96815224 1.0086416 238.91465227 1.03265047 239.88983411 C0.9192195 246.08789363 0.9192195 246.08789363 -1.75525761 248.74167502 C-6.99709018 252.19568972 -6.99709018 252.19568972 -10.5625 251.5 C-11.7690625 250.7575 -11.7690625 250.7575 -13 250 C-20.54135325 246.27587494 -27.72270915 246.069417 -36 247 C-38.90580953 248.12554141 -41.30563002 249.36861128 -43.88671875 251.1015625 C-46 252 -46 252 -48.33203125 251.3359375 C-49.65267578 250.67464844 -49.65267578 250.67464844 -51 250 C-59.24258062 246.04821047 -68.16956495 245.36868657 -77.015625 247.84375 C-80.4200292 249.38930773 -83.1511773 250.63276606 -85.17969322 253.90018082 C-87.75719631 257.76690869 -89.73166071 259.72201704 -94.35428238 260.73516083 C-98.72597564 260.99877224 -103.03636293 261.01023139 -107.41259766 260.93652344 C-109.09023103 260.93758174 -110.76786539 260.942217 -112.44548035 260.95014954 C-116.04940263 260.95960643 -119.65202679 260.94400115 -123.2557869 260.90877533 C-128.95397591 260.85335155 -134.65130121 260.85465991 -140.34970093 260.86358643 C-149.36065134 260.87108285 -158.37102564 260.84136378 -167.38184774 260.79536748 C-183.524362 260.71328525 -199.66689481 260.67597628 -215.80961454 260.67997575 C-221.47435318 260.67966231 -227.13844013 260.65703185 -232.80302835 260.6164403 C-236.32465517 260.59471684 -239.84618067 260.58911234 -243.36786842 260.58751488 C-245.00094115 260.58325798 -246.63401269 260.57207713 -248.26698494 260.5534687 C-250.49638747 260.52890827 -252.7245105 260.52891724 -254.95401001 260.53485107 C-256.20132212 260.5281477 -257.44863422 260.52144432 -258.73374367 260.51453781 C-262.6059777 261.09006619 -264.24269846 262.27673707 -267 265 C-269.14053349 269.28106698 -268.18585451 274.99331955 -268.18530273 279.74853516 C-268.1874844 281.859907 -268.20563103 283.97075221 -268.22460938 286.08203125 C-268.22754442 287.42708155 -268.22952847 288.77213433 -268.23046875 290.1171875 C-268.23457764 291.34034668 -268.23868652 292.56350586 -268.24291992 293.82373047 C-268.00968871 296.87331644 -267.72219699 298.51186442 -266 301 C-262.55584842 303.29610105 -261.26759766 303.25713796 -257.21040344 303.2784729 C-256.00305542 303.28963638 -254.7957074 303.30079987 -253.55177307 303.31230164 C-252.21200593 303.31466665 -250.87223844 303.31684229 -249.5324707 303.31884766 C-248.12317325 303.32814472 -246.71388132 303.33831306 -245.30459595 303.34928894 C-241.47639501 303.37662818 -237.64823095 303.39174991 -233.81995797 303.40471697 C-229.82004829 303.42033039 -225.82021411 303.44712628 -221.82035828 303.4727478 C-214.24501113 303.51956734 -206.66964984 303.55629605 -199.09423178 303.58942068 C-190.47033775 303.62761966 -181.84651948 303.67703562 -173.22268927 303.72740483 C-155.48184827 303.83077189 -137.74096105 303.92001674 -120 304 C-119.81824219 303.19175781 -119.63648438 302.38351562 -119.44921875 301.55078125 C-119.19785156 300.48214844 -118.94648438 299.41351563 -118.6875 298.3125 C-118.44386719 297.25675781 -118.20023438 296.20101563 -117.94921875 295.11328125 C-116.73195822 291.1208671 -115.17604721 288.25079194 -112.31780243 285.21088886 C-108.92579786 283.43880488 -105.65120205 283.589891 -101.91516113 283.6257782 C-101.09377167 283.62180379 -100.27238221 283.61782939 -99.42610216 283.61373454 C-96.66996047 283.60409946 -93.91433053 283.61593692 -91.15820312 283.62768555 C-89.18383085 283.62525798 -87.20945981 283.62153901 -85.23509216 283.61662292 C-79.86946364 283.60720549 -74.50401726 283.61664659 -69.13840294 283.62995505 C-63.52818138 283.64125803 -57.91796893 283.63716294 -52.30773926 283.63520813 C-42.88563048 283.63432479 -33.46359359 283.64541393 -24.04150391 283.66381836 C-13.14197198 283.68498657 -2.24254539 283.68849608 8.65700293 283.6822564 C19.13390337 283.67656531 29.61076665 283.68220541 40.08766174 283.69342995 C44.55010158 283.6980793 49.01251872 283.69894833 53.47496033 283.6968441 C58.72803511 283.69496297 63.98100239 283.70305165 69.23405266 283.7189045 C71.16421501 283.72315361 73.09438827 283.7239937 75.0245533 283.72121429 C77.6548746 283.71800082 80.28487304 283.72705326 82.91516113 283.73930359 C84.06671228 283.7336346 84.06671228 283.7336346 85.24152708 283.72785109 C88.96416383 283.75861823 91.88129068 283.84254863 95 286 C98.70821821 291.15898425 100.4119137 297.81061718 102.27734375 303.80859375 C102.71718346 305.19607567 102.71718346 305.19607567 103.16590881 306.61158752 C104.09599456 309.55163669 105.01668897 312.49453471 105.9375 315.4375 C106.5508608 317.37713394 107.16478872 319.31658863 107.77929688 321.25585938 C109.26386201 325.9504778 110.72543922 330.65184408 112.1774292 335.35662842 C112.96698721 337.89391178 113.77671733 340.42396024 114.59033203 342.95361328 C115.06219347 344.45975118 115.5334247 345.96608673 116.00390625 347.47265625 C116.2236058 348.13792831 116.44330536 348.80320038 116.66966248 349.4886322 C118.0546245 354.01115338 118.3611783 357.44977538 117 362 C113.67124071 365.63003977 111.46226457 367.27356162 106.51189327 367.6292057 C104.72908056 367.65660633 102.94571787 367.65660779 101.16282654 367.63491821 C99.68422428 367.64661814 99.68422428 367.64661814 98.17575127 367.65855443 C94.87516866 367.67848632 91.5757375 367.6627045 88.27514648 367.64697266 C85.90801317 367.65374816 83.54088513 367.6626509 81.17376709 367.67352295 C74.7461744 367.69632921 68.31898269 367.68747441 61.89138293 367.67162752 C57.87742825 367.6627395 53.86352488 367.66441457 49.84956551 367.66907883 C49.18296 367.66984499 48.5163545 367.67061116 47.82954882 367.67140054 C46.47530966 367.67299918 45.12107052 367.67462025 43.76683141 367.6762635 C31.07312221 367.69051565 18.37959367 367.67413618 5.68591411 367.64726166 C-5.20484233 367.62491814 -16.09533234 367.6288078 -26.98608398 367.65185547 C-39.63631306 367.67861415 -52.28638392 367.68914782 -64.93663734 367.67379415 C-66.28555196 367.67220142 -67.6344666 367.67062956 -68.98338127 367.66907883 C-69.9788969 367.66792176 -69.9788969 367.66792176 -70.99452396 367.66674132 C-75.67057129 367.66242487 -80.34648798 367.66995377 -85.02252388 367.68147659 C-91.31569348 367.69590105 -97.60835896 367.68593582 -103.901474 367.65700531 C-106.21339009 367.65038407 -108.52534849 367.65230975 -110.83724785 367.66331863 C-113.98867812 367.67694373 -117.13848397 367.65989365 -120.28981018 367.63491821 C-121.20887179 367.64607182 -122.12793341 367.65722543 -123.07484537 367.66871703 C-127.44886007 367.6012841 -129.42408172 367.42132459 -133.04438686 364.77281761 C-134.9826816 362.02455534 -135.71564129 360.3175183 -136 357 C-136.86968194 357.00368717 -137.73936388 357.00737434 -138.63539982 357.01117325 C-159.8012478 357.09952862 -180.96706398 357.16571176 -202.13305759 357.20724869 C-212.36880175 357.22786979 -222.60442277 357.25598181 -232.84008789 357.30175781 C-241.76198549 357.34163934 -250.6837939 357.3674361 -259.60577816 357.37635398 C-264.32949199 357.38156649 -269.05295069 357.39380843 -273.77658272 357.42292023 C-278.22448361 357.45011008 -282.67202473 357.45843778 -287.12000084 357.45243073 C-288.75060101 357.45352937 -290.38121345 357.46146209 -292.01174164 357.4768219 C-294.24305292 357.49680665 -296.47301667 357.49190957 -298.70436096 357.48101807 C-299.95154687 357.48470524 -301.19873278 357.48839241 -302.4837122 357.49219131 C-307.47155805 356.79401911 -311.08882033 355.36545414 -314.31005937 351.37854838 C-317.72827927 345.53630205 -317.5501357 339.55413069 -317.48101807 332.95251465 C-317.48443577 331.75328196 -317.48785347 330.55404927 -317.49137473 329.3184762 C-317.49680643 326.00693467 -317.4843753 322.6963477 -317.46426249 319.38492203 C-317.44693574 315.80766123 -317.45283787 312.23042818 -317.45587158 308.65313721 C-317.45796566 302.46100432 -317.44545064 296.26904045 -317.42292023 290.07695007 C-317.39036669 281.12433425 -317.37998979 272.17179988 -317.37496826 263.21913129 C-317.36622086 248.69291624 -317.33962037 234.1667912 -317.30175781 219.640625 C-317.26502334 205.53255665 -317.23671862 191.42451279 -317.21972656 177.31640625 C-317.21867567 176.44630533 -317.21762477 175.57620441 -317.21654204 174.67973679 C-317.21132176 170.31455322 -317.20626696 165.94936947 -317.20129442 161.5841856 C-317.15984967 125.38939352 -317.08941638 89.19470378 -317 53 C-316.18504562 52.99191315 -315.37009125 52.98382629 -314.53044128 52.97549438 C-306.80775783 52.89718772 -299.08525359 52.80979188 -291.3627882 52.71247292 C-287.39366765 52.66276672 -283.42457045 52.61643702 -279.45532227 52.578125 C-275.61669967 52.54094454 -271.77828577 52.49450144 -267.93984413 52.44193649 C-266.48365291 52.42356485 -265.02741725 52.40839512 -263.57115746 52.39665604 C-247.09138361 52.25919583 -231.81054198 50.28216929 -219 39 C-218.09314453 38.21496094 -218.09314453 38.21496094 -217.16796875 37.4140625 C-206.60242516 27.60813316 -202.91911711 14.94751762 -201 1 C-181.43732034 0.86777625 -161.87462953 0.73733107 -142.31192493 0.60884857 C-133.22299974 0.54911612 -124.13407866 0.48886027 -115.04516602 0.42724609 C-107.09782571 0.37337216 -99.15047883 0.32060844 -91.20312327 0.26903296 C-87.01821551 0.24183945 -82.83331223 0.21418944 -78.64841652 0.18519592 C-52.43206508 0.00409241 -26.21693399 -0.0258578 0 0 Z " fill="#FEE076" transform="translate(322,145)"/>
<path d="M0 0 C24.50433564 -0.09346588 49.00864453 -0.16399034 73.51312256 -0.20724869 C84.89113323 -0.22786869 96.2690331 -0.25597868 107.64697266 -0.30175781 C117.56467037 -0.34164262 127.48228783 -0.3674369 137.40006351 -0.37635398 C142.65085345 -0.3815659 147.90141381 -0.39380437 153.15213013 -0.42292023 C158.09659399 -0.45011517 163.04073419 -0.45843669 167.98526573 -0.45243073 C169.79766284 -0.45352913 171.61007101 -0.46145866 173.42240334 -0.4768219 C175.90292708 -0.49681405 178.3822394 -0.49190619 180.86279297 -0.48101807 C181.57487947 -0.49266943 182.28696596 -0.5043208 183.02063084 -0.51632524 C188.43359267 -0.45239152 192.52694626 1.08710859 197 4 C201.80751674 9.05405606 202.14579875 13.20197542 202.12025452 19.91557312 C202.12153615 21.13835841 202.12153615 21.13835841 202.12284368 22.38584644 C202.12449523 25.12663784 202.11898239 27.8673685 202.11352539 30.6081543 C202.11324342 32.56916299 202.11340144 34.53017179 202.1139679 36.49118042 C202.1142555 41.82348654 202.10836477 47.15577029 202.10139394 52.4880712 C202.09515421 58.05746075 202.09455611 63.62685078 202.09336853 69.19624329 C202.09025705 79.746565 202.08204611 90.29687638 202.07201904 100.84719354 C202.05876534 115.10109801 202.05335652 129.3550053 202.04751682 143.60891438 C202.03810611 166.07261732 202.01818596 188.53629847 202 211 C141.28 211 80.56 211 18 211 C18.5625 127.8125 18.5625 127.8125 18.87329102 101.78051758 C18.88351528 93.91615039 18.88351528 93.91615039 18.87120056 86.05180359 C18.86640631 82.61256299 18.90782779 79.17763035 18.98094177 75.73918152 C19.49950547 49.92512607 15.0862532 30.67233631 2.54369009 7.9341296 C0 3.29349716 0 3.29349716 0 0 Z " fill="#60B7FE" transform="translate(305,104)"/>
<path d="M0 0 C1.31481857 -0.00708481 2.62963715 -0.01416962 3.98429871 -0.02146912 C5.42953526 -0.01917556 6.87477148 -0.0166659 8.32000732 -0.01396179 C9.85144804 -0.01831202 11.38288658 -0.0234962 12.9143219 -0.02944946 C17.06535671 -0.04282021 21.21630035 -0.04342007 25.36735249 -0.04088616 C28.83872193 -0.03981472 32.31007307 -0.04470448 35.78143859 -0.04949158 C43.97643773 -0.06058104 52.17139103 -0.06102794 60.36639404 -0.05497742 C68.80401046 -0.0489432 77.24145989 -0.06123586 85.67904782 -0.08254749 C92.93617602 -0.10019959 100.19325125 -0.10615899 107.45040011 -0.10290974 C111.7789023 -0.10110181 116.10728548 -0.10368354 120.43576813 -0.11762428 C124.51029753 -0.13025615 128.58456814 -0.12820823 132.65909386 -0.11521339 C134.14812752 -0.11285933 135.63717969 -0.11554 137.12619209 -0.12383652 C149.10983348 -0.18575187 159.36128354 0.68289891 168.38543701 9.26069641 C173.59046633 14.85521772 177.38543701 21.45590715 177.38543701 29.26069641 C177.88043701 28.93069641 178.37543701 28.60069641 178.88543701 28.26069641 C182.38806668 26.85964454 185.69152693 26.78881967 189.38543701 27.26069641 C193.49290574 29.03437609 196.08419187 31.42528783 198.38543701 35.26069641 C199.2073642 41.63063214 198.12212186 45.07085634 194.38543701 50.26069641 C191.31278462 52.25857983 188.88648856 52.5077286 185.26043701 52.44819641 C184.39160889 52.4417511 183.52278076 52.43530579 182.62762451 52.42866516 C180.38543701 52.26069641 180.38543701 52.26069641 178.38543701 51.26069641 C176.38321605 75.63615738 183.27846958 92.55962515 194.21209717 113.93745422 C197.3762356 120.1644287 200.16858869 126.54169924 202.94793701 132.94819641 C203.4060376 133.98113831 203.86413818 135.0140802 204.33612061 136.07832336 C207.38543701 143.00678786 207.38543701 143.00678786 207.38543701 145.26069641 C117.95543701 145.26069641 28.52543701 145.26069641 -63.61456299 145.26069641 C-57.2374774 130.59339957 -50.80298276 116.0020524 -44.05206299 101.51069641 C-42.84442207 98.91478761 -41.63761518 96.31850087 -40.43269348 93.72132874 C-39.69538445 92.13237538 -38.95648921 90.54415675 -38.21574402 88.95680237 C-36.05730941 84.30892656 -34.49390655 80.66646232 -34.47271729 75.53657532 C-34.46568283 74.5777243 -34.45864838 73.61887329 -34.45140076 72.63096619 C-34.44723648 71.59354279 -34.4430722 70.55611938 -34.43878174 69.48725891 C-34.41556035 67.27761421 -34.39144212 65.06797879 -34.36651611 62.85835266 C-34.33159357 59.38514711 -34.30216654 55.91227774 -34.28863525 52.43891907 C-34.14058438 20.63759161 -34.14058438 20.63759161 -22.98565674 9.35444641 C-16.10636115 3.27981308 -9.31899125 0.0167923 0 0 Z " fill="#FFE177" transform="translate(68.61456298828125,-0.2606964111328125)"/>
<path d="M0 0 C6.10457688 3.37863374 9.71560387 7.75292157 12.75 13.9375 C13.33990723 13.86748779 13.92981445 13.79747559 14.53759766 13.7253418 C21.08119488 13.00302983 27.54391359 12.74560418 34.125 12.75 C35.12926025 12.74935547 36.13352051 12.74871094 37.16821289 12.74804688 C44.2166266 12.79826632 50.87479069 13.28153561 57.75 14.9375 C57.976875 14.07125 58.20375 13.205 58.4375 12.3125 C61.2044597 5.19746078 65.31199662 2.26744218 71.859375 -1.1796875 C78.90895604 -3.33266766 84.98464129 -2.14100533 91.5625 0.8125 C92.62960205 1.27354126 92.62960205 1.27354126 93.71826172 1.74389648 C99.66653634 4.35854385 105.53550142 7.15185956 111.375 10 C112.20362549 10.39880371 113.03225098 10.79760742 113.88598633 11.20849609 C121.29818217 14.91497053 127.09954779 19.1670038 131.5 26.3125 C132.05171875 27.18648437 132.6034375 28.06046875 133.171875 28.9609375 C137.17463432 36.51069641 138.27240411 42.75413129 138.25 51.3125 C138.27835938 52.28960937 138.30671875 53.26671875 138.3359375 54.2734375 C138.35498814 61.43647929 136.85613208 67.00110465 132.75 72.9375 C127.27625283 78.13860343 121.80589207 81.24137715 114.125 81.125 C113.18398437 81.11855469 112.24296875 81.11210937 111.2734375 81.10546875 C108.75 80.9375 108.75 80.9375 105.75 79.9375 C105.60087158 80.52128418 105.45174316 81.10506836 105.2980957 81.70654297 C103.07979619 90.12263686 100.4465575 98.38934252 97.72631836 106.65380859 C97.19989708 108.26125903 96.6793945 109.87065971 96.16479492 111.48193359 C88.42264061 135.71460598 88.42264061 135.71460598 76.75 141.9375 C68.93917797 145.50520502 61.08457371 145.42816092 52.63671875 145.44140625 C51.17617004 145.45107119 49.71562412 145.46116535 48.25508118 145.47166443 C45.20489785 145.48953967 42.15496826 145.49519441 39.10473633 145.4934082 C35.22794676 145.49310379 31.35281122 145.53405014 27.47641277 145.58572483 C24.46229323 145.61935405 21.44856247 145.62515778 18.43427467 145.62357903 C17.0067252 145.62707945 15.57916124 145.64012194 14.15180016 145.66357613 C2.56681492 145.83613923 -6.26012036 143.39657119 -15.1875 135.8125 C-23.27712508 126.81247473 -25.89856221 112.15263705 -29.5 100.8125 C-30.31054464 98.27401281 -31.12256525 95.73600941 -31.93621826 93.19851685 C-32.4380203 91.63218762 -32.93781667 90.06521408 -33.43536377 88.49752808 C-34.64681098 84.64065409 -34.64681098 84.64065409 -36.25 80.9375 C-37.1678125 80.98390625 -38.085625 81.0303125 -39.03125 81.078125 C-48.42996329 81.35455774 -54.01863451 80.69871377 -61.0625 74.4375 C-69.44777021 64.85433405 -68.94959982 55.79815887 -68.4453125 43.50195312 C-67.56336462 31.92197742 -60.54458743 23.47562461 -52.13256836 16.08422852 C-46.38924522 11.80701666 -39.84800356 8.99828211 -33.375 6 C-31.94727621 5.32361586 -30.52018748 4.64588953 -29.09375 3.96679688 C-10.49561726 -4.84290963 -10.49561726 -4.84290963 0 0 Z " fill="#D78955" transform="translate(129.25,228.0625)"/>
<path d="M0 0 C1.23464747 -0.00852488 1.23464747 -0.00852488 2.4942373 -0.01722199 C5.24451031 -0.03011194 7.99330771 -0.00734754 10.74349976 0.0153656 C12.71816822 0.01350129 14.69283564 0.00946412 16.66749573 0.00341797 C22.02487807 -0.00655788 27.38173147 0.01461476 32.73903704 0.04189801 C38.34389764 0.06572359 43.94874768 0.06278302 49.5536499 0.0632019 C58.96386677 0.06782989 68.3738813 0.09147323 77.7840271 0.12767029 C88.66883769 0.16942791 99.55346614 0.18698658 110.43835223 0.19029003 C122.02184561 0.19388747 133.6052733 0.21275772 145.1887393 0.23741031 C148.52940745 0.24364304 151.87007061 0.24727674 155.21074295 0.25044441 C160.45565417 0.25633874 165.70043483 0.27263449 170.94529152 0.29704857 C172.87222472 0.30449793 174.79917436 0.3085611 176.7261219 0.30902863 C179.35197369 0.31028355 181.97747959 0.32380691 184.60327148 0.34057617 C185.36960801 0.33816109 186.13594453 0.335746 186.92550337 0.33325773 C190.64373804 0.37055265 193.55895255 0.46219018 196.6746521 2.61473083 C200.38287031 7.77371508 202.0865658 14.42534802 203.95199585 20.42332458 C204.24522232 21.34831253 204.53844879 22.27330048 204.84056091 23.22631836 C205.77064666 26.16636752 206.69134107 29.10926555 207.6121521 32.05223083 C208.22551289 33.99186477 208.83944082 35.93131947 209.45394897 37.87059021 C210.93851411 42.56520864 212.40009132 47.26657491 213.8520813 51.97135925 C214.64163931 54.50864261 215.45136943 57.03869108 216.26498413 59.56834412 C216.73684557 61.07448202 217.2080768 62.58081757 217.67855835 64.08738708 C217.8982579 64.75265915 218.11795746 65.41793121 218.34431458 66.10336304 C219.7292766 70.62588421 220.0358304 74.06450622 218.6746521 78.61473083 C215.34589281 82.24477061 213.13691667 83.88829245 208.18654537 84.24393654 C206.40373266 84.27133716 204.62036997 84.27133862 202.83747864 84.24964905 C201.35887638 84.26134898 201.35887638 84.26134898 199.85040337 84.27328527 C196.54982076 84.29321716 193.2503896 84.27743534 189.94979858 84.26170349 C187.58266527 84.26847899 185.21553723 84.27738174 182.84841919 84.28825378 C176.4208265 84.31106004 169.99363479 84.30220525 163.56603503 84.28635836 C159.55208035 84.27747034 155.53817698 84.27914541 151.52421761 84.28380966 C150.8576121 84.28457583 150.1910066 84.28534199 149.50420092 84.28613137 C148.14996176 84.28773002 146.79572262 84.28935108 145.44148351 84.29099433 C132.74777431 84.30524648 120.05424577 84.28886701 107.36056621 84.2619925 C96.46980976 84.23964897 85.57931976 84.24353863 74.68856812 84.2665863 C62.03833904 84.29334499 49.38826818 84.30387865 36.73801476 84.28852499 C35.38910014 84.28693225 34.0401855 84.2853604 32.69127083 84.28380966 C31.6957552 84.2826526 31.6957552 84.2826526 30.68012814 84.28147215 C26.00408081 84.2771557 21.32816412 84.2846846 16.65212822 84.29620743 C10.35895862 84.31063188 4.06629314 84.30066666 -2.2268219 84.27173615 C-4.53873799 84.2651149 -6.85069639 84.26704059 -9.16259575 84.27804947 C-12.31402602 84.29167456 -15.46383187 84.27462448 -18.61515808 84.24964905 C-19.9937505 84.26637946 -19.9937505 84.26637946 -21.40019327 84.28344786 C-25.89230688 84.21419424 -27.73457386 84.07907803 -31.37374783 81.21869469 C-33.50249355 78.3783705 -34.24151017 77.14229086 -34.3253479 73.61473083 C-33.77349389 70.79585543 -33.13671665 68.14127104 -32.35269165 65.38816833 C-32.12702011 64.56658234 -31.90134857 63.74499634 -31.6688385 62.89851379 C-30.90230968 60.13291455 -30.1158647 57.37356493 -29.3253479 54.61473083 C-29.04507751 53.62879944 -28.76480713 52.64286804 -28.4760437 51.62705994 C-26.65525264 45.24358068 -24.78147422 38.87758596 -22.86904907 32.52098083 C-22.20817693 30.31094809 -21.55599604 28.09829992 -20.91201782 25.88328552 C-19.96661615 22.63389792 -18.9947702 19.39349218 -18.01675415 16.15379333 C-17.73530045 15.16738861 -17.45384674 14.18098389 -17.16386414 13.16468811 C-16.8801445 12.24537506 -16.59642487 11.32606201 -16.30410767 10.37889099 C-16.06603897 9.5768222 -15.82797028 8.77475342 -15.58268738 7.94837952 C-11.99463503 1.28887841 -7.16669841 -0.12416758 0 0 Z " fill="#FD646F" transform="translate(220.32534790039063,428.38526916503906)"/>
<path d="M0 0 C69.96 0 139.92 0 212 0 C241 62.83333333 241 62.83333333 241 66 C151.57 66 62.14 66 -30 66 C-23.63474396 51.3599111 -17.21956488 36.78660046 -10.5 22.3125 C-9.69508628 20.57237025 -8.89039853 18.83213595 -8.0859375 17.09179688 C-7.31791024 15.43219821 -6.54968907 13.77268927 -5.78125 12.11328125 C-5.25319763 10.97286125 -5.25319763 10.97286125 -4.71447754 9.80940247 C-4.38653198 9.10313217 -4.05858643 8.39686188 -3.72070312 7.66918945 C-3.29295593 6.74732597 -3.29295593 6.74732597 -2.85656738 5.80683899 C-1.93251088 3.8576388 -0.96470325 1.9294065 0 0 Z " fill="#FFEFAC" transform="translate(35,79)"/>
<path d="M0 0 C60.72 0 121.44 0 184 0 C184 79 184 79 180 87 C174.70500988 91.21437989 170.88726619 92.12547085 164.23364258 92.11352539 C163.55045456 92.11367142 162.86726654 92.11381744 162.16337585 92.1139679 C159.90706193 92.11327169 157.65083074 92.10549296 155.39453125 92.09765625 C153.82940211 92.09579103 152.26427239 92.09436762 150.69914246 92.09336853 C146.58096707 92.08955152 142.46282698 92.07972818 138.34466553 92.06866455 C134.14189125 92.05843291 129.93911127 92.05386715 125.73632812 92.04882812 C117.49086922 92.03810519 109.245439 92.02103854 101 92 C100.52908936 90.89825439 100.05817871 89.79650879 99.57299805 88.66137695 C98.02352553 85.05475903 96.4085066 81.48442822 94.76953125 77.91796875 C94 76 94 76 94 74 C90.28570102 72.8838344 86.60838492 72.6875805 82.75 72.4375 C80.85507812 72.31181641 80.85507812 72.31181641 78.921875 72.18359375 C77.95765625 72.12300781 76.9934375 72.06242187 76 72 C76.05220703 70.74896484 76.05220703 70.74896484 76.10546875 69.47265625 C76.36251638 58.78681913 75.0011688 50.56018179 67.57421875 42.44140625 C62.04154337 37.14641144 54.67573279 33.97283775 47 33.5 C40.88943421 33.82757672 34.8459811 36.57917534 29.43359375 39.28125 C27 40 27 40 24.921875 39.1015625 C23.84679687 38.37066406 23.84679687 38.37066406 22.75 37.625 C15.4760254 33.82333834 15.4760254 33.82333834 0 35 C0 23.45 0 11.9 0 0 Z " fill="#60B6FE" transform="translate(323,357)"/>
<path d="M0 0 C14.85 0 29.7 0 45 0 C45.18080538 31.38116199 45.32405165 62.76213694 45.40852264 94.14369411 C45.41852844 97.84750593 45.428883 101.5513167 45.43945312 105.25512695 C45.44155161 105.99249725 45.44365009 106.72986755 45.44581217 107.4895824 C45.4806347 119.43327561 45.54371752 131.37666117 45.61722237 143.3201718 C45.69200204 155.5729012 45.73646322 167.82546935 45.75270796 180.0784176 C45.76369208 187.64098797 45.79839698 195.20268883 45.86333174 202.76499156 C45.91057039 208.56123091 45.91564996 214.35691159 45.90486145 220.15330505 C45.90706718 222.53300653 45.92304519 224.9127401 45.9536438 227.29224586 C45.9933266 230.53660366 45.98393053 233.77721161 45.96203613 237.02165222 C45.98533886 237.96815224 46.0086416 238.91465227 46.03265047 239.88983411 C45.9192195 246.08789363 45.9192195 246.08789363 43.24474239 248.74167502 C38.00290982 252.19568972 38.00290982 252.19568972 34.4375 251.5 C33.2309375 250.7575 33.2309375 250.7575 32 250 C26.9395727 247.49167942 22.81238463 246.50176094 17.125 246.5625 C15.80757813 246.54316406 14.49015625 246.52382813 13.1328125 246.50390625 C9.78561129 246.69866161 7.27634653 247.62232446 4.24169922 249.03100586 C3.44367889 249.39777939 2.64565857 249.76455292 1.82345581 250.1424408 C1.22171539 250.42543533 0.61997498 250.70842987 0 251 C-0.16358676 228.06035447 -0.2869931 205.12080524 -0.3626852 182.18069458 C-0.398766 171.52895601 -0.44794924 160.87758004 -0.52807617 150.22607422 C-0.59788894 140.94122734 -0.64301767 131.65664308 -0.65861946 122.37154102 C-0.66773834 117.45586952 -0.68913908 112.54094929 -0.7401104 107.6255188 C-0.78772626 102.99603919 -0.80226046 98.36761818 -0.79175377 93.73791695 C-0.79367502 92.04158329 -0.80753983 90.34521319 -0.83443832 88.64909172 C-1.05165266 74.24217875 -1.05165266 74.24217875 3.45982361 69.08007812 C4.62601791 68.03766384 5.80380675 67.00784839 7 66 C9.56447204 61.65154741 9.76746936 56.92265702 9 52 C6.74352125 45.45049696 6.74352125 45.45049696 1.93164062 40.91625977 C0 39 0 39 -0.45410156 35.0793457 C-0.45310315 33.44468758 -0.43107485 31.80993913 -0.390625 30.17578125 C-0.38659668 29.41213257 -0.38256836 28.64848389 -0.37841797 27.86169434 C-0.35750486 25.01171814 -0.30165894 22.16208471 -0.25 19.3125 C-0.1675 12.939375 -0.085 6.56625 0 0 Z " fill="#FED15B" transform="translate(277,145)"/>
<path d="M0 0 C6.11974418 -0.0992969 12.23901352 -0.17167096 18.359375 -0.21972656 C20.43888525 -0.23977159 22.51833963 -0.26701513 24.59765625 -0.30175781 C27.59649487 -0.35058948 30.59458463 -0.37304028 33.59375 -0.390625 C34.51490601 -0.41127014 35.43606201 -0.43191528 36.38513184 -0.45318604 C42.42333974 -0.45525836 46.96750187 0.55177878 52 4 C56.80751674 9.05405606 57.14579875 13.20197542 57.12025452 19.91557312 C57.12110894 20.73076331 57.12196337 21.54595351 57.12284368 22.38584644 C57.12449523 25.12663784 57.11898239 27.8673685 57.11352539 30.6081543 C57.11324342 32.56916299 57.11340144 34.53017179 57.1139679 36.49118042 C57.1142555 41.82348654 57.10836477 47.15577029 57.10139394 52.4880712 C57.09515421 58.05746075 57.09455611 63.62685078 57.09336853 69.19624329 C57.09025705 79.746565 57.08204611 90.29687638 57.07201904 100.84719354 C57.06085224 112.85670675 57.05534602 124.86622044 57.05032361 136.87573755 C57.03986336 161.58383208 57.02152013 186.29191245 57 211 C42.48 211 27.96 211 13 211 C13 177.67 13 144.34 13 110 C15.64 109.01 18.28 108.02 21 107 C25.26897368 102.73102632 26.13842575 99.00687739 26.3125 93.125 C26.25583705 88.31573248 25.29533431 85.65158667 22 82 C19.0407359 79.85453353 16.52119113 78.81315643 13 78 C12.99635437 77.17394257 12.99270874 76.34788513 12.98895264 75.49679565 C12.95103195 67.69886932 12.89413319 59.90135948 12.81609726 52.10372734 C12.77664565 48.09517696 12.74444606 44.08684548 12.72900391 40.078125 C12.71382168 36.20694588 12.67934942 32.33636864 12.63169098 28.46545792 C12.61689312 26.99119432 12.6089599 25.51684479 12.60811615 24.04250717 C12.6057397 21.97153874 12.57861111 19.90222465 12.54589844 17.83154297 C12.53257477 16.06615677 12.53257477 16.06615677 12.51898193 14.2651062 C11.8904966 10.31107384 10.46042356 8.12210806 8 5 C5.93923226 3.49481877 5.93923226 3.49481877 3.75 2.625 C3.04359375 2.30789062 2.3371875 1.99078125 1.609375 1.6640625 C1.07828125 1.44492188 0.5471875 1.22578125 0 1 C0 0.67 0 0.34 0 0 Z " fill="#27A6FD" transform="translate(450,104)"/>
<path d="M0 0 C0.71140137 0.30736084 1.42280273 0.61472168 2.15576172 0.93139648 C8.10403634 3.54604385 13.97300142 6.33935956 19.8125 9.1875 C21.05543823 9.78570557 21.05543823 9.78570557 22.32348633 10.39599609 C29.73568217 14.10247053 35.53704779 18.3545038 39.9375 25.5 C40.48921875 26.37398437 41.0409375 27.24796875 41.609375 28.1484375 C45.61213432 35.69819641 46.70990411 41.94163129 46.6875 50.5 C46.71585937 51.47710937 46.74421875 52.45421875 46.7734375 53.4609375 C46.79248814 60.62397929 45.29363208 66.18860465 41.1875 72.125 C35.71375283 77.32610343 30.24339207 80.42887715 22.5625 80.3125 C21.62148437 80.30605469 20.68046875 80.29960937 19.7109375 80.29296875 C17.1875 80.125 17.1875 80.125 14.1875 79.125 C14.03837158 79.70878418 13.88924316 80.29256836 13.7355957 80.89404297 C11.51729619 89.31013686 8.8840575 97.57684252 6.16381836 105.84130859 C5.63739708 107.44875903 5.1168945 109.05815971 4.60229492 110.66943359 C-3.13985939 134.90210598 -3.13985939 134.90210598 -14.8125 141.125 C-21.11464279 143.73125349 -26.65964967 144.54471322 -33.44140625 144.41796875 C-34.31651352 144.41372391 -35.19162079 144.40947906 -36.09324646 144.40510559 C-38.85416072 144.38847981 -41.61431105 144.35085966 -44.375 144.3125 C-46.26105707 144.29743228 -48.14712573 144.28374756 -50.03320312 144.27148438 C-54.62659083 144.23862937 -59.21941647 144.18696135 -63.8125 144.125 C-63.79566162 143.09205811 -63.77882324 142.05911621 -63.76147461 140.99487305 C-63.7103171 137.11212338 -63.71937214 133.23132417 -63.74536133 129.34838867 C-63.74841784 127.6774423 -63.73577673 126.00638249 -63.70629883 124.33569336 C-63.44342848 112.16462075 -63.44342848 112.16462075 -69.37890625 101.83203125 C-70.6174939 100.65797729 -70.6174939 100.65797729 -71.88110352 99.46020508 C-73.8125 97.125 -73.8125 97.125 -74.27709961 93.95581055 C-74.12378174 93.02164307 -73.97046387 92.08747559 -73.8125 91.125 C-70.20931767 88.72287844 -68.52856185 88.86751713 -64.24609375 88.859375 C-62.95638672 88.85679687 -61.66667969 88.85421875 -60.33789062 88.8515625 C-59.66733643 88.85575195 -58.99678223 88.85994141 -58.3059082 88.86425781 C-56.25376945 88.8749803 -54.20250252 88.86434365 -52.15039062 88.8515625 C-50.86197266 88.85414063 -49.57355469 88.85671875 -48.24609375 88.859375 C-47.06072021 88.86163086 -45.87534668 88.86388672 -44.65405273 88.86621094 C-41.8125 89.125 -41.8125 89.125 -39.8125 91.125 C-39.43945312 93.98095703 -39.43945312 93.98095703 -39.8125 97.125 C-41.54492188 99.29638672 -41.54492188 99.29638672 -43.78125 101.4296875 C-49.63383863 108.31189821 -48.69948834 115.75816147 -48.3125 124.25 C-48.27229042 125.79417771 -48.23580286 127.33845704 -48.203125 128.8828125 C-48.11578662 132.63235172 -47.97821142 136.37800988 -47.8125 140.125 C-46.57325992 139.28551479 -45.34665852 138.427371 -44.125 137.5625 C-43.44050781 137.08683594 -42.75601563 136.61117187 -42.05078125 136.12109375 C-36.21151315 130.91364873 -33.66795213 124.832848 -31.33203125 117.5 C-31.03310471 116.59427246 -30.73417816 115.68854492 -30.42619324 114.75537109 C-29.48107792 111.8821636 -28.55297765 109.00378217 -27.625 106.125 C-26.99131613 104.19235331 -26.35656015 102.26005779 -25.72070312 100.328125 C-17.21327489 75.14107059 -17.21327489 75.14107059 -21.5625 49.5 C-21.975 48.71625 -22.3875 47.9325 -22.8125 47.125 C-23.225 46.279375 -23.6375 45.43375 -24.0625 44.5625 C-32.95659623 27.98713885 -50.95641567 20.20955468 -68.12890625 14.90234375 C-69.45728516 14.51755859 -69.45728516 14.51755859 -70.8125 14.125 C-68.30375115 11.61625115 -67.47386559 11.86829335 -64.0078125 11.859375 C-63.03658447 11.85550781 -62.06535645 11.85164062 -61.06469727 11.84765625 C-60.03272217 11.85667969 -59.00074707 11.86570313 -57.9375 11.875 C-56.897146 11.87886719 -55.85679199 11.88273438 -54.78491211 11.88671875 C-47.61220532 11.96741801 -40.80743376 12.44019875 -33.8125 14.125 C-33.585625 13.25875 -33.35875 12.3925 -33.125 11.5 C-30.3580403 4.38496078 -26.25050338 1.45494218 -19.703125 -1.9921875 C-12.65354396 -4.14516766 -6.57785871 -2.95350533 0 0 Z " fill="#C57A44" transform="translate(220.8125,228.875)"/>
<path d="M0 0 C60.72 0 121.44 0 184 0 C184 13.86 184 27.72 184 42 C123.28 42 62.56 42 0 42 C0 28.14 0 14.28 0 0 Z " fill="#BAEB6C" transform="translate(323,315)"/>
<path d="M0 0 C0.69591275 -0.00085442 1.3918255 -0.00170885 2.10882652 -0.00258917 C4.45196116 -0.00424261 6.79502497 0.0012752 9.13815308 0.00672913 C10.81330361 0.00701105 12.48845427 0.00685316 14.16360474 0.00628662 C18.72120295 0.00599886 23.27877501 0.01189214 27.83636713 0.01886058 C32.59564234 0.02509767 37.35491811 0.0256982 42.11419678 0.02688599 C51.13104125 0.02999825 60.14787364 0.03821023 69.16471279 0.04823548 C79.42816564 0.05939986 89.69161905 0.06490789 99.95507646 0.06993091 C121.07193557 0.08039292 142.1887838 0.09799034 163.30563354 0.12025452 C162.79219119 2.12621307 162.27874883 4.13217163 161.76530647 6.13813019 C161.27145811 8.26762007 161.0739048 10.21652968 161.11032104 12.40150452 C161.11676636 13.09759827 161.12321167 13.79369202 161.12985229 14.51087952 C161.14661011 15.20697327 161.16336792 15.90306702 161.18063354 16.62025452 C161.18965698 17.34728577 161.19868042 18.07431702 161.20797729 18.82337952 C161.23121114 20.58915172 161.26706671 22.35475066 161.30563354 24.12025452 C160.20864136 24.14603577 159.11164917 24.17181702 157.98141479 24.19837952 C156.52694906 24.25468142 155.07252351 24.31202829 153.61813354 24.37025452 C152.89690308 24.3844342 152.17567261 24.39861389 151.43258667 24.41322327 C150.72682495 24.44544983 150.02106323 24.47767639 149.29391479 24.51087952 C148.64978638 24.53182678 148.00565796 24.55277405 147.3420105 24.57435608 C144.22771758 25.40921508 142.63023436 26.88527287 140.30563354 29.12025452 C139.16853491 31.75944642 138.28061313 34.13860401 137.49313354 36.87025452 C137.16925659 37.91632874 137.16925659 37.91632874 136.83883667 38.98353577 C136.31251754 40.69114894 135.80694399 42.40513282 135.30563354 44.12025452 C116.74717466 44.23704621 98.18879032 44.32522222 79.63004017 44.37931538 C71.01290923 44.40509919 62.39600661 44.4402529 53.77902222 44.49745178 C46.26860947 44.54728157 38.75836207 44.57954425 31.24778861 44.59069699 C27.27075113 44.59721656 23.29418669 44.61254237 19.3173008 44.6489048 C15.57355058 44.68285805 11.83046793 44.69330915 8.08657837 44.68579292 C6.05853255 44.68782309 4.03055936 44.71472183 2.00270081 44.74235535 C-7.90630726 44.68607244 -7.90630726 44.68607244 -10.98777771 41.70977783 C-14.57852954 36.26128556 -13.98974784 30.81683913 -14.04446411 24.48158264 C-14.06098321 23.0810225 -14.08822066 21.68054527 -14.12649536 20.28041077 C-14.48329933 7.15002482 -14.48329933 7.15002482 -11.29592896 3.22962952 C-7.25652407 -0.04556363 -5.17490259 -0.00381068 0 0 Z " fill="#0793FA" transform="translate(66.69436645507813,404.87974548339844)"/>
<path d="M0 0 C6.94893167 4.65225086 11.35285541 10.68604989 14.3125 18.4375 C15.42699635 24.21261747 15.4268748 29.29250081 14 35 C-42.43 35 -98.86 35 -157 35 C-159.70652053 29.58695893 -158.80262244 20.38424912 -157 14.6875 C-153.57975441 7.27431653 -147.41202666 1.11304267 -139.96875 -2.18359375 C-131.77372263 -4.43722628 -122.86798328 -4.4859057 -115.3125 -0.375 C-114.58675781 0.11226563 -113.86101562 0.59953125 -113.11328125 1.1015625 C-110.99618138 2.26292864 -110.99618138 2.26292864 -108.66796875 1.3359375 C-107.78753906 0.89507812 -106.90710938 0.45421875 -106 0 C-98.34459998 -3.67027404 -91.30097349 -3.93324554 -83 -3 C-80.09419047 -1.87445859 -77.69436998 -0.63138872 -75.11328125 1.1015625 C-72.99618138 2.26292864 -72.99618138 2.26292864 -70.66796875 1.3359375 C-69.34732422 0.67464844 -69.34732422 0.67464844 -68 0 C-60.34459998 -3.67027404 -53.30097349 -3.93324554 -45 -3 C-42.09419047 -1.87445859 -39.69436998 -0.63138872 -37.11328125 1.1015625 C-34.97731476 2.27395696 -34.97731476 2.27395696 -32.5625 1.28125 C-31.716875 0.8584375 -30.87125 0.435625 -30 0 C-18.65594036 -4.646147 -11.28200915 -5.57522026 0 0 Z " fill="#D88A55" transform="translate(385,394)"/>
<path d="M0 0 C38.28 0 76.56 0 116 0 C116 6.41875274 115.79100963 10.12474735 113.9375 15.875 C113.60250488 16.91926147 113.60250488 16.91926147 113.26074219 17.98461914 C111.16233962 24.13921961 108.25674392 29.06114093 104 34 C103.35417969 34.77859375 102.70835938 35.5571875 102.04296875 36.359375 C93.18515406 46.15391592 80.11281084 52.00795721 67 53 C61.8538062 53.13392819 56.70982613 53.11668895 51.5625 53.09765625 C50.07177783 53.09578823 48.58105504 53.09436614 47.09033203 53.09336853 C43.19088 53.08957356 39.29146596 53.0797695 35.39202881 53.06866455 C30.70042201 53.05657371 26.00880241 53.05203379 21.31718445 53.04621124 C14.21142997 53.03655578 7.10575867 53.01737821 0 53 C0 35.51 0 18.02 0 0 Z " fill="#FE656F" transform="translate(5,145)"/>
<path d="M0 0 C6.18345791 3.57240083 10.4042807 9.0386085 13.84765625 15.17578125 C16.70914011 19.96344194 20.83855112 22.30217453 25.53515625 25.11328125 C30.92129924 28.54082679 33.4638057 33.18052412 35.53515625 39.11328125 C36.54667559 45.39037325 35.82923261 51.61580933 32.53515625 57.11328125 C27.51266454 63.52128792 22.46749839 67.13383264 14.453125 68.45703125 C9.54764038 68.81057969 6.11557796 67.63951955 1.66015625 65.61328125 C-5.35694684 62.50443811 -11.21005597 61.54544331 -18.5390625 64.24609375 C-20.59216997 65.14770933 -22.64051825 66.06025193 -24.68359375 66.984375 C-30.17747818 69.21433652 -34.52335186 68.68195656 -40.02734375 66.55078125 C-46.01628833 63.61319876 -50.00687066 59.55891353 -53.40234375 53.86328125 C-55.40036328 46.81144761 -55.48182148 40.56859615 -52.46484375 33.80078125 C-49.06032272 27.71507935 -44.15401185 24.69514484 -38.27734375 21.23828125 C-34.55247559 18.42393642 -32.76426534 15.11292663 -30.46484375 11.11328125 C-24.01433628 0.03573132 -12.50589568 -4.49895138 0 0 Z " fill="#F7FCFF" transform="translate(422.46484375,206.88671875)"/>
<path d="M0 0 C14.52 0 29.04 0 44 0 C44.16043524 19.39483758 44.16043524 19.39483758 44.1953125 27.69140625 C44.21918137 33.34243886 44.24735338 38.99321108 44.30175781 44.64404297 C44.34536595 49.20225876 44.36916868 53.76019514 44.37950897 58.31860352 C44.38687356 60.05367427 44.40125483 61.78873053 44.42292023 63.52368164 C44.45215412 65.96273291 44.45594781 68.40064419 44.45410156 70.83984375 C44.46848267 71.54978989 44.48286377 72.25973602 44.49768066 72.99119568 C44.45385214 78.37716709 43.00180229 82.59062118 40 87 C35.61235704 90.49220562 32.10633387 92.12914939 26.52856445 92.11352539 C25.17750359 92.11341209 25.17750359 92.11341209 23.79914856 92.11329651 C22.83031235 92.10813522 21.86147614 92.10297394 20.86328125 92.09765625 C19.37141548 92.09553383 19.37141548 92.09553383 17.84941101 92.09336853 C14.67041018 92.08776761 11.49147957 92.07521496 8.3125 92.0625 C6.15820414 92.05748512 4.00390718 92.05292219 1.84960938 92.04882812 C-3.43361774 92.03779788 -8.71680385 92.02105886 -14 92 C-11 90 -11 90 -8.0625 88.8125 C-4.28978617 86.57966937 -2.62827179 83.96862713 -1 80 C-0.61923948 77.15418115 -0.43437238 74.69676814 -0.45410156 71.86157227 C-0.44376389 71.08026443 -0.43342621 70.2989566 -0.42277527 69.49397278 C-0.39348893 66.93457002 -0.39185115 64.37596294 -0.390625 61.81640625 C-0.37563372 60.03277593 -0.35890458 58.24915944 -0.34051514 56.46556091 C-0.29693565 51.78849631 -0.27686344 47.11161894 -0.26177979 42.43438721 C-0.23872318 36.81323411 -0.18630434 31.1922865 -0.13883972 25.57129669 C-0.07013421 17.04747764 -0.03859746 8.52424797 0 0 Z " fill="#27A6FE" transform="translate(463,357)"/>
<path d="M0 0 C6.05060637 -0.04944549 12.10109505 -0.08574129 18.15185547 -0.10986328 C20.21014454 -0.11991954 22.26841933 -0.13356629 24.32666016 -0.15087891 C27.28551763 -0.17514354 30.24418617 -0.18648688 33.203125 -0.1953125 C34.12305237 -0.20563507 35.04297974 -0.21595764 35.99078369 -0.22659302 C36.8513739 -0.22674408 37.71196411 -0.22689514 38.59863281 -0.22705078 C39.73114471 -0.23371262 39.73114471 -0.23371262 40.88653564 -0.24050903 C43.37386882 0.0425457 44.9020645 0.63517824 47 2 C50.70821821 7.15898425 52.4119137 13.81061718 54.27734375 19.80859375 C54.57057022 20.7335817 54.86379669 21.65856964 55.16590881 22.61158752 C56.09599456 25.55163669 57.01668897 28.49453471 57.9375 31.4375 C58.5508608 33.37713394 59.16478872 35.31658863 59.77929688 37.25585938 C61.26386201 41.9504778 62.72543922 46.65184408 64.1774292 51.35662842 C64.96698721 53.89391178 65.77671733 56.42396024 66.59033203 58.95361328 C67.06219347 60.45975118 67.5334247 61.96608673 68.00390625 63.47265625 C68.2236058 64.13792831 68.44330536 64.80320038 68.66966248 65.4886322 C70.0546245 70.01115338 70.3611783 73.44977538 69 78 C66.36190053 81.18126902 64.78125377 82.6720877 60.72076416 83.41958618 C57.98846629 83.57928901 55.30622584 83.56234007 52.5703125 83.48828125 C51.084814 83.47766914 51.084814 83.47766914 49.56930542 83.46684265 C46.42042039 83.43895593 43.2733434 83.37622678 40.125 83.3125 C37.98440076 83.28740979 35.84377353 83.26459789 33.703125 83.24414062 C28.46813788 83.18914855 23.23419813 83.10558032 18 83 C18.78375 82.401875 19.5675 81.80375 20.375 81.1875 C23.45970665 78.61691112 24.87343282 77.0858889 25.34375 73.05078125 C25.17103048 67.5424678 23.18574993 62.38354887 21.5 57.1875 C20.76529088 54.86599113 20.03092608 52.54437327 19.296875 50.22265625 C18.91724609 49.0330127 18.53761719 47.84336914 18.14648438 46.61767578 C16.30294678 40.80048241 14.53035053 34.96177538 12.75 29.125 C11.82011163 26.0765854 10.88598778 23.03010923 9.93164062 19.98925781 C9.28564441 17.91651735 8.66075556 15.83712602 8.05273438 13.75292969 C7.73111328 12.69750977 7.40949219 11.64208984 7.078125 10.5546875 C6.65901855 9.13518799 6.65901855 9.13518799 6.23144531 7.68701172 C4.72056398 4.39027104 2.66572064 2.42133545 0 0 Z " fill="#FC4755" transform="translate(370,429)"/>
<path d="M0 0 C6.51027927 -0.10205759 13.02034955 -0.17173938 19.53125 -0.21972656 C21.74259145 -0.23974747 23.95388058 -0.26697259 26.16503906 -0.30175781 C29.35755378 -0.35069627 32.54936396 -0.37306467 35.7421875 -0.390625 C37.20686966 -0.42159271 37.20686966 -0.42159271 38.70114136 -0.45318604 C48.78367083 -0.45642589 57.69580769 2.9314268 65 10 C72.64475387 19.18757268 74.46267747 28.3173071 74.29296875 40.03515625 C74.28872391 41.15442001 74.28447906 42.27368378 74.28010559 43.42686462 C74.26342531 46.97232983 74.22579232 50.51720902 74.1875 54.0625 C74.17243943 56.47850737 74.15875343 58.89452372 74.14648438 61.31054688 C74.11611935 67.20743406 74.05737556 73.10306756 74 79 C58.82 79 43.64 79 28 79 C28 69.76 28 60.52 28 51 C31.96 51 35.92 51 40 51 C44.62132704 48.68933648 45.24995075 47.72513298 47 43 C47.65504251 39.42574628 47.80083273 36.42063431 45.98046875 33.19140625 C43.83972878 30.49446194 42.28783884 29.09594628 39 28 C34.71332213 27.86391499 31.13299259 27.83499538 27 29 C26.85304687 28.38253906 26.70609375 27.76507812 26.5546875 27.12890625 C24.12955062 17.9719239 20.11639212 10.71783171 12.234375 5.21875 C8.36966623 3.11072704 4.26854455 1.99716 0 1 C0 0.67 0 0.34 0 0 Z " fill="#FFD15B" transform="translate(219,0)"/>
<path d="M0 0 C5.24827699 2.90470676 9.11600458 6.62618352 11.78125 12.02734375 C12.71081255 14.1055166 12.71081255 14.1055166 14.75 15.9375 C13.97398437 16.14503906 13.19796875 16.35257813 12.3984375 16.56640625 C-3.18450393 21.01070577 -19.7161038 28.12890954 -28.75 42.22265625 C-35.66164477 54.73201332 -37.85542168 66.85581614 -35.25 80.9375 C-45.49356338 81.41766703 -53.07093484 81.54111347 -61.0625 74.4375 C-69.44777021 64.85433405 -68.94959982 55.79815887 -68.4453125 43.50195312 C-67.56336462 31.92197742 -60.54458743 23.47562461 -52.13256836 16.08422852 C-46.38924522 11.80701666 -39.84800356 8.99828211 -33.375 6 C-31.94727621 5.32361586 -30.52018748 4.64588953 -29.09375 3.96679688 C-10.49561726 -4.84290963 -10.49561726 -4.84290963 0 0 Z " fill="#EA9B58" transform="translate(129.25,228.0625)"/>
<path d="M0 0 C0.71140137 0.30736084 1.42280273 0.61472168 2.15576172 0.93139648 C8.10403634 3.54604385 13.97300142 6.33935956 19.8125 9.1875 C20.64112549 9.58630371 21.46975098 9.98510742 22.32348633 10.39599609 C29.73568217 14.10247053 35.53704779 18.3545038 39.9375 25.5 C40.48921875 26.37398437 41.0409375 27.24796875 41.609375 28.1484375 C45.61213432 35.69819641 46.70990411 41.94163129 46.6875 50.5 C46.71585937 51.47710937 46.74421875 52.45421875 46.7734375 53.4609375 C46.79248814 60.62397929 45.29363208 66.18860465 41.1875 72.125 C35.71375283 77.32610343 30.24339207 80.42887715 22.5625 80.3125 C21.62148437 80.30605469 20.68046875 80.29960937 19.7109375 80.29296875 C17.1875 80.125 17.1875 80.125 14.1875 79.125 C14.21070313 77.85785156 14.23390625 76.59070313 14.2578125 75.28515625 C14.27658833 73.58594345 14.29478657 71.8867242 14.3125 70.1875 C14.32925781 69.35669922 14.34601563 68.52589844 14.36328125 67.66992188 C14.46850152 54.1491167 9.87821518 43.17518566 0.578125 33.25390625 C-9.59573723 24.1938492 -22.77624027 18.60322114 -35.8125 15.125 C-35.1525 14.795 -34.4925 14.465 -33.8125 14.125 C-33.544375 13.238125 -33.27625 12.35125 -33 11.4375 C-30.44519525 4.31093939 -26.16252972 1.40862492 -19.703125 -1.9921875 C-12.65354396 -4.14516766 -6.57785871 -2.95350533 0 0 Z " fill="#EA9B58" transform="translate(220.8125,228.875)"/>
<path d="M0 0 C0.82014587 -0.00525696 1.64029175 -0.01051392 2.48529053 -0.01593018 C5.18903809 -0.02910432 7.89219399 -0.02040053 10.59594727 -0.01025391 C12.48014946 -0.01227558 14.36435089 -0.0151878 16.24855042 -0.01895142 C20.19523578 -0.02337143 24.14171726 -0.0169548 28.08837891 -0.00292969 C33.14016956 0.01415022 38.19148162 0.00432652 43.24325466 -0.01364708 C47.13381027 -0.02450364 51.02425302 -0.02102977 54.91481209 -0.0132637 C56.77709065 -0.01126627 58.63937955 -0.01370491 60.50164604 -0.02070236 C63.10814298 -0.02834635 65.7138725 -0.0166711 68.3203125 0 C69.08569839 -0.00607269 69.85108429 -0.01214539 70.6396637 -0.0184021 C76.28292221 0.0482515 80.52974595 1.18377472 84.56860352 5.23974609 C86.80212803 9.38987611 86.42403044 13.83034157 85.72485352 18.38818359 C84.05472782 22.00678928 81.74181845 23.95769375 78.04551697 25.52236938 C74.22375494 26.51883769 70.63854339 26.6836118 66.71923828 26.67871094 C65.54973129 26.68878677 65.54973129 26.68878677 64.3565979 26.69906616 C61.79308609 26.7179803 59.2298369 26.72196671 56.66625977 26.72412109 C54.8755635 26.73055258 53.08486828 26.7372812 51.29417419 26.74429321 C47.54602624 26.75624875 43.79797035 26.75997571 40.04980469 26.75878906 C35.2570143 26.75858574 30.46481594 26.78590954 25.67216587 26.82033348 C21.97545175 26.84261348 18.27888001 26.8466263 14.58210564 26.84556961 C12.81553033 26.84792307 11.04895095 26.85673222 9.28244209 26.87223434 C6.80783137 26.89192129 4.33449635 26.8860469 1.85986328 26.87402344 C1.13704666 26.88526245 0.41423004 26.89650146 -0.33049011 26.90808105 C-5.81609519 26.84065433 -8.84463936 25.38633579 -13.27514648 22.38818359 C-16.52519405 18.71877505 -16.74087089 15.26279633 -16.56030273 10.53662109 C-16.01739749 6.44623913 -14.39482133 4.24743046 -11.17906189 1.77963257 C-7.42644075 -0.01848484 -4.07319363 -0.03223212 0 0 Z " fill="#FFFEFC" transform="translate(129.275146484375,26.61181640625)"/>
<path d="M0 0 C14.52 0 29.04 0 44 0 C44 13.86 44 27.72 44 42 C29.48 42 14.96 42 0 42 C0 28.14 0 14.28 0 0 Z " fill="#A1E530" transform="translate(463,315)"/>
<path d="M0 0 C11.55 0 23.1 0 35 0 C35 6.41875274 34.79100963 10.12474735 32.9375 15.875 C32.60250488 16.91926147 32.60250488 16.91926147 32.26074219 17.98461914 C30.16233962 24.13921961 27.25674392 29.06114093 23 34 C22.35417969 34.77859375 21.70835938 35.5571875 21.04296875 36.359375 C14.07313954 44.06627335 2.56002205 51.25783556 -7.99839783 52.17326355 C-10.30109467 52.23031267 -12.59523122 52.2250225 -14.8984375 52.1953125 C-16.15087753 52.19106766 -16.15087753 52.19106766 -17.42861938 52.18673706 C-20.07756291 52.17560301 -22.72615984 52.15051127 -25.375 52.125 C-27.17838051 52.11496143 -28.98176636 52.10583712 -30.78515625 52.09765625 C-35.19023633 52.0756859 -39.59505953 52.04120321 -44 52 C-44 51.67 -44 51.34 -44 51 C-42.90945312 50.79697266 -42.90945312 50.79697266 -41.796875 50.58984375 C-29.00804494 47.85172244 -17.17143342 41.49326038 -9.88964844 30.29199219 C-8.73729048 28.36937921 -7.66827148 26.42131118 -6.625 24.4375 C-6.30305664 23.84396729 -5.98111328 23.25043457 -5.64941406 22.63891602 C-2.02576311 15.20659702 -1.62164993 8.64879961 0 0 Z " fill="#FD4855" transform="translate(86,145)"/>
<path d="M0 0 C0.88988113 -0.00846954 1.77976227 -0.01693909 2.6966095 -0.02566528 C5.63781023 -0.04906167 8.57848865 -0.05005682 11.51977539 -0.04882812 C13.56474518 -0.055928 15.60971297 -0.06362674 17.65467834 -0.07189941 C21.94106585 -0.08535022 26.22726916 -0.08691022 30.51367188 -0.08105469 C36.00633008 -0.07515746 41.49810473 -0.10574865 46.990592 -0.14617157 C51.2139614 -0.17202193 55.43711728 -0.1749284 59.66055489 -0.17127991 C61.68556502 -0.17297359 63.71058476 -0.18263987 65.7355175 -0.20042419 C68.56776939 -0.22256166 71.39822298 -0.21293876 74.23046875 -0.1953125 C75.48447983 -0.21520737 75.48447983 -0.21520737 76.76382446 -0.23550415 C81.03514914 -0.17374364 82.7168294 0.06951638 86.23536682 2.73181152 C88.17993164 5.41992188 88.17993164 5.41992188 88.24243164 9.04492188 C87.03620239 12.87647362 86.65348782 13.58126017 83.17993164 15.41992188 C80.17115531 15.72110829 77.36908287 15.85036701 74.35986328 15.83984375 C73.46998215 15.84831329 72.58010101 15.85678284 71.66325378 15.86550903 C68.72205305 15.88890542 65.78137463 15.88990057 62.84008789 15.88867188 C60.7951181 15.89577175 58.75015032 15.90347049 56.70518494 15.91174316 C52.41879743 15.92519397 48.13259412 15.92675397 43.84619141 15.92089844 C38.3535332 15.91500121 32.86175855 15.9455924 27.36927128 15.98601532 C23.14590188 16.01186568 18.922746 16.01477215 14.6993084 16.01112366 C12.67429826 16.01281734 10.64927853 16.02248362 8.62434578 16.04026794 C5.79209389 16.06240541 2.9616403 16.05278251 0.12939453 16.03515625 C-1.12461655 16.05505112 -1.12461655 16.05505112 -2.40396118 16.0753479 C-6.67528586 16.01358739 -8.35696612 15.77032737 -11.87550354 13.10803223 C-13.82006836 10.41992188 -13.82006836 10.41992188 -13.88256836 6.79492188 C-11.63297008 -0.3508609 -6.70710498 -0.0234548 0 0 Z " fill="#FEFCFC" transform="translate(275.820068359375,462.580078125)"/>
<path d="M0 0 C5.79471344 2.4498885 8.76030844 6.99148404 11.6484375 12.41796875 C13.47355643 17.89332555 13.47560822 23.29508938 11.0859375 28.60546875 C8.26413756 33.61866652 4.22528301 36.88579034 -0.6640625 39.79296875 C-7.28522544 41.33277408 -13.53005171 41.22213003 -19.52734375 37.828125 C-23.69187745 34.60886019 -26.69486937 30.38804815 -28.3515625 25.41796875 C-29.0775098 18.41776264 -29.03749461 12.83038196 -24.78125 7.03515625 C-17.95555393 -0.68571308 -9.94529576 -2.4615433 0 0 Z " fill="#F7FCFD" transform="translate(274.3515625,181.58203125)"/>
<path d="M0 0 C6.94893167 4.65225086 11.35285541 10.68604989 14.3125 18.4375 C15.42699635 24.21261747 15.4268748 29.29250081 14 35 C3.11 35 -7.78 35 -19 35 C-19 29.72 -19 24.44 -19 19 C-21.9069673 11.59415474 -24.37547364 6.41635091 -31 2 C-22.9239041 -7.09516163 -9.7272975 -4.80692981 0 0 Z " fill="#C47A46" transform="translate(385,394)"/>
<path d="M0 0 C13.53 0 27.06 0 41 0 C40.67 2.31 40.34 4.62 40 7 C39.93012411 8.39315986 39.89081595 9.78873026 39.90234375 11.18359375 C39.90556641 11.88291016 39.90878906 12.58222656 39.91210938 13.30273438 C39.92048828 14.00720703 39.92886719 14.71167969 39.9375 15.4375 C39.94201172 16.16904297 39.94652344 16.90058594 39.95117188 17.65429688 C39.96281852 19.43623419 39.98074809 21.21812863 40 23 C38.90300781 23.02578125 37.80601562 23.0515625 36.67578125 23.078125 C35.22131552 23.1344269 33.76688997 23.19177377 32.3125 23.25 C31.59126953 23.26417969 30.87003906 23.27835937 30.12695312 23.29296875 C26.5540818 23.45611356 24.33694596 23.81486486 21.15625 25.5625 C18.41404544 28.66238341 17.31207551 31.85371372 16.1875 35.75 C15.1046875 39.33875 15.1046875 39.33875 14 43 C8.72 43 3.44 43 -2 43 C-0.35 41.68 1.3 40.36 3 39 C5.24035124 34.51929752 4.2685735 28.43447387 4.29516602 23.4519043 C4.31235651 21.20624427 4.35624 18.96206567 4.40039062 16.71679688 C4.41052001 15.28386497 4.41903535 13.85092057 4.42578125 12.41796875 C4.44036377 11.11625732 4.45494629 9.8145459 4.4699707 8.47338867 C4.22183707 4.39861206 4.22183707 4.39861206 0 0 Z " fill="#0382FA" transform="translate(188,406)"/>
<path d="M0 0 C1.28970703 -0.00257813 2.57941406 -0.00515625 3.90820312 -0.0078125 C4.57875732 -0.00362305 5.24931152 0.00056641 5.94018555 0.00488281 C7.9923243 0.0156053 10.04359123 0.00496865 12.09570312 -0.0078125 C13.38412109 -0.00523437 14.67253906 -0.00265625 16 0 C17.18537354 0.00225586 18.37074707 0.00451172 19.59204102 0.00683594 C22.43359375 0.265625 22.43359375 0.265625 24.43359375 2.265625 C24.8046875 5.12939453 24.8046875 5.12939453 24.43359375 8.265625 C22.71875 10.36669922 22.71875 10.36669922 20.49609375 12.4453125 C14.27107266 19.76547619 15.32416142 28.27473807 15.43359375 37.390625 C15.42548905 39.12762479 15.41380007 40.86461174 15.3984375 42.6015625 C15.36880957 46.82390271 15.38774907 51.04345733 15.43359375 55.265625 C10.48359375 55.265625 5.53359375 55.265625 0.43359375 55.265625 C0.46582031 52.79449219 0.49804688 50.32335937 0.53125 47.77734375 C0.5318343 45.34770001 0.51699406 42.91859644 0.50073242 40.48901367 C0.49767591 38.8180673 0.51031702 37.14700749 0.53979492 35.47631836 C0.80266527 23.30524575 0.80266527 23.30524575 -5.1328125 12.97265625 C-5.9585376 12.18995361 -6.7842627 11.40725098 -7.63500977 10.60083008 C-9.56640625 8.265625 -9.56640625 8.265625 -10.03100586 5.09643555 C-9.80102905 3.69518433 -9.80102905 3.69518433 -9.56640625 2.265625 C-5.96322392 -0.13649656 -4.2824681 0.00814213 0 0 Z " fill="#695E67" transform="translate(156.56640625,317.734375)"/>
<path d="M0 0 C3.92605808 3.21446005 6.61986184 6.84049099 7.23828125 11.98046875 C7.43500525 17.83041917 6.49472359 22.22172052 3 27 C-0.00671519 29.61453494 -2.0557979 30.79910594 -5.9375 31.625 C-10.4151112 30.7112018 -12.97093314 28.33277277 -16 25 C-18.85025657 20.53872885 -18.50458024 15.12589452 -18 10 C-17.08504165 5.94035286 -15.41797643 3.39807279 -12.375 0.5 C-7.92030539 -1.47986427 -4.59744729 -1.715833 0 0 Z " fill="#FBFDFF" transform="translate(367,183)"/>
<path d="M0 0 C4.46921352 1.74778171 7.09798243 5.67643362 9.1875 9.85546875 C9.91622412 17.52108598 8.93560733 22.83900419 4.5625 29.23046875 C0.93928901 31.70950785 -2.45072344 32.40619811 -6.8125 31.85546875 C-10.85400628 29.75846077 -13.230541 27.01938675 -15.25 22.98046875 C-16.5005682 16.03286762 -16.33983106 11.08708695 -12.8125 4.85546875 C-8.80528725 0.27579703 -5.86624755 -1.0008294 0 0 Z " fill="#FCFDFF" transform="translate(435.8125,156.14453125)"/>
<path d="M0 0 C4.5119287 1.66521094 7.13299349 5.64098699 9.22265625 9.8203125 C9.82856943 16.19405308 9.45144403 21.25343701 6.22265625 26.8203125 C3.44343617 29.75393369 1.63653711 30.70945155 -2.27734375 31.7578125 C-6.39594725 31.83135899 -7.68109117 31.50916343 -10.77734375 28.8203125 C-15.27955982 23.74756768 -16.53461654 19.10699946 -16.19921875 12.37109375 C-15.59123298 8.69503164 -14.25856086 6.5697693 -11.77734375 3.8203125 C-11.05546875 3.0159375 -10.33359375 2.2115625 -9.58984375 1.3828125 C-6.07690729 -0.56881887 -3.91901202 -0.61500356 0 0 Z " fill="#FBFDFE" transform="translate(467.77734375,182.1796875)"/>
<path d="M0 0 C3.90339507 1.43376023 6.09850827 4.34190705 8.22265625 7.81640625 C10.1061102 13.46676809 10.02459897 18.7928814 7.41015625 24.19140625 C5.6164378 27.53143371 3.8801047 30.22216601 0.20703125 31.5390625 C-3.23599792 32.06274001 -5.70692539 32.38689287 -8.8515625 30.7109375 C-13.20295792 27.16231524 -15.4031909 23.8052784 -16.11328125 18.1328125 C-16.19803819 12.15744795 -15.95676798 8.44766013 -11.77734375 3.81640625 C-11.05546875 3.01203125 -10.33359375 2.20765625 -9.58984375 1.37890625 C-6.07681212 -0.57277799 -3.91873531 -0.62150226 0 0 Z " fill="#FCFDFF" transform="translate(396.77734375,156.18359375)"/>
<path d="M0 0 C4.38773175 2.19386588 7.09334197 4.44520582 9 9 C9.54700764 13.29791716 9.31502266 15.41495791 7.25 19.25 C4.66789127 22.40591067 2.7219338 24.65902301 -1.3671875 25.46875 C-5.72839788 25.5230953 -8.99129387 25.5500512 -12.5 22.75 C-15.80640712 19.11295217 -16.83222901 17.50993888 -17.375 12.625 C-16.8476637 7.52741573 -14.66444332 4.84938147 -11.3125 1.125 C-7.59344385 -0.68427056 -4.04760663 -0.63243854 0 0 Z " fill="#FFFEFC" transform="translate(78,27)"/>
<path d="M0 0 C4.10746873 1.77367968 6.69875485 4.16459142 9 8 C9.82192719 14.36993573 8.73668485 17.81015993 5 23 C0.64164921 25.77265295 -4.00051403 25.79519383 -9 25 C-12.12177233 23.31712073 -14.39137035 21.2172593 -16 18 C-16.61029595 12.58580311 -17.05214882 8.39338627 -13.6875 3.9375 C-8.92513347 0.50416599 -5.88019152 -0.73790639 0 0 Z " fill="#FFFEFC" transform="translate(258,27)"/>
<path d="M0 0 C0.33 0 0.66 0 1 0 C1 11.88 1 23.76 1 36 C-3.95 36 -8.9 36 -14 36 C-14 24.45 -14 12.9 -14 1 C-12.68 2.32 -11.36 3.64 -10 5 C-7 5.75 -7 5.75 -4 5 C-1.66369252 2.60140956 -1.66369252 2.60140956 0 0 Z " fill="#7C6D77" transform="translate(171,337)"/>
<path d="M0 0 C2.8125 1.6875 2.8125 1.6875 5 5 C5.70525051 10.6851827 6.33227987 17.05206928 3 22 C0 24 0 24 -3.5 23.875 C-7 23 -7 23 -8.6875 21.4140625 C-10.51872077 18.0459243 -10.46995829 15.315297 -10.5 11.5 C-10.5309375 10.1903125 -10.561875 8.880625 -10.59375 7.53125 C-10 4 -10 4 -7.625 1.56640625 C-4.63113434 -0.2201118 -3.40400775 -0.76590174 0 0 Z " fill="#7D6E77" transform="translate(137,284)"/>
<path d="M0 0 C3.5 1.0625 3.5 1.0625 5.9375 2.875 C8.37408671 7.8456369 8.23574992 12.63446745 7.5 18.0625 C5.58252494 21.82370108 4.4934583 22.70316402 0.5625 24.125 C-2.5 24.0625 -2.5 24.0625 -5.15625 22.55859375 C-7.81232076 19.72987839 -8.12403582 18.05286855 -8.13476562 14.21875 C-8.11091797 13.5071875 -8.08707031 12.795625 -8.0625 12.0625 C-8.07345703 11.3509375 -8.08441406 10.639375 -8.09570312 9.90625 C-8.04715981 6.43702138 -7.74256028 4.39582478 -5.68359375 1.56640625 C-3.5 0.0625 -3.5 0.0625 0 0 Z " fill="#7D6E77" transform="translate(194.5,283.9375)"/>
</svg>
