<?xml version="1.0" encoding="UTF-8" standalone="no"?>
<svg
   width="1024"
   zoomAndPan="magnify"
   viewBox="0 0 768 767.999994"
   height="1024"
   preserveAspectRatio="xMidYMid meet"
   version="1.2"
   id="svg18"
   sodipodi:docname="logo.svg"
   inkscape:version="1.4.2 (ebf0e940, 2025-05-08)"
   xmlns:inkscape="http://www.inkscape.org/namespaces/inkscape"
   xmlns:sodipodi="http://sodipodi.sourceforge.net/DTD/sodipodi-0.dtd"
   xmlns="http://www.w3.org/2000/svg"
   xmlns:svg="http://www.w3.org/2000/svg">
  <sodipodi:namedview
     id="namedview18"
     pagecolor="#ffffff"
     bordercolor="#000000"
     borderopacity="0.25"
     inkscape:showpageshadow="2"
     inkscape:pageopacity="0.0"
     inkscape:pagecheckerboard="0"
     inkscape:deskcolor="#d1d1d1"
     inkscape:zoom="0.79129303"
     inkscape:cx="396.18698"
     inkscape:cy="762.04387"
     inkscape:window-width="1048"
     inkscape:window-height="651"
     inkscape:window-x="0"
     inkscape:window-y="38"
     inkscape:window-maximized="0"
     inkscape:current-layer="0275f7723f" />
  <defs
     id="defs5">
    <clipPath
       id="64b6600044">
      <path
         d="M 305.34375 539.59375 L 438.457031 539.59375 L 438.457031 654.792969 L 305.34375 654.792969 Z M 305.34375 539.59375 "
         id="path1" />
    </clipPath>
    <clipPath
       id="f40c320c12">
      <path
         d="M 325 76.800781 L 419 76.800781 L 419 140 L 325 140 Z M 325 76.800781 "
         id="path2" />
    </clipPath>
    <clipPath
       id="924803ac3e">
      <path
         d="M 94.496094 144 L 649.496094 144 L 649.496094 679 L 94.496094 679 Z M 94.496094 144 "
         id="path3" />
    </clipPath>
    <clipPath
       id="4e401ffbc4">
      <path
         d="M 471 565 L 563 565 L 563 681.300781 L 471 681.300781 Z M 471 565 "
         id="path4" />
    </clipPath>
    <clipPath
       id="2e6d422e13">
      <path
         d="M 181 565 L 273 565 L 273 681.300781 L 181 681.300781 Z M 181 565 "
         id="path5" />
    </clipPath>
  </defs>
  <g
     id="0275f7723f">
    <rect
       x="0"
       width="768"
       y="0"
       height="768"
       style="display:inline;fill:#b34343;fill-opacity:0.00772201;stroke:none"
       id="rect5" />
    <rect
       x="0"
       width="768"
       y="0"
       height="768"
       style="display:inline;fill:#ffffff;fill-opacity:0;stroke:none"
       id="rect6" />
    <g
       clip-rule="nonzero"
       clip-path="url(#64b6600044)"
       id="g6"
       style="fill:#36b4c4;fill-opacity:1">
      <path
         style="stroke:none;fill-rule:nonzero;fill:#36b4c4;fill-opacity:1"
         d="M 305.34375 539.59375 L 438.542969 539.59375 L 438.542969 654.792969 L 305.34375 654.792969 Z M 305.34375 539.59375 "
         id="path6" />
    </g>
    <g
       clip-rule="nonzero"
       clip-path="url(#f40c320c12)"
       id="g7"
       style="fill:#c43636;fill-opacity:1">
      <path
         style="stroke:none;fill-rule:nonzero;fill:#c43636;fill-opacity:1"
         d="M 344.046875 76.800781 L 348.179688 76.800781 C 356.550781 78.1875 361.582031 82.585938 367.804688 87.796875 C 370.359375 89.945312 373.664062 90.234375 376.222656 88.09375 C 382.683594 82.675781 389.933594 77.332031 398.21875 77.855469 C 410.292969 78.617188 420.691406 89.828125 417.609375 102.320312 C 415.949219 109.042969 411.398438 113.28125 405.359375 116.984375 C 397.183594 121.992188 389.117188 127.167969 381.164062 132.519531 C 378.066406 134.601562 375.367188 137.125 372.675781 139.640625 C 372.519531 139.785156 372.335938 139.855469 372.121094 139.855469 C 371.90625 139.851562 371.726562 139.773438 371.574219 139.625 C 367.902344 136.011719 363.851562 132.75 359.425781 129.847656 C 351.484375 124.640625 343.59375 119.367188 335.742188 114.03125 C 319 102.652344 324.597656 80.402344 344.046875 76.800781 Z M 344.046875 76.800781 "
         id="path7" />
    </g>
    <g
       clip-rule="nonzero"
       clip-path="url(#924803ac3e)"
       id="g8"
       style="display:inline;fill:#36b4c4;fill-opacity:1">
      <path
         style="fill:#36b4c4;fill-opacity:1;fill-rule:nonzero;stroke:none"
         d="m 649.34375,325.61328 v 108.71484 c -0.60547,2.53516 -2.07422,4.4336 -4.41016,5.69532 -22.90625,12.34375 -45.82812,24.66406 -68.75781,36.96484 -1.32031,0.71094 -2.29687,1.24219 -3.27734,2.48828 -2.92188,3.71094 -5.86719,7.39844 -8.82813,11.0625 -26.79297,33.15235 -60.71484,55.71875 -101.76172,67.70313 -0.18359,0.0547 -0.33593,0.15625 -0.44922,0.3125 -0.11718,0.15625 -0.17187,0.33203 -0.17578,0.52734 -0.008,32.48047 -0.008,65.03906 0,97.67969 0,4.04297 -0.375,7.13281 -1.1289,9.26953 -1.91016,5.42969 -5.61328,9.25781 -11.10938,11.47656 -1.62109,0.65235 -3.6289,0.98047 -6.01953,0.98047 -47.71875,-0.0195 -95.44922,-0.0156 -143.19141,0.008 -8.27734,0 -14.78125,-3.9414 -17.65234,-11.82031 -0.73828,-2.01953 -1.10547,-4.85547 -1.10547,-8.50391 0,-33.12109 0,-66.14843 0,-99.08203 0,-0.20312 -0.0586,-0.38281 -0.17969,-0.54687 -0.12109,-0.16016 -0.27734,-0.26953 -0.46875,-0.32422 C 235.67969,544.508 199.32031,518.78535 171.75,481.04316 c -1.87109,-2.55469 -3.66797,-4.28125 -5.38672,-5.1836 -32.16016,-16.80859 -55.11719,-29.0625 -68.871092,-36.75781 -1.511719,-0.83984 -2.460938,-2.61328 -2.839844,-5.32031 V 325.88672 c 0.679687,-2.8125 1.808594,-4.46485 4.492187,-5.91016 21.988279,-11.83203 43.832029,-23.69922 65.531249,-35.59375 0.66406,-0.35937 1.14453,-0.89062 1.4375,-1.59375 21.15625,-50.30078 56.82422,-90.80859 106.03125,-114.91406 24.21484,-11.87109 49.88281,-19.13281 77.00781,-21.79297 45.1836,-4.4375 87.58985,3.60156 127.21485,24.125 44.01562,22.78906 78.33593,60.78906 98.19922,105.98438 1.43359,3.26562 2.44531,5.59765 3.03125,6.99609 0.10937,0.26562 0.29296,0.46484 0.54687,0.59766 21.03125,11.53125 42.08203,23.01562 63.15234,34.45703 4.45704,2.42578 6.84766,3.17968 8.04688,7.37109 z m -259.23828,7.20313 c -0.51172,0.625 -1.17578,0.9375 -1.98438,0.9375 l -32.58984,-0.0234 c -0.87109,0 -1.57422,-0.33985 -2.11719,-1.02344 -8.35937,-10.48828 -16.69922,-20.82422 -25.01172,-31.00391 -0.91015,-1.11718 -1.8789,-1.67578 -2.90625,-1.67578 -20.62109,0.0117 -41.24218,0.0352 -61.86328,0.0742 -29.3789,0.0586 -54.29687,25.57813 -59.8789,53.3125 -0.7461,3.71094 -1.125,8.82422 -1.13672,15.33594 -0.0273,20.25781 -0.0352,40.50781 -0.0156,60.75781 0.008,7.03125 0.38672,12.53516 1.12891,16.50781 1.99609,10.72266 6.0625,20.5625 12.19531,29.51954 12.19922,17.82421 33.64063,31.1875 55.80469,31.17968 66.46094,-0.0195 132.92187,-0.0273 199.3789,-0.0273 5.23047,0 10.00782,-0.27344 14.45704,-1.44922 28.84765,-7.63672 49.98046,-30.69141 54.86328,-60.01172 0.63672,-3.80078 0.95703,-9.3164 0.95703,-16.53906 0.004,-21.08594 0.008,-42.17188 0.008,-63.25781 0,-32.9961 -27.34375,-65.34375 -61.24219,-65.36328 -20.85156,-0.0156 -41.5,-0.0274 -61.94531,-0.0312 -0.44141,-0.004 -0.86328,0.0898 -1.26172,0.27734 -0.39844,0.1875 -0.73437,0.45312 -1.01172,0.79297 z m -18.25781,255.83203 c -5.51563,-6.97657 -10.3711,-13.70703 -19.33985,-16.26563 -6.46875,-1.83984 -13.40234,-0.3789 -18.75781,3.51953 -13.26953,9.67578 -13.15234,25.71875 -3.45313,37.85938 6.60938,8.27344 14.16016,17.32812 22.65235,27.17187 3.78125,4.375 6.82031,7.22266 9.125,8.53907 5.17969,2.96484 10.79687,3.35937 16.84765,1.17968 4.89063,-1.76172 7.52344,-4.90625 10.95313,-8.87109 5.91016,-6.82813 11.77734,-13.69531 17.59375,-20.59766 5.95703,-7.0625 11.85156,-14.83203 12.64062,-23.63672 1.05469,-11.59375 -6.20312,-22.07421 -17.51171,-25.17187 -2.4336,-0.66797 -4.60938,-0.91406 -6.53516,-0.73828 -10.51563,0.95312 -17.82031,8.33203 -23.49219,16.98047 -0.22656,0.34765 -0.46875,0.35937 -0.72265,0.0312 z m 0,0"
         id="path8" />
    </g>
    <path
       style=" stroke:none;fill-rule:nonzero;fill:#000000;fill-opacity:1;"
       d="M 269.242188 435.523438 C 268.09375 435.414062 266.949219 435.25 265.816406 435.027344 C 264.679688 434.804688 263.558594 434.523438 262.453125 434.191406 C 261.34375 433.855469 260.253906 433.46875 259.183594 433.023438 C 258.117188 432.582031 257.070312 432.085938 256.050781 431.539062 C 255.027344 430.992188 254.035156 430.394531 253.074219 429.746094 C 252.109375 429.101562 251.179688 428.40625 250.285156 427.667969 C 249.386719 426.929688 248.53125 426.148438 247.710938 425.324219 C 246.890625 424.496094 246.113281 423.632812 245.375 422.730469 C 244.640625 421.828125 243.949219 420.890625 243.304688 419.917969 C 242.660156 418.949219 242.0625 417.945312 241.515625 416.914062 C 240.96875 415.882812 240.472656 414.828125 240.027344 413.746094 C 239.582031 412.664062 239.1875 411.5625 238.851562 410.441406 C 238.511719 409.320312 238.230469 408.1875 238 407.039062 C 237.773438 405.886719 237.597656 404.730469 237.484375 403.5625 C 237.367188 402.398438 237.308594 401.226562 237.304688 400.054688 C 237.300781 398.882812 237.355469 397.710938 237.464844 396.542969 C 237.578125 395.375 237.742188 394.214844 237.964844 393.0625 C 238.1875 391.914062 238.464844 390.773438 238.800781 389.648438 C 239.132812 388.527344 239.519531 387.421875 239.957031 386.335938 C 240.398438 385.25 240.890625 384.1875 241.433594 383.148438 C 241.976562 382.113281 242.566406 381.105469 243.207031 380.125 C 243.847656 379.148438 244.53125 378.203125 245.265625 377.292969 C 245.996094 376.378906 246.769531 375.507812 247.585938 374.675781 C 248.398438 373.839844 249.253906 373.050781 250.144531 372.300781 C 251.039062 371.550781 251.964844 370.847656 252.925781 370.191406 C 253.882812 369.535156 254.875 368.925781 255.890625 368.371094 C 256.910156 367.8125 257.953125 367.304688 259.019531 366.851562 C 260.089844 366.394531 261.175781 365.996094 262.28125 365.648438 C 263.386719 365.300781 264.507812 365.011719 265.640625 364.777344 C 266.773438 364.542969 267.917969 364.363281 269.066406 364.242188 C 270.21875 364.121094 271.371094 364.058594 272.527344 364.050781 C 273.683594 364.042969 274.839844 364.09375 275.988281 364.203125 C 277.140625 364.3125 278.285156 364.480469 279.417969 364.703125 C 280.554688 364.925781 281.675781 365.203125 282.78125 365.539062 C 283.890625 365.871094 284.976562 366.261719 286.046875 366.703125 C 287.117188 367.148438 288.164062 367.640625 289.183594 368.191406 C 290.207031 368.738281 291.199219 369.335938 292.160156 369.980469 C 293.125 370.628906 294.054688 371.320312 294.949219 372.058594 C 295.847656 372.796875 296.703125 373.582031 297.523438 374.40625 C 298.34375 375.230469 299.121094 376.09375 299.855469 376.996094 C 300.59375 377.898438 301.285156 378.835938 301.929688 379.808594 C 302.574219 380.78125 303.167969 381.78125 303.71875 382.8125 C 304.265625 383.84375 304.761719 384.902344 305.207031 385.984375 C 305.652344 387.0625 306.042969 388.164062 306.382812 389.285156 C 306.722656 390.40625 307.003906 391.542969 307.234375 392.691406 C 307.460938 393.839844 307.632812 394.996094 307.75 396.164062 C 307.867188 397.332031 307.925781 398.5 307.929688 399.671875 C 307.933594 400.847656 307.878906 402.015625 307.769531 403.183594 C 307.65625 404.351562 307.492188 405.511719 307.269531 406.664062 C 307.046875 407.816406 306.765625 408.953125 306.433594 410.078125 C 306.101562 411.203125 305.714844 412.308594 305.273438 413.394531 C 304.835938 414.480469 304.34375 415.542969 303.800781 416.578125 C 303.257812 417.617188 302.667969 418.625 302.027344 419.601562 C 301.386719 420.582031 300.703125 421.527344 299.96875 422.4375 C 299.238281 423.347656 298.464844 424.21875 297.648438 425.054688 C 296.832031 425.886719 295.980469 426.679688 295.085938 427.425781 C 294.195312 428.175781 293.269531 428.878906 292.308594 429.535156 C 291.347656 430.191406 290.359375 430.800781 289.339844 431.359375 C 288.324219 431.917969 287.28125 432.421875 286.210938 432.878906 C 285.144531 433.332031 284.058594 433.734375 282.953125 434.078125 C 281.847656 434.425781 280.726562 434.71875 279.59375 434.953125 C 278.460938 435.1875 277.316406 435.363281 276.167969 435.484375 C 275.015625 435.609375 273.863281 435.671875 272.707031 435.675781 C 271.550781 435.683594 270.394531 435.632812 269.242188 435.523438 Z M 269.242188 435.523438 "
       id="path9" />
    <path
       style=" stroke:none;fill-rule:nonzero;fill:#000000;fill-opacity:1;"
       d="M 495.398438 373.5625 C 506.050781 383.125 510.277344 399.65625 504.65625 413.167969 C 497.789062 429.648438 480.609375 439.019531 463.039062 434.703125 C 444.523438 430.164062 432.796875 411.558594 436.75 392.578125 C 438.382812 384.714844 442.1875 378.183594 448.167969 372.984375 C 462.441406 360.558594 481.390625 361 495.398438 373.5625 Z M 495.398438 373.5625 "
       id="path10" />
    <path
       style=" stroke:none;fill-rule:nonzero;fill:#000000;fill-opacity:1;"
       d="M 336.089844 447.765625 C 347.640625 455.101562 359.871094 458.953125 373.855469 458.472656 C 386.46875 458.035156 398.246094 453.980469 409.199219 446.304688 C 409.871094 445.828125 410.835938 445.722656 412.085938 445.988281 C 416.828125 446.984375 416.746094 451.65625 413.242188 454.140625 C 403.992188 460.691406 394.097656 464.824219 383.5625 466.546875 C 363.523438 469.828125 345.175781 465.460938 328.519531 453.449219 C 327.625 452.808594 327.351562 451.691406 327.695312 450.097656 C 328.808594 444.886719 332.414062 445.425781 336.089844 447.765625 Z M 336.089844 447.765625 "
       id="path11" />
    <g
       clip-rule="nonzero"
       clip-path="url(#4e401ffbc4)"
       id="g12"
       style="display:inline;fill:#36b4c4;fill-opacity:1">
      <path
         style="fill:#36b4c4;fill-opacity:1;fill-rule:nonzero;stroke:none"
         d="m 474,575.0625 c 2.26953,-3.84375 5.34766,-6.55078 9.23437,-8.12109 2.09375,-0.84766 5.21094,-1.30079 9.35938,-1.35547 5.33984,-0.0664 10.67969,-0.0664 16.01562,-0.008 3.22266,0.0391 5.78125,0.44141 7.67188,1.20313 6.75391,2.70703 9.375,7.14453 12.43359,14.24219 10.94922,25.3789 21.9961,50.71875 33.14063,76.01953 2.30469,5.24219 -0.41016,8.26562 -5.4336,9.46094 -19.08593,4.55078 -38.19531,8.99609 -57.32812,13.33593 -4.35547,0.98828 -7.77734,1.37891 -10.26172,1.16016 -7.97266,-0.69141 -13.39844,-4.86328 -16.27734,-12.51563 -0.64844,-1.71875 -0.97266,-3.82031 -0.97266,-6.29687 0.0273,-26.80078 0.043,-53.59766 0.043,-80.39453 0,-1.80078 0.79297,-4.04688 2.375,-6.73047 z m 0,0"
         id="path12" />
    </g>
    <g
       clip-rule="nonzero"
       clip-path="url(#2e6d422e13)"
       id="g13"
       style="fill:#36b4c4;fill-opacity:1">
      <path
         style="stroke:none;fill-rule:nonzero;fill:#36b4c4;fill-opacity:1"
         d="M 193.8125 631.828125 C 201.886719 613.394531 209.976562 594.96875 218.085938 576.550781 C 220.140625 571.886719 223.585938 568.640625 228.425781 566.816406 C 230.496094 566.035156 233.40625 565.621094 237.160156 565.570312 C 245.324219 565.464844 250.691406 565.472656 253.261719 565.59375 C 263.589844 566.066406 271.71875 574.019531 271.785156 584.492188 C 271.941406 608.613281 272.027344 632.738281 272.042969 656.859375 C 272.042969 662.546875 271.621094 666.554688 270.773438 668.882812 C 268.140625 676.097656 260.984375 681.292969 253.046875 681.160156 C 249.199219 681.09375 244.035156 679.65625 239.824219 678.675781 C 222.640625 674.699219 205.476562 670.65625 188.332031 666.542969 C 183.507812 665.390625 180.378906 662.882812 182.597656 657.707031 C 186.304688 649.0625 190.042969 640.4375 193.8125 631.828125 Z M 193.8125 631.828125 "
         id="path13" />
    </g>
    <path
       style="stroke:none;fill-rule:nonzero;fill:#ff4040;fill-opacity:1;stroke-width:0.99975;stroke-dasharray:none"
       d="M 336.226562 610.386719 C 336.585938 610.925781 336.925781 611.46875 337.25 612.027344 C 337.574219 612.582031 337.882812 613.140625 338.171875 613.710938 C 338.457031 614.28125 338.726562 614.851562 338.976562 615.429688 C 339.222656 616.003906 339.453125 616.582031 339.660156 617.160156 C 339.863281 617.738281 340.050781 618.316406 340.210938 618.894531 C 340.375 619.46875 340.515625 620.039062 340.632812 620.605469 C 340.75 621.171875 340.84375 621.734375 340.914062 622.285156 C 340.984375 622.839844 341.03125 623.382812 341.054688 623.914062 C 341.078125 624.449219 341.078125 624.96875 341.054688 625.476562 C 341.03125 625.984375 340.980469 626.480469 340.910156 626.957031 C 340.839844 627.4375 340.742188 627.898438 340.625 628.34375 C 340.507812 628.789062 340.367188 629.214844 340.203125 629.621094 C 340.039062 630.027344 339.855469 630.410156 339.648438 630.773438 C 339.441406 631.140625 339.210938 631.480469 338.960938 631.796875 C 338.710938 632.117188 338.445312 632.410156 338.15625 632.679688 C 337.867188 632.949219 337.558594 633.191406 337.234375 633.410156 C 336.90625 633.625 336.566406 633.816406 336.207031 633.980469 C 335.847656 634.144531 335.472656 634.28125 335.082031 634.390625 C 334.695312 634.5 334.292969 634.578125 333.875 634.632812 C 333.460938 634.683594 333.035156 634.707031 332.597656 634.703125 C 332.160156 634.699219 331.710938 634.667969 331.253906 634.605469 C 330.800781 634.546875 330.335938 634.457031 329.867188 634.339844 C 329.398438 634.222656 328.921875 634.078125 328.445312 633.90625 C 327.964844 633.734375 327.484375 633.535156 327 633.308594 C 326.515625 633.082031 326.03125 632.832031 325.546875 632.554688 C 325.066406 632.277344 324.582031 631.976562 324.105469 631.652344 C 323.625 631.328125 323.152344 630.980469 322.683594 630.609375 C 322.210938 630.238281 321.75 629.847656 321.292969 629.433594 C 320.839844 629.023438 320.390625 628.59375 319.953125 628.140625 C 319.515625 627.691406 319.089844 627.226562 318.675781 626.742188 C 318.257812 626.257812 317.859375 625.757812 317.46875 625.246094 C 317.082031 624.734375 316.707031 624.210938 316.347656 623.671875 C 315.988281 623.136719 315.648438 622.589844 315.324219 622.035156 C 315 621.480469 314.691406 620.917969 314.402344 620.351562 C 314.117188 619.78125 313.847656 619.210938 313.597656 618.632812 C 313.351562 618.058594 313.121094 617.480469 312.914062 616.902344 C 312.710938 616.320312 312.523438 615.746094 312.363281 615.167969 C 312.199219 614.59375 312.058594 614.023438 311.941406 613.457031 C 311.824219 612.886719 311.730469 612.328125 311.660156 611.777344 C 311.589844 611.222656 311.542969 610.679688 311.519531 610.148438 C 311.496094 609.613281 311.496094 609.09375 311.519531 608.585938 C 311.542969 608.078125 311.59375 607.582031 311.664062 607.105469 C 311.734375 606.625 311.832031 606.164062 311.949219 605.71875 C 312.066406 605.273438 312.207031 604.847656 312.371094 604.441406 C 312.535156 604.035156 312.71875 603.652344 312.925781 603.285156 C 313.136719 602.921875 313.363281 602.582031 313.613281 602.265625 C 313.863281 601.945312 314.132812 601.652344 314.417969 601.382812 C 314.707031 601.113281 315.015625 600.871094 315.339844 600.652344 C 315.667969 600.4375 316.007812 600.246094 316.367188 600.082031 C 316.726562 599.917969 317.101562 599.78125 317.492188 599.671875 C 317.878906 599.5625 318.28125 599.484375 318.699219 599.429688 C 319.113281 599.378906 319.539062 599.355469 319.976562 599.359375 C 320.414062 599.363281 320.863281 599.394531 321.320312 599.457031 C 321.773438 599.515625 322.238281 599.605469 322.707031 599.722656 C 323.175781 599.839844 323.652344 599.984375 324.132812 600.15625 C 324.609375 600.328125 325.089844 600.527344 325.574219 600.753906 C 326.058594 600.980469 326.542969 601.230469 327.027344 601.507812 C 327.507812 601.78125 327.992188 602.082031 328.46875 602.410156 C 328.949219 602.734375 329.421875 603.082031 329.894531 603.453125 C 330.363281 603.824219 330.824219 604.214844 331.28125 604.625 C 331.738281 605.039062 332.183594 605.46875 332.621094 605.921875 C 333.058594 606.371094 333.484375 606.835938 333.898438 607.320312 C 334.316406 607.804688 334.714844 608.300781 335.105469 608.816406 C 335.492188 609.328125 335.867188 609.851562 336.226562 610.386719 Z M 336.226562 610.386719 "
       id="path14" />
    <path
       style="stroke:none;fill-rule:nonzero;fill:#ff4040;fill-opacity:1;stroke-width:0.99975;stroke-dasharray:none"
       d="M 360.085938 589.441406 C 360.128906 590.085938 360.152344 590.730469 360.15625 591.375 C 360.160156 592.015625 360.144531 592.65625 360.109375 593.292969 C 360.074219 593.929688 360.019531 594.558594 359.945312 595.183594 C 359.875 595.804688 359.78125 596.417969 359.671875 597.023438 C 359.5625 597.628906 359.433594 598.222656 359.285156 598.800781 C 359.140625 599.378906 358.976562 599.945312 358.792969 600.496094 C 358.609375 601.042969 358.414062 601.574219 358.199219 602.089844 C 357.980469 602.605469 357.75 603.097656 357.503906 603.570312 C 357.257812 604.042969 357 604.496094 356.722656 604.921875 C 356.449219 605.351562 356.160156 605.753906 355.859375 606.132812 C 355.558594 606.511719 355.242188 606.867188 354.917969 607.191406 C 354.59375 607.519531 354.261719 607.816406 353.914062 608.085938 C 353.570312 608.355469 353.21875 608.597656 352.855469 608.808594 C 352.496094 609.019531 352.125 609.199219 351.75 609.351562 C 351.375 609.503906 350.996094 609.621094 350.613281 609.710938 C 350.226562 609.800781 349.839844 609.855469 349.449219 609.882812 C 349.058594 609.90625 348.667969 609.902344 348.273438 609.863281 C 347.878906 609.828125 347.488281 609.757812 347.097656 609.65625 C 346.707031 609.558594 346.316406 609.425781 345.929688 609.261719 C 345.542969 609.101562 345.164062 608.910156 344.785156 608.6875 C 344.410156 608.464844 344.039062 608.210938 343.671875 607.929688 C 343.308594 607.648438 342.953125 607.339844 342.605469 607.003906 C 342.257812 606.667969 341.917969 606.304688 341.589844 605.917969 C 341.261719 605.53125 340.941406 605.117188 340.636719 604.679688 C 340.332031 604.242188 340.035156 603.785156 339.757812 603.300781 C 339.476562 602.820312 339.210938 602.320312 338.957031 601.796875 C 338.703125 601.277344 338.46875 600.738281 338.246094 600.183594 C 338.023438 599.628906 337.820312 599.058594 337.632812 598.472656 C 337.441406 597.886719 337.273438 597.292969 337.117188 596.683594 C 336.964844 596.074219 336.828125 595.457031 336.710938 594.832031 C 336.59375 594.203125 336.492188 593.570312 336.414062 592.933594 C 336.332031 592.296875 336.269531 591.65625 336.230469 591.011719 C 336.1875 590.367188 336.164062 589.722656 336.160156 589.082031 C 336.15625 588.4375 336.171875 587.796875 336.207031 587.160156 C 336.242188 586.523438 336.292969 585.894531 336.367188 585.269531 C 336.441406 584.648438 336.53125 584.035156 336.644531 583.429688 C 336.753906 582.824219 336.882812 582.234375 337.027344 581.652344 C 337.175781 581.074219 337.339844 580.507812 337.523438 579.957031 C 337.703125 579.410156 337.902344 578.878906 338.117188 578.363281 C 338.332031 577.851562 338.5625 577.355469 338.808594 576.882812 C 339.054688 576.410156 339.316406 575.957031 339.589844 575.53125 C 339.867188 575.101562 340.15625 574.699219 340.457031 574.320312 C 340.757812 573.941406 341.070312 573.589844 341.394531 573.261719 C 341.71875 572.9375 342.054688 572.636719 342.398438 572.367188 C 342.742188 572.097656 343.097656 571.855469 343.457031 571.644531 C 343.820312 571.433594 344.1875 571.253906 344.5625 571.101562 C 344.9375 570.953125 345.316406 570.832031 345.703125 570.742188 C 346.085938 570.652344 346.476562 570.597656 346.867188 570.570312 C 347.257812 570.546875 347.648438 570.550781 348.039062 570.589844 C 348.433594 570.625 348.824219 570.695312 349.21875 570.796875 C 349.609375 570.898438 349.996094 571.027344 350.382812 571.191406 C 350.769531 571.351562 351.152344 571.546875 351.527344 571.765625 C 351.90625 571.988281 352.277344 572.242188 352.640625 572.523438 C 353.003906 572.804688 353.363281 573.113281 353.710938 573.449219 C 354.058594 573.785156 354.398438 574.148438 354.726562 574.535156 C 355.054688 574.925781 355.371094 575.335938 355.679688 575.773438 C 355.984375 576.210938 356.277344 576.671875 356.558594 577.152344 C 356.839844 577.632812 357.105469 578.132812 357.359375 578.65625 C 357.609375 579.175781 357.847656 579.714844 358.066406 580.269531 C 358.289062 580.824219 358.496094 581.394531 358.683594 581.980469 C 358.871094 582.566406 359.042969 583.164062 359.195312 583.769531 C 359.351562 584.378906 359.488281 584.996094 359.605469 585.625 C 359.722656 586.25 359.820312 586.882812 359.902344 587.519531 C 359.980469 588.15625 360.042969 588.800781 360.085938 589.441406 Z M 360.085938 589.441406 "
       id="path15" />
    <path
       style="stroke:none;fill-rule:nonzero;fill:#ff4040;fill-opacity:1;stroke-width:0.99975;stroke-dasharray:none"
       d="M 383.5625 563.871094 C 383.945312 563.945312 384.324219 564.054688 384.691406 564.191406 C 385.0625 564.328125 385.421875 564.496094 385.777344 564.695312 C 386.128906 564.894531 386.46875 565.121094 386.800781 565.378906 C 387.132812 565.636719 387.449219 565.917969 387.757812 566.230469 C 388.0625 566.542969 388.355469 566.882812 388.636719 567.25 C 388.914062 567.613281 389.179688 568.003906 389.429688 568.421875 C 389.679688 568.835938 389.910156 569.273438 390.128906 569.734375 C 390.347656 570.195312 390.546875 570.675781 390.730469 571.175781 C 390.910156 571.675781 391.074219 572.195312 391.222656 572.734375 C 391.367188 573.273438 391.496094 573.824219 391.605469 574.394531 C 391.714844 574.960938 391.804688 575.542969 391.875 576.136719 C 391.945312 576.730469 391.992188 577.335938 392.023438 577.949219 C 392.054688 578.5625 392.066406 579.183594 392.058594 579.8125 C 392.050781 580.441406 392.019531 581.070312 391.972656 581.707031 C 391.921875 582.34375 391.855469 582.976562 391.769531 583.617188 C 391.679688 584.253906 391.574219 584.886719 391.449219 585.519531 C 391.324219 586.152344 391.179688 586.78125 391.015625 587.402344 C 390.851562 588.027344 390.671875 588.640625 390.472656 589.246094 C 390.277344 589.851562 390.058594 590.445312 389.828125 591.027344 C 389.597656 591.613281 389.347656 592.183594 389.085938 592.738281 C 388.824219 593.292969 388.546875 593.832031 388.253906 594.351562 C 387.960938 594.875 387.65625 595.378906 387.339844 595.863281 C 387.019531 596.347656 386.691406 596.808594 386.351562 597.25 C 386.011719 597.691406 385.660156 598.105469 385.300781 598.5 C 384.9375 598.894531 384.570312 599.261719 384.195312 599.605469 C 383.816406 599.945312 383.433594 600.261719 383.042969 600.550781 C 382.65625 600.839844 382.261719 601.097656 381.863281 601.328125 C 381.464844 601.558594 381.066406 601.761719 380.664062 601.933594 C 380.261719 602.105469 379.855469 602.246094 379.453125 602.355469 C 379.046875 602.464844 378.644531 602.546875 378.246094 602.59375 C 377.84375 602.644531 377.445312 602.660156 377.050781 602.648438 C 376.65625 602.632812 376.269531 602.589844 375.882812 602.511719 C 375.5 602.433594 375.121094 602.328125 374.753906 602.191406 C 374.382812 602.050781 374.023438 601.882812 373.667969 601.6875 C 373.316406 601.488281 372.976562 601.261719 372.644531 601.003906 C 372.3125 600.746094 371.996094 600.460938 371.6875 600.148438 C 371.382812 599.835938 371.089844 599.496094 370.808594 599.132812 C 370.53125 598.765625 370.265625 598.375 370.015625 597.960938 C 369.765625 597.546875 369.535156 597.109375 369.316406 596.648438 C 369.101562 596.1875 368.898438 595.707031 368.71875 595.207031 C 368.535156 594.703125 368.371094 594.183594 368.222656 593.648438 C 368.078125 593.109375 367.949219 592.554688 367.839844 591.988281 C 367.730469 591.417969 367.640625 590.835938 367.574219 590.242188 C 367.503906 589.648438 367.453125 589.046875 367.421875 588.433594 C 367.390625 587.816406 367.378906 587.199219 367.386719 586.570312 C 367.398438 585.941406 367.425781 585.308594 367.472656 584.675781 C 367.523438 584.039062 367.589844 583.402344 367.679688 582.765625 C 367.765625 582.128906 367.871094 581.492188 367.996094 580.859375 C 368.125 580.226562 368.269531 579.601562 368.429688 578.976562 C 368.59375 578.355469 368.773438 577.742188 368.972656 577.136719 C 369.171875 576.53125 369.386719 575.9375 369.617188 575.351562 C 369.847656 574.769531 370.097656 574.199219 370.359375 573.644531 C 370.621094 573.089844 370.898438 572.550781 371.191406 572.027344 C 371.484375 571.507812 371.789062 571.003906 372.105469 570.519531 C 372.425781 570.035156 372.753906 569.574219 373.09375 569.132812 C 373.4375 568.691406 373.785156 568.273438 374.148438 567.882812 C 374.507812 567.488281 374.875 567.121094 375.253906 566.777344 C 375.628906 566.433594 376.011719 566.121094 376.402344 565.832031 C 376.789062 565.542969 377.183594 565.285156 377.582031 565.054688 C 377.980469 564.820312 378.378906 564.621094 378.78125 564.449219 C 379.1875 564.277344 379.589844 564.136719 379.992188 564.027344 C 380.398438 563.914062 380.800781 563.835938 381.199219 563.785156 C 381.601562 563.738281 382 563.71875 382.394531 563.734375 C 382.789062 563.75 383.179688 563.792969 383.5625 563.871094 Z M 383.5625 563.871094 "
       id="path16" />
    <path
       style="stroke:none;fill-rule:nonzero;fill:#ff4040;fill-opacity:1;stroke-width:0.99975;stroke-dasharray:none"
       d="M 403.328125 592.355469 C 403.71875 592.390625 404.105469 592.457031 404.488281 592.558594 C 404.871094 592.65625 405.246094 592.785156 405.617188 592.945312 C 405.988281 593.105469 406.351562 593.296875 406.707031 593.515625 C 407.0625 593.738281 407.410156 593.988281 407.746094 594.265625 C 408.085938 594.546875 408.410156 594.851562 408.726562 595.1875 C 409.042969 595.519531 409.347656 595.882812 409.640625 596.269531 C 409.929688 596.652344 410.207031 597.066406 410.472656 597.5 C 410.738281 597.9375 410.984375 598.394531 411.21875 598.871094 C 411.453125 599.351562 411.671875 599.851562 411.875 600.371094 C 412.074219 600.890625 412.257812 601.425781 412.425781 601.980469 C 412.59375 602.535156 412.746094 603.105469 412.875 603.6875 C 413.007812 604.269531 413.121094 604.867188 413.214844 605.472656 C 413.3125 606.082031 413.386719 606.695312 413.445312 607.320312 C 413.5 607.945312 413.539062 608.578125 413.554688 609.214844 C 413.574219 609.851562 413.574219 610.492188 413.554688 611.136719 C 413.53125 611.777344 413.492188 612.421875 413.433594 613.0625 C 413.375 613.707031 413.296875 614.34375 413.199219 614.980469 C 413.105469 615.617188 412.988281 616.246094 412.855469 616.867188 C 412.71875 617.492188 412.570312 618.105469 412.398438 618.710938 C 412.230469 619.316406 412.042969 619.90625 411.839844 620.488281 C 411.636719 621.066406 411.417969 621.632812 411.179688 622.179688 C 410.945312 622.730469 410.695312 623.261719 410.429688 623.777344 C 410.164062 624.292969 409.882812 624.785156 409.589844 625.257812 C 409.296875 625.734375 408.992188 626.183594 408.675781 626.613281 C 408.359375 627.042969 408.03125 627.445312 407.691406 627.828125 C 407.351562 628.207031 407.003906 628.558594 406.648438 628.886719 C 406.289062 629.214844 405.925781 629.515625 405.554688 629.785156 C 405.183594 630.058594 404.804688 630.300781 404.421875 630.511719 C 404.039062 630.722656 403.652344 630.90625 403.265625 631.058594 C 402.875 631.210938 402.480469 631.332031 402.085938 631.421875 C 401.695312 631.511719 401.300781 631.570312 400.90625 631.601562 C 400.511719 631.628906 400.121094 631.621094 399.730469 631.585938 C 399.339844 631.550781 398.953125 631.484375 398.574219 631.386719 C 398.191406 631.285156 397.8125 631.15625 397.441406 630.996094 C 397.070312 630.835938 396.707031 630.644531 396.351562 630.425781 C 395.996094 630.203125 395.648438 629.953125 395.3125 629.675781 C 394.972656 629.398438 394.648438 629.089844 394.332031 628.757812 C 394.015625 628.421875 393.710938 628.0625 393.421875 627.675781 C 393.128906 627.289062 392.851562 626.878906 392.585938 626.441406 C 392.324219 626.007812 392.074219 625.550781 391.839844 625.070312 C 391.605469 624.589844 391.386719 624.089844 391.1875 623.570312 C 390.984375 623.050781 390.800781 622.515625 390.632812 621.960938 C 390.464844 621.40625 390.316406 620.839844 390.183594 620.253906 C 390.050781 619.671875 389.9375 619.078125 389.84375 618.46875 C 389.75 617.863281 389.671875 617.246094 389.617188 616.621094 C 389.558594 615.996094 389.523438 615.363281 389.503906 614.726562 C 389.484375 614.089844 389.484375 613.449219 389.507812 612.808594 C 389.527344 612.164062 389.566406 611.523438 389.625 610.878906 C 389.683594 610.238281 389.761719 609.597656 389.859375 608.960938 C 389.957031 608.324219 390.070312 607.695312 390.207031 607.074219 C 390.339844 606.449219 390.492188 605.835938 390.660156 605.230469 C 390.828125 604.628906 391.015625 604.035156 391.21875 603.457031 C 391.425781 602.875 391.644531 602.3125 391.878906 601.761719 C 392.113281 601.210938 392.367188 600.679688 392.632812 600.164062 C 392.898438 599.652344 393.175781 599.15625 393.46875 598.683594 C 393.761719 598.210938 394.066406 597.757812 394.382812 597.328125 C 394.703125 596.898438 395.03125 596.496094 395.367188 596.113281 C 395.707031 595.734375 396.054688 595.382812 396.410156 595.054688 C 396.769531 594.726562 397.132812 594.429688 397.503906 594.15625 C 397.875 593.886719 398.253906 593.644531 398.636719 593.429688 C 399.019531 593.21875 399.40625 593.035156 399.796875 592.882812 C 400.1875 592.730469 400.578125 592.609375 400.972656 592.519531 C 401.367188 592.429688 401.757812 592.371094 402.152344 592.34375 C 402.546875 592.316406 402.9375 592.320312 403.328125 592.355469 Z M 403.328125 592.355469 "
       id="path17" />
    <path
       style="stroke:none;fill-rule:nonzero;fill:#ff4040;fill-opacity:1;stroke-width:0.99975;stroke-dasharray:none"
       d="M 366.90625 611.6875 C 375.347656 611.695312 383.300781 622.601562 387.691406 628.878906 C 392.238281 635.378906 398.363281 646.21875 394.675781 654.472656 C 389.285156 666.542969 375.871094 657.375 366.871094 657.367188 C 358.355469 657.363281 346.316406 665.6875 339.949219 656.023438 C 335.140625 648.726562 341.792969 636.644531 345.941406 630.449219 C 350.359375 623.847656 357.835938 611.679688 366.90625 611.6875 "
       id="path18" />
  </g>
</svg>
