<?xml version="1.0" encoding="UTF-8"?>
<svg version="1.1" xmlns="http://www.w3.org/2000/svg" width="512" height="511">
<path d="M0 0 C4.6953481 1.72482175 8.31892277 0.31400689 13.0625 -0.875 C15.58053262 -1.40920948 18.1015937 -1.92927889 20.625 -2.4375 C21.82253906 -2.68628906 23.02007812 -2.93507813 24.25390625 -3.19140625 C31.35611961 -4.46616249 38.37588179 -5.03447902 45.5859375 -5.078125 C46.75585236 -5.08851051 46.75585236 -5.08851051 47.94940186 -5.09910583 C50.44548652 -5.11625994 52.94135921 -5.12268981 55.4375 -5.125 C56.28809998 -5.12633942 57.13869995 -5.12767883 58.01507568 -5.12905884 C73.83720491 -5.12364401 88.45156231 -3.80828243 103.71484375 0.671875 C108.19902022 1.53737329 111.38733527 -0.41980618 115.43994141 -2.30053711 C135.36932631 -11.48581536 156.1703293 -12.77516647 177.0625 -5.875 C177.9803125 -5.58625 178.898125 -5.2975 179.84375 -5 C192.07695223 -0.66418149 201.88298596 8.20593997 211.43017578 16.69384766 C212.92697046 18.00617347 214.46000058 19.27686799 215.99609375 20.54296875 C223.17946278 26.57358317 228.3135782 33.59257498 229.265625 43.16796875 C229.47352875 52.6795653 226.5764159 60.15450121 220.0625 67.125 C214.03265921 72.47580467 208.10159145 74.41026264 200 74.375 C198.81277344 74.38015625 197.62554687 74.3853125 196.40234375 74.390625 C193.18761887 74.13495097 190.9537914 73.50232596 188.0625 72.125 C188.55878906 73.12273437 189.05507813 74.12046875 189.56640625 75.1484375 C197.86639937 92.45345039 203.8955447 111.88084616 205.0625 131.125 C205.10487793 131.79837402 205.14725586 132.47174805 205.19091797 133.16552734 C206.50482881 157.26843115 200.02536113 179.77688376 184.0625 198.125 C175.33909574 207.48670213 175.33909574 207.48670213 172.0625 209.125 C172.0625 210.775 172.0625 212.425 172.0625 214.125 C176.69370383 214.125 181.3091595 209.81386629 184.49658203 206.74365234 C186.00874705 205.1934706 187.50687544 203.6310228 189 202.0625 C195.70796559 195.0603254 203.27421963 190.09304984 213.25 189.875 C221.81120275 190.01534759 228.92335332 193.17972111 235.0625 199.125 C241.06600112 206.3132275 243.87949805 213.64782264 243.0625 223.125 C241.63539385 230.4284256 238.84445042 235.50132872 234.0625 241.125 C233.27875 242.135625 232.495 243.14625 231.6875 244.1875 C215.45414076 262.35340201 190.3070758 276.03093033 166.0625 279.125 C164.7425 279.125 163.4225 279.125 162.0625 279.125 C161.9696875 279.79402344 161.876875 280.46304687 161.78125 281.15234375 C158.45998132 294.8886778 148.83605889 308.08143536 138.3125 317.0625 C135.71868198 319.36413705 135.71868198 319.36413705 134.0625 322.125 C134.06687127 325.70069501 134.77045107 328.39121513 135.95703125 331.75390625 C142.73663385 352.42810076 137.76566448 378.97461539 128.6875 398.0078125 C124.54845716 405.54356985 119.42977346 410.14860696 111.3125 413.0625 C102.64171604 415.28339098 94.17830022 414.13192186 86.38671875 409.765625 C80.21785055 405.4111298 75.40559791 399.87497886 73.46875 392.484375 C71.87628488 383.23582759 73.70805813 376.14082709 76.87109375 367.5078125 C78.52796029 362.80339799 79.19134624 358.78846836 79.125 353.8125 C79.11597656 352.92949219 79.10695312 352.04648437 79.09765625 351.13671875 C79.08605469 350.47285156 79.07445312 349.80898438 79.0625 349.125 C78.21429688 349.269375 77.36609375 349.41375 76.4921875 349.5625 C67.87496343 350.92610469 59.79238797 351.36381153 51.0625 351.125 C51.145 352.28 51.2275 353.435 51.3125 354.625 C51.28255468 373.6702213 41.38108846 394.94515364 29.0625 409.125 C22.33372754 415.15910162 15.15482982 418.20828852 6.0625 418.125 C-3.57049916 416.83044675 -9.53281004 413.30945546 -16.4375 406.75 C-18.61524704 402.93894268 -18.359658 400.48729933 -17.9375 396.125 C-17.2775 395.135 -16.6175 394.145 -15.9375 393.125 C-15.2775 393.125 -14.6175 393.125 -13.9375 393.125 C-13.96070312 392.40054687 -13.98390625 391.67609375 -14.0078125 390.9296875 C-14.11006003 385.45214131 -13.75906464 381.3294704 -11.9375 376.125 C-12.9275 374.64 -12.9275 374.64 -13.9375 373.125 C-13.71905969 367.77321233 -11.99773571 363.44010131 -9.875 358.5546875 C-8.00527283 353.70897791 -7.83615373 349.29365953 -7.9375 344.125 C-8.88625 344.99125 -9.835 345.8575 -10.8125 346.75 C-26.5106845 360.06682318 -46.35977234 364.402979 -66.53515625 362.84765625 C-75.24490361 361.93221734 -83.48107022 360.72098395 -89.80859375 354.1953125 C-95.59339211 346.84293089 -96.71782686 340.36887204 -95.9375 331.125 C-94.35010585 324.05704062 -90.90630493 319.25226745 -84.875 315.375 C-80.7936021 312.89952642 -77.70807151 312.00226501 -72.9296875 312.1328125 C-71.94226563 312.14957031 -70.95484375 312.16632813 -69.9375 312.18359375 C-67.8774109 312.22737064 -65.81747601 312.27926541 -63.7578125 312.33984375 C-54.06080465 312.47801355 -47.04816619 310.87101664 -39.9375 304.125 C-41.64614413 299.60993002 -43.73107611 295.31931823 -45.875 291 C-46.22240234 290.28457031 -46.56980469 289.56914062 -46.92773438 288.83203125 C-47.26998047 288.14238281 -47.61222656 287.45273437 -47.96484375 286.7421875 C-48.27156006 286.11940918 -48.57827637 285.49663086 -48.89428711 284.85498047 C-50.05786135 282.92540241 -51.20847302 281.57124095 -52.9375 280.125 C-55.38223648 279.54598346 -57.71157146 279.11032712 -60.1875 278.75 C-85.0104216 274.56680495 -111.80235895 261.0520351 -127.046875 240.24609375 C-132.10543909 231.9717282 -132.63267635 224.66164458 -131.9375 215.125 C-130.15113326 207.95911742 -125.79573314 201.48145252 -119.46875 197.6171875 C-111.08285983 193.3009205 -103.48117537 191.5058509 -94.25 194.375 C-88.03735657 196.48098082 -83.35355376 200.51555912 -78.6875 205 C-70.84587118 212.62967627 -70.84587118 212.62967627 -60.9375 216.125 C-60.010087 213.35491633 -60.010087 213.35491633 -59.9375 210.125 C-61.88805765 207.65853588 -61.88805765 207.65853588 -64.75 205.5625 C-80.54448833 192.28152131 -90.91750853 172.74429014 -92.9375 152.125 C-94.53393796 124.81144248 -89.73745625 97.52054024 -76.9375 73.125 C-77.82477783 73.36404053 -77.82477783 73.36404053 -78.72998047 73.60791016 C-87.33487939 75.62352351 -96.32315839 74.99262476 -103.92578125 70.46875 C-104.92158203 69.80359375 -104.92158203 69.80359375 -105.9375 69.125 C-106.865625 68.5475 -107.79375 67.97 -108.75 67.375 C-115.98597727 59.93228052 -117.39021708 51.75622526 -117.265625 41.7265625 C-116.20456628 30.08017984 -107.56863459 22.95621252 -99.16015625 15.7421875 C-96.44808715 13.49797885 -93.6965643 11.31096489 -90.9375 9.125 C-90.23367187 8.51914063 -89.52984375 7.91328125 -88.8046875 7.2890625 C-64.80272643 -12.87988577 -26.84830418 -17.13721544 0 0 Z " fill="#010101" transform="translate(131.9375,90.875)"/>
<path d="M0 0 C4.54732129 3.77516115 8.80498896 7.84095014 13 12 C14.22396484 13.20462891 14.22396484 13.20462891 15.47265625 14.43359375 C30.49375087 30.14348636 40.0437142 51.35004975 46 72 C46.31759277 73.06226807 46.31759277 73.06226807 46.64160156 74.14599609 C53.37564074 97.26690875 51.97593623 122.00307563 40.33203125 143.234375 C27.80118638 164.44456958 3.73732782 176.0648992 -19 183 C-24.11348918 184.27845448 -29.25589034 185.28958207 -34.4375 186.25 C-35.72720703 186.50523437 -37.01691406 186.76046875 -38.34570312 187.0234375 C-53.07480182 189.82617035 -67.62789076 190.16667717 -82.56225586 190.13037109 C-85.19455667 190.12498556 -87.82668853 190.13036586 -90.45898438 190.13671875 C-127.36120656 190.1523403 -169.5240659 183.16398389 -196.9140625 156.109375 C-212.06574524 139.68948974 -217.70508866 119.88513704 -217.08447266 98.01220703 C-215.69493803 64.91236778 -199.20947242 30.3128167 -175.42773438 7.49121094 C-129.3670104 -34.61894269 -49.85458584 -37.37300608 0 0 Z " fill="#DBAD88" transform="translate(271,126)"/>
<path d="M0 0 C13.48922599 11.21735635 22.78470907 25.64590406 25.59765625 43.16015625 C27.32438299 62.23061721 24.71145293 80.36974041 12.53125 95.7734375 C-3.6760008 114.34835624 -3.6760008 114.34835624 -14.02734375 115.59765625 C-17.40234375 115.16015625 -17.40234375 115.16015625 -19.90234375 113.53515625 C-22.39260354 111.79644812 -22.39260354 111.79644812 -25.40234375 112.91015625 C-26.27052734 113.22339844 -26.27052734 113.22339844 -27.15625 113.54296875 C-32.07800401 114.89538116 -37.32506814 114.87002622 -42.40234375 115.16015625 C-42.46421875 115.75828125 -42.52609375 116.35640625 -42.58984375 116.97265625 C-43.40234375 119.16015625 -43.40234375 119.16015625 -45.6015625 120.93359375 C-51.96590618 123.72076797 -59.30004998 121.03375839 -65.52734375 118.66796875 C-72.8349367 115.69114796 -79.435721 112.39284362 -85.40234375 107.16015625 C-86.04042969 106.67417969 -86.67851562 106.18820313 -87.3359375 105.6875 C-101.85407782 94.16920934 -108.00867099 76.93642376 -110.40234375 59.16015625 C-112.31603983 41.1766561 -105.38015813 23.97517912 -94.40234375 10.16015625 C-93.75136719 9.31066406 -93.10039062 8.46117188 -92.4296875 7.5859375 C-70.06230284 -19.17734935 -26.57552364 -20.45741748 0 0 Z " fill="#010101" transform="translate(486.40234375,16.83984375)"/>
<path d="M0 0 C0.50112305 0.235979 1.00224609 0.47195801 1.51855469 0.71508789 C24.22220894 11.33844176 47.17122911 19.1041507 72 23 C72.34611328 24.2684375 72.34611328 24.2684375 72.69921875 25.5625 C76.16748338 37.62602914 80.54907291 46.07857776 91.65625 52.546875 C100.40149856 56.73142942 109.39559849 57.53380909 118.859375 55.3359375 C129.32041921 51.59985028 136.1662134 44.86554398 141 35 C142.62807153 31.1740319 143.31530984 27.38317182 144.046875 23.30859375 C144.22573242 22.31529053 144.40458984 21.3219873 144.58886719 20.29858398 C144.72454102 19.54005127 144.86021484 18.78151855 145 18 C145.64324219 17.79431396 146.28648437 17.58862793 146.94921875 17.37670898 C168.03131126 10.90828236 168.03131126 10.90828236 187.80078125 1.30078125 C190 0 190 0 192 0 C190.47684792 21.44437804 183.10775002 39.44324342 168 55 C167.38640625 55.68707031 166.7728125 56.37414062 166.140625 57.08203125 C152.39322184 71.97505134 128.45382309 82.99278454 108.20776367 84.16113281 C94.47100045 84.35089454 81.35810367 84.47343157 68 81 C67.13503906 80.80664062 66.27007812 80.61328125 65.37890625 80.4140625 C43.33811982 74.8405303 23.24961413 58.81689775 11 40 C3.5953161 27.39476176 -0.29659257 14.6813323 0 0 Z " fill="#DBAD87" transform="translate(92,342)"/>
<path d="M0 0 C1.49176758 -0.01836914 1.49176758 -0.01836914 3.01367188 -0.03710938 C12.8746591 -0.05653351 23.17265741 1.00919308 30.671875 8.05078125 C37.70632115 15.76832444 37.70632115 15.76832444 37.67578125 21.31640625 C37.21487758 27.53348463 35.78093865 31.22348569 31.16015625 35.55859375 C27.27740878 38.74549359 22.91241688 40.56686109 18.3125 42.5 C17.48105469 42.85900391 16.64960938 43.21800781 15.79296875 43.58789062 C13.76167689 44.46344746 11.72510978 45.3267487 9.6875 46.1875 C9.3575 50.1475 9.0275 54.1075 8.6875 58.1875 C10.729375 57.6925 10.729375 57.6925 12.8125 57.1875 C20.44774952 55.68655351 28.93876858 54.51395919 36.1875 57.75 C42.12563069 63.53967742 46.07663657 67.89335029 47.0625 76.4375 C46.13090378 85.75346217 41.53370614 94.02265852 34.46484375 100.09765625 C28.6050578 104.47160107 22.65586365 107.08004655 15.6875 109.1875 C14.45 109.6 13.2125 110.0125 11.9375 110.4375 C-2.42269996 113.66781083 -16.32677248 110.14243597 -28.80859375 102.875 C-36.07855258 97.97543336 -41.71123612 91.67143861 -44.3125 83.1875 C-45.22118653 76.99800407 -45.40209072 71.21910092 -42.1875 65.6875 C-38.82271172 61.17887434 -35.03230839 57.19329224 -29.3125 56.1875 C-21.00696712 55.6022863 -14.14115624 56.38320523 -6.3125 59.1875 C-6.3125 54.8975 -6.3125 50.6075 -6.3125 46.1875 C-7.50875 45.836875 -8.705 45.48625 -9.9375 45.125 C-14.31314204 43.65717731 -18.4753783 41.82221875 -22.625 39.8125 C-23.79675781 39.24789062 -24.96851563 38.68328125 -26.17578125 38.1015625 C-30.56385133 35.42391077 -33.43430485 31.98208863 -35.3125 27.1875 C-36.31044617 21.01073843 -35.58033947 16.12020653 -31.9375 11.0078125 C-23.00535221 1.00208926 -12.7376232 0.00815991 0 0 Z " fill="#030202" transform="translate(199.3125,176.8125)"/>
<path d="M0 0 C-2.6254784 5.6864627 -5.47215792 10.2071546 -9.625 14.875 C-10.14843994 15.47650879 -10.67187988 16.07801758 -11.21118164 16.69775391 C-14.48151966 20.41505957 -17.88706643 23.92570322 -21.4375 27.375 C-27.95877507 33.7390096 -32.05785176 39.54852449 -32.29272461 48.85180664 C-32.35781418 56.33389326 -32.37106723 62.61251782 -28 69 C-27.525625 69.70511719 -27.05125 70.41023438 -26.5625 71.13671875 C-22.16145735 76.86019008 -16.9487563 80.09611096 -10 82 C-1.50684015 83.08077372 6.65615918 82.67439478 14 78 C19.56477443 73.47369699 24.5885003 68.47689203 29.5625 63.3125 C35.44898556 57.32502082 42.44128699 52.59621588 50 49 C50.99781645 62.83084463 46.56998102 76.37923009 37.484375 86.91796875 C32.21271771 92.50269202 26.54457175 97.01237721 20 101 C18.03177114 102.96822886 18.33751619 106.34808709 18 109 C11.06194818 112.12892533 4.56218722 112.66569599 -3 113 C-3.34933594 111.88882813 -3.69867188 110.77765625 -4.05859375 109.6328125 C-5.45587329 106.38746539 -5.75285686 106.10604687 -9.22265625 104.6171875 C-10.48980469 104.37226562 -11.75695312 104.12734375 -13.0625 103.875 C-26.26110784 100.94654406 -37.84567842 94.45987522 -45.6953125 83.12890625 C-48.09654281 79.21073105 -50.1355682 75.19827728 -52 71 C-52.32226562 70.31550781 -52.64453125 69.63101563 -52.9765625 68.92578125 C-57.51231166 57.79835926 -55.66077007 43.08690365 -52 32 C-45.57124964 17.42816586 -34.21393693 7.72399537 -19.75 1.625 C-13.25118795 -0.63140246 -6.79576885 -0.3571499 0 0 Z " fill="#9DD6B8" transform="translate(447,19)"/>
<path d="M0 0 C1.75 2.4375 1.75 2.4375 3 5 C4.09923541 6.30746709 4.09923541 6.30746709 6.8125 6.3125 C10.1049416 6.33649326 10.1049416 6.33649326 12 3.9375 C14 2 14 2 16.6875 1.875 C24.55837693 4.54812801 30.00316797 8.93343352 33.9609375 16.28515625 C36.01864801 21.66150515 36.22166142 26.8203333 34.14453125 32.2265625 C30.15598741 39.27798131 23.49532568 45.00186973 16 48 C5.96379452 50.4826403 -4.9389638 50.16175431 -14 45 C-19.79056174 41.50552187 -23.07141492 38.09145696 -26 32 C-26.33 31.34 -26.66 30.68 -27 30 C-27.73341148 22.85825546 -27.38936166 16.85248221 -23 11 C-17.28863268 4.57800173 -8.94655691 -0.96883188 0 0 Z " fill="#FEDAD9" transform="translate(109,182)"/>
<path d="M0 0 C8.64873038 0.56404763 17.0900763 4.65764286 23 11 C26.29900827 17.1966163 26.91104432 24.10957283 26 31 C23.8581913 37.92383441 17.74390015 42.93020154 11.59765625 46.328125 C2.41528333 50.2496196 -9.0370299 50.8056758 -18.5 47.4375 C-25.29761754 44.17601684 -31.32340207 39.33917236 -34.37109375 32.30078125 C-35.87291687 26.80653395 -36.15006292 21.04308684 -34.1171875 15.6640625 C-30.19688054 8.88790279 -24.18109934 4.00604158 -17 1 C-16.34 1 -15.68 1 -15 1 C-14.4225 1.825 -13.845 2.65 -13.25 3.5 C-11.21384441 6.28461672 -11.21384441 6.28461672 -8 6.5 C-4.74192075 5.95698679 -3.31873852 5.31873852 -1 3 C-0.67 2.01 -0.34 1.02 0 0 Z " fill="#FEDADA" transform="translate(292,182)"/>
<path d="M0 0 C12.20752123 3.03023577 21.74919501 11.77091584 28.453125 22.27734375 C30.29947263 25.76850106 31 28.00533499 31 32 C30.44054687 32.23332031 29.88109375 32.46664062 29.3046875 32.70703125 C16.95251343 38.32707186 7.01822625 47.44318019 -2.11816406 57.31616211 C-6.38397629 61.81036291 -10.2002353 64.32516179 -16.44140625 65.43359375 C-21.77605147 65.44341814 -24.9050976 64.72263854 -29 61 C-32.55579823 56.74809313 -34.92783179 52.64102402 -34.45703125 46.98046875 C-32.69747517 39.35572572 -26.47240346 34.37546267 -21.08886719 29.13452148 C-12.3380698 20.52825308 -5.44260455 11.04007996 0 0 Z " fill="#76BC99" transform="translate(462,22)"/>
<path d="M0 0 C-1.30806674 3.92420023 -2.71906467 4.19545107 -6.3125 6.125 C-14.16373068 10.54190212 -21.46569785 15.73308091 -28.125 21.8125 C-30.79687099 23.84544532 -32.64856432 24.6986717 -35.75 25.8125 C-44.13907099 28.95996909 -50.17722515 35.22021883 -56.625 41.25 C-62.15738212 46.29285955 -66.79268562 50.36792298 -74.5625 50.25 C-79.31834835 49.43258856 -81.85264262 47.00385827 -84.74609375 43.2578125 C-86.84011343 39.48727238 -86.69791147 37.25725999 -86 33 C-82.33830525 24.16885384 -72.25078628 17.69284707 -65 12 C-64.08734375 11.28199219 -63.1746875 10.56398438 -62.234375 9.82421875 C-43.46691763 -4.4122382 -22.31579067 -7.43859689 0 0 Z " fill="#474E57" transform="translate(116,100)"/>
<path d="M0 0 C5.30840898 3.83946418 10.19025292 8.18770776 15.08496094 12.53466797 C17.75096386 14.88407277 20.4870108 17.15253999 23.21484375 19.4296875 C26.08149375 22.38881009 26.97161125 25.23731007 27.04296875 29.3046875 C26.91468463 33.89273137 25.85513634 36.49735318 22.66796875 39.9296875 C18.31101551 42.35021708 14.62869539 43.84084137 9.66796875 42.9296875 C5.47568079 40.59187045 1.98985708 37.21545174 -1.60546875 34.0703125 C-9.2125075 27.42682503 -16.4476609 21.26314471 -25.95703125 17.4921875 C-29.72292527 15.74871804 -32.14224891 13.59540035 -35.1796875 10.8203125 C-42.45438261 4.43019919 -50.9382939 -0.32539912 -59.33203125 -5.0703125 C-46.48967446 -20.4038288 -13.49149836 -8.49546226 0 0 Z " fill="#474E57" transform="translate(318.33203125,107.0703125)"/>
<path d="M0 0 C4.18180461 2.05410243 7.13467356 4.93964432 10.4375 8.1875 C19.24835273 16.52575053 29.43536156 21.71005734 40.76953125 25.9921875 C43 27 43 27 44 29 C44.084915 30.8863912 44.107193 32.77578515 44.09765625 34.6640625 C44.09443359 35.78554688 44.09121094 36.90703125 44.08789062 38.0625 C44.07532227 39.8259375 44.07532227 39.8259375 44.0625 41.625 C44.05798828 42.80835938 44.05347656 43.99171875 44.04882812 45.2109375 C44.03701467 48.14067507 44.02054258 51.07031272 44 54 C20.8780816 52.58199677 1.76174998 39.88353538 -14.20703125 23.7734375 C-17.62395076 19.75635649 -18.85000178 16.40990774 -18.45703125 11.109375 C-17.49830106 6.68446644 -15.17083177 4.00357009 -11.8125 1.125 C-7.89221781 -0.44311288 -4.16489929 -0.72743104 0 0 Z " fill="#DAAC87" transform="translate(33,300)"/>
<path d="M0 0 C4.38253554 2.19126777 7.16669816 4.41674539 9 9 C9.6931146 13.62076402 9.70600498 16.77194908 7.3359375 20.89453125 C-6.84102668 39.74183313 -27.23758231 51.60305299 -50 57 C-50.66 57 -51.32 57 -52 57 C-51.91914762 52.74921945 -51.80629928 48.499876 -51.6875 44.25 C-51.65366211 42.44015625 -51.65366211 42.44015625 -51.61914062 40.59375 C-51.58369141 39.43359375 -51.54824219 38.2734375 -51.51171875 37.078125 C-51.48553467 36.00981445 -51.45935059 34.94150391 -51.43237305 33.84082031 C-50.94585018 30.64421948 -50.2331617 29.30359417 -48 27 C-46.31762695 25.90673828 -46.31762695 25.90673828 -44.48828125 25.0703125 C-43.81692139 24.75344482 -43.14556152 24.43657715 -42.45385742 24.11010742 C-41.74720947 23.78502197 -41.04056152 23.45993652 -40.3125 23.125 C-30.28223045 18.28199414 -23.20955927 12.43628198 -15.515625 4.390625 C-10.71270003 -0.17364532 -6.47367221 -0.91036015 0 0 Z " fill="#D9AC87" transform="translate(350,297)"/>
<path d="M0 0 C0.52464844 0.17015625 1.04929688 0.3403125 1.58984375 0.515625 C9.95172271 3.13132091 18.46451854 5.04931572 27 7 C30.23210485 19.9048274 23.46191324 35.42080755 16.96533203 46.50195312 C9.33950558 59.00758396 9.33950558 59.00758396 3 61 C-2.90325758 61.677423 -5.83491262 61.05969678 -10.48046875 57.37890625 C-12 56 -12 56 -14.0625 53.6875 C-15.98270379 51.67603615 -15.98270379 51.67603615 -19.25 51.75 C-20.1575 51.8325 -21.065 51.915 -22 52 C-22.05449838 50.27119018 -22.09301688 48.54187288 -22.125 46.8125 C-22.14820312 45.84957031 -22.17140625 44.88664062 -22.1953125 43.89453125 C-21.9913544 40.87187222 -21.26874632 38.73230015 -20 36 C-19.38511719 36.01160156 -18.77023438 36.02320313 -18.13671875 36.03515625 C-16.92435547 36.04869141 -16.92435547 36.04869141 -15.6875 36.0625 C-14.88699219 36.07410156 -14.08648437 36.08570313 -13.26171875 36.09765625 C-10.83138666 36.09657855 -10.83138666 36.09657855 -8 35 C-6.90390567 32.22937897 -6.90390567 32.22937897 -6 29 C-5.58621094 28.05382812 -5.17242187 27.10765625 -4.74609375 26.1328125 C-0.91480646 17.32657007 -0.13353888 9.456981 0 0 Z " fill="#DAAD87" transform="translate(140,432)"/>
<path d="M0 0 C1.9375 1.5 1.9375 1.5 3 4 C3.47332619 10.01518644 2.73589922 15.83470244 1.68652344 21.74511719 C1.54664505 22.56745346 1.40676666 23.38978973 1.26264954 24.23704529 C0.80294004 26.92511485 0.33189585 29.61102999 -0.140625 32.296875 C-0.46757788 34.17771446 -0.79429526 36.05859487 -1.12078857 37.93951416 C-1.8047323 41.86739058 -2.49493772 45.79410821 -3.18896484 49.72021484 C-4.07649323 54.74675554 -4.94298245 59.77667574 -5.80420303 64.80778122 C-6.4715944 68.68724612 -7.15273147 72.5642044 -7.83776093 76.4405899 C-8.16315191 78.29446242 -8.48366041 80.14919892 -8.79914093 82.00478363 C-9.24140005 84.59677819 -9.70273634 87.18468227 -10.16894531 89.77246094 C-10.29482529 90.53515793 -10.42070526 91.29785492 -10.55039978 92.08366394 C-11.40912841 96.70665546 -12.67476818 99.65074325 -16 103 C-18.75417262 103.86605819 -21.19316882 103.60392884 -24 103 C-26.5 101.5 -26.5 101.5 -28 99 C-28.27974447 93.25526131 -27.67257577 87.92564946 -26.68652344 82.27661133 C-26.54664505 81.44466751 -26.40676666 80.61272369 -26.26264954 79.75556946 C-25.8020885 77.02977506 -25.33144809 74.3058539 -24.859375 71.58203125 C-24.53250432 69.67732769 -24.20578552 67.77259806 -23.87921143 65.86784363 C-23.19473091 61.88702222 -22.5045414 57.90723688 -21.81103516 53.92797852 C-20.92410558 48.83289666 -20.05747019 43.73458759 -19.19579697 38.63518238 C-18.52837128 34.70513339 -17.84722786 30.77755283 -17.16223907 26.85053062 C-16.83677461 24.97153958 -16.5162677 23.09168271 -16.20085907 21.21097755 C-15.75862372 18.58298468 -15.29726312 15.95903592 -14.83105469 13.33520508 C-14.64223473 12.17477692 -14.64223473 12.17477692 -14.44960022 10.99090576 C-13.59536325 6.32815072 -12.33626351 3.38768841 -9 0 C-5.8168485 -1.59157575 -3.38676935 -0.77242108 0 0 Z " fill="#000000" transform="translate(451,192)"/>
<path d="M0 0 C5.39422234 5.39422234 3.30498085 17.05148465 3.32128906 24.12426758 C3.22997166 33.70210517 2.2502753 41.97518062 -1 51 C-1.32355469 51.9178125 -1.64710938 52.835625 -1.98046875 53.78125 C-3.84165966 58.46081572 -6.04094316 61.7515431 -10 65 C-14.77364362 66.59121454 -19.15016855 66.79879085 -23.75 64.8125 C-29.67362077 60.04069438 -29.67362077 60.04069438 -30.38671875 55.58203125 C-30.63485381 49.51555676 -29.56346879 44.85621189 -26.97265625 39.38671875 C-24.57175852 33.49535926 -24.87631774 27.37500269 -24.9375 21.125 C-24.94201172 20.24585938 -24.94652344 19.36671875 -24.95117188 18.4609375 C-24.96287663 16.30726197 -24.98080931 14.15362183 -25 12 C-24.49138428 11.77860352 -23.98276855 11.55720703 -23.45874023 11.32910156 C-21.11653067 10.30679504 -18.7770219 9.27844143 -16.4375 8.25 C-15.23770508 7.72792969 -15.23770508 7.72792969 -14.01367188 7.1953125 C-9.15591104 5.05393222 -4.5609258 2.71818934 0 0 Z " fill="#DBAD87" transform="translate(251,423)"/>
<path d="M0 0 C3.76971283 3.55407247 6.27325416 6.78683632 6.8984375 12.02734375 C6.89070313 13.21457031 6.88296875 14.40179688 6.875 15.625 C6.88660156 17.40197266 6.88660156 17.40197266 6.8984375 19.21484375 C6.17341005 25.53395556 3.29028728 29.64236852 -1.5 33.6875 C-7.22067358 37.60769373 -12.63605841 38.7476948 -19.5 37.6875 C-25.7318077 35.82016755 -29.92438474 32.03916099 -33.5 26.6875 C-36.231249 21.10085431 -36.63606579 14.39907856 -34.8125 8.44140625 C-32.26401467 2.82411983 -28.70679824 -0.3082511 -23.5 -3.5625 C-15.43285555 -6.58767917 -6.6374402 -5.62100563 0 0 Z " fill="#F3DD68" transform="translate(214.5,346.3125)"/>
<path d="M0 0 C3.38559435 1.01567831 6.48799091 2.20720896 9.6015625 3.859375 C14.22062424 6.19328366 18.96526439 7.88401599 23.875 9.5 C25.24495117 9.95282349 25.24495117 9.95282349 26.64257812 10.41479492 C35.31679505 13.21377777 44.05008334 15.306531 53 17 C54.09054688 17.21398437 55.18109375 17.42796875 56.3046875 17.6484375 C63.78859695 18.96240634 71.26635938 19.37051141 78.84716797 19.65893555 C83.95388178 19.8565984 88.93719293 20.29505218 94 21 C92.948125 22.0209375 92.948125 22.0209375 91.875 23.0625 C89.83429833 25.11476372 87.85826412 27.20986386 85.9375 29.375 C85.47214844 29.89835937 85.00679688 30.42171875 84.52734375 30.9609375 C82.38464136 33.82152739 80.73403963 36.87499955 79 40 C56.01145082 37.84883688 34.30613416 31.52334351 14.0625 20.3125 C13.41829102 19.95639648 12.77408203 19.60029297 12.11035156 19.23339844 C7.12639232 16.34542206 1.84299047 12.696516 0 7 C-0.0777346 4.66796188 -0.08967728 2.33160941 0 0 Z " fill="#7C97E1" transform="translate(87,310)"/>
<path d="M0 0 C4.08476002 0.36634619 6.23816274 2.77689381 9.125 5.5 C12.30782183 8.61378784 12.30782183 8.61378784 16 11 C13.76718648 17.69844056 3.92989223 22.71759992 -2.125 25.875 C-10.60890632 30.07033829 -18.79721391 31.47451322 -28.1875 31.3125 C-29.13302734 31.31572266 -30.07855469 31.31894531 -31.05273438 31.32226562 C-37.37957251 31.27376721 -42.98039554 30.93564388 -48.4375 27.4375 C-50.44014472 24.31337424 -50.56170453 21.96230371 -50.7265625 18.31640625 C-49.83083965 15.46068771 -48.45027173 13.77240792 -46.07763672 11.95727539 C-41.60943017 9.89854003 -36.55020703 10.67520902 -31.75 10.9375 C-21.32166179 11.47818261 -12.81272074 10.61408845 -4.4375 3.8125 C-3.47650391 3.04873047 -3.47650391 3.04873047 -2.49609375 2.26953125 C-1.05152269 1.07873848 -1.05152269 1.07873848 0 0 Z " fill="#474E57" transform="translate(102,407)"/>
<path d="M0 0 C0.84175781 0.00515625 1.68351563 0.0103125 2.55078125 0.015625 C3.37964844 0.01046875 4.20851562 0.0053125 5.0625 0 C7.86328125 0.265625 7.86328125 0.265625 11.0859375 1.265625 C15.69482728 2.48576542 19.87106382 2.56586416 24.61328125 2.515625 C25.94117676 2.50982422 25.94117676 2.50982422 27.29589844 2.50390625 C32.88052605 2.43012768 38.13112124 1.91738639 43.59765625 0.72265625 C47.78218753 -0.12146472 52.017278 -0.68534637 55.92578125 1.328125 C57.55838861 4.7021802 56.91296925 6.70834901 55.86328125 10.265625 C51.18357307 18.06012287 43.02776036 22.68376022 34.3515625 24.91015625 C22.5438468 26.59697278 12.51979789 24.73986473 2.77734375 17.8203125 C-0.2413786 15.36837067 -2.40372904 12.73160443 -4.13671875 9.265625 C-4.32421875 5.765625 -4.32421875 5.765625 -4.13671875 2.265625 C-2.13671875 0.265625 -2.13671875 0.265625 0 0 Z " fill="#CD6081" transform="translate(174.13671875,247.734375)"/>
<path d="M0 0 C0.46033307 5.75416341 -0.24665031 8.58981411 -4 13 C-9.08481464 17.34133922 -14.5169777 20.57140204 -20.5625 23.375 C-21.36171875 23.75003662 -22.1609375 24.12507324 -22.984375 24.51147461 C-48.15361662 36 -48.15361662 36 -57 36 C-58.60546875 34.3203125 -58.60546875 34.3203125 -60.1875 32.125 C-60.71730469 31.40570313 -61.24710938 30.68640625 -61.79296875 29.9453125 C-63 28 -63 28 -63 26 C-63.556875 25.731875 -64.11375 25.46375 -64.6875 25.1875 C-67.21225334 23.89100504 -69.63714484 22.57523677 -72 21 C-72 20.34 -72 19.68 -72 19 C-71.4237085 18.94054199 -70.84741699 18.88108398 -70.25366211 18.81982422 C-47.368156 16.36949792 -24.46463457 11.64332692 -3.87768555 0.89160156 C-2 0 -2 0 0 0 Z " fill="#7B95DF" transform="translate(289,310)"/>
<path d="M0 0 C6.26801359 2.76816943 9.6731091 8.05089438 12.8828125 13.88671875 C13.82923089 17.67239231 13.94393345 20.46163022 13.5078125 24.38671875 C10.93408866 27.41462916 9.35534656 28.24834584 5.4453125 28.88671875 C2.5078125 28.38671875 2.5078125 28.38671875 0.2578125 26.94921875 C-2.26828018 23.25029733 -2.71560445 19.78735602 -3.4921875 15.38671875 C-7.1221875 15.38671875 -10.7521875 15.38671875 -14.4921875 15.38671875 C-14.7396875 16.78921875 -14.9871875 18.19171875 -15.2421875 19.63671875 C-15.91936531 22.60229052 -16.48652286 24.37811689 -18.1796875 26.94921875 C-21.49023087 29.00712409 -23.67071541 28.93264333 -27.4921875 28.38671875 C-29.9296875 26.88671875 -29.9296875 26.88671875 -31.4921875 24.38671875 C-32.56803975 17.45344868 -30.48214667 12.09074153 -26.4921875 6.38671875 C-18.78117754 -0.91146467 -10.46732134 -2.57581419 0 0 Z " fill="#060504" transform="translate(278.4921875,160.61328125)"/>
<path d="M0 0 C5.1744207 3.0740216 9.2781099 7.87189502 11.5625 13.4375 C12.19467317 18.02443094 12.41192193 22.06535688 9.9375 26.0625 C6.83345134 27.85958081 5.09593747 28.02640625 1.5625 27.4375 C-2.26948053 24.8098562 -3.41308634 21.39369531 -4.82421875 17.14453125 C-5.30342828 15.42944384 -5.30342828 15.42944384 -6.4375 14.4375 C-10.45407143 14.20831758 -10.45407143 14.20831758 -14.4375 14.4375 C-17.09934973 17.09934973 -17.54598803 19.77937787 -18.55859375 23.34375 C-19.4375 25.4375 -19.4375 25.4375 -22.4375 27.4375 C-25.90317407 27.87992648 -27.76964537 27.82415268 -30.8125 26.0625 C-33.3652464 21.93883273 -33.24644507 18.1492502 -32.4375 13.4375 C-30.08200825 7.51750303 -25.64609282 3.0045221 -20.4375 -0.5625 C-14.1386886 -2.6621038 -6.11504343 -2.77310109 0 0 Z " fill="#030302" transform="translate(141.4375,161.5625)"/>
<path d="M0 0 C4.10703441 0.85563217 5.55401113 2.24378009 8 5.625 C8.38025958 11.04581153 7.5670467 16.13544212 6.609375 21.4453125 C6.46348938 22.26699921 6.31760376 23.08868591 6.16729736 23.93527222 C5.85788255 25.66204156 5.5450617 27.38820372 5.22900391 29.11376953 C4.75062713 31.74654854 4.29495348 34.38264412 3.83984375 37.01953125 C3.53524082 38.70337643 3.22929661 40.38697965 2.921875 42.0703125 C2.78940369 42.85375031 2.65693237 43.63718811 2.52044678 44.44436646 C1.63124209 49.1358401 0.48657242 52.14596702 -3 55.625 C-5.4375 56.625 -5.4375 56.625 -8 56.625 C-11.48634601 55.00344371 -12.84302194 53.86046708 -15 50.625 C-15.27870695 41.78720268 -13.17507402 32.5855092 -11.63574219 23.89526367 C-11.37666319 22.41244635 -11.12678777 20.92799404 -10.88574219 19.44213867 C-10.53187108 17.26096681 -10.15187637 15.08579896 -9.765625 12.91015625 C-9.54680664 11.63019775 -9.32798828 10.35023926 -9.10253906 9.03149414 C-7.51875624 4.13811024 -5.13832755 1.07048491 0 0 Z " fill="#000000" transform="translate(396,148.375)"/>
<path d="M0 0 C3.38184785 1.01455436 6.48045356 2.20382299 9.58984375 3.85546875 C14.27023607 6.22092076 19.08800896 7.92388186 24.0625 9.5625 C24.97410889 9.86551025 25.88571777 10.16852051 26.82495117 10.48071289 C34.46456918 12.95580176 42.07361189 14.7215503 50 16 C49.01 16.495 49.01 16.495 48 17 C48.495 25.415 48.495 25.415 49 34 C36.73379837 30.93344959 25.24582849 26.53706717 14.1875 20.375 C13.53652344 20.015271 12.88554688 19.65554199 12.21484375 19.28491211 C7.17747714 16.37533021 1.86333054 12.75938529 0 7 C-0.0777346 4.66796188 -0.08967728 2.33160941 0 0 Z " fill="#5C75BB" transform="translate(87,310)"/>
<path d="M0 0 C1.0725 -0.020625 2.145 -0.04125 3.25 -0.0625 C10.21124197 -0.09679183 15.73137622 0.18539219 21.1875 4.9375 C21.7134375 5.5871875 21.7134375 5.5871875 22.25 6.25 C21.30569829 8.55317491 20.68592596 9.96484209 18.57348633 11.34667969 C17.91630615 11.61899414 17.25912598 11.89130859 16.58203125 12.171875 C15.85306641 12.47480469 15.12410156 12.77773437 14.37304688 13.08984375 C13.22932617 13.54037109 13.22932617 13.54037109 12.0625 14 C11.31935547 14.31582031 10.57621094 14.63164062 9.81054688 14.95703125 C3.58748361 17.4767992 -1.46120917 18.24490558 -7.8984375 15.859375 C-9.31314825 15.25307039 -10.72203658 14.63301296 -12.125 14 C-12.84816406 13.69964844 -13.57132813 13.39929688 -14.31640625 13.08984375 C-16.3984375 12.171875 -16.3984375 12.171875 -19.75 10.25 C-20.45947266 8.12988281 -20.45947266 8.12988281 -20.75 6.25 C-13.77975955 0.20912494 -9.12659586 0.04325401 0 0 Z " fill="#474E57" transform="translate(199.75,191.75)"/>
<path d="M0 0 C1.03318359 -0.01611328 2.06636719 -0.03222656 3.13085938 -0.04882812 C9.65702666 -0.05296123 15.02966917 0.79238432 21.0625 3.3125 C16.76014064 8.30323685 11.44094444 10.26204402 5.0625 11.3125 C-5.40587966 12.08245155 -14.47882798 10.76780233 -22.9375 4.3125 C-15.97747585 -0.3275161 -8.08567426 -0.0251264 0 0 Z " fill="#E29292" transform="translate(200.9375,261.6875)"/>
<path d="M0 0 C1.299375 0.4125 2.59875 0.825 3.9375 1.25 C11.5299677 3.53979185 19.27281596 5.23404263 27 7 C27.38218767 8.65614657 27.71395102 10.32457024 28 12 C27 13 27 13 25.2421875 13.0546875 C17.02932102 12.43126859 9.68812371 9.77797537 2 7 C1.34 7.66 0.68 8.32 0 9 C0 6.03 0 3.06 0 0 Z " fill="#C79D7B" transform="translate(140,432)"/>
<path d="M0 0 C2 2 2 2 2.109375 4.36328125 C0.38338701 8.46554143 -2.83052598 9.41752626 -6.75 11.1875 C-7.82507813 11.70086914 -7.82507813 11.70086914 -8.921875 12.22460938 C-10.93639714 13.17817454 -12.96253165 14.09668631 -15 15 C-15.93714844 15.41636719 -16.87429687 15.83273437 -17.83984375 16.26171875 C-20.55594558 17.19000672 -22.27779049 16.77777415 -25 16 C-25 14.68 -25 13.36 -25 12 C-24.49138428 11.77860352 -23.98276855 11.55720703 -23.45874023 11.32910156 C-21.11653067 10.30679504 -18.7770219 9.27844143 -16.4375 8.25 C-15.23770508 7.72792969 -15.23770508 7.72792969 -14.01367188 7.1953125 C-9.15591104 5.05393222 -4.5609258 2.71818934 0 0 Z " fill="#C89E7C" transform="translate(251,423)"/>
<path d="M0 0 C1.9375 0.375 1.9375 0.375 4 1 C5.3308911 3.66178221 5.11268993 5.68739396 5.09765625 8.6640625 C5.09443359 9.78554688 5.09121094 10.90703125 5.08789062 12.0625 C5.07951172 13.238125 5.07113281 14.41375 5.0625 15.625 C5.05798828 16.80835938 5.05347656 17.99171875 5.04882812 19.2109375 C5.03701467 22.14067507 5.02054258 25.07031272 5 28 C3.02 28 1.04 28 -1 28 C-1.02898097 23.89584811 -1.0467922 19.79172247 -1.0625 15.6875 C-1.07087891 14.52025391 -1.07925781 13.35300781 -1.08789062 12.15039062 C-1.09111328 11.03212891 -1.09433594 9.91386719 -1.09765625 8.76171875 C-1.10289307 7.73006592 -1.10812988 6.69841309 -1.11352539 5.63549805 C-1 3 -1 3 0 0 Z " fill="#CCA17F" transform="translate(72,326)"/>
</svg>
