<?xml version="1.0" encoding="UTF-8"?>
<svg version="1.1" xmlns="http://www.w3.org/2000/svg" width="512" height="512">
<path d="M0 0 C1.11963764 -0.00779995 2.23927528 -0.01559991 3.39284134 -0.02363622 C7.15252632 -0.04361355 10.91120556 -0.02776793 14.67089844 -0.01205444 C17.3630266 -0.01882801 20.05508497 -0.02754836 22.74719238 -0.03860474 C29.30490308 -0.06084455 35.86232774 -0.05603281 42.42004967 -0.04154153 C47.74933597 -0.03025214 53.07854208 -0.02871707 58.40783691 -0.03416061 C59.54532879 -0.03530986 59.54532879 -0.03530986 60.70580029 -0.03648233 C62.24630199 -0.03808094 63.78680367 -0.03970201 65.32730532 -0.04134528 C79.77453711 -0.05560495 94.22161031 -0.0392067 108.66881609 -0.01234345 C121.06672505 0.00999557 133.46439995 0.00611551 145.86230469 -0.01693726 C160.25762664 -0.04369147 174.65280958 -0.05423164 189.04815292 -0.03887594 C190.58300525 -0.03728318 192.11785759 -0.03571133 193.65270996 -0.03416061 C194.78549153 -0.03300355 194.78549153 -0.03300355 195.94115758 -0.03182311 C201.26439452 -0.02750495 206.58754331 -0.0347951 211.9107666 -0.04655838 C218.39757525 -0.06057777 224.88408137 -0.05679559 231.37085533 -0.03015466 C234.68099381 -0.01700836 237.99052317 -0.01456578 241.30067444 -0.02840042 C244.88780584 -0.04201303 248.47350722 -0.0249891 252.06054688 0 C253.63276442 -0.01673041 253.63276442 -0.01673041 255.23674393 -0.03379881 C259.97879245 0.03051919 262.28162365 0.07924597 266.17661953 2.97023869 C268.56123673 6.39819285 268.65814589 8.49708236 268.66137695 12.65664673 C268.67210991 13.68685944 268.67210991 13.68685944 268.68305969 14.73788452 C268.69990285 16.99721775 268.68057549 19.25455437 268.65917969 21.51382446 C268.66000871 23.08893497 268.66246937 24.6640454 268.66648865 26.239151 C268.66934348 29.53532038 268.65467562 32.83080904 268.62719727 36.12686157 C268.59308603 40.34952715 268.59914444 44.5709781 268.61785984 48.79370213 C268.62843249 52.04429736 268.61949027 55.29461037 268.60447502 58.54517937 C268.59929652 60.10208231 268.59977102 61.65901476 268.60601997 63.21591377 C268.61147691 65.39211468 268.59108708 67.56658108 268.5637207 69.74258423 C268.55442284 71.59860008 268.55442284 71.59860008 268.54493713 73.49211121 C267.93657686 77.20707876 266.95652396 78.35211448 264.03027344 80.63491821 C261.50551882 81.89729552 259.71826878 81.73348226 256.90527344 81.69741821 C255.54015625 81.68388306 255.54015625 81.68388306 254.14746094 81.67007446 C253.09945312 81.65267212 253.09945312 81.65267212 252.03027344 81.63491821 C252.03217204 82.26184232 252.03407064 82.88876643 252.03602678 83.53468823 C252.1478525 120.66935289 252.23367345 157.80399269 252.28560008 194.93879117 C252.29185382 199.3949549 252.29832541 203.85111828 252.30493164 208.30728149 C252.30624319 209.19444484 252.30755474 210.08160819 252.30890604 210.99565527 C252.33067841 225.37132755 252.37010998 239.74690013 252.41603742 254.1225132 C252.46275117 268.8669281 252.49055806 283.61129068 252.50071591 298.35577655 C252.50758565 307.45817329 252.52930343 316.56028825 252.56985577 325.66259828 C252.59623147 331.89954391 252.60428623 338.13634331 252.59778032 344.3733407 C252.59456929 347.97495358 252.59958263 351.57607319 252.62630081 355.17759895 C252.65502665 359.07812769 252.6452473 362.97800834 252.63154602 366.87863159 C252.64611023 368.02259187 252.66067443 369.16655215 252.67567998 370.34517789 C252.60420447 377.83023502 252.60420447 377.83023502 250.10237408 381.33794022 C245.75832917 383.17190704 241.94970909 383.18800961 237.27539062 383.14285278 C235.79194468 383.15221273 235.79194468 383.15221273 234.27853012 383.16176176 C230.96116114 383.17773004 227.64452301 383.1650721 224.32714844 383.15249634 C221.95031302 383.15791573 219.57348095 383.16503735 217.19665527 383.17373657 C211.40899199 383.19009775 205.62156136 383.18768212 199.83389091 383.17608601 C195.13008802 383.16705176 190.42634327 383.16582763 185.72253418 383.17018127 C184.71825965 383.17110067 184.71825965 383.17110067 183.69369674 383.17203864 C182.33357905 383.17331755 180.97346137 383.1746144 179.61334372 383.17592901 C166.86005278 383.18733469 154.10687686 383.17422134 141.35360479 383.15272754 C130.41113466 383.13485653 119.46883426 383.13796064 108.52636719 383.15640259 C95.81866282 383.17780956 83.11105926 383.18623606 70.40333939 383.17395353 C69.0482305 383.17267934 67.69312161 383.17142186 66.3380127 383.17018127 C65.67127651 383.16956417 65.00454032 383.16894707 64.31760001 383.16831127 C59.61954564 383.16485784 54.92155521 383.17068654 50.22351074 383.18009949 C43.9000533 383.19163914 37.57691695 383.18366629 31.25349426 383.16052246 C28.93028802 383.15522535 26.60705484 383.15676617 24.28385925 383.16557312 C21.1172579 383.17647217 17.95169132 383.16283234 14.78515625 383.14285278 C13.39970423 383.15623711 13.39970423 383.15623711 11.98626328 383.16989183 C8.193316 383.1233377 5.47779878 382.82385425 1.9581728 381.33794022 C-1.22721171 376.87185418 -0.63905823 372.22440092 -0.57099915 366.87863159 C-0.57527127 365.66239884 -0.57954339 364.44616609 -0.58394498 363.1930778 C-0.59076517 359.81530841 -0.5751116 356.43898277 -0.55005467 353.06138778 C-0.52848524 349.41997907 -0.53576759 345.77861586 -0.53956604 342.13716125 C-0.54218927 335.82760271 -0.52648672 329.51830247 -0.49837685 323.2088089 C-0.4577612 314.08635839 -0.44472163 304.96403293 -0.43843689 295.8415018 C-0.42749064 281.04128723 -0.39420755 266.24121035 -0.34692383 251.44107056 C-0.30103675 237.06314788 -0.26564068 222.6852626 -0.24438477 208.30728149 C-0.24307115 207.4211947 -0.24175753 206.53510791 -0.24040411 205.62217 C-0.23387897 201.17698361 -0.22756042 196.73179696 -0.22134459 192.28661013 C-0.16950132 155.40261559 -0.08142709 118.51877762 0.03027344 81.63491821 C-0.65607178 81.65087036 -1.34241699 81.66682251 -2.04956055 81.68325806 C-2.95005127 81.69566528 -3.85054199 81.70807251 -4.77832031 81.72085571 C-5.67091553 81.73680786 -6.56351074 81.75276001 -7.4831543 81.76919556 C-10.67619662 81.59676814 -12.53205267 80.67941889 -14.96972656 78.63491821 C-16.41664555 75.74108024 -16.12911311 73.20286073 -16.16259766 69.96963501 C-16.17077515 69.28487091 -16.17895264 68.60010681 -16.18737793 67.89459229 C-16.21222604 65.62444942 -16.22874656 63.35436906 -16.24316406 61.08413696 C-16.24848774 60.30889994 -16.25381142 59.53366291 -16.25929642 58.73493385 C-16.28602585 54.63137424 -16.3054011 50.52784503 -16.31982422 46.42422485 C-16.33646934 42.1870265 -16.38124547 37.95060637 -16.43219566 33.7137022 C-16.46586311 30.45457574 -16.47740101 27.19563411 -16.4830513 23.93634987 C-16.48976556 22.37462226 -16.50499244 20.81290689 -16.52894211 19.2513485 C-16.5605883 17.06305037 -16.56063285 14.87685217 -16.55322266 12.68838501 C-16.56130951 11.4442131 -16.56939636 10.2000412 -16.57772827 8.91816711 C-14.86689112 -0.32046513 -7.76768378 -0.08265813 0 0 Z " fill="#F0F1F1" transform="translate(129.9697265625,64.36508178710938)"/>
<path d="M0 0 C1.11963764 -0.00779995 2.23927528 -0.01559991 3.39284134 -0.02363622 C7.15252632 -0.04361355 10.91120556 -0.02776793 14.67089844 -0.01205444 C17.3630266 -0.01882801 20.05508497 -0.02754836 22.74719238 -0.03860474 C29.30490308 -0.06084455 35.86232774 -0.05603281 42.42004967 -0.04154153 C47.74933597 -0.03025214 53.07854208 -0.02871707 58.40783691 -0.03416061 C59.54532879 -0.03530986 59.54532879 -0.03530986 60.70580029 -0.03648233 C62.24630199 -0.03808094 63.78680367 -0.03970201 65.32730532 -0.04134528 C79.77453711 -0.05560495 94.22161031 -0.0392067 108.66881609 -0.01234345 C121.06672505 0.00999557 133.46439995 0.00611551 145.86230469 -0.01693726 C160.25762664 -0.04369147 174.65280958 -0.05423164 189.04815292 -0.03887594 C190.58300525 -0.03728318 192.11785759 -0.03571133 193.65270996 -0.03416061 C194.78549153 -0.03300355 194.78549153 -0.03300355 195.94115758 -0.03182311 C201.26439452 -0.02750495 206.58754331 -0.0347951 211.9107666 -0.04655838 C218.39757525 -0.06057777 224.88408137 -0.05679559 231.37085533 -0.03015466 C234.68099381 -0.01700836 237.99052317 -0.01456578 241.30067444 -0.02840042 C244.88780584 -0.04201303 248.47350722 -0.0249891 252.06054688 0 C253.63276442 -0.01673041 253.63276442 -0.01673041 255.23674393 -0.03379881 C259.97879245 0.03051919 262.28162365 0.07924597 266.17661953 2.97023869 C268.56123673 6.39819285 268.65814589 8.49708236 268.66137695 12.65664673 C268.67210991 13.68685944 268.67210991 13.68685944 268.68305969 14.73788452 C268.69990285 16.99721775 268.68057549 19.25455437 268.65917969 21.51382446 C268.66000871 23.08893497 268.66246937 24.6640454 268.66648865 26.239151 C268.66934348 29.53532038 268.65467562 32.83080904 268.62719727 36.12686157 C268.59308603 40.34952715 268.59914444 44.5709781 268.61785984 48.79370213 C268.62843249 52.04429736 268.61949027 55.29461037 268.60447502 58.54517937 C268.59929652 60.10208231 268.59977102 61.65901476 268.60601997 63.21591377 C268.61147691 65.39211468 268.59108708 67.56658108 268.5637207 69.74258423 C268.55442284 71.59860008 268.55442284 71.59860008 268.54493713 73.49211121 C267.93657686 77.20707876 266.95652396 78.35211448 264.03027344 80.63491821 C261.50035793 81.89987597 259.76295575 81.75794432 256.9303894 81.75517273 C255.31074783 81.75723473 255.31074783 81.75723473 253.65838623 81.75933838 C252.46868225 81.7557431 251.27897827 81.75214783 250.05322266 81.7484436 C248.18009903 81.74866264 248.18009903 81.74866264 246.26913452 81.74888611 C242.8395868 81.74830773 239.41009886 81.7432834 235.98056173 81.73631215 C232.39843006 81.73007199 228.81629764 81.72947429 225.23416138 81.72828674 C218.44852093 81.72517539 211.66289655 81.71696462 204.87726319 81.70693725 C195.70949947 81.69368304 186.54173138 81.68827463 177.37396049 81.68243504 C162.92605277 81.67302461 148.47817895 81.65310439 134.03027344 81.63491821 C134.36027344 115.29491821 134.69027344 148.95491821 135.03027344 183.63491821 C136.35027344 183.30491821 137.67027344 182.97491821 139.03027344 182.63491821 C141.09114917 182.54308365 143.15485873 182.50489284 145.21777344 182.50991821 C146.28382813 182.50734009 147.34988281 182.50476196 148.44824219 182.50210571 C151.03027344 182.63491821 151.03027344 182.63491821 152.03027344 183.63491821 C152.44933442 187.32265489 152.46766296 189.04670472 150.21777344 192.07241821 C149.49589844 192.91804321 148.77402344 193.76366821 148.03027344 194.63491821 C144.95536502 200.23564426 144.00353393 205.27107054 145.03027344 211.63491821 C146.71370792 216.30393095 148.42533441 219.66594206 152.74121094 222.27163696 C156.3062626 223.74931277 159.77077329 224.64645578 163.53027344 225.50991821 C171.13711292 227.41508448 174.5703438 229.46290367 179.40527344 235.69741821 C182.01592471 240.67840977 181.65305395 246.18179129 181.03027344 251.63491821 C178.9976267 257.5188956 175.15170653 261.22062949 170.03027344 264.63491821 C171.14144531 264.66069946 172.25261719 264.68648071 173.39746094 264.71304321 C192.20013688 265.34529694 192.20013688 265.34529694 198.67089844 271.09194946 C203.81510074 276.93091472 204.53250747 281.76505945 204.41308594 289.36538696 C203.69707302 295.48072178 200.80317507 298.98865241 196.40527344 303.07241821 C194.03027344 304.63491821 194.03027344 304.63491821 191.03027344 305.63491821 C191.66006104 305.64950073 192.28984863 305.66408325 192.9387207 305.67910767 C195.82398665 305.75410815 198.70816066 305.8505946 201.59277344 305.94741821 C202.58341797 305.96997681 203.5740625 305.9925354 204.59472656 306.01577759 C211.50741345 306.2684007 216.85523864 306.81266506 222.20996094 311.57241821 C222.76941406 312.25304321 223.32886719 312.93366821 223.90527344 313.63491821 C224.48019531 314.31554321 225.05511719 314.99616821 225.64746094 315.69741821 C229.01960451 320.42222954 228.55486795 326.08486031 228.03027344 331.63491821 C226.23556277 338.33364721 221.86207244 342.17415864 216.03027344 345.63491821 C212.53958754 346.79848018 209.80259431 346.76968933 206.11763 346.78208923 C205.41017315 346.78576592 204.70271629 346.78944261 203.97382134 346.79323071 C201.59720496 346.80426606 199.22063231 346.80811115 196.84399414 346.81192017 C195.14226645 346.81818498 193.44054013 346.82483179 191.73881531 346.83183289 C186.14457146 346.85287516 180.55032734 346.86323603 174.95605469 346.87319946 C173.02986321 346.87724708 171.10367188 346.881364 169.1774807 346.88554955 C160.12726235 346.90460228 151.07705217 346.91883264 142.02681762 346.92716151 C131.58268841 346.93693199 121.13877125 346.96324622 110.69471675 347.00366241 C102.62071088 347.0338338 94.54676574 347.0486314 86.47270459 347.05194253 C81.65121028 347.05429203 76.82994248 347.06323935 72.00850868 347.0884037 C67.47026412 347.11170704 62.93239483 347.11590858 58.39410591 347.10564232 C56.73167929 347.10514738 55.06923406 347.1114554 53.40686417 347.12519836 C35.94572094 347.26143257 35.94572094 347.26143257 29.53011036 341.22293568 C24.62641401 335.78179986 23.50770618 330.53608307 23.65136719 323.42007446 C24.45036378 317.54703769 27.80222518 313.51721806 32.15527344 309.69741821 C36.34452286 306.6920871 39.40435661 306.47827304 44.44824219 306.31851196 C45.70185547 306.27661743 46.95546875 306.2347229 48.24707031 306.19155884 C49.55740234 306.15224243 50.86773437 306.11292603 52.21777344 306.07241821 C53.55307322 306.02920829 54.88835996 305.98559321 56.22363281 305.94155884 C59.49240641 305.8353532 62.76125677 305.73330824 66.03027344 305.63491821 C64.63035156 304.73579712 64.63035156 304.73579712 63.20214844 303.81851196 C58.35573968 300.48212958 54.52772197 296.48858065 53.03027344 290.63491821 C52.21599418 284.12068418 53.16532957 279.00289581 57.03027344 273.63491821 C63.53744339 266.68057307 69.58579808 265.34126409 78.84277344 265.00991821 C79.72642578 264.97124634 80.61007813 264.93257446 81.52050781 264.89273071 C83.69010315 264.79891037 85.86015891 264.71584496 88.03027344 264.63491821 C87.08796875 264.03808228 86.14566406 263.44124634 85.17480469 262.82632446 C80.89489361 259.84367836 78.67219877 256.56069421 77.03027344 251.63491821 C76.3044291 244.63570498 76.34840533 239.05584451 80.59277344 233.25601196 C84.87253058 228.4296554 88.18498657 226.58862755 94.53808594 226.19155884 C95.23675781 226.15224243 95.93542969 226.11292603 96.65527344 226.07241821 C97.36167969 226.02923462 98.06808594 225.98605103 98.79589844 225.94155884 C100.54045881 225.83547071 102.2853404 225.73468932 104.03027344 225.63491821 C104.05605469 224.65651978 104.08183594 223.67812134 104.10839844 222.67007446 C104.67667113 209.53522612 107.68375387 201.98143778 117.03027344 192.63491821 C117.1379517 191.19322358 117.17708296 189.74633963 117.18849182 188.30067444 C117.19828064 187.36532867 117.20806946 186.42998291 117.21815491 185.46629333 C117.22391037 184.43195663 117.22966583 183.39761993 117.2355957 182.3319397 C117.2454953 181.24914734 117.2553949 180.16635498 117.26559448 179.05075073 C117.29731756 175.45252713 117.32200947 171.85429029 117.34667969 168.25601196 C117.36723989 165.76879014 117.3882361 163.28157189 117.40965271 160.7943573 C117.45930826 154.90473933 117.50454846 149.01510024 117.54767507 143.12543112 C117.60184243 135.76462401 117.66281948 128.40387603 117.72363281 121.04312134 C117.83133222 107.90709382 117.93294009 94.77102642 118.03027344 81.63491821 C117.37520467 81.63768359 116.7201359 81.64044897 116.04521656 81.64329815 C100.10414675 81.70955825 84.16312486 81.75919888 68.22195148 81.79035473 C60.51290758 81.80582203 52.8039556 81.82690887 45.0949707 81.86123657 C38.37562457 81.89114319 31.65634502 81.91049422 24.93693417 81.9171837 C21.37920621 81.92109384 17.82166874 81.93028018 14.26400185 81.95210838 C10.29193177 81.97628138 6.32004787 81.97688738 2.34790039 81.97549438 C1.16898224 81.98628021 -0.00993591 81.99706604 -1.22457886 82.00817871 C-2.3084639 82.00405472 -3.39234894 81.99993073 -4.50907898 81.99568176 C-5.44838603 81.99844714 -6.38769308 82.00121252 -7.35546398 82.0040617 C-10.51126021 81.55845167 -12.39924449 80.48934698 -14.96972656 78.63491821 C-16.41664555 75.74108024 -16.12911311 73.20286073 -16.16259766 69.96963501 C-16.17077515 69.28487091 -16.17895264 68.60010681 -16.18737793 67.89459229 C-16.21222604 65.62444942 -16.22874656 63.35436906 -16.24316406 61.08413696 C-16.24848774 60.30889994 -16.25381142 59.53366291 -16.25929642 58.73493385 C-16.28602585 54.63137424 -16.3054011 50.52784503 -16.31982422 46.42422485 C-16.33646934 42.1870265 -16.38124547 37.95060637 -16.43219566 33.7137022 C-16.46586311 30.45457574 -16.47740101 27.19563411 -16.4830513 23.93634987 C-16.48976556 22.37462226 -16.50499244 20.81290689 -16.52894211 19.2513485 C-16.5605883 17.06305037 -16.56063285 14.87685217 -16.55322266 12.68838501 C-16.56130951 11.4442131 -16.56939636 10.2000412 -16.57772827 8.91816711 C-14.86689112 -0.32046513 -7.76768378 -0.08265813 0 0 Z " fill="#E5384F" transform="translate(129.9697265625,64.36508178710938)"/>
<path d="M0 0 C1 1 1 1 1.3125 3.75 C0.92578517 7.77183421 -0.41083758 8.96698117 -3 12 C-6.07490842 17.60072605 -7.0267395 22.63615233 -6 29 C-4.31656552 33.66901273 -2.60493903 37.03102384 1.7109375 39.63671875 C5.27598916 41.11439456 8.74049986 42.01153757 12.5 42.875 C20.10683948 44.78016627 23.54007036 46.82798546 28.375 53.0625 C30.98565127 58.04349155 30.62278051 63.54687308 30 69 C27.96735327 74.88397739 24.12143309 78.58571127 19 82 C20.11117187 82.02578125 21.22234375 82.0515625 22.3671875 82.078125 C41.16986344 82.71037872 41.16986344 82.71037872 47.640625 88.45703125 C52.7848273 94.2959965 53.50223403 99.13014124 53.3828125 106.73046875 C52.66679958 112.84580357 49.77290163 116.3537342 45.375 120.4375 C43 122 43 122 40 123 C40.6297876 123.01458252 41.2595752 123.02916504 41.90844727 123.04418945 C44.79371321 123.11918994 47.67788723 123.21567639 50.5625 123.3125 C51.55314453 123.33505859 52.54378906 123.35761719 53.56445312 123.38085938 C60.47714001 123.63348248 65.8249652 124.17774684 71.1796875 128.9375 C71.73914063 129.618125 72.29859375 130.29875 72.875 131 C73.44992187 131.680625 74.02484375 132.36125 74.6171875 133.0625 C77.98933107 137.78731133 77.52459451 143.44994209 77 149 C75.20528933 155.698729 70.83179901 159.53924043 65 163 C61.5093141 164.16356197 58.77232088 164.13477112 55.08735657 164.14717102 C54.37989971 164.15084771 53.67244285 164.1545244 52.9435479 164.1583125 C50.56693152 164.16934785 48.19035887 164.17319293 45.8137207 164.17700195 C44.11199301 164.18326677 42.41026669 164.18991358 40.70854187 164.19691467 C35.11429802 164.21795694 29.5200539 164.22831782 23.92578125 164.23828125 C21.99958977 164.24232887 20.07339844 164.24644579 18.14720726 164.25063133 C9.09698892 164.26968406 0.04677873 164.28391443 -9.00345582 164.2922433 C-19.44758503 164.30201377 -29.89150219 164.32832801 -40.33555669 164.36874419 C-48.40956256 164.39891559 -56.4835077 164.41371319 -64.55756885 164.41702431 C-69.37906316 164.41937381 -74.20033096 164.42832113 -79.02176476 164.45348549 C-83.56000932 164.47678883 -88.09787861 164.48099037 -92.63616753 164.47072411 C-94.29859415 164.47022917 -95.96103938 164.47653718 -97.62340927 164.49028015 C-115.0845525 164.62651436 -115.0845525 164.62651436 -121.50016308 158.58801746 C-126.40385942 153.14688165 -127.52256726 147.90116486 -127.37890625 140.78515625 C-126.57990966 134.91211947 -123.22804826 130.88229985 -118.875 127.0625 C-114.68575058 124.05716889 -111.62591683 123.84335483 -106.58203125 123.68359375 C-105.32841797 123.64169922 -104.07480469 123.59980469 -102.78320312 123.55664062 C-101.47287109 123.51732422 -100.16253906 123.47800781 -98.8125 123.4375 C-97.47720022 123.39429008 -96.14191348 123.350675 -94.80664062 123.30664062 C-91.53786703 123.20043498 -88.26901667 123.09839003 -85 123 C-86.39992188 122.10087891 -86.39992188 122.10087891 -87.828125 121.18359375 C-92.67453376 117.84721137 -96.50255147 113.85366244 -98 108 C-98.81427925 101.48576597 -97.86494387 96.36797759 -94 91 C-87.49283005 84.04565486 -81.44447536 82.70634587 -72.1875 82.375 C-71.30384766 82.33632813 -70.42019531 82.29765625 -69.50976562 82.2578125 C-67.34017028 82.16399216 -65.17011453 82.08092674 -63 82 C-64.41345703 81.10474609 -64.41345703 81.10474609 -65.85546875 80.19140625 C-70.13537982 77.20876015 -72.35807467 73.925776 -74 69 C-74.72584434 62.00078676 -74.6818681 56.4209263 -70.4375 50.62109375 C-66.15774285 45.79473719 -62.84528687 43.95370934 -56.4921875 43.55664062 C-55.79351562 43.51732422 -55.09484375 43.47800781 -54.375 43.4375 C-53.66859375 43.39431641 -52.9621875 43.35113281 -52.234375 43.30664062 C-50.48981463 43.20055249 -48.74493303 43.09977111 -47 43 C-46.97421875 42.02160156 -46.9484375 41.04320312 -46.921875 40.03515625 C-46.39440319 27.84336465 -44.07653244 19.55288634 -35 11 C-24.99947612 2.3727875 -13.18177447 -1.38635904 0 0 Z " fill="#8C3F0B" transform="translate(281,247)"/>
<path d="M0 0 C42.57 0 85.14 0 129 0 C129 47 129 47 124 53 C121.60573656 54.19713172 120.10789327 54.13612893 117.434021 54.15390015 C116.47231491 54.16250061 115.51060883 54.17110107 114.51976013 54.17996216 C113.46104202 54.18422211 112.40232391 54.18848206 111.31152344 54.19287109 C110.19920853 54.20104858 109.08689362 54.20922607 107.94087219 54.21765137 C104.24704533 54.24253482 100.55325697 54.25902891 96.859375 54.2734375 C94.97024258 54.28142302 94.97024258 54.28142302 93.04294586 54.28956985 C87.75003477 54.31080574 82.45713721 54.3299353 77.16419601 54.34119225 C69.58246258 54.35742352 62.00124228 54.39057892 54.41970229 54.44759309 C48.44388528 54.49099686 42.46830147 54.50694078 36.4923172 54.51332474 C33.95176796 54.52004961 31.41122655 54.53530344 28.87078094 54.55921555 C25.31547413 54.59077083 21.7614643 54.59091749 18.20605469 54.58349609 C17.1554335 54.59990143 16.10481232 54.61630676 15.02235413 54.63320923 C10.39980947 54.59368905 7.05397505 54.56429718 3.36212158 51.58853149 C-8.25379053 38.85923146 0 17.23265777 0 0 Z " fill="#F0EDEE" transform="translate(191,65)"/>
<path d="M0 0 C3.3 0 6.6 0 10 0 C10.11399758 37.76792208 10.2025145 75.53581363 10.25532665 113.30387296 C10.26158038 117.76003668 10.26805197 122.21620007 10.2746582 126.67236328 C10.27662553 128.0031083 10.27662553 128.0031083 10.2786326 129.36073706 C10.30040497 143.73640934 10.33983655 158.11198191 10.38576398 172.48759499 C10.43247773 187.23200989 10.46028462 201.97637247 10.47044247 216.72085834 C10.47731221 225.82325508 10.49902999 234.92537004 10.53958233 244.02768007 C10.56595803 250.2646257 10.57401279 256.50142509 10.56750689 262.73842248 C10.56429585 266.34003537 10.56930919 269.94115498 10.59602737 273.54268074 C10.62475321 277.44320948 10.61497386 281.34309013 10.60127258 285.24371338 C10.62311889 286.9596538 10.62311889 286.9596538 10.64540654 288.71025968 C10.57393103 296.19531681 10.57393103 296.19531681 8.07210064 299.703022 C3.72805573 301.53698883 -0.08056435 301.5530914 -4.75488281 301.50793457 C-6.23832876 301.51729451 -6.23832876 301.51729451 -7.75174332 301.52684355 C-11.0691123 301.54281183 -14.38575043 301.53015389 -17.703125 301.51757812 C-20.07996042 301.52299752 -22.45679248 301.53011914 -24.83361816 301.53881836 C-30.62128145 301.55517953 -36.40871207 301.55276391 -42.19638252 301.5411678 C-46.90018542 301.53213355 -51.60393017 301.53090942 -56.30773926 301.53526306 C-57.31201379 301.53618246 -57.31201379 301.53618246 -58.3365767 301.53712043 C-59.69669439 301.53839934 -61.05681207 301.53969619 -62.41692972 301.5410108 C-75.17022066 301.55241648 -87.92339657 301.53930313 -100.67666864 301.51780933 C-111.61913878 301.49993832 -122.56143918 301.50304243 -133.50390625 301.52148438 C-146.21161061 301.54289135 -158.91921418 301.55131784 -171.62693405 301.53903532 C-172.98204293 301.53776113 -174.33715183 301.53650364 -175.69226074 301.53526306 C-176.35899693 301.53464596 -177.02573311 301.53402886 -177.71267343 301.53339306 C-182.4107278 301.52993962 -187.10871823 301.53576833 -191.8067627 301.54518127 C-198.13022014 301.55672093 -204.45335648 301.54874808 -210.77677917 301.52560425 C-213.09998542 301.52030714 -215.4232186 301.52184796 -217.74641418 301.53065491 C-220.91301554 301.54155395 -224.07858212 301.52791413 -227.24511719 301.50793457 C-228.63056921 301.5213189 -228.63056921 301.5213189 -230.04401016 301.53497362 C-234.07860861 301.48545349 -236.49686273 301.2680567 -240.10968018 299.34325409 C-242 297 -242 297 -242.3125 293.75 C-242.209375 292.8425 -242.10625 291.935 -242 291 C-240.18249221 290.99918285 -240.18249221 290.99918285 -238.3282671 290.99834919 C-209.57221553 290.98430815 -180.81627565 290.94457017 -152.06031086 290.87314438 C-148.52173438 290.86437752 -144.98315741 290.85582773 -141.44458008 290.84741211 C-140.74010654 290.84573305 -140.03563301 290.84405398 -139.30981179 290.84232404 C-127.89976301 290.81564678 -116.48976446 290.80655844 -105.07968769 290.80395857 C-93.37379476 290.80090022 -81.66804718 290.77896731 -69.96221989 290.73947543 C-63.3863724 290.71811163 -56.81077062 290.70556233 -50.23488808 290.71384621 C-44.04848832 290.72136471 -37.86258734 290.70565252 -31.67627907 290.67193985 C-29.40307587 290.6636801 -27.12982331 290.66398757 -24.8566246 290.67340279 C-21.75740548 290.68497076 -18.65983571 290.66598774 -15.56074524 290.63923645 C-14.65704565 290.64990971 -13.75334606 290.66058297 -12.82226163 290.67157966 C-8.75164246 290.60583306 -6.49238187 290.29407397 -2.9424057 288.17385864 C-0.01619642 283.3924813 -0.30705041 279.08636845 -0.36076355 273.57902527 C-0.35240787 272.41094072 -0.3440522 271.24285617 -0.33544332 270.03937513 C-0.31729331 266.80091611 -0.32149859 263.56337278 -0.3351289 260.32491982 C-0.34439089 256.83138805 -0.3248485 253.33800356 -0.30880737 249.84451294 C-0.28496207 243.79312469 -0.27935991 237.74194012 -0.28615379 231.6905117 C-0.29595016 222.94121356 -0.27822526 214.19214141 -0.25378648 205.44287983 C-0.21488349 191.24780358 -0.19823315 177.05279192 -0.19555664 162.85766602 C-0.19290908 149.06856981 -0.17979393 135.27954909 -0.15258789 121.49047852 C-0.15091451 120.64049839 -0.14924113 119.79051827 -0.14751705 118.91478118 C-0.13905757 114.65067368 -0.13039216 110.38656664 -0.12162435 106.12245977 C-0.0491549 70.74831585 -0.01316122 35.37421347 0 0 Z " fill="#D1D3D4" transform="translate(372,146)"/>
<path d="M0 0 C3.3 0 6.6 0 10 0 C10.09121499 36.22218415 10.16202039 72.44434501 10.20426132 108.66662038 C10.20926425 112.94123995 10.21444153 117.21585929 10.21972656 121.49047852 C10.2207758 122.34149217 10.22182505 123.19250583 10.22290608 124.06930778 C10.24031987 137.855833 10.27186291 151.64229162 10.30861118 165.4287773 C10.34599354 179.57090248 10.36823012 193.71299274 10.37635398 207.8551653 C10.38184738 216.58439835 10.39920891 225.31344319 10.43166587 234.04261831 C10.45278039 240.02539441 10.45920701 246.00807294 10.45400551 251.99088361 C10.45143892 255.44471168 10.45542277 258.89821043 10.4768219 262.35198021 C10.49663846 266.09459404 10.49196863 269.83639374 10.48101807 273.57902527 C10.49266943 274.67338133 10.5043208 275.76773738 10.51632524 276.89525574 C10.45796976 284.24243732 10.45796976 284.24243732 8.09493637 288.15131092 C3.99312941 291.77097491 0.02277684 291.1369275 -5.19998169 291.12025452 C-6.1654089 291.12110894 -7.1308361 291.12196337 -8.12551868 291.12284368 C-11.38073539 291.124499 -14.63590127 291.11897625 -17.89111328 291.11352539 C-20.21650186 291.1132435 -22.54189053 291.11340128 -24.86727905 291.1139679 C-31.19754499 291.11425581 -37.52779213 291.10836 -43.85805368 291.10139394 C-49.79811446 291.09579054 -55.73817448 291.09477186 -61.67823754 291.09374207 C-73.44581427 291.09155197 -85.21338407 291.08489302 -96.98095703 291.07543945 C-108.41389939 291.06626425 -119.84683986 291.05918394 -131.27978516 291.05493164 C-131.98419067 291.05466892 -132.68859618 291.05440619 -133.41434731 291.05413551 C-136.94804684 291.0528305 -140.48174639 291.05156678 -144.01544595 291.05032361 C-173.3436351 291.03995231 -202.67181747 291.02226094 -232 291 C-232 287.7 -232 284.4 -232 281 C-230.83986547 280.99945523 -229.67973093 280.99891047 -228.4844408 280.99834919 C-200.95026461 280.98430754 -173.41622324 280.94456691 -145.88213356 280.87314438 C-142.49376985 280.86437754 -139.10540562 280.85582775 -135.71704102 280.84741211 C-135.04247363 280.84573305 -134.36790624 280.84405398 -133.67289742 280.84232404 C-122.74783779 280.81564822 -111.82283063 280.80655855 -100.89774177 280.80395857 C-89.68905516 280.8009 -78.48051884 280.77859199 -67.27189034 280.73947543 C-60.97549651 280.71811346 -54.67935927 280.70556137 -48.38292885 280.71384621 C-42.45916868 280.7213659 -36.53592929 280.70564779 -30.61226463 280.67193985 C-28.43581553 280.66368151 -26.25931488 280.66398594 -24.08287048 280.67340279 C-21.11499746 280.68497477 -18.1488454 280.66598221 -15.18110657 280.63923645 C-14.31631646 280.64990971 -13.45152635 280.66058297 -12.56053048 280.67157966 C-8.5641961 280.60421248 -6.43903317 280.26769591 -2.96613312 278.15013123 C-0.04886711 273.47609839 -0.30604316 269.36979954 -0.36076355 263.95866394 C-0.35240787 262.83141492 -0.3440522 261.70416589 -0.33544332 260.54275781 C-0.3134596 256.75760357 -0.32713798 252.97341449 -0.34057617 249.18823242 C-0.33489913 246.4781448 -0.32170321 243.76810605 -0.30880737 241.05804443 C-0.28496439 235.21946344 -0.27935932 229.38109355 -0.28615379 223.54247093 C-0.29595101 215.10086052 -0.27822388 206.65948428 -0.25378648 198.21791176 C-0.21488544 184.52197833 -0.19823327 170.82611184 -0.19555664 157.13012695 C-0.19290899 143.82605556 -0.17979301 130.5220624 -0.15258789 117.21801758 C-0.15091451 116.39790741 -0.14924113 115.57779725 -0.14751705 114.73283526 C-0.13905755 110.61856846 -0.13039215 106.50430213 -0.12162435 102.39003599 C-0.04915729 68.26003266 -0.01316159 34.13007624 0 0 Z " fill="#E5E6E7" transform="translate(362,146)"/>
<path d="M0 0 C6.45886853 0.48746178 6.45886853 0.48746178 8.70521545 2.6151123 C10.45153351 5.83168796 10.38813109 8.25307922 10.40405273 11.90820312 C10.41434761 12.93819679 10.41434761 12.93819679 10.42485046 13.98899841 C10.44311588 16.25329403 10.43928208 18.5168967 10.43359375 20.78125 C10.43815533 22.35779038 10.44346083 23.93432876 10.44947815 25.51086426 C10.45840842 28.81282639 10.45598677 32.11454665 10.44604492 35.41650391 C10.43454825 39.64697431 10.45477702 43.87661088 10.48396206 48.10697174 C10.50231061 51.36180926 10.50203447 54.61644638 10.49632454 57.87132263 C10.49617119 59.4310371 10.50222644 60.99076503 10.51461601 62.5504303 C10.52950188 64.73141786 10.51886964 66.91085763 10.50170898 69.09179688 C10.50145973 70.95233704 10.50145973 70.95233704 10.50120544 72.85046387 C9.90815895 76.577122 8.93455352 77.71427819 6 80 C3.47008449 81.26495775 1.73268231 81.12302611 -1.09988403 81.12025452 C-2.7195256 81.12231651 -2.7195256 81.12231651 -4.37188721 81.12442017 C-5.56159119 81.12082489 -6.75129517 81.11722961 -7.97705078 81.11352539 C-9.85017441 81.11374443 -9.85017441 81.11374443 -11.76113892 81.1139679 C-15.19068663 81.11338952 -18.62017457 81.10836519 -22.0497117 81.10139394 C-25.63184338 81.09515378 -29.21397579 81.09455608 -32.79611206 81.09336853 C-39.5817525 81.09025717 -46.36737689 81.08204641 -53.15301025 81.07201904 C-62.32077397 81.05876483 -71.48854206 81.05335642 -80.65631294 81.04751682 C-95.10422066 81.0381064 -109.55209449 81.01818617 -124 81 C-124 114.99 -124 148.98 -124 184 C-127.3 185.32 -130.6 186.64 -134 188 C-135.32 188.99 -136.64 189.98 -138 191 C-138.66 191 -139.32 191 -140 191 C-140 154.7 -140 118.4 -140 81 C-149.18199219 81.03480469 -158.36398438 81.06960937 -167.82421875 81.10546875 C-173.63476815 81.12079398 -179.44530293 81.13535967 -185.25585938 81.14648438 C-194.48239133 81.16429095 -203.70884115 81.18523342 -212.93530273 81.22631836 C-219.65464887 81.25622498 -226.37392842 81.275576 -233.09333926 81.28226548 C-236.65106722 81.28617563 -240.2086047 81.29536197 -243.76627159 81.31719017 C-247.73834166 81.34136317 -251.71022557 81.34196917 -255.68237305 81.34057617 C-256.8612912 81.351362 -258.04020935 81.36214783 -259.25485229 81.3732605 C-260.33873734 81.36913651 -261.42262238 81.36501251 -262.53935242 81.36076355 C-263.47865947 81.36352893 -264.41796652 81.36629431 -265.38573742 81.36914349 C-268.70207902 80.90086386 -270.48134156 80.23425647 -273 78 C-273.3125 74.3125 -273.3125 74.3125 -273 71 C-272.43867095 70.99864347 -271.8773419 70.99728694 -271.29900289 70.99588931 C-238.04722351 70.91527987 -204.79549037 70.82434203 -171.54377742 70.71994839 C-167.55327372 70.70742917 -163.56276976 70.69499645 -159.57226562 70.68261719 C-158.38058419 70.6789182 -158.38058419 70.6789182 -157.16482839 70.67514448 C-144.29268796 70.63539562 -131.42053872 70.6026577 -118.54837266 70.57250018 C-105.34526195 70.54141165 -92.14218869 70.50281343 -78.93912005 70.45720994 C-70.78884209 70.42929655 -62.63859158 70.4072759 -54.4882786 70.39273749 C-48.24388334 70.38097216 -41.99956533 70.35877035 -35.75521469 70.33261681 C-33.18971362 70.32351986 -30.62419786 70.3178459 -28.05868149 70.31578636 C-24.56548542 70.31247879 -21.07255005 70.29704201 -17.57940674 70.2784729 C-16.04439542 70.281375 -16.04439542 70.281375 -14.47837377 70.28433573 C-13.54382635 70.27687024 -12.60927893 70.26940475 -11.6464119 70.26171303 C-10.83988591 70.25943471 -10.03335993 70.25715638 -9.20239377 70.25480902 C-6.72412495 69.96808225 -5.12118478 69.29627408 -3 68 C-0.6637518 64.71533021 -0.72778461 61.61909668 -0.68115234 57.67089844 C-0.66128265 56.38987244 -0.64141296 55.10884644 -0.62094116 53.78900146 C-0.60906564 52.3957944 -0.59740273 51.0025855 -0.5859375 49.609375 C-0.56722168 48.1801848 -0.54764795 46.75100559 -0.5272522 45.32183838 C-0.47596852 41.56708264 -0.43632284 37.81229108 -0.39910889 34.05737305 C-0.35904551 30.2230547 -0.30796385 26.38888483 -0.2578125 22.5546875 C-0.16109785 15.03656028 -0.07667899 7.5183611 0 0 Z " fill="#D10028" transform="translate(388,65)"/>
<path d="M0 0 C3.11963955 1.36018991 5.00834822 2.83260134 7.1875 5.4375 C7.95126953 6.33275391 7.95126953 6.33275391 8.73046875 7.24609375 C12.05099942 11.83353458 11.5096071 17.60850463 11 23 C9.20528933 29.698729 4.83179901 33.53924043 -1 37 C-4.4906859 38.16356197 -7.22767912 38.13477112 -10.91264343 38.14717102 C-11.97382872 38.15268605 -11.97382872 38.15268605 -13.0564521 38.1583125 C-15.43306848 38.16934785 -17.80964113 38.17319293 -20.1862793 38.17700195 C-21.88800699 38.18326677 -23.58973331 38.18991358 -25.29145813 38.19691467 C-30.88570198 38.21795694 -36.4799461 38.22831782 -42.07421875 38.23828125 C-44.00041023 38.24232887 -45.92660156 38.24644579 -47.85279274 38.25063133 C-56.90301108 38.26968406 -65.95322127 38.28391443 -75.00345582 38.2922433 C-85.44758503 38.30201377 -95.89150219 38.32832801 -106.33555669 38.36874419 C-114.40956256 38.39891559 -122.4835077 38.41371319 -130.55756885 38.41702431 C-135.37906316 38.41937381 -140.20033096 38.42832113 -145.02176476 38.45348549 C-149.56000932 38.47678883 -154.09787861 38.48099037 -158.63616753 38.47072411 C-160.29859415 38.47022917 -161.96103938 38.47653718 -163.62340927 38.49028015 C-179.29265541 38.61253374 -179.29265541 38.61253374 -186 34 C-190 29.8 -190 29.8 -190 27 C-188.66097217 27.00691345 -188.66097217 27.00691345 -187.29489326 27.01396656 C-165.55219392 27.12449234 -143.80954314 27.20717928 -122.06662178 27.25906086 C-111.55179873 27.2848187 -101.03716345 27.31992299 -90.52246094 27.37719727 C-81.35552335 27.42710628 -72.18872179 27.4593086 -63.0216521 27.47044247 C-58.16979241 27.47694852 -53.31832179 27.49218909 -48.46658707 27.52865028 C-43.89469041 27.5627283 -39.32334103 27.57302923 -34.75132942 27.56553841 C-33.07843992 27.5669077 -31.40553106 27.57676978 -29.73275185 27.59602737 C-20.7080265 27.69477826 -12.55384008 27.68256387 -5 22 C-0.6014216 17.29032416 0.12448285 12.57276787 0.0625 6.3125 C0.05347656 5.13300781 0.04445313 3.95351563 0.03515625 2.73828125 C0.02355469 1.83464844 0.01195312 0.93101562 0 0 Z " fill="#7C3209" transform="translate(347,373)"/>
<path d="M0 0 C83.16 0 166.32 0 252 0 C252 0.33 252 0.66 252 1 C213.06 1 174.12 1 134 1 C134 34.99 134 68.98 134 104 C130.7 105.32 127.4 106.64 124 108 C122.02 109.485 122.02 109.485 120 111 C119.34 111 118.68 111 118 111 C118 74.7 118 38.4 118 1 C79.06 1 40.12 1 0 1 C0 0.67 0 0.34 0 0 Z " fill="#E43A52" transform="translate(130,145)"/>
<path d="M0 0 C5.0889158 1.83369197 7.26801827 4.17151185 10.0859375 8.7734375 C12.27414365 14.10368324 12.08627523 21.14067222 10.0546875 26.48828125 C7.10486274 31.41393202 3.53981472 35.15339509 -2 37 C-3.68647858 37.09822329 -5.37655427 37.13924851 -7.06587219 37.14717102 C-8.63670563 37.15790398 -8.63670563 37.15790398 -10.23927307 37.16885376 C-11.38790329 37.17154266 -12.53653351 37.17423157 -13.7199707 37.17700195 C-15.53496567 37.18685875 -15.53496567 37.18685875 -17.3866272 37.19691467 C-21.39968105 37.21666159 -25.41269495 37.22831436 -29.42578125 37.23828125 C-30.80843819 37.24232959 -32.19109492 37.24644653 -33.57375145 37.25063133 C-40.0696149 37.26967731 -46.56546703 37.28390996 -53.06135303 37.2922433 C-60.55505332 37.30201599 -68.04845825 37.32833848 -75.54205447 37.36874419 C-81.33749239 37.39891915 -87.1328457 37.41371344 -92.92836064 37.41702431 C-96.38831551 37.41937312 -99.84795462 37.42831096 -103.30782509 37.45348549 C-107.16926116 37.48112864 -111.03030944 37.47693082 -114.8918457 37.4699707 C-116.03440323 37.48278076 -117.17696075 37.49559082 -118.35414124 37.50878906 C-126.30274171 37.45650661 -129.60877173 36.21274257 -135.375 30.75 C-136.179375 29.88375 -136.179375 29.88375 -137 29 C-136.505 27.515 -136.505 27.515 -136 26 C-135.05246731 26.00691345 -135.05246731 26.00691345 -134.08579254 26.01396656 C-118.69448855 26.12453011 -103.30332326 26.20719722 -87.91172028 26.25906086 C-80.46834525 26.28481033 -73.02523579 26.3198979 -65.58203125 26.37719727 C-59.09228377 26.42713278 -52.60272867 26.4593147 -46.1127944 26.47044247 C-42.67833219 26.47694429 -39.24442022 26.49215559 -35.81013489 26.52865028 C-31.97009765 26.56498776 -28.13119735 26.56994301 -24.29101562 26.56762695 C-22.59492157 26.59459152 -22.59492157 26.59459152 -20.86456299 26.62210083 C-14.05688869 26.57772161 -9.15518942 25.67188176 -4 21 C0.98343834 14.65325061 0.42606537 7.76385785 0 0 Z " fill="#7D3208" transform="translate(323,333)"/>
<path d="M0 0 C5.05200254 1.66965672 7.05141433 3.86311333 9.828125 8.29296875 C12.3979498 14.22926404 11.88888076 20.42692411 9.8125 26.4375 C6.24417402 31.48237466 2.71176013 34.6121525 -3 37 C-6.552948 37.38768005 -6.552948 37.38768005 -10.53076172 37.40405273 C-11.62470749 37.41434761 -11.62470749 37.41434761 -12.74075317 37.42485046 C-15.13726608 37.44306172 -17.53312064 37.43928874 -19.9296875 37.43359375 C-21.60588797 37.43815884 -23.28208657 37.44346538 -24.95828247 37.44947815 C-28.46689468 37.45839851 -31.97527916 37.45599909 -35.48388672 37.44604492 C-39.96499328 37.43456637 -44.4453105 37.45475468 -48.9263134 37.48396206 C-52.38718606 37.50237123 -55.8478713 37.50202209 -59.30878067 37.49632454 C-60.96008536 37.49617185 -62.61140317 37.50217282 -64.26266098 37.51461601 C-80.32767076 37.61861358 -80.32767076 37.61861358 -87 33 C-91 28.8 -91 28.8 -91 26 C-90.03613373 26.00666183 -89.07226746 26.01332367 -88.07919312 26.02018738 C-78.98652136 26.08105687 -69.89389106 26.12600066 -60.80106163 26.15543652 C-56.12656524 26.17107865 -51.45223361 26.19229038 -46.77783203 26.22631836 C-42.26502492 26.25896363 -37.75237609 26.27686394 -33.23945999 26.28463173 C-31.5195021 26.29016596 -29.79955266 26.30097303 -28.07966232 26.31719017 C-25.66668874 26.33903339 -23.25436547 26.34196409 -20.84130859 26.34057617 C-20.13352264 26.351362 -19.42573669 26.36214783 -18.69650269 26.3732605 C-14.05879424 26.34448039 -10.93995173 25.43069874 -7 23 C-1.48476124 17.35941491 0.09523202 12.8745985 0.125 5.125 C0.09310718 3.41645625 0.05470352 1.70796558 0 0 Z " fill="#7D3209" transform="translate(300,293)"/>
<path d="M0 0 C0.9662606 -0.00065712 0.9662606 -0.00065712 1.95204163 -0.00132751 C4.07877029 0.00076058 6.2047081 0.02409104 8.33129883 0.04760742 C9.80674305 0.05320334 11.28219286 0.05747346 12.75764465 0.06047058 C16.63922542 0.0719198 20.52046891 0.10138731 24.4019165 0.13458252 C28.36335691 0.16528193 32.32485186 0.17897562 36.28637695 0.1940918 C44.05801502 0.22625723 51.82937527 0.27745412 59.60083008 0.34057617 C59.60083008 2.98057617 59.60083008 5.62057617 59.60083008 8.34057617 C39.47083008 8.34057617 19.34083008 8.34057617 -1.39916992 8.34057617 C-1.35956202 23.76332303 -1.35956202 23.76332303 -1.30908203 39.18603516 C-1.30616301 41.11124618 -1.30361442 43.03645783 -1.30151367 44.96166992 C-1.29639771 45.97136841 -1.29128174 46.98106689 -1.28601074 48.0213623 C-1.28588989 48.97546997 -1.28576904 49.92957764 -1.28564453 50.91259766 C-1.28342392 51.745327 -1.28120331 52.57805634 -1.27891541 53.4360199 C-1.39916992 55.34057617 -1.39916992 55.34057617 -2.39916992 56.34057617 C-4.83666992 56.52807617 -4.83666992 56.52807617 -7.39916992 56.34057617 C-9.92013262 53.81961347 -9.6558189 52.96814394 -9.67382812 49.47949219 C-9.68336014 48.46826797 -9.69289215 47.45704376 -9.70271301 46.41517639 C-9.70180161 45.31934738 -9.7008902 44.22351837 -9.69995117 43.09448242 C-9.7042363 41.97242905 -9.70852142 40.85037567 -9.7129364 39.69432068 C-9.71868757 37.3178678 -9.7191742 34.9413973 -9.71484375 32.56494141 C-9.71168588 28.92148904 -9.73512686 25.2788498 -9.76049805 21.63549805 C-9.76277109 19.33016053 -9.76347451 17.02482083 -9.76245117 14.71948242 C-9.77166092 13.62567764 -9.78087067 12.53187286 -9.7903595 11.40492249 C-9.78101631 9.88335793 -9.78101631 9.88335793 -9.77148438 8.33105469 C-9.7721138 7.43773941 -9.77274323 6.54442413 -9.77339172 5.6240387 C-9.39916992 3.34057617 -9.39916992 3.34057617 -8.27584839 1.54995728 C-5.50029249 -0.23868415 -3.28322802 -0.0187613 0 0 Z " fill="#E7546D" transform="translate(131.399169921875,72.659423828125)"/>
<path d="M0 0 C0.83442627 -0.00525696 1.66885254 -0.01051392 2.52856445 -0.01593018 C5.29006605 -0.02914689 8.05099242 -0.02038627 10.8125 -0.01025391 C12.72916779 -0.01227416 14.64583484 -0.0151852 16.5625 -0.01895142 C20.58080356 -0.02337703 24.59890716 -0.01693606 28.6171875 -0.00292969 C33.77246008 0.01416231 38.92726414 0.0043224 44.08251953 -0.01364708 C48.04072613 -0.02447849 51.99882133 -0.02104153 55.95703125 -0.0132637 C57.85807348 -0.01125992 59.75912576 -0.01372721 61.66015625 -0.02070236 C64.3153774 -0.02830628 66.96983578 -0.01672777 69.625 0 C70.41366455 -0.00607269 71.2023291 -0.01214539 72.01489258 -0.0184021 C77.28628217 0.04324128 77.28628217 0.04324128 79.83984375 1.71713257 C81.39933709 4.39638636 80.5656247 6.50120556 79.8125 9.38818359 C78.00622961 11.19445398 75.53099561 10.52093759 73.1257019 10.53482056 C72.30957428 10.53436737 71.49344666 10.53391418 70.65258789 10.53344727 C69.79734024 10.53680588 68.94209259 10.54016449 68.06092834 10.54362488 C65.21898975 10.55316457 62.37710988 10.55507949 59.53515625 10.55615234 C57.56839473 10.5593628 55.60163345 10.56272671 53.63487244 10.5662384 C49.50633185 10.57223722 45.37781222 10.57407753 41.24926758 10.57348633 C35.9482153 10.57338466 30.64729682 10.58703868 25.34627628 10.60425854 C21.28262205 10.61535442 17.2190004 10.61740628 13.15533257 10.6168766 C11.20042904 10.6180603 9.24552476 10.62250373 7.29063606 10.63020897 C4.56092981 10.63996046 1.8315172 10.63715011 -0.89819336 10.63110352 C-2.11934845 10.63953278 -2.11934845 10.63953278 -3.36517334 10.64813232 C-8.9591846 10.61649899 -8.9591846 10.61649899 -11.1875 8.38818359 C-11.53026051 5.71465162 -11.61176086 4.07684951 -10.1796875 1.75228882 C-7.0339234 -0.40170183 -3.68170937 -0.02834905 0 0 Z " fill="#D1D3D4" transform="translate(221.1875,71.61181640625)"/>
<path d="M0 0 C1.21879852 0.00607269 1.21879852 0.00607269 2.46221924 0.01226807 C3.31761292 0.00876343 4.17300659 0.00525879 5.05432129 0.00164795 C7.89088988 -0.00717764 10.72721047 -0.00131732 13.56378174 0.00543213 C15.52911426 0.00408572 17.49444646 0.00214538 19.45977783 -0.00036621 C23.58236863 -0.0033186 27.70487286 0.00098385 31.82745361 0.01031494 C37.12064503 0.02170953 42.41363365 0.01515067 47.70681763 0.00317001 C51.76618995 -0.0040455 55.82551394 -0.00176208 59.8848877 0.0034256 C61.83699568 0.00476295 63.78910802 0.0031114 65.74121094 -0.00153351 C68.46604089 -0.00659367 71.1905391 0.00110425 73.91534424 0.01226807 C74.72787659 0.0082196 75.54040894 0.00417114 76.37756348 0 C81.96025361 0.042529 81.96025361 0.042529 84.18878174 2.27105713 C84.43878174 4.77105713 84.43878174 4.77105713 84.18878174 7.27105713 C81.61312897 9.8467099 79.88821102 9.51537011 76.37756348 9.54211426 C75.15876495 9.53604156 75.15876495 9.53604156 73.91534424 9.52984619 C73.05995056 9.53335083 72.20455688 9.53685547 71.32324219 9.54046631 C68.48667359 9.54929189 65.65035301 9.54343158 62.81378174 9.53668213 C60.84844922 9.53802854 58.88311702 9.53996887 56.91778564 9.54248047 C52.79519485 9.54543285 48.67269061 9.54113041 44.55010986 9.53179932 C39.25691844 9.52040473 33.96392982 9.52696359 28.67074585 9.53894424 C24.61137352 9.54615976 20.55204954 9.54387634 16.49267578 9.53868866 C14.54056779 9.53735131 12.58845546 9.53900286 10.63635254 9.54364777 C7.91152259 9.54870793 5.18702438 9.54101001 2.46221924 9.52984619 C1.64968689 9.53389465 0.83715454 9.53794312 0 9.54211426 C-5.58269013 9.49958526 -5.58269013 9.49958526 -7.81121826 7.27105713 C-8.06121826 4.77105713 -8.06121826 4.77105713 -7.81121826 2.27105713 C-5.23556549 -0.30459564 -3.51064754 0.02674415 0 0 Z " fill="#D1D3D4" transform="translate(217.81121826171875,93.72894287109375)"/>
<path d="M0 0 C3.29159316 -0.05790353 6.58305603 -0.09356261 9.875 -0.125 C10.81214844 -0.14175781 11.74929688 -0.15851563 12.71484375 -0.17578125 C13.61074219 -0.18222656 14.50664062 -0.18867187 15.4296875 -0.1953125 C16.25710449 -0.20578613 17.08452148 -0.21625977 17.93701172 -0.22705078 C20 0 20 0 22 2 C22.1875 4.5625 22.1875 4.5625 22 7 C21 8 21 8 18.95874023 8.11352539 C18.08419189 8.10828857 17.20964355 8.10305176 16.30859375 8.09765625 C15.36435547 8.09443359 14.42011719 8.09121094 13.44726562 8.08789062 C12.45404297 8.07951172 11.46082031 8.07113281 10.4375 8.0625 C9.44041016 8.05798828 8.44332031 8.05347656 7.41601562 8.04882812 C4.94395151 8.03700007 2.47200482 8.02051849 0 8 C0 5.36 0 2.72 0 0 Z " fill="#E7546D" transform="translate(320,73)"/>
<path d="M0 0 C1 1 1 1 1.125 3.5 C1 6 1 6 0 7 C-2.4375 7.1875 -2.4375 7.1875 -5 7 C-5.66 6.34 -6.32 5.68 -7 5 C-6.75 2.4375 -6.75 2.4375 -6 0 C-3.49749232 -1.25125384 -2.59701335 -0.83774624 0 0 Z " fill="#E7536C" transform="translate(357,74)"/>
</svg>
