<?xml version="1.0" encoding="UTF-8"?>
<svg version="1.1" xmlns="http://www.w3.org/2000/svg" width="512" height="512">
<path d="M0 0 C0.82989944 -0.00686325 1.65979889 -0.0137265 2.5148468 -0.02079773 C5.25103999 -0.03905987 7.98665948 -0.03522907 10.72290039 -0.02954102 C12.62952358 -0.03410315 14.53614513 -0.03940882 16.44276428 -0.04542542 C20.43652023 -0.05435541 24.43007621 -0.05193471 28.42382812 -0.04199219 C33.53624806 -0.0305036 38.64797717 -0.05071289 43.76030636 -0.07990932 C47.69719308 -0.09827501 51.63391438 -0.09797811 55.57083321 -0.0922718 C57.45544974 -0.09211863 59.34007752 -0.09815977 61.22465324 -0.11056328 C63.86244639 -0.12547824 66.49896489 -0.11479292 69.13671875 -0.09765625 C69.91145538 -0.10732422 70.68619202 -0.11699219 71.48440552 -0.12695312 C76.68228346 -0.05641233 79.62777118 1.12271006 83.63305664 4.40405273 C87.68936062 9.62665131 87.40703208 15.05745416 86.63305664 21.40405273 C84.45272713 26.00697059 82.15169321 28.17481619 77.63305664 30.40405273 C74.49511719 30.74462891 74.49511719 30.74462891 71.01977539 30.69702148 C69.77260742 30.68735352 68.52543945 30.67768555 67.24047852 30.66772461 C65.9469043 30.64258789 64.65333008 30.61745117 63.32055664 30.59155273 C61.35119141 30.57125 61.35119141 30.57125 59.34204102 30.55053711 C56.10553714 30.51522979 52.86924458 30.46142442 49.63305664 30.40405273 C49.63305664 37.33405273 49.63305664 44.26405273 49.63305664 51.40405273 C51.46868164 51.48655273 53.30430664 51.56905273 55.19555664 51.65405273 C95.80686977 54.64258687 135.68521619 69.64013709 168.63305664 93.40405273 C169.2344043 93.83572754 169.83575195 94.26740234 170.45532227 94.7121582 C179.10132518 100.98124468 186.95091126 108.00973679 194.63305664 115.40405273 C195.50196533 116.23211426 195.50196533 116.23211426 196.38842773 117.0769043 C204.97321683 125.28884951 212.56370404 133.86351906 219.63305664 143.40405273 C220.48329409 144.52386184 221.33355435 145.64365363 222.18383789 146.76342773 C228.9412114 155.79986119 234.42670834 165.40777944 239.63305664 175.40405273 C240.2032251 176.47937256 240.2032251 176.47937256 240.78491211 177.57641602 C251.57399154 198.12949531 259.33466638 221.41559536 262.63305664 244.40405273 C262.80530762 245.52416748 262.97755859 246.64428223 263.1550293 247.79833984 C264.73256727 258.9471645 265.03148375 269.9665826 265.00805664 281.21655273 C265.00784515 282.15748779 265.00763367 283.09842285 265.00741577 284.06787109 C264.95727117 306.50413284 262.22325429 327.90371159 255.63305664 349.40405273 C255.29685303 350.52166992 255.29685303 350.52166992 254.95385742 351.66186523 C244.98531796 384.41664273 227.64432323 412.98314511 204.62133789 438.19311523 C203.03701844 439.95485356 201.53914666 441.73494061 200.07055664 443.59155273 C197.514029 446.54139231 194.8029618 448.98910547 191.83227539 451.50952148 C190.36823393 452.77072949 188.93252032 454.06559817 187.52758789 455.39233398 C170.9881824 470.96385688 151.14725396 482.85466557 130.63305664 492.40405273 C129.91698242 492.73791992 129.2009082 493.07178711 128.46313477 493.41577148 C103.00305838 505.10456645 74.62334854 512.37152475 46.51586914 512.64233398 C45.66933273 512.65212784 44.82279633 512.66192169 43.9506073 512.67201233 C24.50418016 512.85048513 5.72760821 512.52870188 -13.36694336 508.40405273 C-14.85846924 508.08259277 -14.85846924 508.08259277 -16.38012695 507.75463867 C-30.51899407 504.5911794 -44.02076547 500.01421975 -57.36694336 494.40405273 C-58.10074219 494.09773926 -58.83454102 493.79142578 -59.59057617 493.47583008 C-81.56825609 484.14111564 -100.92343633 470.23190211 -118.88891602 454.68237305 C-120.23455108 453.51855653 -121.5874717 452.36317727 -122.94116211 451.20874023 C-127.16151826 447.55444204 -130.97117947 443.77701129 -134.57006836 439.50952148 C-136.52187747 437.22251038 -138.56682369 435.04070593 -140.61694336 432.84155273 C-167.47797233 402.93020352 -184.38003594 364.49479999 -192.36694336 325.40405273 C-192.53355469 324.61804688 -192.70016602 323.83204102 -192.87182617 323.0222168 C-198.63949286 294.5421235 -197.48422364 261.70021625 -191.36694336 233.40405273 C-191.17970703 232.53538574 -190.9924707 231.66671875 -190.79956055 230.77172852 C-189.55796254 225.23814708 -188.05074092 219.81809156 -186.36694336 214.40405273 C-186.13168945 213.6314209 -185.89643555 212.85878906 -185.65405273 212.06274414 C-180.44790237 195.2595161 -173.53534573 177.36720281 -163.05883789 163.1315918 C-162.13561104 161.36786405 -162.13561104 161.36786405 -163.04882812 159.38256836 C-164.37353636 157.39415652 -165.71513347 155.87181907 -167.44897461 154.23217773 C-168.05161133 153.64952148 -168.65424805 153.06686523 -169.27514648 152.46655273 C-170.53072832 151.27149638 -171.78849525 150.07873099 -173.04858398 148.88842773 C-181.77004637 140.43574581 -185.63081948 132.02710993 -186.39428711 119.85327148 C-186.27111075 104.31545352 -177.55876482 94.99152421 -167.36694336 84.40405273 C-166.79669434 83.80657227 -166.22644531 83.2090918 -165.63891602 82.59350586 C-154.68318039 71.16091232 -144.68172049 61.47902794 -128.15991211 60.40795898 C-114.05344622 60.38822966 -104.63231529 67.54297166 -94.90844727 76.95825195 C-92.1517686 79.54378427 -89.25775609 81.97066392 -86.36694336 84.40405273 C-85.65900635 84.0218457 -84.95106934 83.63963867 -84.22167969 83.24584961 C-69.30499083 75.23630696 -54.50376246 67.6954283 -38.36694336 62.40405273 C-37.5200293 62.12625977 -36.67311523 61.8484668 -35.80053711 61.56225586 C-17.7924861 55.79044464 0.7341126 52.25344348 19.63305664 51.40405273 C19.63305664 44.47405273 19.63305664 37.54405273 19.63305664 30.40405273 C16.7055957 30.47366211 16.7055957 30.47366211 13.71899414 30.54467773 C11.14869696 30.58220032 8.57838321 30.61859995 6.00805664 30.65405273 C4.08026367 30.70432617 4.08026367 30.70432617 2.11352539 30.75561523 C-8.55554117 30.86617551 -8.55554117 30.86617551 -12.07788086 28.70092773 C-16.26287371 24.50165163 -17.79677039 21.42845315 -17.80444336 15.46655273 C-17.66547745 10.32481424 -17.01498786 7.24928883 -13.36694336 3.40405273 C-9.08864096 0.12294702 -5.20556402 -0.03016838 0 0 Z " fill="#96D0D8" transform="translate(221.366943359375,-0.404052734375)"/>
<path d="M0 0 C0.82989944 -0.00686325 1.65979889 -0.0137265 2.5148468 -0.02079773 C5.25103999 -0.03905987 7.98665948 -0.03522907 10.72290039 -0.02954102 C12.62952358 -0.03410315 14.53614513 -0.03940882 16.44276428 -0.04542542 C20.43652023 -0.05435541 24.43007621 -0.05193471 28.42382812 -0.04199219 C33.53624806 -0.0305036 38.64797717 -0.05071289 43.76030636 -0.07990932 C47.69719308 -0.09827501 51.63391438 -0.09797811 55.57083321 -0.0922718 C57.45544974 -0.09211863 59.34007752 -0.09815977 61.22465324 -0.11056328 C63.86244639 -0.12547824 66.49896489 -0.11479292 69.13671875 -0.09765625 C69.91145538 -0.10732422 70.68619202 -0.11699219 71.48440552 -0.12695312 C76.68228346 -0.05641233 79.62777118 1.12271006 83.63305664 4.40405273 C87.68936062 9.62665131 87.40703208 15.05745416 86.63305664 21.40405273 C84.45272713 26.00697059 82.15169321 28.17481619 77.63305664 30.40405273 C74.49511719 30.74462891 74.49511719 30.74462891 71.01977539 30.69702148 C69.77260742 30.68735352 68.52543945 30.67768555 67.24047852 30.66772461 C65.9469043 30.64258789 64.65333008 30.61745117 63.32055664 30.59155273 C61.35119141 30.57125 61.35119141 30.57125 59.34204102 30.55053711 C56.10553714 30.51522979 52.86924458 30.46142442 49.63305664 30.40405273 C49.63305664 37.33405273 49.63305664 44.26405273 49.63305664 51.40405273 C51.46868164 51.48655273 53.30430664 51.56905273 55.19555664 51.65405273 C95.80686977 54.64258687 135.68521619 69.64013709 168.63305664 93.40405273 C169.2344043 93.83572754 169.83575195 94.26740234 170.45532227 94.7121582 C179.10132518 100.98124468 186.95091126 108.00973679 194.63305664 115.40405273 C195.50196533 116.23211426 195.50196533 116.23211426 196.38842773 117.0769043 C204.97321683 125.28884951 212.56370404 133.86351906 219.63305664 143.40405273 C220.48329409 144.52386184 221.33355435 145.64365363 222.18383789 146.76342773 C228.9412114 155.79986119 234.42670834 165.40777944 239.63305664 175.40405273 C240.2032251 176.47937256 240.2032251 176.47937256 240.78491211 177.57641602 C251.57399154 198.12949531 259.33466638 221.41559536 262.63305664 244.40405273 C262.80530762 245.52416748 262.97755859 246.64428223 263.1550293 247.79833984 C264.73256727 258.9471645 265.03148375 269.9665826 265.00805664 281.21655273 C265.00784515 282.15748779 265.00763367 283.09842285 265.00741577 284.06787109 C264.95727117 306.50413284 262.22325429 327.90371159 255.63305664 349.40405273 C255.29685303 350.52166992 255.29685303 350.52166992 254.95385742 351.66186523 C244.98531796 384.41664273 227.64432323 412.98314511 204.62133789 438.19311523 C203.03701844 439.95485356 201.53914666 441.73494061 200.07055664 443.59155273 C197.514029 446.54139231 194.8029618 448.98910547 191.83227539 451.50952148 C190.36823393 452.77072949 188.93252032 454.06559817 187.52758789 455.39233398 C170.9881824 470.96385688 151.14725396 482.85466557 130.63305664 492.40405273 C129.91698242 492.73791992 129.2009082 493.07178711 128.46313477 493.41577148 C103.00305838 505.10456645 74.62334854 512.37152475 46.51586914 512.64233398 C45.66933273 512.65212784 44.82279633 512.66192169 43.9506073 512.67201233 C24.50418016 512.85048513 5.72760821 512.52870188 -13.36694336 508.40405273 C-14.85846924 508.08259277 -14.85846924 508.08259277 -16.38012695 507.75463867 C-30.51899407 504.5911794 -44.02076547 500.01421975 -57.36694336 494.40405273 C-58.10074219 494.09773926 -58.83454102 493.79142578 -59.59057617 493.47583008 C-81.56825609 484.14111564 -100.92343633 470.23190211 -118.88891602 454.68237305 C-120.23455108 453.51855653 -121.5874717 452.36317727 -122.94116211 451.20874023 C-127.16151826 447.55444204 -130.97117947 443.77701129 -134.57006836 439.50952148 C-136.52187747 437.22251038 -138.56682369 435.04070593 -140.61694336 432.84155273 C-167.47797233 402.93020352 -184.38003594 364.49479999 -192.36694336 325.40405273 C-192.53355469 324.61804688 -192.70016602 323.83204102 -192.87182617 323.0222168 C-198.63949286 294.5421235 -197.48422364 261.70021625 -191.36694336 233.40405273 C-191.17970703 232.53538574 -190.9924707 231.66671875 -190.79956055 230.77172852 C-189.55796254 225.23814708 -188.05074092 219.81809156 -186.36694336 214.40405273 C-186.13168945 213.6314209 -185.89643555 212.85878906 -185.65405273 212.06274414 C-180.44790237 195.2595161 -173.53534573 177.36720281 -163.05883789 163.1315918 C-162.13561104 161.36786405 -162.13561104 161.36786405 -163.04882812 159.38256836 C-164.37353636 157.39415652 -165.71513347 155.87181907 -167.44897461 154.23217773 C-168.05161133 153.64952148 -168.65424805 153.06686523 -169.27514648 152.46655273 C-170.53072832 151.27149638 -171.78849525 150.07873099 -173.04858398 148.88842773 C-181.77004637 140.43574581 -185.63081948 132.02710993 -186.39428711 119.85327148 C-186.27111075 104.31545352 -177.55876482 94.99152421 -167.36694336 84.40405273 C-166.79669434 83.80657227 -166.22644531 83.2090918 -165.63891602 82.59350586 C-154.68318039 71.16091232 -144.68172049 61.47902794 -128.15991211 60.40795898 C-114.05344622 60.38822966 -104.63231529 67.54297166 -94.90844727 76.95825195 C-92.1517686 79.54378427 -89.25775609 81.97066392 -86.36694336 84.40405273 C-85.65900635 84.0218457 -84.95106934 83.63963867 -84.22167969 83.24584961 C-69.30499083 75.23630696 -54.50376246 67.6954283 -38.36694336 62.40405273 C-37.5200293 62.12625977 -36.67311523 61.8484668 -35.80053711 61.56225586 C-17.7924861 55.79044464 0.7341126 52.25344348 19.63305664 51.40405273 C19.63305664 44.47405273 19.63305664 37.54405273 19.63305664 30.40405273 C16.7055957 30.47366211 16.7055957 30.47366211 13.71899414 30.54467773 C11.14869696 30.58220032 8.57838321 30.61859995 6.00805664 30.65405273 C4.08026367 30.70432617 4.08026367 30.70432617 2.11352539 30.75561523 C-8.55554117 30.86617551 -8.55554117 30.86617551 -12.07788086 28.70092773 C-16.26287371 24.50165163 -17.79677039 21.42845315 -17.80444336 15.46655273 C-17.66547745 10.32481424 -17.01498786 7.24928883 -13.36694336 3.40405273 C-9.08864096 0.12294702 -5.20556402 -0.03016838 0 0 Z M-91.27978516 162.89916992 C-117.9299671 190.53274204 -135.83110695 228.86503058 -137.36694336 267.40405273 C-136.61074707 267.41863525 -135.85455078 267.43321777 -135.07543945 267.44824219 C-131.63044059 267.52297273 -128.18638415 267.61955201 -124.74194336 267.71655273 C-122.95723633 267.75039063 -122.95723633 267.75039063 -121.13647461 267.78491211 C-110.08432481 268.1245033 -110.08432481 268.1245033 -105.36694336 271.40405273 C-101.91848565 275.19735622 -101.90722883 279.06103751 -102.08959961 283.97045898 C-102.48522399 287.44192363 -103.2863457 289.58517848 -105.36694336 292.40405273 C-111.66444973 297.14467559 -117.60673132 297.05777663 -125.30444336 297.15405273 C-126.46524414 297.18370117 -127.62604492 297.21334961 -128.82202148 297.24389648 C-131.67039716 297.31422675 -134.51797173 297.36710688 -137.36694336 297.40405273 C-136.72151031 306.3159586 -135.49088445 314.71694232 -133.36694336 323.40405273 C-133.10139648 324.49202148 -132.83584961 325.57999023 -132.56225586 326.70092773 C-125.04133 355.05415265 -110.61338117 382.01007718 -89.36694336 402.40405273 C-84.36694336 407.40405273 -84.36694336 407.40405273 -82.91772461 409.02905273 C-58.06580958 435.83561277 -16.45590278 452.82999027 19.63305664 454.40405273 C19.64763916 453.64261963 19.66222168 452.88118652 19.67724609 452.09667969 C19.75186205 448.63613386 19.84847923 445.17653829 19.94555664 441.71655273 C19.97939453 439.91927734 19.97939453 439.91927734 20.01391602 438.08569336 C20.04936523 436.92875977 20.08481445 435.77182617 20.12133789 434.57983398 C20.14752197 433.51676025 20.17370605 432.45368652 20.20068359 431.35839844 C20.68362102 428.05855326 21.82216076 426.16602282 23.63305664 423.40405273 C23.63305664 422.74405273 23.63305664 422.08405273 23.63305664 421.40405273 C24.80868164 420.93999023 24.80868164 420.93999023 26.00805664 420.46655273 C28.55635792 419.47530235 28.55635792 419.47530235 30.63305664 418.40405273 C36.14665668 418.04250519 39.01100886 418.14143077 43.63305664 421.40405273 C44.29305664 421.40405273 44.95305664 421.40405273 45.63305664 421.40405273 C45.94243164 422.18780273 46.25180664 422.97155273 46.57055664 423.77905273 C47.56180703 426.32735401 47.56180703 426.32735401 48.63305664 428.40405273 C48.78684516 430.36179343 48.88277127 432.32422625 48.94946289 434.28686523 C49.01230469 436.03676758 49.01230469 436.03676758 49.07641602 437.82202148 C49.11573242 439.0453418 49.15504883 440.26866211 49.19555664 441.52905273 C49.23874023 442.76010742 49.28192383 443.99116211 49.32641602 445.25952148 C49.43274368 448.30758126 49.53477445 451.35572463 49.63305664 454.40405273 C82.26079336 451.80054115 113.89662549 439.64239964 139.63305664 419.40405273 C140.54442383 418.71311523 141.45579102 418.02217773 142.39477539 417.31030273 C162.01950205 401.95431224 177.3920413 382.58533944 188.63305664 360.40405273 C188.9535498 359.77547363 189.27404297 359.14689453 189.60424805 358.49926758 C194.19061328 349.38987822 197.65450047 340.16709796 200.63305664 330.40405273 C201.00430664 329.22842773 201.37555664 328.05280273 201.75805664 326.84155273 C204.6800334 317.21621754 206.7141739 307.49781457 206.63305664 297.40405273 C205.55205688 297.39003418 205.55205688 297.39003418 204.44921875 297.37573242 C201.15565959 297.32175266 197.86347865 297.23815846 194.57055664 297.15405273 C193.43682617 297.13987305 192.3030957 297.12569336 191.13500977 297.11108398 C184.47057341 296.91678555 180.01787934 296.4576276 174.63305664 292.40405273 C171.01332804 287.49990431 170.91548928 282.28220728 171.63305664 276.40405273 C173.37186156 272.10279846 175.54600363 270.46208249 179.63305664 268.40405273 C182.67919922 267.97167969 182.67919922 267.97167969 186.02758789 267.89233398 C187.22963867 267.85688477 188.43168945 267.82143555 189.67016602 267.78491211 C190.91604492 267.76235352 192.16192383 267.73979492 193.44555664 267.71655273 C194.71077148 267.68239258 195.97598633 267.64823242 197.27954102 267.61303711 C200.39729109 267.53068145 203.51476423 267.46148745 206.63305664 267.40405273 C205.48258301 246.17898822 199.89228418 226.50255223 190.63305664 207.40405273 C189.87702148 205.79336914 189.87702148 205.79336914 189.10571289 204.15014648 C180.9541824 187.2200447 169.4975718 172.9353263 156.63305664 159.40405273 C156.01430664 158.72084961 155.39555664 158.03764648 154.75805664 157.33374023 C129.80617981 130.71097879 90.44800916 113.49032248 54.63305664 109.40405273 C52.96643987 109.39115675 51.29965653 109.3891332 49.63305664 109.40405273 C49.61903809 110.53049194 49.61903809 110.53049194 49.60473633 111.6796875 C49.550781 115.10928917 49.46718117 118.53756381 49.38305664 121.96655273 C49.36887695 123.14797852 49.35469727 124.3294043 49.34008789 125.54663086 C49.15047284 132.31588828 48.79717497 136.95395668 44.63305664 142.40405273 C40.25817089 145.48635861 35.88797861 146.30692543 30.63305664 145.40405273 C26.94364632 144.10320487 24.28817113 142.31874089 21.97680664 139.09155273 C19.9346406 133.48746919 20.05782854 127.95059355 19.94555664 122.02905273 C19.91139648 120.81604492 19.87723633 119.60303711 19.84204102 118.35327148 C19.75983289 115.37029092 19.69059138 112.38759432 19.63305664 109.40405273 C-22.1523513 108.93299112 -62.90940762 134.2693951 -91.27978516 162.89916992 Z " fill="#FB6249" transform="translate(221.366943359375,-0.404052734375)"/>
<path d="M0 0 C0.0093457 0.75095947 0.01869141 1.50191895 0.02832031 2.27563477 C0.08227564 5.70523644 0.16587547 9.13351108 0.25 12.5625 C0.26417969 13.74392578 0.27835938 14.92535156 0.29296875 16.14257812 C0.48230849 22.90200699 0.81526591 27.57053661 5 33 C8.39122372 35.11951483 11.10828022 36.02707005 15 37 C15 53.83 15 70.66 15 88 C10.05 90.475 10.05 90.475 5 93 C1.62858458 97.47682926 1.5639277 101.9557678 1.59594727 107.38867188 C1.58908401 108.20896378 1.58222076 109.02925568 1.57514954 109.87440491 C1.55692113 112.57269843 1.56071287 115.27040841 1.56640625 117.96875 C1.56184297 119.85152372 1.55653696 121.73429578 1.55052185 123.61706543 C1.54159885 127.55776753 1.54400515 131.49826687 1.55395508 135.43896484 C1.56545135 140.48297808 1.54521909 145.52629194 1.51603794 150.57021332 C1.49767317 154.45648627 1.49796882 158.34259163 1.50367546 162.22889709 C1.5038286 164.08839398 1.49779032 165.94790228 1.48538399 167.80735779 C1.47046815 170.4091252 1.48115432 173.00960053 1.49829102 175.61132812 C1.48378906 176.7570504 1.48378906 176.7570504 1.46899414 177.92591858 C1.54058346 183.12928572 2.44828242 186.17526772 6 190 C8.97 191.32 11.94 192.64 15 194 C15 231.62 15 269.24 15 308 C7 311 7 311 4 312 C2.83046584 314.42383077 2.83046584 314.42383077 2 317 C1.67 317.66 1.34 318.32 1 319 C0.84621148 320.95774069 0.75028537 322.92017352 0.68359375 324.8828125 C0.62075195 326.63271484 0.62075195 326.63271484 0.55664062 328.41796875 C0.51732422 329.64128906 0.47800781 330.86460937 0.4375 332.125 C0.39431641 333.35605469 0.35113281 334.58710938 0.30664062 335.85546875 C0.20031296 338.90352853 0.09828219 341.9516719 0 345 C-37.22267804 343.79475348 -77.853875 325.57340159 -103.59765625 298.5078125 C-104.06042969 298.01023437 -104.52320313 297.51265625 -105 297 C-105.804375 296.195625 -106.60875 295.39125 -107.4375 294.5625 C-108.283125 293.716875 -109.12875 292.87125 -110 292 C-110.53753906 291.52046875 -111.07507813 291.0409375 -111.62890625 290.546875 C-137.33787335 266.71643368 -153.86596053 227.52121085 -157 193 C-157.01017167 191.33336437 -157.01175162 189.66662524 -157 188 C-155.91900024 187.98598145 -155.91900024 187.98598145 -154.81616211 187.97167969 C-151.52260295 187.91769993 -148.23042201 187.83410573 -144.9375 187.75 C-143.80376953 187.73582031 -142.67003906 187.72164062 -141.50195312 187.70703125 C-134.83751677 187.51273281 -130.3848227 187.05357487 -125 183 C-121.37601958 178.09009105 -121.2916713 172.88306337 -122 167 C-123.2791099 163.66010192 -124.36876166 162.43884035 -127.28125 160.4140625 C-132.89234853 158.2804305 -138.41873755 158.42543022 -144.375 158.3125 C-145.58800781 158.27833984 -146.80101562 158.24417969 -148.05078125 158.20898438 C-151.03376181 158.12677625 -154.01645842 158.05753474 -157 158 C-156.0894329 127.0789036 -144.03679596 96.90006208 -126 72 C-125.236875 70.93910156 -124.47375 69.87820312 -123.6875 68.78515625 C-96.02708382 31.47035208 -54.5117641 7.31980235 -8.72265625 0.4453125 C-5.7432125 0.08890475 -2.98687815 -0.0366646 0 0 Z " fill="#F3F1E5" transform="translate(241,109)"/>
<path d="M0 0 C23.25450195 0 23.25450195 0 30.875 1.1875 C32.22960327 1.3882312 32.22960327 1.3882312 33.61157227 1.59301758 C80.8461341 8.9280845 125.08101575 29.6527487 159.26660156 63.29736328 C160.97290296 64.97338383 162.69903169 66.62652622 164.4296875 68.27734375 C172.06584529 75.63859541 178.67790287 83.49533065 185 92 C185.4237793 92.55768066 185.84755859 93.11536133 186.28417969 93.68994141 C193.54477172 103.25260431 199.45839709 113.36003241 205 124 C205.3801123 124.71687988 205.76022461 125.43375977 206.15185547 126.17236328 C216.9409349 146.72544258 224.70160974 170.01154262 228 193 C228.17225098 194.12011475 228.34450195 195.24022949 228.52197266 196.39428711 C230.09951062 207.54311176 230.39842711 218.56252986 230.375 229.8125 C230.37478851 230.75343506 230.37457703 231.69437012 230.37435913 232.66381836 C230.32421453 255.1000801 227.59019765 276.49965885 221 298 C220.77586426 298.74507813 220.55172852 299.49015625 220.32080078 300.2578125 C210.35226132 333.01259 193.01126659 361.57909237 169.98828125 386.7890625 C168.4039618 388.55080083 166.90609002 390.33088787 165.4375 392.1875 C162.88097236 395.13733958 160.16990516 397.58505274 157.19921875 400.10546875 C155.73517729 401.36667676 154.29946368 402.66154543 152.89453125 403.98828125 C136.35512576 419.55980415 116.51419732 431.45061284 96 441 C95.28392578 441.33386719 94.56785156 441.66773438 93.83007812 442.01171875 C63.79120988 455.80265034 32.94339733 461 0 461 C0 442.19 0 423.38 0 404 C-4.95 403.67 -9.9 403.34 -15 403 C-15.10823769 398.81180268 -15.18744544 394.62642115 -15.25 390.4375 C-15.28351563 389.25607422 -15.31703125 388.07464844 -15.3515625 386.85742188 C-15.42837688 380.00173856 -15.27091943 375.49118213 -11 370 C-7.8839317 367.03973512 -4.26113006 365.75599812 0 365.5 C4.26113006 365.75599812 7.8839317 367.03973512 11 370 C15.98853284 376.41382793 15.47358728 382.55604824 15.25 390.4375 C15.23195313 391.64599609 15.21390625 392.85449219 15.1953125 394.09960938 C15.14839357 397.06723184 15.08275602 400.03319661 15 403 C47.9785642 396.54403817 77.94495922 387.68963702 105 367 C106.39992188 365.93845703 106.39992188 365.93845703 107.828125 364.85546875 C127.03391544 349.72108125 141.96502269 330.77472302 153 309 C153.32049316 308.3714209 153.64098633 307.7428418 153.97119141 307.09521484 C158.55809928 297.9847477 162.01616444 288.76244458 165 279 C165.35964844 277.88238281 165.71929687 276.76476562 166.08984375 275.61328125 C169.08265356 265.88947276 170.58584413 256.04907732 172 246 C170.92685547 246.03927612 170.92685547 246.03927612 169.83203125 246.0793457 C166.5549156 246.18400779 163.27815263 246.24854496 160 246.3125 C158.31197266 246.3753418 158.31197266 246.3753418 156.58984375 246.43945312 C149.45231563 246.54380295 144.41984398 245.89884192 139 241 C135.39158721 236.15119531 135.14500035 230.8424976 136 225 C138.22926498 220.45890467 140.50389885 218.21637667 145 216 C148.04614258 215.65942383 148.04614258 215.65942383 151.39453125 215.70703125 C152.59658203 215.71669922 153.79863281 215.72636719 155.03710938 215.73632812 C156.28298828 215.76146484 157.52886719 215.78660156 158.8125 215.8125 C160.07771484 215.82603516 161.34292969 215.83957031 162.64648438 215.85351562 C165.76475643 215.88881682 168.88216042 215.93813181 172 216 C171.68391509 214.09499874 171.36743115 212.19006368 171.05078125 210.28515625 C170.87458252 209.22433838 170.69838379 208.16352051 170.5168457 207.07055664 C164.0609234 168.71621804 147.95241162 136.06741867 121 108 C120.46938965 107.4445752 119.9387793 106.88915039 119.39208984 106.31689453 C115.20556618 102.01891994 110.778963 98.24749389 106 94.625 C104.88915039 93.78255737 104.88915039 93.78255737 103.75585938 92.9230957 C80.17883009 75.31330984 52.0573463 63.54713442 22.91015625 59.4296875 C20.24910925 59.03678123 17.63472769 58.53776748 15 58 C15.02618408 58.74572266 15.05236816 59.49144531 15.0793457 60.25976562 C15.18395551 63.67295858 15.24852969 67.08581328 15.3125 70.5 C15.35439453 71.67304687 15.39628906 72.84609375 15.43945312 74.0546875 C15.54097797 81.28325679 15.04099481 86.53831785 10 92 C6.16289581 94.72860742 2.75656291 95.56112813 -1.98046875 95.34375 C-7.11662718 94.46951027 -10.02840592 92.24919239 -13.1875 88.1875 C-16.15950128 82.72719563 -15.42120368 76.59742959 -15.25 70.5625 C-15.23195312 69.35400391 -15.21390625 68.14550781 -15.1953125 66.90039062 C-15.14840119 63.93325032 -15.07666529 60.96652064 -15 58 C-10.05 57.67 -5.1 57.34 0 57 C0 38.19 0 19.38 0 0 Z " fill="#DD513C" transform="translate(256,51)"/>
<path d="M0 0 C0.6909375 0.67546875 1.381875 1.3509375 2.09375 2.046875 C3.4098625 3.35057134 4.70814617 4.67226134 6 6 C4.5434527 9.7090221 2.86545938 10.93859547 -0.5625 12.875 C-25.83171317 28.36684441 -45.80064162 51.12681665 -62.65649414 75.11572266 C-64.07269333 77.10195296 -65.52924137 79.0539237 -67 81 C-71.52782209 78.94699322 -74.46871746 75.86205853 -77.9375 72.375 C-78.54529297 71.78332031 -79.15308594 71.19164062 -79.77929688 70.58203125 C-88.34706638 62.02350422 -92.26565615 53.59467377 -93.02734375 41.44921875 C-92.90416739 25.91140079 -84.19182146 16.58747147 -74 6 C-73.42975098 5.40251953 -72.85950195 4.80503906 -72.27197266 4.18945312 C-52.34053426 -16.60951845 -52.34053426 -16.60951845 -37.32421875 -17.99609375 C-20.91988262 -18.02366406 -11.12733162 -10.93548107 0 0 Z " fill="#105B6D" transform="translate(128,78)"/>
<path d="M0 0 C3.93792318 2.56821077 6.74612583 5.61725165 8.875 9.875 C8.96660337 11.93792985 8.9925118 14.00388885 8.98852539 16.06884766 C8.98844986 17.37004547 8.98837433 18.67124329 8.98829651 20.01187134 C8.98318947 21.43760211 8.97797347 22.8633325 8.97265625 24.2890625 C8.97079147 25.74351961 8.96936785 27.19797734 8.96836853 28.6524353 C8.96454805 32.48292776 8.95472176 36.31338237 8.94366455 40.14385986 C8.93344035 44.05163053 8.92886874 47.95940731 8.92382812 51.8671875 C8.91309908 59.5364756 8.89602828 67.2057325 8.875 74.875 C9.62595947 74.84881592 10.37691895 74.82263184 11.15063477 74.7956543 C14.5793739 74.69120824 18.00777758 74.62652149 21.4375 74.5625 C22.61892578 74.52060547 23.80035156 74.47871094 25.01757812 74.43554688 C32.38025118 74.3324282 36.47097965 74.71385697 41.875 79.875 C44.91972147 84.29475697 45.7736981 88.59514866 44.875 93.875 C43.16400055 98.89596864 40.68069975 101.39821249 36.00038147 104.00665283 C32.04267639 105.62361527 28.03371105 105.44404347 23.8125 105.40625 C22.86238037 105.4100769 21.91226074 105.41390381 20.93334961 105.41784668 C18.93309463 105.4205575 16.9328037 105.41325472 14.93261719 105.39648438 C11.88395595 105.37506293 8.83765109 105.39631444 5.7890625 105.421875 C3.8385365 105.41923158 1.88801197 105.4141063 -0.0625 105.40625 C-1.41903687 105.41839539 -1.41903687 105.41839539 -2.80297852 105.43078613 C-8.75406449 105.34331126 -12.32225092 104.47856455 -17.125 100.875 C-20.98975568 96.18761765 -21.70530074 92.40689937 -21.64257812 86.50219727 C-21.6495874 85.68351166 -21.65659668 84.86482605 -21.66381836 84.02133179 C-21.68135583 81.3276734 -21.66978996 78.63507446 -21.65625 75.94140625 C-21.6589464 74.06102803 -21.66283006 72.18065117 -21.66784668 70.30027771 C-21.67373619 66.3637054 -21.6651974 62.42749675 -21.64648438 58.4909668 C-21.62371087 53.45598886 -21.6368112 48.42186461 -21.66077423 43.38691807 C-21.67526043 39.50487389 -21.67061302 35.62303053 -21.66026306 31.74098015 C-21.65760276 29.88510982 -21.66084095 28.029221 -21.67018127 26.17337227 C-21.68039177 23.57415949 -21.66478321 20.97630913 -21.64257812 18.37719727 C-21.65067505 17.61697769 -21.65877197 16.85675812 -21.66711426 16.07350159 C-21.58097804 10.60446672 -20.19226593 7.41291217 -17.125 2.875 C-12.14647762 -1.75537396 -6.30765424 -2.27075553 0 0 Z " fill="#115D6E" transform="translate(263.125,198.125)"/>
<path d="M0 0 C6.01476741 -0.09198455 12.02708101 -0.17157646 18.04199219 -0.21972656 C20.0866728 -0.2398042 22.13129627 -0.26707225 24.17578125 -0.30175781 C27.11993537 -0.35044519 30.06332834 -0.37300744 33.0078125 -0.390625 C33.9174173 -0.41127014 34.82702209 -0.43191528 35.76419067 -0.45318604 C41.35797597 -0.45515017 44.57918183 0.22997757 49 4 C53.05630398 9.22259857 52.77397544 14.65340142 52 21 C49.83017946 25.58073224 47.57303813 27.89950346 43 30 C39.69752777 30.40536537 36.42834241 30.34921362 33.10546875 30.29296875 C32.15811356 30.28872391 31.21075836 30.28447906 30.23469543 30.28010559 C27.21867053 30.26335689 24.20332184 30.22571146 21.1875 30.1875 C19.13868155 30.17244825 17.08985259 30.1587607 15.04101562 30.14648438 C10.02687571 30.1160218 5.01419185 30.05729292 0 30 C0 20.1 0 10.2 0 0 Z " fill="#DE503B" transform="translate(256,0)"/>
<path d="M0 0 C4.61865796 2.2797222 7.38798733 5.40923611 9.078125 10.33984375 C9.5525074 14.83224509 9.45609086 19.26654727 9.328125 23.77734375 C9.31007813 24.98583984 9.29203125 26.19433594 9.2734375 27.43945312 C9.22651857 30.40707559 9.16088102 33.37304036 9.078125 36.33984375 C4.21959304 37.1277138 -0.43875559 37.47508437 -5.359375 37.46484375 C-6.59558594 37.46742188 -7.83179688 37.47 -9.10546875 37.47265625 C-13.11513915 37.33311808 -16.95100566 36.89391854 -20.921875 36.33984375 C-21.03867452 32.15258081 -21.10932827 27.96574074 -21.171875 23.77734375 C-21.20539063 22.59591797 -21.23890625 21.41449219 -21.2734375 20.19726562 C-21.35025188 13.34158231 -21.19279443 8.83102588 -16.921875 3.33984375 C-12.22527001 -1.12193099 -6.03821296 -2.07410161 0 0 Z " fill="#125D6F" transform="translate(261.921875,417.66015625)"/>
<path d="M0 0 C1.20205078 0.00966797 2.40410156 0.01933594 3.64257812 0.02929688 C5.51139648 0.06700195 5.51139648 0.06700195 7.41796875 0.10546875 C9.31579102 0.12577148 9.31579102 0.12577148 11.25195312 0.14648438 C14.37022518 0.18178557 17.48762917 0.23110056 20.60546875 0.29296875 C21.82980194 2.74163512 21.73474743 4.35466896 21.73828125 7.08984375 C21.74021484 8.5284375 21.74021484 8.5284375 21.7421875 9.99609375 C21.73832031 11.0015625 21.73445313 12.00703125 21.73046875 13.04296875 C21.73626953 14.52796875 21.73626953 14.52796875 21.7421875 16.04296875 C21.73569012 20.90300748 21.62892357 25.51684626 20.60546875 30.29296875 C16.60585976 30.43935084 12.60694817 30.52740198 8.60546875 30.60546875 C7.48011719 30.64736328 6.35476563 30.68925781 5.1953125 30.73242188 C-1.94221562 30.8367717 -6.97468727 30.19181067 -12.39453125 25.29296875 C-16.00294404 20.44416406 -16.2495309 15.13546635 -15.39453125 9.29296875 C-11.97529783 2.32786363 -7.63427068 -0.10854413 0 0 Z " fill="#145E6F" transform="translate(407.39453125,266.70703125)"/>
<path d="M0 0 C4.18726294 -0.11679952 8.37410301 -0.18745327 12.5625 -0.25 C14.33463867 -0.30027344 14.33463867 -0.30027344 16.14257812 -0.3515625 C23.01374621 -0.42855038 27.46264841 -0.21523113 33 4 C36.42286604 7.75411114 36.51824127 11.61424437 36.34375 16.5 C35.61621529 21.79116151 33.44262942 24.89424833 29.15625 28.1796875 C23.82533833 31.09099816 17.9637086 30.42445301 12.0625 30.25 C10.90169922 30.23195313 9.74089844 30.21390625 8.54492188 30.1953125 C5.69575253 30.14841259 2.84831469 30.08279059 0 30 C-1.23120219 24.25438978 -1.14783005 18.59449204 -1.125 12.75 C-1.12886719 11.74453125 -1.13273437 10.7390625 -1.13671875 9.703125 C-1.13542969 8.7440625 -1.13414063 7.785 -1.1328125 6.796875 C-1.13168457 5.92385742 -1.13055664 5.05083984 -1.12939453 4.15136719 C-1 2 -1 2 0 0 Z " fill="#165F70" transform="translate(84,267)"/>
<path d="M0 0 C9.9 0 19.8 0 30 0 C30.103125 4.125 30.20625 8.25 30.3125 12.5 C30.38078003 14.42682617 30.38078003 14.42682617 30.45043945 16.39257812 C30.53609795 23.49725986 29.94543514 28.64185229 25 34 C21.16289581 36.72860742 17.75656291 37.56112813 13.01953125 37.34375 C7.88337282 36.46951027 4.97159408 34.24919239 1.8125 30.1875 C-1.15871508 24.72864008 -0.41978306 18.59393054 -0.25 12.5625 C-0.1675 8.416875 -0.085 4.27125 0 0 Z " fill="#115D6E" transform="translate(241,109)"/>
<path d="M0 0 C9.9 0 19.8 0 30 0 C30 6.93 30 13.86 30 21 C20.1 21 10.2 21 0 21 C0 14.07 0 7.14 0 0 Z " fill="#26879C" transform="translate(241,30)"/>
<path d="M0 0 C0.66 0.33 1.32 0.66 2 1 C-0.31 3.31 -2.62 5.62 -5 8 C-5 5 -5 5 -2.5 2.3125 C-1.675 1.549375 -0.85 0.78625 0 0 Z " fill="#F6533D" transform="translate(211,1)"/>
</svg>
