<?xml version="1.0" encoding="UTF-8"?>
<svg version="1.1" xmlns="http://www.w3.org/2000/svg" width="512" height="512">
<path d="M0 0 C11.21085584 9.76039471 21.12761631 20.15442293 29.875 32.1875 C30.4105249 32.92363525 30.9460498 33.65977051 31.49780273 34.41821289 C35.05680318 39.41822622 38.12872564 44.57745713 41 50 C45.11385223 46.26650394 48.12027174 41.82066484 51.3125 37.3125 C52.47023978 35.69451453 53.62908322 34.07731816 54.7890625 32.4609375 C55.34239258 31.68975586 55.89572266 30.91857422 56.46582031 30.12402344 C64.21842389 19.39078805 64.21842389 19.39078805 67 18 C70.92525422 17.629693 73.17502708 17.42916565 76.47265625 19.7109375 C78.97923983 21.98119713 81.02856076 24.28705875 83.125 26.9375 C84.28902344 28.38962891 84.28902344 28.38962891 85.4765625 29.87109375 C85.88551758 30.38140137 86.29447266 30.89170898 86.71582031 31.41748047 C88.9326474 34.14931948 91.21850527 36.82215569 93.5 39.5 C96.85496935 43.44606921 100.17223129 47.41643672 103.4375 51.4375 C106.89274151 55.68392382 110.42697834 59.85296294 114 64 C118.31928956 69.01319488 122.55097119 74.0853732 126.72265625 79.22265625 C129.28203972 82.34396267 131.88589916 85.42453424 134.5 88.5 C137.85447127 92.44650481 141.17221829 96.41642072 144.4375 100.4375 C147.89277372 104.68396341 151.4279178 108.85211947 155 113 C156.51749756 114.76876602 158.03401827 116.53836115 159.54980469 118.30859375 C160.49123139 119.40660793 161.4344869 120.50305772 162.37988281 121.59765625 C163.63716136 123.05748079 164.88141587 124.52849209 166.125 126 C166.82882812 126.825 167.53265625 127.65 168.2578125 128.5 C170.23690181 131.33994879 171.33895594 133.59517031 172 137 C171.07348633 139.15917969 171.07348633 139.15917969 169 141 C166.00511724 141.35519237 163.38357009 141.46627491 160.39453125 141.390625 C159.55532639 141.38496521 158.71612152 141.37930542 157.85148621 141.37347412 C155.17124367 141.35108406 152.49233837 141.30088453 149.8125 141.25 C147.99546202 141.22993832 146.17840308 141.21168697 144.36132812 141.1953125 C139.90703688 141.15121086 135.45374515 141.08216659 131 141 C131.00870117 141.87358154 131.01740234 142.74716309 131.02636719 143.6472168 C131.35115759 200.89152579 116.24379447 259.82343006 75.4375 301.625 C74.633125 302.40875 73.82875 303.1925 73 304 C72.48824219 304.556875 71.97648437 305.11375 71.44921875 305.6875 C50.2511034 328.20198654 16.96728153 342.76586851 -13.86035156 344.1262207 C-38.35557026 344.7225108 -62.02022002 342.71113972 -84 331 C-85 330 -85 330 -85.0625 326.4375 C-85.0315625 324.7359375 -85.0315625 324.7359375 -85 323 C-85.64735107 323.09087891 -86.29470215 323.18175781 -86.96166992 323.27539062 C-138.83720222 330.41107799 -189.57948103 321.03999391 -232 289 C-236.4552234 285.47241064 -240.72921303 281.74672708 -245 278 C-246.29051446 276.93610083 -247.58195049 275.87331667 -248.875 274.8125 C-252.65409737 271.54957203 -255.78421288 267.80618553 -259 264 C-260.2375 262.61167969 -260.2375 262.61167969 -261.5 261.1953125 C-272.99895291 248.19234717 -281.72911445 233.71872776 -289 218 C-289.53238281 216.87464844 -290.06476563 215.74929688 -290.61328125 214.58984375 C-310.07909697 171.58397181 -310.79421131 120.72951681 -294.78515625 76.53125 C-280.30198576 38.7330967 -254.75117288 7.19514714 -221 -15 C-219.99308105 -15.66346436 -219.99308105 -15.66346436 -218.96582031 -16.34033203 C-200.07454383 -28.57746474 -178.97051499 -36.41986585 -157 -41 C-156.15469727 -41.17644043 -155.30939453 -41.35288086 -154.43847656 -41.53466797 C-99.7356979 -52.34451984 -42.12594415 -35.86574192 0 0 Z " fill="#8AC9FD" transform="translate(323,106)"/>
<path d="M0 0 C2.98071871 2.6682686 5.86518506 5.42766685 8.74609375 8.203125 C9.45121094 8.84507812 10.15632812 9.48703125 10.8828125 10.1484375 C21.3987788 20.00315643 29.19840755 32.65402614 35.75048828 45.38085938 C36.84900379 47.46096232 36.84900379 47.46096232 38.8359375 50.28125 C40.7935091 53.53055252 41.68986587 55.39368608 41.74609375 59.203125 C39.44552152 64.78186994 35.36110263 69.40295574 31.54638672 74.00537109 C29.22892888 76.8344673 27.06239995 79.7613886 24.89233398 82.70410156 C23.0047176 85.26212318 21.0880298 87.79679129 19.15649414 90.32177734 C18.15022782 91.66404638 17.17031537 93.02624029 16.20874023 94.40087891 C15.69641846 95.1232373 15.18409668 95.8455957 14.65625 96.58984375 C14.19871338 97.25072998 13.74117676 97.91161621 13.26977539 98.5925293 C10.61766834 101.39591821 7.44898565 101.47468725 3.74609375 102.203125 C1.47638668 104.047262 0.90224704 105.24248577 0.4375 108.1015625 C0.20886617 111.82898674 0.29316586 113.61431874 2.62109375 116.640625 C6.66477653 119.61392116 10.19133414 119.42059528 15.05859375 119.453125 C15.81849609 119.47375 16.57839844 119.494375 17.36132812 119.515625 C21.92369817 119.54733565 25.18913017 119.37970035 28.74609375 116.203125 C29.40609375 114.223125 30.06609375 112.243125 30.74609375 110.203125 C37.34609375 110.203125 43.94609375 110.203125 50.74609375 110.203125 C50.74609375 149.83356898 35.08844187 184.66998785 7.74609375 213.203125 C-19.17172668 239.84674013 -56.39656788 254.31065091 -94.12890625 254.640625 C-133.91047268 254.07505062 -170.10831536 237.05741208 -197.84838867 209.02612305 C-218.14748076 187.88267369 -229.86888119 161.7784999 -235.25390625 133.203125 C-235.42897705 132.28909912 -235.60404785 131.37507324 -235.78442383 130.43334961 C-238.49834856 111.76047485 -237.51653292 90.28497049 -232.25390625 72.203125 C-232.05555176 71.4699707 -231.85719727 70.73681641 -231.65283203 69.98144531 C-226.28304642 50.39048526 -216.23367352 32.73210298 -203.25390625 17.203125 C-202.79516113 16.65333984 -202.33641602 16.10355469 -201.86376953 15.53710938 C-180.7944798 -9.31812763 -151.95040558 -25.06975914 -120.25390625 -31.796875 C-119.13757813 -32.04179688 -118.02125 -32.28671875 -116.87109375 -32.5390625 C-75.99784449 -39.87013669 -31.19777079 -27.24975933 0 0 Z " fill="#EBEEF0" transform="translate(295.25390625,136.796875)"/>
<path d="M0 0 C3.67454556 2.54257655 6.36442412 5.44741833 9.125 8.9375 C9.90101563 9.90558594 10.67703125 10.87367188 11.4765625 11.87109375 C11.88551758 12.38140137 12.29447266 12.89170898 12.71582031 13.41748047 C14.9326474 16.14931948 17.21850527 18.82215569 19.5 21.5 C22.85496935 25.44606921 26.17223129 29.41643672 29.4375 33.4375 C32.89274151 37.68392382 36.42697834 41.85296294 40 46 C44.31928956 51.01319488 48.55097119 56.0853732 52.72265625 61.22265625 C55.28203972 64.34396267 57.88589916 67.42453424 60.5 70.5 C63.85447127 74.44650481 67.17221829 78.41642072 70.4375 82.4375 C73.89277372 86.68396341 77.4279178 90.85211947 81 95 C82.51749756 96.76876602 84.03401827 98.53836115 85.54980469 100.30859375 C86.49123139 101.40660793 87.4344869 102.50305772 88.37988281 103.59765625 C89.63716136 105.05748079 90.88141587 106.52849209 92.125 108 C93.18074219 109.2375 93.18074219 109.2375 94.2578125 110.5 C96.23690181 113.33994879 97.33895594 115.59517031 98 119 C97.07348633 121.15917969 97.07348633 121.15917969 95 123 C92.00511724 123.35519237 89.38357009 123.46627491 86.39453125 123.390625 C85.13572395 123.38213531 85.13572395 123.38213531 83.85148621 123.37347412 C81.17124367 123.35108406 78.49233837 123.30088453 75.8125 123.25 C73.99546202 123.22993832 72.17840308 123.21168697 70.36132812 123.1953125 C65.90703688 123.15121086 61.45374515 123.08216659 57 123 C57.00870117 123.87358154 57.01740234 124.74716309 57.02636719 125.6472168 C57.35115759 182.89152579 42.24379447 241.82343006 1.4375 283.625 C0.633125 284.40875 -0.17125 285.1925 -1 286 C-1.51175781 286.556875 -2.02351562 287.11375 -2.55078125 287.6875 C-23.7488966 310.20198654 -57.03271847 324.76586851 -87.86035156 326.1262207 C-112.35557026 326.7225108 -136.02022002 324.71113972 -158 313 C-159 312 -159 312 -159.0625 308.4375 C-159.041875 307.303125 -159.02125 306.16875 -159 305 C-157.64583333 304.45833333 -156.29166667 303.91666667 -154.9375 303.375 C-154.0196875 303.00503906 -153.101875 302.63507813 -152.15625 302.25390625 C-149.97644728 301.38792027 -147.7882711 300.54282247 -145.59375 299.71484375 C-126.19134264 292.27310845 -110.17366529 282.29439661 -95 268 C-94.26265625 267.33871094 -93.5253125 266.67742187 -92.765625 265.99609375 C-56.54509897 232.15173698 -50.87532373 177.58383115 -49.25341797 131.07617188 C-49.16502987 128.38424029 -49.08190648 125.69213659 -49 123 C-56.26 123 -63.52 123 -71 123 C-71.33 124.98 -71.66 126.96 -72 129 C-76.5838553 133.24431046 -80.56458211 133.62517577 -86.5 133.5 C-87.23347656 133.51546875 -87.96695313 133.5309375 -88.72265625 133.546875 C-93.9004269 133.50982476 -96.89708344 132.39377049 -101 129 C-102.60904424 125.78191153 -102.45637009 122.4898889 -102 119 C-100.5625 116.1875 -100.5625 116.1875 -98 114 C-96.6315463 113.65997688 -95.25528287 113.35077147 -93.875 113.0625 C-87.08292564 111.04144373 -84.10958725 104.74863079 -80.43798828 99.14208984 C-77.83921465 95.27084369 -75.03298335 91.55231378 -72.25 87.8125 C-71.04641319 86.18393495 -69.84329304 84.55502491 -68.640625 82.92578125 C-68.03798828 82.11061035 -67.43535156 81.29543945 -66.81445312 80.45556641 C-63.29258059 75.68928627 -59.77854064 70.91722232 -56.26635742 66.14379883 C-53.27307405 62.07725339 -50.27102529 58.01765023 -47.25390625 53.96875 C-41.85716209 46.71240314 -36.56799082 39.50514164 -31.828125 31.796875 C-28.01852338 25.96851012 -23.70115985 20.49244541 -19.48242188 14.95703125 C-18.07282413 13.09613936 -16.68105283 11.22359924 -15.296875 9.34375 C-14.88550293 8.78679443 -14.47413086 8.22983887 -14.05029297 7.65600586 C-12.94590301 6.15863294 -11.84396068 4.65945565 -10.7421875 3.16015625 C-7.62842883 -0.70062524 -4.79325814 -0.40620832 0 0 Z " fill="#6BF4C2" transform="translate(397,124)"/>
<path d="M0 0 C0 0.33 0 0.66 0 1 C-0.69859131 1.03963867 -1.39718262 1.07927734 -2.11694336 1.12011719 C-41.26719685 3.44784845 -73.57372456 15.36224815 -102 43 C-102.84292603 43.81331787 -102.84292603 43.81331787 -103.70288086 44.64306641 C-121.8340716 62.39080312 -134.0678019 86.1389749 -139.6875 110.75 C-139.89955078 111.64332031 -140.11160156 112.53664063 -140.33007812 113.45703125 C-144.86993232 132.90536562 -145.15556114 155.59542362 -140 175 C-139.79600586 175.78487793 -139.59201172 176.56975586 -139.38183594 177.37841797 C-133.46344491 199.64345671 -124.31292977 219.60983802 -109 237 C-108.26910156 237.85207031 -107.53820312 238.70414063 -106.78515625 239.58203125 C-86.6588908 262.60874268 -58.88850187 277.96919823 -29 284 C-27.63101563 284.29197266 -27.63101563 284.29197266 -26.234375 284.58984375 C-18.86845272 286.06518198 -11.49274592 286.58434402 -4 287 C-4 287.33 -4 287.66 -4 288 C-44.56724917 289.23904494 -81.95517322 276.25522754 -111.82421875 248.4921875 C-135.20351303 226.15721753 -149.03922395 198.63056967 -155 167 C-155.1750708 166.08597412 -155.3501416 165.17194824 -155.53051758 164.23022461 C-158.24444231 145.55734985 -157.26262667 124.08184549 -152 106 C-151.80164551 105.2668457 -151.60329102 104.53369141 -151.39892578 103.77832031 C-146.02914017 84.18736026 -135.97976727 66.52897798 -123 51 C-122.54125488 50.45021484 -122.08250977 49.90042969 -121.60986328 49.33398438 C-100.54057355 24.47874737 -71.69649933 8.72711586 -40 2 C-38.88367188 1.75507812 -37.76734375 1.51015625 -36.6171875 1.2578125 C-24.58622454 -0.90007521 -12.17101534 -0.17846064 0 0 Z " fill="#D0D1D7" transform="translate(215,103)"/>
<path d="M0 0 C5.28 0 10.56 0 16 0 C17.26483256 55.02021621 3.19528284 114.80954519 -35.08203125 156 C-37.3549252 158.3701053 -39.64790503 160.70821516 -42 163 C-42.51175781 163.556875 -43.02351563 164.11375 -43.55078125 164.6875 C-64.42040631 186.85309749 -97.9080516 202.09463209 -128.41650391 203.07788086 C-130.94514367 203.09771621 -133.47142343 203.08774692 -136 203.0625 C-136.87011719 203.05798828 -137.74023438 203.05347656 -138.63671875 203.04882812 C-140.75784293 203.0371736 -142.8789311 203.01924357 -145 203 C-145 202.67 -145 202.34 -145 202 C-143.8346875 201.87625 -142.669375 201.7525 -141.46875 201.625 C-106.40837682 197.40745614 -77.57172851 181.7676753 -53 157 C-52.25621094 156.25363281 -51.51242187 155.50726563 -50.74609375 154.73828125 C-11.54667885 113.54904834 -2.17280317 54.51465861 0 0 Z " fill="#04E49B" transform="translate(438,247)"/>
<path d="M0 0 C3.03978021 0.68164768 4.80055419 2.23591662 6.93359375 4.43359375 C8.19151377 6.94943378 7.93972193 8.40883905 7.75805664 11.21191406 C4.63349534 37.69227693 4.63349534 37.69227693 11.18701172 62.16503906 C16.65036178 67.21174872 22.88165376 69.5210682 29.96484375 71.47558594 C35.68526427 73.32155059 40.59347905 76.42342169 43.93359375 81.43359375 C44.47857555 86.26057544 44.64664304 88.32951744 41.99609375 92.43359375 C37.92232288 95.09401554 34.60926685 95.26929788 29.93359375 94.43359375 C25.81779322 92.66753049 22.09948783 90.36956255 18.30859375 87.99609375 C17.25913574 87.35953857 16.20967773 86.7229834 15.12841797 86.06713867 C13.0294999 84.79266891 10.93514024 83.51065769 8.84570312 82.22070312 C6.28347066 80.64830695 3.7051805 79.11476432 1.10546875 77.60546875 C0.06253662 76.99723267 0.06253662 76.99723267 -1.00146484 76.37670898 C-2.25803995 75.64436575 -3.51609017 74.91454533 -4.77587891 74.18774414 C-7.69563398 72.45352143 -9.13894798 71.32478116 -11.06640625 68.43359375 C-11.34056091 65.7147522 -11.34056091 65.7147522 -11.37280273 62.38916016 C-11.38879013 61.14421783 -11.40477753 59.89927551 -11.42124939 58.61660767 C-11.42762615 57.25612802 -11.43301887 55.89564346 -11.4375 54.53515625 C-11.44646795 53.13894555 -11.45558983 51.74273583 -11.46485901 50.3465271 C-11.48134715 47.41947089 -11.48904871 44.49252902 -11.49194336 41.56542969 C-11.49732593 37.82027651 -11.53499912 34.07620264 -11.58068752 30.33135414 C-11.61047707 27.44707344 -11.6176673 24.56305199 -11.61866951 21.67863083 C-11.62286848 20.29833408 -11.63529018 18.91803633 -11.65618706 17.53789139 C-11.68313099 15.60438481 -11.67516398 13.67048789 -11.66577148 11.73681641 C-11.67084213 10.63777985 -11.67591278 9.53874329 -11.68113708 8.40640259 C-10.36090642 2.02183043 -6.03335568 -0.3763719 0 0 Z " fill="#A79BA7" transform="translate(204.06640625,182.56640625)"/>
<path d="M0 0 C3.67005445 2.54929415 6.36397842 5.44685485 9.125 8.9375 C10.28902344 10.38962891 10.28902344 10.38962891 11.4765625 11.87109375 C11.88551758 12.38140137 12.29447266 12.89170898 12.71582031 13.41748047 C14.9326474 16.14931948 17.21850527 18.82215569 19.5 21.5 C22.85496935 25.44606921 26.17223129 29.41643672 29.4375 33.4375 C32.89274151 37.68392382 36.42697834 41.85296294 40 46 C44.31928956 51.01319488 48.55097119 56.0853732 52.72265625 61.22265625 C55.28203972 64.34396267 57.88589916 67.42453424 60.5 70.5 C63.85447127 74.44650481 67.17221829 78.41642072 70.4375 82.4375 C73.89277372 86.68396341 77.4279178 90.85211947 81 95 C82.51749756 96.76876602 84.03401827 98.53836115 85.54980469 100.30859375 C86.49123139 101.40660793 87.4344869 102.50305772 88.37988281 103.59765625 C89.63716136 105.05748079 90.88141587 106.52849209 92.125 108 C93.18074219 109.2375 93.18074219 109.2375 94.2578125 110.5 C96.23690181 113.33994879 97.33895594 115.59517031 98 119 C97.13671875 121.359375 97.13671875 121.359375 95 123 C92.12961948 123.29561076 89.66245255 123.37943016 86.8125 123.25 C86.06291016 123.23195313 85.31332031 123.21390625 84.54101562 123.1953125 C82.6934629 123.14824109 80.84656841 123.07649766 79 123 C79.99 121.515 79.99 121.515 81 120 C80.7878958 115.0884622 79.38694553 112.77588701 76 109.3125 C72.73466315 105.8617497 69.61032699 102.38413234 66.625 98.6875 C63.29981938 94.5802647 59.92337367 90.52516173 56.5 86.5 C53.12703063 82.53108112 49.78823022 78.53982569 46.5 74.5 C41.41824323 68.26083244 36.21105894 62.13108038 31 56 C25.0399173 48.98765442 19.12241205 41.95039195 13.3125 34.8125 C10.2829398 31.12789975 7.19551838 27.49418613 4.10571289 23.86010742 C0.26749292 19.33757992 -3.48995495 14.7547211 -7.22265625 10.14453125 C-8.97255709 7.96529769 -8.97255709 7.96529769 -11 6 C-10.8125 4 -10.8125 4 -10 2 C-6.2626144 -0.4915904 -4.42668417 -0.45793285 0 0 Z " fill="#04E49A" transform="translate(397,124)"/>
<path d="M0 0 C49.89772676 -1.5557028 95.94903548 16.9182527 132.47119141 50.66723633 C140.85150423 58.55104706 148.1167678 66.89073975 154.875 76.1875 C155.4105249 76.92363525 155.9460498 77.65977051 156.49780273 78.41821289 C159.12162114 82.1043959 161.61653819 85.85832819 163.9453125 89.73828125 C164.36570801 90.43606689 164.78610352 91.13385254 165.21923828 91.8527832 C166.22306243 94.61345655 165.82880926 96.21734271 165 99 C163.80859375 101.01953125 163.80859375 101.01953125 162.4375 102.8125 C161.98246094 103.41707031 161.52742187 104.02164063 161.05859375 104.64453125 C160.70925781 105.09183594 160.35992187 105.53914063 160 106 C157.77750655 103.9405237 156.32288986 102.02246803 154.94140625 99.33203125 C154.56193848 98.61176758 154.1824707 97.89150391 153.79150391 97.14941406 C153.18314697 95.9926416 153.18314697 95.9926416 152.5625 94.8125 C147.52334401 85.51260944 141.64152937 77.2140776 135 69 C134.50209961 68.38108887 134.00419922 67.76217773 133.49121094 67.12451172 C110.21487213 38.44230009 78.3757092 18.30736787 43 8 C41.99646484 7.70633545 41.99646484 7.70633545 40.97265625 7.40673828 C27.58869167 3.6135107 13.80201577 2.38163415 0 1 C0 0.67 0 0.34 0 0 Z " fill="#62B7FE" transform="translate(198,62)"/>
<path d="M0 0 C0.78117187 -0.01095703 1.56234375 -0.02191406 2.3671875 -0.03320312 C7.67461692 0.03380987 10.80458962 1.05539914 15 4.5625 C16.57455739 7.71161479 16.34799118 10.08258816 16 13.5625 C14.22719439 16.53922584 12.14391985 18.99054007 9 20.5625 C6.23453858 20.74044636 3.51736725 20.84011722 0.75 20.875 C-0.00152344 20.90400391 -0.75304687 20.93300781 -1.52734375 20.96289062 C-6.83874091 21.02314208 -9.76840573 20.04657761 -14 16.5625 C-16.09390974 13.92235293 -16 12.55074536 -16 9.125 C-14.95987456 5.41955312 -13.86002818 3.94269515 -10.86328125 1.59008789 C-7.38662111 -0.32726831 -3.881453 -0.1184932 0 0 Z " fill="#A89DA9" transform="translate(94,236.4375)"/>
<path d="M0 0 C7.4341618 0.70133602 12.51533161 7.05074098 17.3125 12.3125 C19.81333894 16.06375841 19.52472497 17.83316893 18.90625 22.1484375 C18.3125 24.3125 18.3125 24.3125 16.25 26.875 C12.45164852 28.73376775 9.38678347 29.42709141 5.3125 28.3125 C2.23515852 26.34946791 -0.17750775 23.94644249 -2.6875 21.3125 C-3.29335938 20.73757813 -3.89921875 20.16265625 -4.5234375 19.5703125 C-7.4081192 16.63145838 -9.08447988 14.37256017 -9.375 10.1875 C-8.56312204 5.61146057 -7.25216326 4.18161921 -3.6875 1.3125 C-2.6875 0.3125 -2.6875 0.3125 0 0 Z " fill="#A89CA8" transform="translate(273.6875,308.6875)"/>
<path d="M0 0 C7.4341618 0.70133602 12.51533161 7.05074098 17.3125 12.3125 C19.81333894 16.06375841 19.52472497 17.83316893 18.90625 22.1484375 C18.3125 24.3125 18.3125 24.3125 16.25 26.875 C12.45164852 28.73376775 9.38678347 29.42709141 5.3125 28.3125 C2.23515852 26.34946791 -0.17750775 23.94644249 -2.6875 21.3125 C-3.29335937 20.73757812 -3.89921875 20.16265625 -4.5234375 19.5703125 C-7.4081192 16.63145838 -9.08447988 14.37256017 -9.375 10.1875 C-8.56312204 5.61146057 -7.25216326 4.18161921 -3.6875 1.3125 C-2.6875 0.3125 -2.6875 0.3125 0 0 Z " fill="#A89CA8" transform="translate(120.6875,155.6875)"/>
<path d="M0 0 C4.70022057 1.04449346 7.14180127 2.61895191 9.8125 6.625 C9.859375 8.78125 9.859375 8.78125 9.5625 11.125 C9.47484375 11.8984375 9.3871875 12.671875 9.296875 13.46875 C8.8125 15.625 8.8125 15.625 6.8125 18.625 C6.1525 18.625 5.4925 18.625 4.8125 18.625 C4.8125 19.285 4.8125 19.945 4.8125 20.625 C4.1525 20.625 3.4925 20.625 2.8125 20.625 C2.8125 21.285 2.8125 21.945 2.8125 22.625 C2.1525 22.625 1.4925 22.625 0.8125 22.625 C0.8125 23.285 0.8125 23.945 0.8125 24.625 C-2.0860258 27.8040283 -4.47549033 28.96873057 -8.6875 29.25 C-12.49301666 29.06575963 -13.14205723 28.66302355 -16.25 26.0625 C-18.56405196 21.95692394 -19.14496502 20.2527476 -18.1875 15.625 C-16.19582802 12.58949993 -13.78957459 10.14345405 -11.1875 7.625 C-10.51589844 6.944375 -9.84429687 6.26375 -9.15234375 5.5625 C-6.12463429 2.66896649 -4.16637228 0.81693574 0 0 Z " fill="#A89CA8" transform="translate(130.1875,308.375)"/>
<path d="M0 0 C4.70022057 1.04449346 7.14180127 2.61895191 9.8125 6.625 C9.859375 8.78125 9.859375 8.78125 9.5625 11.125 C9.47484375 11.8984375 9.3871875 12.671875 9.296875 13.46875 C8.8125 15.625 8.8125 15.625 6.8125 18.625 C6.1525 18.625 5.4925 18.625 4.8125 18.625 C4.8125 19.285 4.8125 19.945 4.8125 20.625 C4.1525 20.625 3.4925 20.625 2.8125 20.625 C2.8125 21.285 2.8125 21.945 2.8125 22.625 C2.1525 22.625 1.4925 22.625 0.8125 22.625 C0.8125 23.285 0.8125 23.945 0.8125 24.625 C-2.0860258 27.8040283 -4.47549033 28.96873057 -8.6875 29.25 C-12.49301666 29.06575963 -13.14205723 28.66302355 -16.25 26.0625 C-18.56405196 21.95692394 -19.14496502 20.2527476 -18.1875 15.625 C-16.19582802 12.58949993 -13.78957459 10.14345405 -11.1875 7.625 C-10.51589844 6.944375 -9.84429687 6.26375 -9.15234375 5.5625 C-6.12463429 2.66896649 -4.16637228 0.81693574 0 0 Z " fill="#A89CA8" transform="translate(283.1875,155.375)"/>
<path d="M0 0 C5.57894737 3.15789474 5.57894737 3.15789474 7 6 C7.26385085 9.09784879 7.23151467 12.20465323 7.25 15.3125 C7.270625 16.16779297 7.29125 17.02308594 7.3125 17.90429688 C7.34263285 22.76698624 7.18487429 26.05978877 4 30 C0.79062591 32.32402951 -2.11506021 32.47570691 -6 32 C-8.69990662 30.20006226 -10.5418865 28.916227 -12 26 C-12.29125335 22.73595381 -12.27787486 19.46303826 -12.3125 16.1875 C-12.34150391 15.28451172 -12.37050781 14.38152344 -12.40039062 13.45117188 C-12.44177469 9.11857818 -12.42240548 6.6854291 -10.10546875 2.92578125 C-6.71395704 -0.1762879 -4.56270805 -0.43872193 0 0 Z " fill="#A89CA8" transform="translate(205,339)"/>
<path d="M0 0 C3.03978021 0.68164768 4.80055419 2.23591662 6.93359375 4.43359375 C8.67846537 7.92333699 8.24535991 11.83782672 8.30859375 15.68359375 C8.34597656 16.53050781 8.38335937 17.37742188 8.421875 18.25 C8.4815428 22.51293307 8.34428806 25.54210932 5.69140625 29 C2.01860293 32.24101483 2.01860293 32.24101483 -1.56640625 32.12109375 C-2.6646875 32.12689453 -2.6646875 32.12689453 -3.78515625 32.1328125 C-7.4333707 31.01460978 -8.82448421 29.52496376 -11.06640625 26.43359375 C-11.79434206 22.91610929 -11.76528303 19.51415496 -11.69140625 15.93359375 C-11.71074219 14.99644531 -11.73007813 14.05929688 -11.75 13.09375 C-11.71712388 8.45821752 -11.57848252 6.13180013 -8.77734375 2.3125 C-5.44608183 0.00365708 -3.90428247 -0.24355637 0 0 Z " fill="#A79BA7" transform="translate(204.06640625,122.56640625)"/>
<path d="M0 0 C-0.04882812 3.07617188 -0.04882812 3.07617188 -0.09765625 6.15234375 C-0.20561184 8.01732141 -0.20561184 8.01732141 1 9 C2.41327947 9.15620555 3.8335459 9.25056173 5.25390625 9.31640625 C6.10791016 9.35830078 6.96191406 9.40019531 7.84179688 9.44335938 C8.73962891 9.48267578 9.63746094 9.52199219 10.5625 9.5625 C11.46419922 9.60568359 12.36589844 9.64886719 13.29492188 9.69335938 C15.52978485 9.79978142 17.76476308 9.90179988 20 10 C19.81760211 14.01275363 19.46668378 15.56788539 16.46875 18.34375 C12.24088879 20.36245851 9.11324625 20.59729166 4.5 20.5 C3.76652344 20.51546875 3.03304688 20.5309375 2.27734375 20.546875 C-2.9004269 20.50982476 -5.89708344 19.39377049 -10 16 C-11.60086627 12.79826746 -11.49917089 9.47422941 -11 6 C-7.80582815 0.99579744 -5.8019619 -0.15268321 0 0 Z " fill="#A99EA9" transform="translate(306,237)"/>
<path d="M0 0 C0.99 0.495 0.99 0.495 2 1 C-18.30065845 16.08881974 -39.88119053 25.82456753 -65 29 C-66.47533203 29.19722656 -66.47533203 29.19722656 -67.98046875 29.3984375 C-76.28160512 30.3277629 -84.66005324 30.08799475 -93 30 C-93 29.67 -93 29.34 -93 29 C-91.73027344 28.89042969 -90.46054688 28.78085937 -89.15234375 28.66796875 C-57.93256405 25.85059631 -26.37831859 17.58554572 0 0 Z " fill="#65BAFD" transform="translate(289,402)"/>
<path d="M0 0 C1.19947266 0.00451172 2.39894531 0.00902344 3.63476562 0.01367188 C6.56906359 0.02536231 9.50325449 0.04174862 12.4375 0.0625 C12.4375 0.3925 12.4375 0.7225 12.4375 1.0625 C11.70748779 1.1126123 10.97747559 1.16272461 10.2253418 1.21435547 C6.8580893 1.44911293 3.49157706 1.69325456 0.125 1.9375 C-1.02291016 2.01613281 -2.17082031 2.09476562 -3.35351562 2.17578125 C-10.53549958 2.7047659 -17.5091005 3.60440981 -24.5625 5.0625 C-23.79858398 3.10913086 -23.79858398 3.10913086 -22.5625 1.0625 C-15.14579333 -0.40243379 -7.53536959 -0.05421129 0 0 Z " fill="#CDD7E2" transform="translate(202.5625,102.9375)"/>
<path d="M0 0 C0 0.33 0 0.66 0 1 C-6.04819812 1.88902912 -11.89223486 2.12348383 -18 2.0625 C-18.87011719 2.05798828 -19.74023438 2.05347656 -20.63671875 2.04882812 C-22.75784293 2.0371736 -24.8789311 2.01924357 -27 2 C-27 1.67 -27 1.34 -27 1 C-23.81645785 0.43313574 -20.62799847 -0.09882415 -17.4375 -0.625 C-16.54224609 -0.78484375 -15.64699219 -0.9446875 -14.72460938 -1.109375 C-9.14391328 -2.00882785 -5.3028164 -2.02219885 0 0 Z " fill="#1FE9A7" transform="translate(320,448)"/>
<path d="M0 0 C1.72945653 0.14235457 3.45855654 0.28904382 5.1875 0.4375 C6.63189453 0.55931641 6.63189453 0.55931641 8.10546875 0.68359375 C11 1 11 1 13.40625 1.5 C16.70318798 2.13555431 19.96305675 2.34337754 23.3125 2.5625 C24.56675781 2.64628906 25.82101563 2.73007812 27.11328125 2.81640625 C28.54220703 2.90728516 28.54220703 2.90728516 30 3 C30 3.33 30 3.66 30 4 C27.02076997 4.02727678 24.04179621 4.04697128 21.0625 4.0625 C19.81629883 4.07506836 19.81629883 4.07506836 18.54492188 4.08789062 C4.28673986 4.14336993 4.28673986 4.14336993 0 2 C0 1.34 0 0.68 0 0 Z " fill="#C5D4E3" transform="translate(181,387)"/>
<path d="M0 0 C19.96810934 -0.18451025 19.96810934 -0.18451025 29 1 C29 1.33 29 1.66 29 2 C19.15278757 3.60505225 9.79310156 2.30359218 0 1 C0 0.67 0 0.34 0 0 Z " fill="#6FBDFE" transform="translate(198,62)"/>
<path d="M0 0 C0 0.33 0 0.66 0 1 C-1.0725 1.268125 -2.145 1.53625 -3.25 1.8125 C-6.56508928 2.86227827 -8.43877646 3.74612328 -11 6 C-10.6875 4.125 -10.6875 4.125 -10 2 C-6.3558226 -0.4294516 -4.28758728 -0.16179575 0 0 Z " fill="#20E9A5" transform="translate(397,124)"/>
</svg>
