<?xml version="1.0" encoding="UTF-8"?>
<svg version="1.1" xmlns="http://www.w3.org/2000/svg" width="512" height="512">
<path d="M0 0 C0.98595657 -0.00700928 1.97191315 -0.01401855 2.98774719 -0.02124023 C6.24350234 -0.03882985 9.49838655 -0.02719269 12.75415039 -0.01367188 C15.01949734 -0.01636671 17.28484316 -0.02024907 19.55018616 -0.02526855 C24.29724137 -0.03116512 29.04399543 -0.02259605 33.79101562 -0.00390625 C39.87196581 0.01886999 45.95220931 0.00576908 52.03313351 -0.01819611 C56.71120004 -0.03266069 61.38909948 -0.02804475 66.0671711 -0.01768494 C68.30903774 -0.01501882 70.55091962 -0.01828333 72.79276848 -0.02760315 C75.92865966 -0.03777776 79.06341222 -0.02225325 82.19921875 0 C83.1235672 -0.00809692 84.04791565 -0.01619385 85.00027466 -0.02453613 C91.76396469 0.06424857 95.00289031 1.5741905 99.97680664 6.20507812 C102.54792141 11.21198584 102.78911894 15.27109389 101.30493164 20.60742188 C100.05343951 23.99749322 98.72478541 27.33530739 97.33764648 30.67138672 C95.89227031 34.17746151 94.49019314 37.70029328 93.09008789 41.22460938 C90.13251978 48.66276265 87.15338005 56.09202943 84.16430664 63.51757812 C85.0215332 62.94007812 85.87875977 62.36257812 86.76196289 61.76757812 C87.9163692 61.01674475 89.07134805 60.26679114 90.22680664 59.51757812 C90.78819336 59.13601562 91.34958008 58.75445312 91.92797852 58.36132812 C96.15025463 55.65907141 99.1945348 54.92651303 104.16430664 55.51757812 C107.08795254 58.06639763 108.0133984 59.71273418 108.72680664 63.51757812 C107.81109001 68.40140015 104.25999723 70.72530515 100.3527832 73.55053711 C99.34699219 74.19837158 98.34120117 74.84620605 97.30493164 75.51367188 C96.75625427 75.86969986 96.2075769 76.22572784 95.64227295 76.59254456 C93.90330456 77.7192212 92.15904844 78.83736804 90.41430664 79.95507812 C88.69010787 81.06795684 86.96703568 82.18256468 85.24401855 83.29727173 C83.58303833 84.37051079 81.9195906 85.43992796 80.25610352 86.50927734 C76.75210148 88.7853292 73.29747729 91.12730766 69.86254883 93.50610352 C68.16430664 94.51757812 68.16430664 94.51757812 66.16430664 94.51757812 C66.17318909 95.58753525 66.18207153 96.65749237 66.19122314 97.75987244 C66.27247994 107.86700043 66.33235398 117.97406172 66.37155533 128.08144283 C66.39238705 133.27717187 66.42062388 138.47263618 66.46606445 143.66821289 C66.50967984 148.68678434 66.53347693 153.70510192 66.54381561 158.72384834 C66.55117887 160.63392696 66.56555744 162.54399244 66.58722687 164.45396233 C66.6164698 167.13944881 66.62025399 169.82390018 66.6184082 172.50952148 C66.63997986 173.68125664 66.63997986 173.68125664 66.6619873 174.87666321 C66.61006219 181.90624014 64.11427274 187.33985559 60.47680664 193.26757812 C53.43733404 200.11679471 45.9951606 201.66580379 36.49951172 201.67871094 C35.62580933 201.68367584 34.75210693 201.68864075 33.85192871 201.6937561 C30.96255706 201.70835537 28.07324036 201.71517687 25.18383789 201.72070312 C23.170873 201.72645748 21.15790811 201.73221518 19.14494324 201.73797607 C14.92247259 201.74848044 10.70002094 201.75432645 6.47753906 201.7578125 C1.08192192 201.76328864 -4.31344178 201.7873003 -9.70897961 201.81578445 C-13.86899026 201.83446344 -18.0289406 201.83961929 -22.18898964 201.84114838 C-24.17719212 201.84416478 -26.1653938 201.85215892 -28.15355492 201.86533356 C-30.94387102 201.88250021 -33.73357745 201.88048774 -36.52392578 201.87402344 C-37.33620132 201.88323822 -38.14847687 201.892453 -38.98536682 201.90194702 C-46.94531989 201.84454526 -54.73038432 199.80884596 -60.83569336 194.51757812 C-66.83569336 186.0072333 -66.83569336 186.0072333 -66.83569336 182.51757812 C-77.86230638 189.36724029 -88.74219316 196.41384987 -99.52319336 203.64257812 C-107.30463529 208.85878768 -115.09995371 214.03013399 -123.07861328 218.94140625 C-131.77080589 224.29907882 -140.29084218 229.92913996 -148.83569336 235.51757812 C-146.39283828 240.97961439 -142.73318221 245.10132799 -137.83569336 248.51757812 C-133.32849681 249.71157698 -129.04901811 249.61698717 -124.40991211 249.47460938 C-122.51218803 249.47457161 -122.51218803 249.47457161 -120.5761261 249.47453308 C-117.23689385 249.46964832 -113.90261174 249.42854002 -110.56427002 249.3659668 C-105.84863916 249.28305089 -101.13299859 249.25210438 -96.41670227 249.23918152 C-93.91129591 249.22962238 -91.40585759 249.19822985 -88.90104675 249.14277649 C-87.76919449 249.13344589 -86.63734222 249.1241153 -85.47119141 249.11450195 C-83.97968819 249.08710686 -83.97968819 249.08710686 -82.45805359 249.05915833 C-79.07802619 249.65002737 -77.89192903 250.81927459 -75.83569336 253.51757812 C-75.83569336 254.50757813 -75.83569336 255.49757813 -75.83569336 256.51757812 C-69.23569336 256.51757812 -62.63569336 256.51757812 -55.83569336 256.51757812 C-55.50569336 254.86757813 -55.17569336 253.21757812 -54.83569336 251.51757812 C-47.36117063 246.53456297 -32.94352771 248.73711588 -24.32006836 250.13476562 C-10.87429268 252.88771459 1.87875477 259.50973456 12.16430664 268.51757812 C12.79723633 269.03191406 13.43016602 269.54625 14.08227539 270.07617188 C17.93452449 273.23846591 21.17016684 276.52539172 24.16430664 280.51757812 C24.16430664 281.17757813 24.16430664 281.83757812 24.16430664 282.51757812 C32.56508127 281.36419308 39.19886061 279.07398234 44.97680664 272.64257812 C50.98869287 264.05416923 51.77206185 256.59333842 50.10180664 246.51757812 C48.83935255 238.42045878 49.17730562 232.96406534 53.97680664 226.20507812 C58.76815734 220.36960742 63.20961295 217.0553524 70.86352539 216.22460938 C78.35696215 215.86960661 84.06210012 217.02522288 90.16430664 221.51757812 C99.0216771 230.30004482 100.92498675 242.49544701 101.2121582 254.52148438 C101.11575226 276.4163454 92.97169074 295.18921569 77.85961914 310.91601562 C68.62700809 319.78537641 54.33170751 329.51757812 41.16430664 329.51757812 C41.49430664 331.82757813 41.82430664 334.13757813 42.16430664 336.51757812 C42.69333588 336.65681198 43.22236511 336.79604584 43.76742554 336.9394989 C49.31977906 338.40312938 54.86786504 339.88217959 60.41381836 341.36987305 C62.47853779 341.92161537 64.54428136 342.46954095 66.61108398 343.01342773 C69.59780987 343.80012931 72.58046797 344.6009131 75.56274414 345.40429688 C76.47357758 345.6409758 77.38441101 345.87765472 78.32284546 346.12150574 C90.22249508 349.36454388 98.96141524 354.08125139 105.54711914 364.75976562 C109.54878559 373.07091902 109.84825373 384.65825363 106.85180664 393.39257812 C105.16430664 396.51757812 105.16430664 396.51757812 102.16430664 398.51757812 C100.61168053 398.84023755 99.04666708 399.10581235 97.47680664 399.33007812 C92.89158501 400.16073422 89.97764468 401.71715053 86.19165039 404.34179688 C82.76375827 406.32984221 79.04332803 406.91597064 75.16430664 407.51757812 C75.7327832 407.85789062 76.30125977 408.19820313 76.88696289 408.54882812 C84.97988621 413.62886013 91.23725814 419.43682282 94.50415039 428.61523438 C96.70910893 438.30922369 95.99613802 447.80756629 91.16430664 456.51757812 C90.81368164 457.16210938 90.46305664 457.80664062 90.10180664 458.47070312 C85.76435216 465.39858181 78.34733027 469.79648691 70.60571289 472.04492188 C56.59692614 474.75702299 45.7748423 469.34584374 34.16430664 462.01757812 C33.16520264 461.39810303 32.16609863 460.77862793 31.13671875 460.14038086 C28.13877398 458.27724461 25.15026868 456.39984501 22.16430664 454.51757812 C20.91738037 453.73471436 20.91738037 453.73471436 19.64526367 452.93603516 C15.79864802 450.52042122 11.95921472 448.09383105 8.12524414 445.65820312 C1.42911971 441.40921278 -5.30534357 437.22135056 -12.03857422 433.03149414 C-12.97838135 432.44553467 -13.91818848 431.8595752 -14.88647461 431.25585938 C-15.79412221 430.69850979 -16.70176981 430.1411602 -17.63692188 429.56692123 C-19.78776541 428.1889496 -21.89410218 426.73919553 -23.95192242 425.22581863 C-32.49982548 419.01518986 -39.09034834 417.19824245 -49.83300781 417.32128906 C-51.27549561 417.30576858 -52.7179469 417.28647782 -54.16033936 417.26376343 C-58.03513511 417.21470363 -61.9078313 417.22173546 -65.78280663 417.24278545 C-69.03782317 417.25513597 -72.29246392 417.2391554 -75.54744691 417.22340798 C-83.23787126 417.18660651 -90.92728797 417.195424 -98.61767578 417.234375 C-106.50525749 417.27362046 -114.39011778 417.24025336 -122.27742416 417.17010283 C-129.09170922 417.1118419 -135.9051577 417.0970748 -142.71966332 417.11657166 C-146.77104124 417.12789144 -150.82082304 417.12427805 -154.87200356 417.07946014 C-178.83183097 416.68673168 -178.83183097 416.68673168 -199.28186703 428.19099903 C-201.70562407 430.26028139 -204.34678206 431.81369018 -207.07788086 433.45117188 C-208.00834229 434.03084717 -208.93880371 434.61052246 -209.89746094 435.20776367 C-210.82582764 435.78437744 -211.75419434 436.36099121 -212.71069336 436.95507812 C-214.77471616 438.24118231 -216.83851559 439.52764503 -218.90209961 440.81445312 C-219.9038623 441.43900391 -220.905625 442.06355469 -221.93774414 442.70703125 C-226.18318375 445.35944744 -230.41666332 448.03054892 -234.64819336 450.70507812 C-235.40664551 451.18259521 -236.16509766 451.6601123 -236.9465332 452.15209961 C-240.93440973 454.66615861 -244.90154023 457.20755561 -248.84741211 459.78710938 C-261.51912274 468.03074606 -272.5386628 475.09188324 -288.27709961 472.04492188 C-299.25710504 468.85594639 -306.20206647 462.03304703 -311.64819336 452.26757812 C-314.63336802 442.84071077 -314.47640898 433.74939274 -310.83569336 424.51757812 C-308.58239559 420.7421058 -305.93499689 417.61688166 -302.83569336 414.51757812 C-304.78475586 414.17726563 -304.78475586 414.17726563 -306.77319336 413.83007812 C-315.30021182 411.90246328 -322.46742943 407.44824723 -327.83569336 400.51757812 C-333.16890838 391.68875844 -335.1987259 383.17597282 -333.37475586 372.92773438 C-331.00443657 363.87869192 -325.54730823 356.77123804 -317.83569336 351.51757812 C-311.2142081 348.36365942 -304.22789358 346.36061757 -297.15600586 344.50195312 C-296.18082001 344.24126038 -295.20563416 343.98056763 -294.20089722 343.7119751 C-292.15971762 343.16791967 -290.11772241 342.62691565 -288.07495117 342.08886719 C-284.94599852 341.26370282 -281.82044699 340.42647844 -278.69506836 339.58789062 C-276.70307092 339.05852906 -274.71088973 338.52985837 -272.71850586 338.00195312 C-271.78620148 337.75201599 -270.85389709 337.50207886 -269.89334106 337.24456787 C-268.59080887 336.90356049 -268.59080887 336.90356049 -267.26196289 336.55566406 C-266.12139938 336.25399323 -266.12139938 336.25399323 -264.95779419 335.94622803 C-262.83569336 335.51757812 -262.83569336 335.51757812 -258.83569336 335.51757812 C-258.85889648 334.72996094 -258.88209961 333.94234375 -258.90600586 333.13085938 C-258.92405273 332.04160156 -258.94209961 330.95234375 -258.96069336 329.83007812 C-258.98389648 328.63640625 -259.00709961 327.44273437 -259.03100586 326.21289062 C-258.83500593 322.50457194 -257.95476586 319.72090434 -256.83569336 316.20507812 C-256.17690152 312.60604084 -256.2290813 310.50284967 -258.16625977 307.35644531 C-260.04222289 304.95278728 -262.02279135 302.76598044 -264.14819336 300.58007812 C-264.84235352 299.85071045 -265.53651367 299.12134277 -266.25170898 298.36987305 C-266.95618164 297.70834229 -267.6606543 297.04681152 -268.38647461 296.36523438 C-269.02238525 295.76718994 -269.6582959 295.16914551 -270.31347656 294.55297852 C-277.44030627 291.62732903 -288.86084691 297.66701444 -295.85522461 299.94726562 C-297.203558 300.38357345 -298.5520049 300.81953065 -299.90055847 301.25515747 C-303.43325444 302.39743568 -306.96430949 303.54470628 -310.49505615 304.69299316 C-313.35095126 305.62091418 -316.20795637 306.54538744 -319.06503773 307.46964836 C-325.01946165 309.39592267 -330.9729592 311.32505065 -336.92480469 313.25927734 C-338.08428619 313.63542175 -339.2437677 314.01156616 -340.43838501 314.39910889 C-342.70322943 315.14474589 -344.962922 315.90621732 -347.21713257 316.68341064 C-348.27163605 317.0465033 -349.32613953 317.40959595 -350.41259766 317.78369141 C-351.33606491 318.10749786 -352.25953217 318.43130432 -353.21098328 318.7649231 C-360.59684605 320.88287387 -367.98398215 319.87325791 -374.83569336 316.51757812 C-382.93874846 311.57748618 -386.25386549 303.45103107 -388.45084858 294.54856396 C-389.36326649 290.61464868 -390.20846295 286.66791213 -391.04272461 282.71679688 C-391.41592318 280.99085986 -391.7899364 279.26509882 -392.16471863 277.539505 C-392.94401042 273.93645112 -393.71354341 270.3314906 -394.47607422 266.72485352 C-395.44724897 262.13513853 -396.4424901 257.551047 -397.44517994 252.96812725 C-398.22108642 249.40883366 -398.98404616 245.84685672 -399.74329185 242.2839756 C-400.10496331 240.59409587 -400.47049536 238.90503703 -400.84018898 237.21689415 C-406.35857997 211.91822761 -406.35857997 211.91822761 -401.71069336 204.39257812 C-398.05066509 199.77567972 -392.43984093 198.19593223 -386.83032227 197.35083008 C-385.66957184 197.1708699 -384.50882141 196.99090973 -383.31289673 196.80549622 C-381.4563295 196.53342598 -381.4563295 196.53342598 -379.56225586 196.25585938 C-378.28337494 196.06033981 -377.00449402 195.86482025 -375.68685913 195.66337585 C-372.30491728 195.1464499 -368.92127016 194.64169087 -365.53710938 194.13952637 C-362.07692057 193.62385449 -358.61850191 193.09658274 -355.15991211 192.5703125 C-348.38685113 191.54143641 -341.61191596 190.52541555 -334.83569336 189.51757812 C-334.56638504 188.69211487 -334.29707672 187.86665161 -334.01960754 187.01617432 C-333.66347885 185.93414734 -333.30735016 184.85212036 -332.94042969 183.73730469 C-332.58862137 182.66434143 -332.23681305 181.59137817 -331.87434387 180.48590088 C-326.47935229 165.06774426 -314.97494975 154.16323321 -300.77319336 146.70507812 C-284.25149049 138.91627534 -266.6870892 138.61153473 -249.52709961 144.68945312 C-245.101276 146.47967391 -240.90615934 148.3949886 -236.83569336 150.89257812 C-233.39877243 152.75424363 -233.30605093 152.52817676 -229.83569336 151.51757812 C-228.13225542 151.35158817 -226.42154348 151.25246319 -224.71069336 151.20507812 C-223.40745117 151.14900391 -223.40745117 151.14900391 -222.07788086 151.09179688 C-212.16034519 152.39422023 -202.50533903 158.38844195 -193.56713867 162.69799805 C-191.9953518 163.45311364 -190.42078348 164.20246654 -188.84350586 164.94604492 C-168.97927303 174.31102429 -168.97927303 174.31102429 -163.83569336 182.83007812 C-161.93688979 189.83191627 -161.7926023 196.18095599 -165.41381836 202.62304688 C-168.07558728 206.16963459 -171.3836059 208.75590815 -174.83569336 211.51757812 C-170.87569336 215.47757813 -166.91569336 219.43757812 -162.83569336 223.51757812 C-156.06775256 219.86481985 -149.62759612 215.87763414 -143.21069336 211.64257812 C-141.17038013 210.30395818 -139.13001404 208.9654188 -137.08959961 207.62695312 C-136.05335449 206.94568359 -135.01710938 206.26441406 -133.94946289 205.5625 C-129.02340357 202.32738373 -124.08565466 199.11025424 -119.14819336 195.89257812 C-118.20951416 195.280354 -117.27083496 194.66812988 -116.30371094 194.03735352 C-106.82148603 187.8531514 -97.32975115 181.68359441 -87.83569336 175.51757812 C-88.75350586 175.11667969 -89.67131836 174.71578125 -90.61694336 174.30273438 C-100.09771573 169.98542394 -107.853352 165.22797658 -111.89819336 155.08007812 C-113.42305606 149.31168305 -113.30527185 143.82569783 -110.86328125 138.32861328 C-106.4686147 131.09817406 -100.54046198 127.81953702 -93.21069336 123.89257812 C-90.9683869 122.65060537 -88.72619884 121.40841884 -86.48413086 120.16601562 C-85.38681641 119.56885742 -84.28950195 118.97169922 -83.15893555 118.35644531 C-78.77595141 115.9311855 -74.47849223 113.37059176 -70.18579102 110.78955078 C-67.83569336 109.51757812 -67.83569336 109.51757812 -65.83569336 109.51757812 C-65.7312793 108.50179687 -65.62686523 107.48601562 -65.51928711 106.43945312 C-63.54222541 95.09676772 -56.33832235 85.0082832 -47.83569336 77.51757812 C-45.92365712 76.34982445 -43.98590414 75.22299362 -42.02319336 74.14257812 C-36.51503798 70.86577181 -34.71766499 67.30244794 -32.54272461 61.38476562 C-31.89684561 57.8520573 -31.92515794 55.22554704 -32.11303711 51.67773438 C-32.22697122 43.50719762 -29.52442731 36.79900952 -26.5012207 29.34008789 C-25.5804728 27.06719099 -24.69208813 24.78360378 -23.80834961 22.49609375 C-23.23074207 21.02467506 -22.65137656 19.55394499 -22.07006836 18.08398438 C-21.80635437 17.4120253 -21.54264038 16.74006622 -21.27093506 16.04774475 C-16.6967367 4.81682436 -12.05865458 -0.10539819 0 0 Z " fill="#020100" transform="translate(403.835693359375,19.482421875)"/>
<path d="M0 0 C6.6 0 13.2 0 20 0 C20.99 1.98 21.98 3.96 23 6 C25.42900959 7.21450479 27.16883074 7.20156812 29.8828125 7.32421875 C52.06526252 8.56545877 69.62395951 14.06006595 85.19921875 30.6875 C99.53055709 46.94945976 101.86594353 66.41006736 101.18359375 87.25244141 C100.53801069 96.9138666 96.6999166 105.64031228 92 114 C88.84214676 113.3622026 86.48722287 112.26098949 83.734375 110.6015625 C82.92613281 110.12203125 82.11789062 109.6425 81.28515625 109.1484375 C79.60998047 108.14178333 77.93548795 107.13399117 76.26171875 106.125 C66.18915066 100.15488833 57.09998319 96.9388927 45.2578125 99.62109375 C36.67882881 102.62774691 30.12402219 108.21807249 26 116.3125 C23.94347268 120.86113855 22.84518891 124.54802105 22.8125 129.5625 C22.79832031 130.53316406 22.78414062 131.50382813 22.76953125 132.50390625 C23.06946524 137.05375233 24.10576505 141.52882526 25 146 C-13.94 146 -52.88 146 -93 146 C-92.34 143.03 -91.68 140.06 -91 137 C-89.95852907 126.54896033 -91.51997323 118.13125712 -98 109.75 C-104.09004314 103.41532511 -111.31625207 99.77705829 -120.11157227 99.44921875 C-131.27894978 99.38617816 -138.86464677 102.45884266 -147.875 108.75 C-149.3450796 109.7749863 -150.82138904 110.79111328 -152.3046875 111.796875 C-152.94390137 112.24385742 -153.58311523 112.69083984 -154.24169922 113.15136719 C-156 114 -156 114 -159 113 C-166.22296321 101.54483179 -168.21052009 88.22985289 -168.3125 74.9375 C-168.31813965 74.2475293 -168.3237793 73.55755859 -168.32958984 72.84667969 C-168.26287967 68.19958127 -168.03280346 64.19914875 -166 60 C-163.97624207 58.79290771 -163.97624207 58.79290771 -161.46948242 57.66699219 C-156.26913449 55.1936344 -151.62177595 52.26836437 -146.8828125 49.01171875 C-146.03919662 48.43936996 -145.19558075 47.86702118 -144.32640076 47.27732849 C-142.52249561 46.05264108 -140.72038617 44.82530508 -138.91995239 43.59552002 C-136.0890501 41.66295821 -133.2523503 39.73920622 -130.41381836 37.81787109 C-122.78054454 32.64956008 -115.15479109 27.47027091 -107.53857422 22.27685547 C-103.3379313 19.41323688 -99.12946744 16.56148441 -94.91522217 13.71792603 C-93.35129685 12.6590601 -91.79059409 11.5954183 -90.23321533 10.52694702 C-88.08102082 9.05067782 -85.91897398 7.59010958 -83.75390625 6.1328125 C-82.80843178 5.4756852 -82.80843178 5.4756852 -81.84385681 4.80528259 C-77.6309479 2.00241118 -77.6309479 2.00241118 -74.82788086 1.99169922 C-73 3 -73 3 -71.27835083 5.03166199 C-68.29068578 7.61279858 -66.63058705 7.50112806 -62.71850586 7.50170898 C-61.44716293 7.51108994 -60.17582001 7.52047089 -58.86595154 7.53013611 C-57.48224208 7.51965889 -56.09853912 7.50829003 -54.71484375 7.49609375 C-53.29285101 7.49624876 -51.87085785 7.49773803 -50.4488678 7.50050354 C-47.47215037 7.50188675 -44.49591524 7.48934193 -41.51928711 7.46655273 C-37.70355697 7.43814173 -33.88862644 7.44091309 -30.07283688 7.45364285 C-27.13799709 7.46059636 -24.20334225 7.45281508 -21.26852608 7.44038582 C-19.86151399 7.43586989 -18.45448207 7.43553577 -17.04746819 7.43945122 C-15.08231206 7.44236051 -13.11715961 7.42370685 -11.15209961 7.40405273 C-9.4747599 7.39594826 -9.4747599 7.39594826 -7.76353455 7.38768005 C-5.01792613 7.22262891 -5.01792613 7.22262891 -3.24049377 5.7247467 C-1.72314312 3.71160228 -1.72314312 3.71160228 0 0 Z " fill="#FEA900" transform="translate(328,276)"/>
<path d="M0 0 C-0.41928537 2.51571219 -0.79946851 4.63128389 -2.0246582 6.8840332 C-3.1431056 9.31046214 -3.24426407 10.94459461 -3.23046875 13.60546875 C-3.22877686 14.94520752 -3.22877686 14.94520752 -3.22705078 16.31201172 C-3.21399902 17.26092285 -3.20094727 18.20983398 -3.1875 19.1875 C-3.17960449 20.16477051 -3.17170898 21.14204102 -3.16357422 22.14892578 C-3.72204256 44.36134134 -3.72204256 44.36134134 5 64 C12.46993993 70.83484382 19.15118309 72.68236132 29.2265625 72.36328125 C39.92281149 71.33351815 48.62135794 63.2175802 57 57 C61.10108886 58.62156024 63.83148167 61.5767703 66.859375 64.6640625 C67.40861633 65.21613373 67.95785767 65.76820496 68.52374268 66.33700562 C70.27059293 68.09501815 72.01034601 69.8598689 73.75 71.625 C74.93573591 72.8207708 76.1219288 74.01608865 77.30859375 75.2109375 C80.21105085 78.13540253 83.1071641 81.06601874 86 84 C82.2789194 88.19353878 77.73799797 90.97103372 73.07421875 93.99609375 C71.7421917 94.86904335 71.7421917 94.86904335 70.383255 95.7596283 C67.48749327 97.65660759 64.58763673 99.54721742 61.6875 101.4375 C57.68930549 104.05018562 53.69346586 106.66644017 49.69921875 109.28515625 C48.70373016 109.93758301 47.70824158 110.59000977 46.68258667 111.26220703 C40.51747165 115.31369649 34.40204207 119.42858286 28.33203125 123.62109375 C27.60860031 124.11929123 26.88516937 124.61748871 26.13981628 125.13078308 C22.79634204 127.43540838 19.46309297 129.7529368 16.14331055 132.09155273 C14.97088191 132.9026749 13.79813256 133.71333376 12.625 134.5234375 C11.62726563 135.22388184 10.62953125 135.92432617 9.6015625 136.64599609 C7 138 7 138 4.75488281 137.80102539 C2.65521556 136.84262135 1.3537424 135.71889051 -0.25 134.0625 C-0.77078125 133.53785156 -1.2915625 133.01320313 -1.828125 132.47265625 C-3 131 -3 131 -3 129 C-1.41033936 127.71910095 -1.41033936 127.71910095 0.84863281 126.25366211 C1.6908136 125.70226059 2.53299438 125.15085907 3.4006958 124.58274841 C4.32549744 123.98696487 5.25029907 123.39118134 6.203125 122.77734375 C7.15129089 122.1578334 8.09945679 121.53832306 9.07635498 120.90003967 C12.12998235 118.90590779 15.18949749 116.92106116 18.25 114.9375 C37.01175856 103.65519253 37.01175856 103.65519253 54 90 C54.42392157 85.33947596 54.42392157 85.33947596 52.875 81.0625 C50.02283146 79.44627116 48.26803397 79.62772216 45 80 C42.11327922 81.41517782 39.56011763 83.24783351 36.9453125 85.109375 C35.33895407 86.21692289 33.732505 87.32433934 32.12597656 88.43164062 C31.28828735 89.01631104 30.45059814 89.60098145 29.58752441 90.20336914 C25.25579073 93.21108044 20.87005969 96.1381915 16.4921875 99.078125 C14.72744127 100.26890413 12.96311889 101.46031167 11.19921875 102.65234375 C10.32571777 103.24257324 9.4522168 103.83280273 8.55224609 104.44091797 C7.22700928 105.33641357 7.22700928 105.33641357 5.875 106.25 C4.02998108 107.49614286 2.18492915 108.74223684 0.33984375 109.98828125 C-4.10714961 112.99162704 -8.55374264 115.99556473 -13 119 C-15.26657562 117.92980244 -16.90088757 117.09911243 -18.6875 115.3125 C-23.02339132 112.85158871 -28.2855944 114.53585609 -32.89584351 115.78399658 C-36.21147258 116.81321107 -39.50293532 117.89950331 -42.79296875 119.0078125 C-44.66278157 119.62530445 -46.53259457 120.24279584 -48.40241718 120.8602581 C-51.01084459 121.7241785 -53.61648364 122.5963528 -56.222229 123.46832275 C-59.44252745 124.54435589 -62.66561607 125.61194773 -65.88867188 126.6796875 C-66.51878237 126.88856472 -67.14889286 127.09744194 -67.79809761 127.31264877 C-73.37159364 129.16006408 -78.94628716 131.00385443 -84.52142334 132.84631348 C-86.7884927 133.59819783 -89.05423267 134.35410615 -91.31842041 135.11462402 C-94.32998831 136.12604115 -97.34594153 137.12314796 -100.36328125 138.1171875 C-101.23075485 138.41303741 -102.09822845 138.70888733 -102.99198914 139.01370239 C-108.19271097 140.70805491 -112.52998351 141.72636002 -118 141 C-122.43960304 137.77181534 -123.80021177 134.66159394 -125.046875 129.4140625 C-125.20395935 128.7693399 -125.3610437 128.12461731 -125.52288818 127.46035767 C-126.03771466 125.31145732 -126.52159551 123.15728686 -127 121 C-127.17297607 120.23490112 -127.34595215 119.46980225 -127.52416992 118.68151855 C-128.63129157 113.76548524 -129.68925658 108.84034629 -130.71972656 103.90771484 C-131.2569198 101.34194935 -131.80393138 98.77839938 -132.3515625 96.21484375 C-132.6985018 94.56783148 -133.04487734 92.92070033 -133.390625 91.2734375 C-133.63428802 90.13592545 -133.63428802 90.13592545 -133.88287354 88.97543335 C-134.65066265 85.26308739 -135.19248803 81.79463048 -135 78 C-134.14277344 77.90203125 -133.28554687 77.8040625 -132.40234375 77.703125 C-123.02026142 76.55334077 -123.02026142 76.55334077 -115 72 C-110.12451411 65.45658473 -110.4019837 58.4092811 -110.17578125 50.53515625 C-110 47 -110 47 -109 46 C-107.59616554 45.73888231 -106.18198139 45.53285842 -104.765625 45.3515625 C-103.44751831 45.17657227 -103.44751831 45.17657227 -102.1027832 44.99804688 C-101.16136475 44.87494141 -100.21994629 44.75183594 -99.25 44.625 C-86.93309271 43.16144908 -86.93309271 43.16144908 -75 40 C-73.02320589 37.03480883 -72.74683107 36.0436946 -72.3125 32.6875 C-69.89550816 20.12646666 -63.04151407 9.78909425 -53 2 C-36.59666727 -8.30214739 -17.14557851 -9.47518812 0 0 Z " fill="#FDA900" transform="translate(156,182)"/>
<path d="M0 0 C4.69284906 0.56503519 8.91347567 1.4834465 13.37841797 3.02539062 C14.59592743 3.44252319 15.81343689 3.85965576 17.06784058 4.28942871 C18.37603358 4.74481364 19.68414741 5.20042603 20.9921875 5.65625 C22.34726132 6.12371718 23.70249885 6.59071004 25.05789185 7.05725098 C27.88500843 8.03183963 30.71063212 9.01059966 33.53515625 9.99267578 C37.16135292 11.25335251 40.79032005 12.50581347 44.4203167 13.75550079 C47.21257876 14.7173304 50.0037659 15.68224591 52.79459 16.64823914 C54.13324578 17.11142544 55.4721408 17.57392092 56.81127548 18.03572083 C58.67452891 18.67904486 60.53627979 19.32671581 62.39794922 19.97460938 C63.45827362 20.3424353 64.51859802 20.71026123 65.61105347 21.0892334 C68 22 68 22 69 23 C69.11119069 25.80373529 69.15739808 28.5830649 69.16113281 31.38769531 C69.16858017 32.70722954 69.16858017 32.70722954 69.17617798 34.05342102 C69.19084269 36.97833017 69.1976096 39.90318505 69.203125 42.828125 C69.20887399 44.85496015 69.21463175 46.88179527 69.22039795 48.90863037 C69.23092094 53.16581476 69.23675474 57.4229802 69.24023438 61.68017578 C69.24571434 67.13568514 69.26972632 72.59094431 69.29820633 78.04637527 C69.31683226 82.23625417 69.32203834 86.42607289 69.32357025 90.61598969 C69.32659865 92.62703567 69.33463347 94.63808055 69.34775543 96.649086 C69.36481087 99.46449255 69.36293658 102.2792893 69.35644531 105.09472656 C69.3656601 105.92609634 69.37487488 106.75746613 69.3843689 107.61402893 C69.35092071 112.24533243 68.96539168 115.21557041 66 119 C62.5628009 121.57789932 59.15808156 121.05318476 55 121 C54.98541748 120.41508789 54.97083496 119.83017578 54.95581055 119.22753906 C54.8811643 116.56770603 54.78456101 113.90910552 54.6875 111.25 C54.66494141 110.32960938 54.64238281 109.40921875 54.61914062 108.4609375 C54.58369141 107.57148438 54.54824219 106.68203125 54.51171875 105.765625 C54.48553467 104.94868164 54.45935059 104.13173828 54.43237305 103.29003906 C53.90602979 100.50229219 52.90717359 99.07454138 51 97 C48.16431142 96.33740346 45.95760774 96.71832307 43 97 C40.47871644 99.52128356 40.70646931 100.51239013 40.5859375 104.0078125 C40.54726563 104.99394531 40.50859375 105.98007813 40.46875 106.99609375 C40.4378125 108.02863281 40.406875 109.06117188 40.375 110.125 C40.33632813 111.16527344 40.29765625 112.20554687 40.2578125 113.27734375 C40.16335671 115.85126402 40.08058229 118.42560805 40 121 C34.72 121 29.44 121 24 121 C23.98582031 119.53046875 23.97164063 118.0609375 23.95703125 116.546875 C23.9101302 114.61455194 23.86188282 112.68226123 23.8125 110.75 C23.80669922 109.78191406 23.80089844 108.81382812 23.79492188 107.81640625 C23.69431973 102.04430481 23.69431973 102.04430481 20.6484375 97.3203125 C17.26789507 95.63502733 15.56612581 95.89053864 12 97 C9.47871644 99.52128356 9.70646931 100.51239013 9.5859375 104.0078125 C9.54726563 104.99394531 9.50859375 105.98007813 9.46875 106.99609375 C9.4378125 108.02863281 9.406875 109.06117188 9.375 110.125 C9.33632813 111.16527344 9.29765625 112.20554687 9.2578125 113.27734375 C9.16335671 115.85126402 9.08058229 118.42560805 9 121 C3.72 121 -1.56 121 -7 121 C-7.02578125 119.53046875 -7.0515625 118.0609375 -7.078125 116.546875 C-7.1344062 114.61455364 -7.19175354 112.68226312 -7.25 110.75 C-7.26417969 109.78191406 -7.27835937 108.81382812 -7.29296875 107.81640625 C-7.42776992 102.23435223 -7.42776992 102.23435223 -9.8203125 97.32421875 C-12.09141765 95.67893154 -12.09141765 95.67893154 -15.625 96.0625 C-19.25516924 96.6750845 -19.25516924 96.6750845 -21 100 C-21.36576054 102.31923274 -21.36576054 102.31923274 -21.4140625 104.88671875 C-21.45273437 105.82451172 -21.49140625 106.76230469 -21.53125 107.72851562 C-21.5621875 108.70498047 -21.593125 109.68144531 -21.625 110.6875 C-21.68300781 112.16959961 -21.68300781 112.16959961 -21.7421875 113.68164062 C-21.83645867 116.12090707 -21.92206218 118.56016595 -22 121 C-26.234188 121.49813977 -28.27280324 121.5655097 -31.69677734 118.90283203 C-35.74928441 113.62260879 -34.7154548 106.50877622 -34.6640625 100.1796875 C-34.66743647 98.71484984 -34.67229391 97.25001492 -34.67855835 95.78518677 C-34.6859165 92.71687127 -34.67526914 89.64928509 -34.65185547 86.58105469 C-34.62351811 82.68072055 -34.63967977 78.78211842 -34.66971779 74.88184929 C-34.68795052 71.85480156 -34.68195817 68.8281512 -34.66907883 65.80109024 C-34.6657807 64.36522331 -34.66970297 62.92931838 -34.68147659 61.49349594 C-34.7611911 49.02988654 -32.10012968 38.77933234 -24.0234375 29.02734375 C-21.13794527 26.13628108 -17.95777836 23.9048302 -14.52734375 21.703125 C-8.14720736 17.40368224 -5.15297349 14.4053478 -2.625 7.1875 C-2.36589844 6.49462891 -2.10679687 5.80175781 -1.83984375 5.08789062 C-1.21044626 3.3978418 -0.60290529 1.6996798 0 0 Z " fill="#FEC4B1" transform="translate(386,84)"/>
<path d="M0 0 C4.97226076 2.18596766 9.44550083 5.07027136 14 8 C15.68304961 9.06466276 17.36667906 10.12840926 19.05078125 11.19140625 C22.80580946 13.5689601 26.55156567 15.9604455 30.29296875 18.359375 C35.62258011 21.76989319 40.98952983 25.11606691 46.375 28.4375 C48.0976828 29.50125909 49.82033864 30.56506184 51.54296875 31.62890625 C52.42001465 32.17047363 53.29706055 32.71204102 54.20068359 33.27001953 C59.36807841 36.46347493 64.52990984 39.66573549 69.6875 42.875 C70.66702637 43.48142334 71.64655273 44.08784668 72.65576172 44.71264648 C93.1219911 57.46511237 93.1219911 57.46511237 96 65 C97.13935946 70.26568831 95.84021007 74.52919031 93.28125 79.171875 C90.8583336 82.62896304 87.78659268 85.10670366 84 87 C73.84831128 88.28213044 67.74059436 86.05476427 59.5 80.3125 C57.39637971 78.92234993 55.29220296 77.5330416 53.1875 76.14453125 C52.14722656 75.44408691 51.10695313 74.74364258 50.03515625 74.02197266 C45.59442982 71.06363158 41.05254976 68.28177451 36.5 65.5 C34.78311229 64.44000276 33.06697438 63.37879018 31.3515625 62.31640625 C30.0526709 61.51227295 30.0526709 61.51227295 28.72753906 60.69189453 C21.75651344 56.3677621 14.80088106 52.01906814 7.8515625 47.66015625 C4.04544142 45.27361886 0.22792887 42.90742985 -3.6015625 40.55859375 C-4.47280762 40.01984619 -5.34405273 39.48109863 -6.24169922 38.92602539 C-7.86129987 37.92453396 -9.48506167 36.92972664 -11.11376953 35.94311523 C-16.47420397 32.61067786 -20.6337497 29.04047816 -23 23 C-23.83102678 17.85638163 -23.58386758 13.27234247 -21 8.6875 C-15.81785047 1.53119827 -8.80005968 -2.05827726 0 0 Z " fill="#FDA800" transform="translate(388,389)"/>
<path d="M0 0 C4.90713015 2.31973425 7.8111048 5.71776931 11 10 C12.83424618 15.50273853 12.96508827 20.99261641 10.4375 26.25 C5.3459598 31.99430177 -0.47867263 36.12894992 -7.0625 40 C-8.65998293 40.95775521 -10.25628397 41.91748378 -11.8515625 42.87890625 C-12.68848633 43.38309082 -13.52541016 43.88727539 -14.38769531 44.40673828 C-18.94496081 47.18624432 -23.4399954 50.06264772 -27.9375 52.9375 C-28.86626953 53.53038818 -29.79503906 54.12327637 -30.75195312 54.73413086 C-32.60921109 55.91983153 -34.46630945 57.10578224 -36.32324219 58.29199219 C-47.34102882 65.32231281 -58.40600959 72.27812664 -69.5 79.1875 C-70.85460327 80.03550171 -70.85460327 80.03550171 -72.23657227 80.90063477 C-73.49618774 81.68265259 -73.49618774 81.68265259 -74.78125 82.48046875 C-75.52439453 82.94348389 -76.26753906 83.40649902 -77.03320312 83.88354492 C-82.30352157 86.87524878 -88.12027086 86.66261196 -94 86 C-98.77519517 84.11193524 -102.0535624 80.49401421 -104.34375 75.953125 C-106.02854162 70.93886422 -105.38138062 66.38250476 -104 61.375 C-99.54440931 53.85619072 -91.98132668 49.507217 -84.5625 45.25 C-82.78244751 44.2055186 -81.00382344 43.15859939 -79.2265625 42.109375 C-78.34516602 41.58923828 -77.46376953 41.06910156 -76.55566406 40.53320312 C-72.79221199 38.2754195 -69.10976244 35.90245131 -65.4375 33.5 C-57.16619913 28.09569442 -48.82173566 22.81426892 -40.45996094 17.55126953 C-37.91055592 15.94359591 -35.36499664 14.32997817 -32.8203125 12.71484375 C-31.97130371 12.17657959 -31.12229492 11.63831543 -30.24755859 11.08374023 C-28.63257576 10.05965483 -27.01827068 9.03449949 -25.40478516 8.00805664 C-23.2769433 6.66029938 -21.13986097 5.32856246 -19 4 C-18.37746338 3.59974609 -17.75492676 3.19949219 -17.11352539 2.78710938 C-11.40039937 -0.73926031 -6.53040183 -0.89133618 0 0 Z " fill="#FDA800" transform="translate(211,390)"/>
<path d="M0 0 C29.7 0 59.4 0 90 0 C86.7 8.58 83.4 17.16 80 26 C78.79730469 29.13628906 77.59460938 32.27257812 76.35546875 35.50390625 C74.74414063 39.61132812 74.74414063 39.61132812 73.96606445 41.57836914 C73.43059922 42.94297434 72.9030348 44.3106978 72.38208008 45.6809082 C71.59999472 47.73385279 70.79330569 49.77547716 69.98046875 51.81640625 C69.52567139 52.98631104 69.07087402 54.15621582 68.60229492 55.36157227 C67 58 67 58 64.75222778 58.76660156 C61.48862422 59.04336644 59.45002087 58.4522237 56.36206055 57.37280273 C54.69828621 56.8011161 54.69828621 56.8011161 53.00090027 56.21788025 C51.80822037 55.7940657 50.61554047 55.37025116 49.38671875 54.93359375 C48.14436966 54.50248795 46.90202057 54.07138214 45.62202454 53.62721252 C42.31170434 52.47806522 39.00679494 51.314054 35.70269775 50.14715576 C33.05102656 49.21336465 30.39581754 48.28991029 27.74032402 47.36705589 C14.43267867 42.74229568 1.14888728 38.06168775 -12 33 C-11.33593207 29.08551807 -10.18446584 25.59333091 -8.75 21.89453125 C-8.3065625 20.74662109 -7.863125 19.59871094 -7.40625 18.41601562 C-6.9421875 17.22685547 -6.478125 16.03769531 -6 14.8125 C-5.5359375 13.61173828 -5.071875 12.41097656 -4.59375 11.17382812 C-1.16870301 2.33740602 -1.16870301 2.33740602 0 0 Z " fill="#4492F0" transform="translate(400,35)"/>
<path d="M0 0 C6.64604056 1.03754913 13.10338277 2.68380292 19.625 4.3125 C20.83285156 4.60833984 22.04070312 4.90417969 23.28515625 5.20898438 C47.47539004 11.23701357 47.47539004 11.23701357 53.3125 19.125 C55.68204959 23.52968694 55.54412405 28.12072369 55 33 C54.505 33.99 54.505 33.99 54 35 C53.74139865 39.05142119 53.69558446 40.54337669 56 44 C56 44.99 56 45.98 56 47 C53.953125 48.5703125 53.953125 48.5703125 51.25 50.125 C50.36828125 50.64320313 49.4865625 51.16140625 48.578125 51.6953125 C43.61991343 54.20446805 38.47657931 55.00964304 33 54 C28.56885639 51.96631466 24.57156845 49.35761629 20.5 46.6875 C19.35284765 45.95526988 18.20456187 45.22481256 17.05517578 44.49609375 C14.76620962 43.03967711 12.48538096 41.57180266 10.21191406 40.09130859 C7.32373954 38.21078997 4.42628199 36.34603671 1.5234375 34.48828125 C-2.33250868 32.01430931 -6.1717604 29.51661433 -10 27 C-8.58096247 23.40990045 -7.08310054 19.86056792 -5.5625 16.3125 C-3.32218587 10.96358431 -1.52187153 5.59256857 0 0 Z " fill="#FD8300" transform="translate(442,372)"/>
<path d="M0 0 C0.19634033 0.60996826 0.39268066 1.21993652 0.5949707 1.84838867 C1.4944048 4.63021173 2.40335224 7.40883713 3.3125 10.1875 C3.7755957 11.62706055 3.7755957 11.62706055 4.24804688 13.09570312 C6.08880773 18.70303687 6.08880773 18.70303687 8.79296875 23.92578125 C10 26 10 26 10.05859375 28.04296875 C8.42405662 31.06475141 5.9231453 32.57466083 3.0625 34.3125 C2.42368896 34.70058838 1.78487793 35.08867676 1.12670898 35.48852539 C-8.21647537 40.72160959 -18.8215626 42.87458078 -29.16015625 45.32495117 C-31.62494077 45.91084605 -34.07588484 46.53319051 -36.52734375 47.171875 C-41.76218268 48.42022804 -45.92105761 48.70684041 -51.125 46.9375 C-55.64346921 43.89244466 -59.26026194 40.21921417 -61 35 C-61.50442239 29.7325072 -61.6716659 25.36820832 -59.3125 20.5625 C-54.9728989 15.75375284 -51.15580697 13.42091852 -44.9375 11.5625 C-44.25067139 11.35568604 -43.56384277 11.14887207 -42.85620117 10.93579102 C-36.37455528 9.02356471 -29.81782441 7.40980701 -23.25195312 5.81591797 C-17.22232988 4.34370451 -11.33135898 2.63957584 -5.43359375 0.69921875 C-3 0 -3 0 0 0 Z " fill="#FC8300" transform="translate(147,370)"/>
<path d="M0 0 C3.33433981 1.02399906 6.34106242 2.49203292 9.4375 4.0859375 C10.28425293 4.50291901 11.13100586 4.91990051 12.00341797 5.34951782 C14.67850971 6.67306138 17.33875541 8.02386947 20 9.375 C21.8155525 10.27516149 23.63195253 11.17361573 25.44921875 12.0703125 C28.75493909 13.71340263 32.06044643 15.35663358 35.3515625 17.02880859 C36.00979004 17.36190033 36.66801758 17.69499207 37.34619141 18.03817749 C39 19 39 19 41 21 C41.48364258 23.84399414 41.48364258 23.84399414 41 27 C38.60424805 29.31420898 38.60424805 29.31420898 35.26171875 31.49609375 C34.6663179 31.8927272 34.07091705 32.28936066 33.45747375 32.69801331 C31.54638993 33.96436453 29.61788801 35.20082634 27.6875 36.4375 C26.43039874 37.26439111 25.17452442 38.09315072 23.91992188 38.92382812 C20.87056232 40.93604774 17.8012385 42.91507731 14.72463989 44.88531494 C13.07690918 45.95029135 11.4450982 47.03977877 9.81420898 48.13037109 C8.85716064 48.76410645 7.9001123 49.3978418 6.9140625 50.05078125 C6.08729004 50.60548096 5.26051758 51.16018066 4.40869141 51.73168945 C0.31728342 53.88604426 -3.5489821 54.11470326 -8 53 C-11.30248086 51.31115368 -13.41783088 49.14601823 -15.1171875 45.80078125 C-16.21118679 42.32999588 -16.4663316 38.98376406 -16.625 35.375 C-16.66004639 34.64442383 -16.69509277 33.91384766 -16.73120117 33.16113281 C-16.83539881 30.7744266 -16.9191524 28.3876046 -17 26 C-17.03399902 25.15276367 -17.06799805 24.30552734 -17.10302734 23.43261719 C-17.19789251 20.87173919 -17.26025345 18.31207115 -17.3125 15.75 C-17.34230957 14.95255371 -17.37211914 14.15510742 -17.40283203 13.33349609 C-17.44223548 9.40740325 -17.303887 7.48466413 -15.16796875 4.078125 C-10.28418114 -0.60327141 -6.48746413 -0.76938422 0 0 Z " fill="#FC8300" transform="translate(184,187)"/>
<path d="M0 0 C8.00061302 3.3874936 13.86784471 7.88801628 20 14 C20.70125 14.67804688 21.4025 15.35609375 22.125 16.0546875 C36.87866172 31.32703264 39.53307445 49.85550434 39.28125 70.26953125 C38.92498551 81.15163001 35.30986434 90.55540523 30 100 C26.75408363 99.35017013 24.3002408 98.16973614 21.453125 96.49609375 C20.60878906 96.00302734 19.76445312 95.50996094 18.89453125 95.00195312 C17.58548828 94.22754883 17.58548828 94.22754883 16.25 93.4375 C15.36183594 92.91736328 14.47367187 92.39722656 13.55859375 91.86132812 C11.3697574 90.57862295 9.18372019 89.29138944 7 88 C7.99 87.505 7.99 87.505 9 87 C9.8082882 85.227035 9.8082882 85.227035 10.4375 83.0625 C10.69144531 82.25039063 10.94539063 81.43828125 11.20703125 80.6015625 C11.59955078 79.31378906 11.59955078 79.31378906 12 78 C12.40798828 76.74316406 12.40798828 76.74316406 12.82421875 75.4609375 C13.08847656 74.62820313 13.35273438 73.79546875 13.625 72.9375 C13.98464844 71.80634766 13.98464844 71.80634766 14.3515625 70.65234375 C16.64875426 61.25599914 16.19469883 51.59521658 16 42 C15.98324219 41.05511719 15.96648437 40.11023438 15.94921875 39.13671875 C15.24638305 27.18851177 10.23483934 16.53479402 3.76953125 6.70703125 C2.33234721 4.5084252 1.10575266 2.37595059 0 0 Z " fill="#FC8400" transform="translate(390,290)"/>
<path d="M0 0 C5.01339037 4.35373374 5.79665329 10.61658741 6.3359375 16.9375 C6.76521018 36.34489421 1.44299079 52.65364023 -12 67 C-20.19327565 74.89335541 -29.75456572 80.12576095 -41 82 C-42.65 76.39 -44.3 70.78 -46 65 C-44.185 64.29875 -42.37 63.5975 -40.5 62.875 C-29.29229445 58.17329509 -20.9676973 51.12137765 -16.125 39.8125 C-13.61154879 33.46229049 -12.86160201 28.15217357 -12.875 21.3125 C-12.87113281 20.63638672 -12.86726563 19.96027344 -12.86328125 19.26367188 C-12.8191163 15.50647499 -12.8191163 15.50647499 -14 12 C-14.39447548 7.81855989 -14.45035186 5.69053952 -12.125 2.125 C-8.35793642 -1.64206358 -4.9659164 -1.40898025 0 0 Z " fill="#FBA600" transform="translate(483,252)"/>
<path d="M0 0 C1.084021 0.00523682 2.16804199 0.01047363 3.28491211 0.01586914 C4.45473633 0.0190918 5.62456055 0.02231445 6.82983398 0.02563477 C8.0615332 0.03401367 9.29323242 0.04239258 10.56225586 0.05102539 C12.41560547 0.05779297 12.41560547 0.05779297 14.30639648 0.06469727 C17.37089703 0.07652931 20.43530307 0.09301366 23.49975586 0.11352539 C20.72511046 7.43896999 17.9124879 14.74923994 15.07495117 22.05053711 C13.98601397 24.85399849 12.9058929 27.66067996 11.83081055 30.46948242 C10.41708749 34.15870633 8.98195545 37.83901123 7.53329468 41.51464844 C6.96963832 42.95462239 6.41299569 44.39736165 5.86343384 45.84277344 C5.08747926 47.87962123 4.28707114 49.90515931 3.48022461 51.92993164 C2.79802856 53.68478882 2.79802856 53.68478882 2.10205078 55.47509766 C0.49975586 58.11352539 0.49975586 58.11352539 -1.80053711 59.11694336 C-5.11869653 59.1127424 -7.55230122 58.36574132 -10.67602539 57.24243164 C-11.83295898 56.8331543 -12.98989258 56.42387695 -14.18188477 56.00219727 C-15.38006836 55.56456055 -16.57825195 55.12692383 -17.81274414 54.67602539 C-19.03026367 54.24225586 -20.2477832 53.80848633 -21.50219727 53.36157227 C-24.50563766 52.28975628 -27.50454755 51.20675971 -30.50024414 50.11352539 C-30.50024414 49.78352539 -30.50024414 49.45352539 -30.50024414 49.11352539 C-28.54711914 48.85310872 -26.59399414 48.59269206 -24.64086914 48.33227539 C-19.30519875 45.29444845 -17.02781683 35.65031813 -14.86352539 30.05493164 C-14.53861618 29.22517319 -14.21370697 28.39541473 -13.87895203 27.54051208 C-12.85333246 24.92038678 -11.83259679 22.29840024 -10.81274414 19.67602539 C-9.78176908 17.02882342 -8.74969203 14.3820743 -7.71440125 11.73655701 C-7.07295786 10.09716792 -6.43405598 8.45678173 -5.79792786 6.81532288 C-3.1899292 0.14484104 -3.1899292 0.14484104 0 0 Z " fill="#247DDD" transform="translate(466.500244140625,34.886474609375)"/>
<path d="M0 0 C4.97226076 2.18596766 9.44550083 5.07027136 14 8 C15.68304961 9.06466276 17.36667906 10.12840926 19.05078125 11.19140625 C22.80580946 13.5689601 26.55156567 15.9604455 30.29296875 18.359375 C35.62258011 21.76989319 40.98952983 25.11606691 46.375 28.4375 C48.0976828 29.50125909 49.82033864 30.56506184 51.54296875 31.62890625 C52.42001465 32.17047363 53.29706055 32.71204102 54.20068359 33.27001953 C59.36807841 36.46347493 64.52990984 39.66573549 69.6875 42.875 C70.66702637 43.48142334 71.64655273 44.08784668 72.65576172 44.71264648 C93.1219911 57.46511237 93.1219911 57.46511237 96 65 C97.15043604 70.31688008 95.79590091 74.54904064 93.22265625 79.234375 C91.51616801 81.69869668 89.47929577 83.34713615 87 85 C86.98582031 84.31035156 86.97164063 83.62070312 86.95703125 82.91015625 C86.55683443 75.02519737 84.91847128 68.99763232 79.28393555 63.24926758 C74.44819775 58.99971753 69.45161017 55.63405462 63.875 52.4375 C56.61425041 48.17919406 49.45690667 43.79961974 42.375 39.25 C33.03895335 33.26273448 23.61784168 27.42352862 14.15258789 21.64331055 C9.55554846 18.83040402 4.97038758 16.01702525 0.48828125 13.0234375 C-0.14980469 12.59844971 -0.78789062 12.17346191 -1.4453125 11.7355957 C-3.02756065 10.67019459 -4.59844622 9.58796703 -6.16796875 8.50390625 C-9.51376571 6.72717269 -12.2308445 6.21486872 -16 6 C-18.4212319 7.2910871 -18.4212319 7.2910871 -20 9 C-16.56157602 0.95408789 -8.20052238 -1.91804935 0 0 Z " fill="#FB8300" transform="translate(388,389)"/>
<path d="M0 0 C5.29012124 4.40843437 10.18808428 9.07559794 15 14 C11.2789194 18.19353878 6.73799797 20.97103372 2.07421875 23.99609375 C1.18620071 24.57806015 0.29818268 25.16002655 -0.616745 25.7596283 C-3.51250673 27.65660759 -6.41236327 29.54721742 -9.3125 31.4375 C-13.31069451 34.05018562 -17.30653414 36.66644017 -21.30078125 39.28515625 C-22.29626984 39.93758301 -23.29175842 40.59000977 -24.31741333 41.26220703 C-30.48252835 45.31369649 -36.59795793 49.42858286 -42.66796875 53.62109375 C-43.39139969 54.11929123 -44.11483063 54.61748871 -44.86018372 55.13078308 C-48.20365796 57.43540838 -51.53690703 59.7529368 -54.85668945 62.09155273 C-56.02911809 62.9026749 -57.20186744 63.71333376 -58.375 64.5234375 C-59.37273437 65.22388184 -60.37046875 65.92432617 -61.3984375 66.64599609 C-64 68 -64 68 -66.24511719 67.80102539 C-68.34478444 66.84262135 -69.6462576 65.71889051 -71.25 64.0625 C-71.77078125 63.53785156 -72.2915625 63.01320313 -72.828125 62.47265625 C-74 61 -74 61 -74 59 C-72.41033936 57.71910095 -72.41033936 57.71910095 -70.15136719 56.25366211 C-68.88809601 55.42655983 -68.88809601 55.42655983 -67.5993042 54.58274841 C-66.67450256 53.98696487 -65.74970093 53.39118134 -64.796875 52.77734375 C-63.84870911 52.1578334 -62.90054321 51.53832306 -61.92364502 50.90003967 C-58.87001765 48.90590779 -55.81050251 46.92106116 -52.75 44.9375 C-33.98824144 33.65519253 -33.98824144 33.65519253 -17 20 C-17.14308594 18.78183594 -17.28617188 17.56367188 -17.43359375 16.30859375 C-17.46746855 13.54872177 -17.37194833 12.42005251 -15.52001953 10.32861328 C-13.43004872 8.76923284 -11.30108883 7.39956707 -9.0625 6.0625 C-7.93038086 5.34223633 -7.93038086 5.34223633 -6.77539062 4.60742188 C-5.38595678 3.72391641 -3.98888609 2.85223196 -2.58227539 1.99633789 C-1.02090837 1.09476877 -1.02090837 1.09476877 0 0 Z " fill="#FA5729" transform="translate(227,252)"/>
<path d="M0 0 C0.99 0.495 0.99 0.495 2 1 C3.83424618 6.50273853 3.96508827 11.99261641 1.4375 17.25 C-3.6540402 22.99430177 -9.47867263 27.12894992 -16.0625 31 C-17.65998293 31.95775521 -19.25628397 32.91748378 -20.8515625 33.87890625 C-21.68848633 34.38309082 -22.52541016 34.88727539 -23.38769531 35.40673828 C-27.94496081 38.18624432 -32.4399954 41.06264772 -36.9375 43.9375 C-37.86626953 44.53038818 -38.79503906 45.12327637 -39.75195312 45.73413086 C-41.60921109 46.91983153 -43.46630945 48.10578224 -45.32324219 49.29199219 C-56.34102882 56.32231281 -67.40600959 63.27812664 -78.5 70.1875 C-79.85460327 71.03550171 -79.85460327 71.03550171 -81.23657227 71.90063477 C-82.49618774 72.68265259 -82.49618774 72.68265259 -83.78125 73.48046875 C-84.52439453 73.94348389 -85.26753906 74.40649902 -86.03320312 74.88354492 C-91.28278212 77.863476 -97.14161351 77.70210044 -103 77 C-105.93768545 75.64376855 -107.5964102 74.23970868 -110 72 C-110 71.67 -110 71.34 -110 71 C-109.27296875 70.93683594 -108.5459375 70.87367188 -107.796875 70.80859375 C-99.92305235 69.84960253 -94.40556239 67.47967518 -87.80078125 63.17041016 C-85.77691418 61.85500631 -83.73397484 60.5729084 -81.6875 59.29296875 C-77.61041311 56.73855683 -73.54752363 54.16245079 -69.48779297 51.58056641 C-65.49721209 49.04523563 -61.49832073 46.52309965 -57.5 44 C-55.91662409 43.00006741 -54.33329082 42.00006731 -52.75 41 C-43.25 35 -43.25 35 -40.87207031 33.49902344 C-39.29744818 32.50394523 -37.72386959 31.50721367 -36.15136719 30.50878906 C-32.06698979 27.91857212 -27.965528 25.36416436 -23.828125 22.859375 C-22.97798828 22.33859375 -22.12785156 21.8178125 -21.25195312 21.28125 C-19.64270889 20.29635736 -18.02724323 19.32152138 -16.40429688 18.359375 C-9.02190639 13.81239083 -3.41192075 8.02804881 0 0 Z " fill="#FB8300" transform="translate(220,399)"/>
<path d="M0 0 C1.48011371 0.30798326 2.95907325 0.621518 4.4375 0.9375 C5.26121094 1.11152344 6.08492188 1.28554687 6.93359375 1.46484375 C9 2 9 2 10 3 C10.11119069 5.80373529 10.15739808 8.5830649 10.16113281 11.38769531 C10.16609772 12.2673848 10.17106262 13.14707428 10.17617798 14.05342102 C10.19084269 16.97833017 10.1976096 19.90318505 10.203125 22.828125 C10.20887399 24.85496015 10.21463175 26.88179527 10.22039795 28.90863037 C10.23092094 33.16581476 10.23675474 37.4229802 10.24023438 41.68017578 C10.24571434 47.13568514 10.26972632 52.59094431 10.29820633 58.04637527 C10.31683226 62.23625417 10.32203834 66.42607289 10.32357025 70.61598969 C10.32659865 72.62703567 10.33463347 74.63808055 10.34775543 76.649086 C10.36481087 79.46449255 10.36293658 82.2792893 10.35644531 85.09472656 C10.37026749 86.34178123 10.37026749 86.34178123 10.3843689 87.61402893 C10.35092071 92.24533243 9.96539168 95.21557041 7 99 C3.58063208 101.56452594 0.14444215 101.15940162 -4 101 C-4.08150744 98.93816367 -4.1394194 96.87538651 -4.1875 94.8125 C-4.22230469 93.66394531 -4.25710938 92.51539063 -4.29296875 91.33203125 C-4 88 -4 88 -2.50871277 85.80342102 C-0.53704563 82.13975938 -0.55994619 78.87085624 -0.56762695 74.81323242 C-0.5574353 74.00295593 -0.54724365 73.19267944 -0.53674316 72.35784912 C-0.50664571 69.69031836 -0.49735228 67.0231469 -0.48828125 64.35546875 C-0.47143214 62.50172231 -0.45328159 60.64798727 -0.43388367 58.79426575 C-0.38640272 53.92322352 -0.35658101 49.05222756 -0.33044434 44.18103027 C-0.30062924 39.20718246 -0.25410215 34.233494 -0.20898438 29.25976562 C-0.12297291 19.50659381 -0.05561798 9.75338918 0 0 Z " fill="#F49F99" transform="translate(445,104)"/>
<path d="M0 0 C0.12368591 3.93245085 0.21437336 7.86414798 0.2746582 11.7980957 C0.31214374 13.79353555 0.37567535 15.78843052 0.43945312 17.78320312 C0.45556641 19.03681641 0.47167969 20.29042969 0.48828125 21.58203125 C0.51446533 22.73936768 0.54064941 23.8967041 0.56762695 25.08911133 C0 28 0 28 -2.40454102 29.85961914 C-7.82025654 32.23915138 -13.12694739 32.79246587 -19 32 C-23.41368853 30.14550902 -27.81021438 27.37957125 -30 23 C-30.26977539 20.55712891 -30.26977539 20.55712891 -30 18 C-28.63452148 16.42333984 -28.63452148 16.42333984 -26.68359375 15.0859375 C-25.58700439 14.33135254 -25.58700439 14.33135254 -24.46826172 13.56152344 C-20.07295891 10.78087489 -15.59739395 8.17057456 -11.0625 5.625 C-10.10537109 5.07972656 -9.14824219 4.53445312 -8.16210938 3.97265625 C-1.14773261 0 -1.14773261 0 0 0 Z " fill="#FBC2AF" transform="translate(337,147)"/>
<path d="M0 0 C6.64604056 1.03754913 13.10338277 2.68380292 19.625 4.3125 C20.83285156 4.60833984 22.04070312 4.90417969 23.28515625 5.20898438 C47.47539004 11.23701357 47.47539004 11.23701357 53.3125 19.125 C55.68204959 23.52968694 55.54412405 28.12072369 55 33 C54.505 33.99 54.505 33.99 54 35 C53.74139865 39.05142119 53.69558446 40.54337669 56 44 C56 44.99 56 45.98 56 47 C54.68 47 53.36 47 52 47 C51.99613281 45.87464844 51.99613281 45.87464844 51.9921875 44.7265625 C51.70035071 37.00261537 50.32252324 30.82750647 45 25 C39.12773061 20.31928382 32.59077672 18.37701653 25.4375 16.4375 C24.38498047 16.14157959 23.33246094 15.84565918 22.24804688 15.54077148 C19.16912794 14.67936237 16.08584141 13.83622967 13 13 C11.72600342 12.65243652 11.72600342 12.65243652 10.42626953 12.29785156 C6.29083498 11.1722919 2.15003019 10.07076099 -2 9 C-1.34 6.03 -0.68 3.06 0 0 Z " fill="#F96A00" transform="translate(442,372)"/>
<path d="M0 0 C2.04442328 3.54366701 2.26700438 5.60202629 3 10 C-35.94 10 -74.88 10 -115 10 C-114.34 7.03 -113.68 4.06 -113 1 C-112.67 2.32 -112.34 3.64 -112 5 C-99.02116375 4.89219282 -86.04237984 4.77949918 -73.06363964 4.66066074 C-67.03634051 4.60562397 -61.00903638 4.55223604 -54.98168945 4.50268555 C-49.15909689 4.45475651 -43.33655898 4.40240581 -37.51403236 4.34705925 C-35.2986418 4.32676425 -33.08323632 4.30803109 -30.86781883 4.29092598 C-27.75191267 4.26659476 -24.636107 4.2365831 -21.52026367 4.20532227 C-20.61538712 4.1995668 -19.71051056 4.19381134 -18.7782135 4.18788147 C-12.47904919 4.11659259 -6.26500519 3.65078019 0 3 C0 2.01 0 1.02 0 0 Z " fill="#FD8400" transform="translate(350,412)"/>
<path d="M0 0 C5.75 1.75 5.75 1.75 8 4 C8.48364258 6.84399414 8.48364258 6.84399414 8 10 C5.60424805 12.31420898 5.60424805 12.31420898 2.26171875 14.49609375 C1.6663179 14.8927272 1.07091705 15.28936066 0.45747375 15.69801331 C-1.45361007 16.96436453 -3.38211199 18.20082634 -5.3125 19.4375 C-6.56960126 20.26439111 -7.82547558 21.09315072 -9.08007812 21.92382812 C-12.1294961 23.93610275 -15.19895472 25.9150588 -18.27563477 27.88531494 C-19.92271088 28.95003783 -21.55362363 30.03964109 -23.18359375 31.13037109 C-24.14007813 31.76410645 -25.0965625 32.3978418 -26.08203125 33.05078125 C-26.90807861 33.60548096 -27.73412598 34.16018066 -28.58520508 34.73168945 C-32.64099544 36.86189175 -36.59025629 37.17381667 -41 36 C-43.25143158 34.51932878 -44.35419322 33.19440904 -46 31 C-45.47535156 30.77828125 -44.95070312 30.5565625 -44.41015625 30.328125 C-37.63252758 27.21560335 -31.78627693 23.15462411 -25.76757812 18.80786133 C-19.77302279 14.49249575 -13.62893285 10.46658444 -7.35717773 6.56591797 C-6.68372314 6.14068848 -6.01026855 5.71545898 -5.31640625 5.27734375 C-4.72287354 4.90859131 -4.12934082 4.53983887 -3.51782227 4.15991211 C-1.69913837 2.90003044 -1.69913837 2.90003044 0 0 Z " fill="#FB6B00" transform="translate(217,204)"/>
<path d="M0 0 C0.99 0.99 0.99 0.99 2 2 C1.99609375 3.85546875 1.99609375 3.85546875 1 6 C-0.96842158 7.68766415 -2.74207648 8.9787824 -4.9375 10.3125 C-5.89571655 10.89463257 -5.89571655 10.89463257 -6.87329102 11.48852539 C-16.21647537 16.72160959 -26.8215626 18.87458078 -37.16015625 21.32495117 C-39.62494077 21.91084605 -42.07588484 22.53319051 -44.52734375 23.171875 C-49.80000421 24.42924735 -53.96266444 24.71905961 -59.1875 22.875 C-62.59035544 20.60642971 -64.5416124 18.25374829 -67 15 C-66.44957031 15.05800781 -65.89914063 15.11601562 -65.33203125 15.17578125 C-50.53831433 15.97854108 -35.35265404 10.20475313 -21.2578125 6.19921875 C-15.8074141 4.65214605 -10.32603649 3.22601806 -4.84375 1.796875 C-2.08139551 1.11956699 -2.08139551 1.11956699 0 0 Z " fill="#FB6B00" transform="translate(155,394)"/>
<path d="M0 0 C4.20494799 1.82936913 5.24509446 3.73808654 7 8 C10.74081855 22.70349513 7.7948514 40.46036865 0.53125 53.63671875 C-7.89024149 66.63417373 -18.40414335 75.64695105 -33 81 C-34.99021558 81.38749589 -36.98939308 81.73813952 -39 82 C-39 81.34 -39 80.68 -39 80 C-38.33355469 79.67128906 -37.66710937 79.34257812 -36.98046875 79.00390625 C-19.64070737 70.05513429 -7.96830554 56.82776902 -1.7421875 38.24609375 C1.9662951 25.5677482 1.75727341 13.05403107 0 0 Z " fill="#F88200" transform="translate(481,252)"/>
<path d="M0 0 C3.47485838 2.07012839 5.74352278 4.11634312 7 8 C7.52055293 11.99090581 7.16996586 13.69523363 5.1875 17.25 C3.00736386 19.99074258 1.46430532 21.76417555 -2.0859375 22.3359375 C-6.11172399 22.40463693 -8.40531432 22.35428083 -11.9375 20.25 C-14.78206465 17.14683856 -15.82909642 15.31026074 -16.375 11.125 C-15.89861498 7.15512486 -14.46959574 5.10463464 -12 2 C-7.97297943 -0.68468038 -4.7315637 -0.68187737 0 0 Z " fill="#060605" transform="translate(99,225)"/>
<path d="M0 0 C-0.60698743 4.12751449 -2.03810791 7.3321148 -4 11 C-5.01707031 10.32904297 -5.01707031 10.32904297 -6.0546875 9.64453125 C-17.76707503 2.036346 -27.78943042 -3.51674798 -42 -3 C-30.49397773 -10.67068152 -11.18348142 -6.18034499 0 0 Z " fill="#F68100" transform="translate(156,182)"/>
<path d="M0 0 C5.29012124 4.40843437 10.18808428 9.07559794 15 14 C11.58172618 17.59977508 8.33914191 19.66353897 4 22 C-0.36574458 17.02718443 -4.70214922 12.03163018 -9 7 C-6.03 4.69 -3.06 2.38 0 0 Z " fill="#EE3410" transform="translate(227,252)"/>
<path d="M0 0 C4.01987409 2.00993705 6.14516995 3.93846389 9.25 7.125 C10.14203125 8.03507813 11.0340625 8.94515625 11.953125 9.8828125 C12.62859375 10.58148438 13.3040625 11.28015625 14 12 C12.59070303 15.47132095 11.09394917 16.88093274 7.875 18.75 C7.15054688 19.17796875 6.42609375 19.6059375 5.6796875 20.046875 C5.12539062 20.36140625 4.57109375 20.6759375 4 21 C-0.36574458 16.02718443 -4.70214922 11.03163018 -9 6 C-6.03 4.02 -3.06 2.04 0 0 Z " fill="#F78000" transform="translate(213,239)"/>
<path d="M0 0 C0.33 0 0.66 0 1 0 C1.12368591 3.93245085 1.21437336 7.86414798 1.2746582 11.7980957 C1.31214374 13.79353555 1.37567535 15.78843052 1.43945312 17.78320312 C1.45556641 19.03681641 1.47167969 20.29042969 1.48828125 21.58203125 C1.51446533 22.73936768 1.54064941 23.8967041 1.56762695 25.08911133 C1 28 1 28 -1.40478516 29.859375 C-6.83149443 32.24447243 -12.11325543 32.69414905 -18 32 C-20.65873808 30.92238757 -22.62462609 29.65243403 -25 28 C-25 27.67 -25 27.34 -25 27 C-24.26136719 26.92523438 -23.52273438 26.85046875 -22.76171875 26.7734375 C-15.61801184 25.84756951 -10.3408693 23.97461357 -4.1796875 20.2421875 C-2 19 -2 19 0 19 C0 12.73 0 6.46 0 0 Z " fill="#EF9E97" transform="translate(336,147)"/>
<path d="M0 0 C0.02685938 2.14576637 0.04633088 4.29162645 0.0625 6.4375 C0.07410156 7.63246094 0.08570312 8.82742187 0.09765625 10.05859375 C0 13 0 13 -1 14 C-3.18639453 14.07258946 -5.37500389 14.08373783 -7.5625 14.0625 C-9.35880859 14.04896484 -9.35880859 14.04896484 -11.19140625 14.03515625 C-12.11824219 14.02355469 -13.04507812 14.01195312 -14 14 C-14.66 10.04 -15.32 6.08 -16 2 C-13.52093719 1.66587842 -11.04175822 1.33266565 -8.5625 1 C-7.85544922 0.90460938 -7.14839844 0.80921875 -6.41992188 0.7109375 C-1.11328125 0 -1.11328125 0 0 0 Z " fill="#886262" transform="translate(31,231)"/>
<path d="M0 0 C0.33 0 0.66 0 1 0 C1 6.6 1 13.2 1 20 C-4.28 20 -9.56 20 -15 20 C-15 17.69 -15 15.38 -15 13 C-10.05 13.33 -5.1 13.66 0 14 C0 9.38 0 4.76 0 0 Z " fill="#EA9993" transform="translate(425,185)"/>
<path d="M0 0 C0.33 0 0.66 0 1 0 C1 6.27 1 12.54 1 19 C-4.28 19 -9.56 19 -15 19 C-15 16.69 -15 14.38 -15 12 C-10.05 12.33 -5.1 12.66 0 13 C0 8.71 0 4.42 0 0 Z " fill="#F4A19A" transform="translate(394,186)"/>
<path d="M0 0 C0.02685938 2.14576637 0.04633088 4.29162645 0.0625 6.4375 C0.07410156 7.63246094 0.08570313 8.82742187 0.09765625 10.05859375 C0 13 0 13 -1 14 C-3.18639453 14.07258946 -5.37500389 14.08373783 -7.5625 14.0625 C-9.35880859 14.04896484 -9.35880859 14.04896484 -11.19140625 14.03515625 C-12.11824219 14.02355469 -13.04507812 14.01195312 -14 14 C-14 13.67 -14 13.34 -14 13 C-11.03 13 -8.06 13 -5 13 C-4.67 9.04 -4.34 5.08 -4 1 C-1 0 -1 0 0 0 Z " fill="#654444" transform="translate(31,231)"/>
<path d="M0 0 C0 2.31 0 4.62 0 7 C-6.36363636 7.48951049 -6.36363636 7.48951049 -9.4375 5.125 C-11 3 -11 3 -11 1 C-9.35422741 0.83273455 -7.70838013 0.66620388 -6.0625 0.5 C-4.68771484 0.36078125 -4.68771484 0.36078125 -3.28515625 0.21875 C-1 0 -1 0 0 0 Z " fill="#F9A29C" transform="translate(364,198)"/>
</svg>
